<?xml version="1.0" encoding="utf-8" standalone="no"?>
<!DOCTYPE svg PUBLIC "-//W3C//DTD SVG 1.1//EN"
  "http://www.w3.org/Graphics/SVG/1.1/DTD/svg11.dtd">
<svg xmlns:xlink="http://www.w3.org/1999/xlink" width="420.004687pt" height="404.110313pt" viewBox="0 0 420.004687 404.110313" xmlns="http://www.w3.org/2000/svg" version="1.1">
 <metadata>
  <rdf:RDF xmlns:dc="http://purl.org/dc/elements/1.1/" xmlns:cc="http://creativecommons.org/ns#" xmlns:rdf="http://www.w3.org/1999/02/22-rdf-syntax-ns#">
   <cc:Work>
    <dc:type rdf:resource="http://purl.org/dc/dcmitype/StillImage"/>
    <dc:date>2022-01-12T13:39:21.969427</dc:date>
    <dc:format>image/svg+xml</dc:format>
    <dc:creator>
     <cc:Agent>
      <dc:title>Matplotlib v3.5.0, https://matplotlib.org/</dc:title>
     </cc:Agent>
    </dc:creator>
   </cc:Work>
  </rdf:RDF>
 </metadata>
 <defs>
  <style type="text/css">*{stroke-linejoin: round; stroke-linecap: butt}</style>
 </defs>
 <g id="figure_1">
  <g id="patch_1">
   <path d="M 0 404.110313 
L 420.004687 404.110313 
L 420.004687 0 
L 0 0 
z
" style="fill: #ffffff"/>
  </g>
  <g id="axes_1">
   <g id="patch_2">
    <path d="M 39.821875 367.265 
L 374.621875 367.265 
L 374.621875 34.625 
L 39.821875 34.625 
z
" style="fill: #ffffff"/>
   </g>
   <g id="line2d_1">
    <defs>
     <path id="me6cad45103" d="M 0 3 
C 0.795609 3 1.55874 2.683901 2.12132 2.12132 
C 2.683901 1.55874 3 0.795609 3 0 
C 3 -0.795609 2.683901 -1.55874 2.12132 -2.12132 
C 1.55874 -2.683901 0.795609 -3 0 -3 
C -0.795609 -3 -1.55874 -2.683901 -2.12132 -2.12132 
C -2.683901 -1.55874 -3 -0.795609 -3 0 
C -3 0.795609 -2.683901 1.55874 -2.12132 2.12132 
C -1.55874 2.683901 -0.795609 3 0 3 
z
" style="stroke: #ffffff"/>
    </defs>
    <g>
     <use xlink:href="#me6cad45103" x="39.821875" y="49.745" style="fill: #ff0000; stroke: #ffffff"/>
    </g>
   </g>
   <g id="matplotlib.axis_1">
    <g id="xtick_1">
     <g id="line2d_2">
      <path d="M 92.087835 367.265 
L 92.087835 34.625 
" clip-path="url(#p6651bcafed)" style="fill: none; stroke: #000000; stroke-width: 0.1; stroke-linecap: square"/>
     </g>
     <g id="line2d_3">
      <defs>
       <path id="md7b1323e7c" d="M 0 0 
L 0 3.5 
" style="stroke: #000000; stroke-width: 0.8"/>
      </defs>
      <g>
       <use xlink:href="#md7b1323e7c" x="92.087835" y="367.265" style="stroke: #000000; stroke-width: 0.8"/>
      </g>
     </g>
     <g id="text_1">
      <!-- 820 -->
      <g transform="translate(83.746429 381.422813)scale(0.1 -0.1)">
       <defs>
        <path id="ArialMT-38" d="M 1131 2484 
Q 781 2613 612 2850 
Q 444 3088 444 3419 
Q 444 3919 803 4259 
Q 1163 4600 1759 4600 
Q 2359 4600 2725 4251 
Q 3091 3903 3091 3403 
Q 3091 3084 2923 2848 
Q 2756 2613 2416 2484 
Q 2838 2347 3058 2040 
Q 3278 1734 3278 1309 
Q 3278 722 2862 322 
Q 2447 -78 1769 -78 
Q 1091 -78 675 323 
Q 259 725 259 1325 
Q 259 1772 486 2073 
Q 713 2375 1131 2484 
z
M 1019 3438 
Q 1019 3113 1228 2906 
Q 1438 2700 1772 2700 
Q 2097 2700 2305 2904 
Q 2513 3109 2513 3406 
Q 2513 3716 2298 3927 
Q 2084 4138 1766 4138 
Q 1444 4138 1231 3931 
Q 1019 3725 1019 3438 
z
M 838 1322 
Q 838 1081 952 856 
Q 1066 631 1291 507 
Q 1516 384 1775 384 
Q 2178 384 2440 643 
Q 2703 903 2703 1303 
Q 2703 1709 2433 1975 
Q 2163 2241 1756 2241 
Q 1359 2241 1098 1978 
Q 838 1716 838 1322 
z
" transform="scale(0.015625)"/>
        <path id="ArialMT-32" d="M 3222 541 
L 3222 0 
L 194 0 
Q 188 203 259 391 
Q 375 700 629 1000 
Q 884 1300 1366 1694 
Q 2113 2306 2375 2664 
Q 2638 3022 2638 3341 
Q 2638 3675 2398 3904 
Q 2159 4134 1775 4134 
Q 1369 4134 1125 3890 
Q 881 3647 878 3216 
L 300 3275 
Q 359 3922 746 4261 
Q 1134 4600 1788 4600 
Q 2447 4600 2831 4234 
Q 3216 3869 3216 3328 
Q 3216 3053 3103 2787 
Q 2991 2522 2730 2228 
Q 2469 1934 1863 1422 
Q 1356 997 1212 845 
Q 1069 694 975 541 
L 3222 541 
z
" transform="scale(0.015625)"/>
        <path id="ArialMT-30" d="M 266 2259 
Q 266 3072 433 3567 
Q 600 4063 929 4331 
Q 1259 4600 1759 4600 
Q 2128 4600 2406 4451 
Q 2684 4303 2865 4023 
Q 3047 3744 3150 3342 
Q 3253 2941 3253 2259 
Q 3253 1453 3087 958 
Q 2922 463 2592 192 
Q 2263 -78 1759 -78 
Q 1097 -78 719 397 
Q 266 969 266 2259 
z
M 844 2259 
Q 844 1131 1108 757 
Q 1372 384 1759 384 
Q 2147 384 2411 759 
Q 2675 1134 2675 2259 
Q 2675 3391 2411 3762 
Q 2147 4134 1753 4134 
Q 1366 4134 1134 3806 
Q 844 3388 844 2259 
z
" transform="scale(0.015625)"/>
       </defs>
       <use xlink:href="#ArialMT-38"/>
       <use xlink:href="#ArialMT-32" x="55.615234"/>
       <use xlink:href="#ArialMT-30" x="111.230469"/>
      </g>
     </g>
    </g>
    <g id="xtick_2">
     <g id="line2d_4">
      <path d="M 146.249452 367.265 
L 146.249452 34.625 
" clip-path="url(#p6651bcafed)" style="fill: none; stroke: #000000; stroke-width: 0.1; stroke-linecap: square"/>
     </g>
     <g id="line2d_5">
      <g>
       <use xlink:href="#md7b1323e7c" x="146.249452" y="367.265" style="stroke: #000000; stroke-width: 0.8"/>
      </g>
     </g>
     <g id="text_2">
      <!-- 840 -->
      <g transform="translate(137.908046 381.422813)scale(0.1 -0.1)">
       <defs>
        <path id="ArialMT-34" d="M 2069 0 
L 2069 1097 
L 81 1097 
L 81 1613 
L 2172 4581 
L 2631 4581 
L 2631 1613 
L 3250 1613 
L 3250 1097 
L 2631 1097 
L 2631 0 
L 2069 0 
z
M 2069 1613 
L 2069 3678 
L 634 1613 
L 2069 1613 
z
" transform="scale(0.015625)"/>
       </defs>
       <use xlink:href="#ArialMT-38"/>
       <use xlink:href="#ArialMT-34" x="55.615234"/>
       <use xlink:href="#ArialMT-30" x="111.230469"/>
      </g>
     </g>
    </g>
    <g id="xtick_3">
     <g id="line2d_6">
      <path d="M 200.411068 367.265 
L 200.411068 34.625 
" clip-path="url(#p6651bcafed)" style="fill: none; stroke: #000000; stroke-width: 0.1; stroke-linecap: square"/>
     </g>
     <g id="line2d_7">
      <g>
       <use xlink:href="#md7b1323e7c" x="200.411068" y="367.265" style="stroke: #000000; stroke-width: 0.8"/>
      </g>
     </g>
     <g id="text_3">
      <!-- 860 -->
      <g transform="translate(192.069662 381.422813)scale(0.1 -0.1)">
       <defs>
        <path id="ArialMT-36" d="M 3184 3459 
L 2625 3416 
Q 2550 3747 2413 3897 
Q 2184 4138 1850 4138 
Q 1581 4138 1378 3988 
Q 1113 3794 959 3422 
Q 806 3050 800 2363 
Q 1003 2672 1297 2822 
Q 1591 2972 1913 2972 
Q 2475 2972 2870 2558 
Q 3266 2144 3266 1488 
Q 3266 1056 3080 686 
Q 2894 316 2569 119 
Q 2244 -78 1831 -78 
Q 1128 -78 684 439 
Q 241 956 241 2144 
Q 241 3472 731 4075 
Q 1159 4600 1884 4600 
Q 2425 4600 2770 4297 
Q 3116 3994 3184 3459 
z
M 888 1484 
Q 888 1194 1011 928 
Q 1134 663 1356 523 
Q 1578 384 1822 384 
Q 2178 384 2434 671 
Q 2691 959 2691 1453 
Q 2691 1928 2437 2201 
Q 2184 2475 1800 2475 
Q 1419 2475 1153 2201 
Q 888 1928 888 1484 
z
" transform="scale(0.015625)"/>
       </defs>
       <use xlink:href="#ArialMT-38"/>
       <use xlink:href="#ArialMT-36" x="55.615234"/>
       <use xlink:href="#ArialMT-30" x="111.230469"/>
      </g>
     </g>
    </g>
    <g id="xtick_4">
     <g id="line2d_8">
      <path d="M 254.572685 367.265 
L 254.572685 34.625 
" clip-path="url(#p6651bcafed)" style="fill: none; stroke: #000000; stroke-width: 0.1; stroke-linecap: square"/>
     </g>
     <g id="line2d_9">
      <g>
       <use xlink:href="#md7b1323e7c" x="254.572685" y="367.265" style="stroke: #000000; stroke-width: 0.8"/>
      </g>
     </g>
     <g id="text_4">
      <!-- 880 -->
      <g transform="translate(246.231279 381.422813)scale(0.1 -0.1)">
       <use xlink:href="#ArialMT-38"/>
       <use xlink:href="#ArialMT-38" x="55.615234"/>
       <use xlink:href="#ArialMT-30" x="111.230469"/>
      </g>
     </g>
    </g>
    <g id="xtick_5">
     <g id="line2d_10">
      <path d="M 308.734302 367.265 
L 308.734302 34.625 
" clip-path="url(#p6651bcafed)" style="fill: none; stroke: #000000; stroke-width: 0.1; stroke-linecap: square"/>
     </g>
     <g id="line2d_11">
      <g>
       <use xlink:href="#md7b1323e7c" x="308.734302" y="367.265" style="stroke: #000000; stroke-width: 0.8"/>
      </g>
     </g>
     <g id="text_5">
      <!-- 900 -->
      <g transform="translate(300.392896 381.422813)scale(0.1 -0.1)">
       <defs>
        <path id="ArialMT-39" d="M 350 1059 
L 891 1109 
Q 959 728 1153 556 
Q 1347 384 1650 384 
Q 1909 384 2104 503 
Q 2300 622 2425 820 
Q 2550 1019 2634 1356 
Q 2719 1694 2719 2044 
Q 2719 2081 2716 2156 
Q 2547 1888 2255 1720 
Q 1963 1553 1622 1553 
Q 1053 1553 659 1965 
Q 266 2378 266 3053 
Q 266 3750 677 4175 
Q 1088 4600 1706 4600 
Q 2153 4600 2523 4359 
Q 2894 4119 3086 3673 
Q 3278 3228 3278 2384 
Q 3278 1506 3087 986 
Q 2897 466 2520 194 
Q 2144 -78 1638 -78 
Q 1100 -78 759 220 
Q 419 519 350 1059 
z
M 2653 3081 
Q 2653 3566 2395 3850 
Q 2138 4134 1775 4134 
Q 1400 4134 1122 3828 
Q 844 3522 844 3034 
Q 844 2597 1108 2323 
Q 1372 2050 1759 2050 
Q 2150 2050 2401 2323 
Q 2653 2597 2653 3081 
z
" transform="scale(0.015625)"/>
       </defs>
       <use xlink:href="#ArialMT-39"/>
       <use xlink:href="#ArialMT-30" x="55.615234"/>
       <use xlink:href="#ArialMT-30" x="111.230469"/>
      </g>
     </g>
    </g>
    <g id="xtick_6">
     <g id="line2d_12">
      <path d="M 362.895918 367.265 
L 362.895918 34.625 
" clip-path="url(#p6651bcafed)" style="fill: none; stroke: #000000; stroke-width: 0.1; stroke-linecap: square"/>
     </g>
     <g id="line2d_13">
      <g>
       <use xlink:href="#md7b1323e7c" x="362.895918" y="367.265" style="stroke: #000000; stroke-width: 0.8"/>
      </g>
     </g>
     <g id="text_6">
      <!-- 920 -->
      <g transform="translate(354.554512 381.422813)scale(0.1 -0.1)">
       <use xlink:href="#ArialMT-39"/>
       <use xlink:href="#ArialMT-32" x="55.615234"/>
       <use xlink:href="#ArialMT-30" x="111.230469"/>
      </g>
     </g>
    </g>
    <g id="xtick_7">
     <g id="line2d_14">
      <path d="M 48.758542 367.265 
L 48.758542 34.625 
" clip-path="url(#p6651bcafed)" style="fill: none; stroke: #d3d3d3; stroke-width: 0.1; stroke-linecap: square"/>
     </g>
     <g id="line2d_15">
      <defs>
       <path id="m80ea79e98c" d="M 0 0 
L 0 2 
" style="stroke: #000000; stroke-width: 0.6"/>
      </defs>
      <g>
       <use xlink:href="#m80ea79e98c" x="48.758542" y="367.265" style="stroke: #000000; stroke-width: 0.6"/>
      </g>
     </g>
    </g>
    <g id="xtick_8">
     <g id="line2d_16">
      <path d="M 59.590865 367.265 
L 59.590865 34.625 
" clip-path="url(#p6651bcafed)" style="fill: none; stroke: #d3d3d3; stroke-width: 0.1; stroke-linecap: square"/>
     </g>
     <g id="line2d_17">
      <g>
       <use xlink:href="#m80ea79e98c" x="59.590865" y="367.265" style="stroke: #000000; stroke-width: 0.6"/>
      </g>
     </g>
    </g>
    <g id="xtick_9">
     <g id="line2d_18">
      <path d="M 70.423188 367.265 
L 70.423188 34.625 
" clip-path="url(#p6651bcafed)" style="fill: none; stroke: #d3d3d3; stroke-width: 0.1; stroke-linecap: square"/>
     </g>
     <g id="line2d_19">
      <g>
       <use xlink:href="#m80ea79e98c" x="70.423188" y="367.265" style="stroke: #000000; stroke-width: 0.6"/>
      </g>
     </g>
    </g>
    <g id="xtick_10">
     <g id="line2d_20">
      <path d="M 81.255512 367.265 
L 81.255512 34.625 
" clip-path="url(#p6651bcafed)" style="fill: none; stroke: #d3d3d3; stroke-width: 0.1; stroke-linecap: square"/>
     </g>
     <g id="line2d_21">
      <g>
       <use xlink:href="#m80ea79e98c" x="81.255512" y="367.265" style="stroke: #000000; stroke-width: 0.6"/>
      </g>
     </g>
    </g>
    <g id="xtick_11">
     <g id="line2d_22">
      <path d="M 102.920158 367.265 
L 102.920158 34.625 
" clip-path="url(#p6651bcafed)" style="fill: none; stroke: #d3d3d3; stroke-width: 0.1; stroke-linecap: square"/>
     </g>
     <g id="line2d_23">
      <g>
       <use xlink:href="#m80ea79e98c" x="102.920158" y="367.265" style="stroke: #000000; stroke-width: 0.6"/>
      </g>
     </g>
    </g>
    <g id="xtick_12">
     <g id="line2d_24">
      <path d="M 113.752482 367.265 
L 113.752482 34.625 
" clip-path="url(#p6651bcafed)" style="fill: none; stroke: #d3d3d3; stroke-width: 0.1; stroke-linecap: square"/>
     </g>
     <g id="line2d_25">
      <g>
       <use xlink:href="#m80ea79e98c" x="113.752482" y="367.265" style="stroke: #000000; stroke-width: 0.6"/>
      </g>
     </g>
    </g>
    <g id="xtick_13">
     <g id="line2d_26">
      <path d="M 124.584805 367.265 
L 124.584805 34.625 
" clip-path="url(#p6651bcafed)" style="fill: none; stroke: #d3d3d3; stroke-width: 0.1; stroke-linecap: square"/>
     </g>
     <g id="line2d_27">
      <g>
       <use xlink:href="#m80ea79e98c" x="124.584805" y="367.265" style="stroke: #000000; stroke-width: 0.6"/>
      </g>
     </g>
    </g>
    <g id="xtick_14">
     <g id="line2d_28">
      <path d="M 135.417128 367.265 
L 135.417128 34.625 
" clip-path="url(#p6651bcafed)" style="fill: none; stroke: #d3d3d3; stroke-width: 0.1; stroke-linecap: square"/>
     </g>
     <g id="line2d_29">
      <g>
       <use xlink:href="#m80ea79e98c" x="135.417128" y="367.265" style="stroke: #000000; stroke-width: 0.6"/>
      </g>
     </g>
    </g>
    <g id="xtick_15">
     <g id="line2d_30">
      <path d="M 157.081775 367.265 
L 157.081775 34.625 
" clip-path="url(#p6651bcafed)" style="fill: none; stroke: #d3d3d3; stroke-width: 0.1; stroke-linecap: square"/>
     </g>
     <g id="line2d_31">
      <g>
       <use xlink:href="#m80ea79e98c" x="157.081775" y="367.265" style="stroke: #000000; stroke-width: 0.6"/>
      </g>
     </g>
    </g>
    <g id="xtick_16">
     <g id="line2d_32">
      <path d="M 167.914098 367.265 
L 167.914098 34.625 
" clip-path="url(#p6651bcafed)" style="fill: none; stroke: #d3d3d3; stroke-width: 0.1; stroke-linecap: square"/>
     </g>
     <g id="line2d_33">
      <g>
       <use xlink:href="#m80ea79e98c" x="167.914098" y="367.265" style="stroke: #000000; stroke-width: 0.6"/>
      </g>
     </g>
    </g>
    <g id="xtick_17">
     <g id="line2d_34">
      <path d="M 178.746422 367.265 
L 178.746422 34.625 
" clip-path="url(#p6651bcafed)" style="fill: none; stroke: #d3d3d3; stroke-width: 0.1; stroke-linecap: square"/>
     </g>
     <g id="line2d_35">
      <g>
       <use xlink:href="#m80ea79e98c" x="178.746422" y="367.265" style="stroke: #000000; stroke-width: 0.6"/>
      </g>
     </g>
    </g>
    <g id="xtick_18">
     <g id="line2d_36">
      <path d="M 189.578745 367.265 
L 189.578745 34.625 
" clip-path="url(#p6651bcafed)" style="fill: none; stroke: #d3d3d3; stroke-width: 0.1; stroke-linecap: square"/>
     </g>
     <g id="line2d_37">
      <g>
       <use xlink:href="#m80ea79e98c" x="189.578745" y="367.265" style="stroke: #000000; stroke-width: 0.6"/>
      </g>
     </g>
    </g>
    <g id="xtick_19">
     <g id="line2d_38">
      <path d="M 211.243392 367.265 
L 211.243392 34.625 
" clip-path="url(#p6651bcafed)" style="fill: none; stroke: #d3d3d3; stroke-width: 0.1; stroke-linecap: square"/>
     </g>
     <g id="line2d_39">
      <g>
       <use xlink:href="#m80ea79e98c" x="211.243392" y="367.265" style="stroke: #000000; stroke-width: 0.6"/>
      </g>
     </g>
    </g>
    <g id="xtick_20">
     <g id="line2d_40">
      <path d="M 222.075715 367.265 
L 222.075715 34.625 
" clip-path="url(#p6651bcafed)" style="fill: none; stroke: #d3d3d3; stroke-width: 0.1; stroke-linecap: square"/>
     </g>
     <g id="line2d_41">
      <g>
       <use xlink:href="#m80ea79e98c" x="222.075715" y="367.265" style="stroke: #000000; stroke-width: 0.6"/>
      </g>
     </g>
    </g>
    <g id="xtick_21">
     <g id="line2d_42">
      <path d="M 232.908038 367.265 
L 232.908038 34.625 
" clip-path="url(#p6651bcafed)" style="fill: none; stroke: #d3d3d3; stroke-width: 0.1; stroke-linecap: square"/>
     </g>
     <g id="line2d_43">
      <g>
       <use xlink:href="#m80ea79e98c" x="232.908038" y="367.265" style="stroke: #000000; stroke-width: 0.6"/>
      </g>
     </g>
    </g>
    <g id="xtick_22">
     <g id="line2d_44">
      <path d="M 243.740362 367.265 
L 243.740362 34.625 
" clip-path="url(#p6651bcafed)" style="fill: none; stroke: #d3d3d3; stroke-width: 0.1; stroke-linecap: square"/>
     </g>
     <g id="line2d_45">
      <g>
       <use xlink:href="#m80ea79e98c" x="243.740362" y="367.265" style="stroke: #000000; stroke-width: 0.6"/>
      </g>
     </g>
    </g>
    <g id="xtick_23">
     <g id="line2d_46">
      <path d="M 265.405008 367.265 
L 265.405008 34.625 
" clip-path="url(#p6651bcafed)" style="fill: none; stroke: #d3d3d3; stroke-width: 0.1; stroke-linecap: square"/>
     </g>
     <g id="line2d_47">
      <g>
       <use xlink:href="#m80ea79e98c" x="265.405008" y="367.265" style="stroke: #000000; stroke-width: 0.6"/>
      </g>
     </g>
    </g>
    <g id="xtick_24">
     <g id="line2d_48">
      <path d="M 276.237332 367.265 
L 276.237332 34.625 
" clip-path="url(#p6651bcafed)" style="fill: none; stroke: #d3d3d3; stroke-width: 0.1; stroke-linecap: square"/>
     </g>
     <g id="line2d_49">
      <g>
       <use xlink:href="#m80ea79e98c" x="276.237332" y="367.265" style="stroke: #000000; stroke-width: 0.6"/>
      </g>
     </g>
    </g>
    <g id="xtick_25">
     <g id="line2d_50">
      <path d="M 287.069655 367.265 
L 287.069655 34.625 
" clip-path="url(#p6651bcafed)" style="fill: none; stroke: #d3d3d3; stroke-width: 0.1; stroke-linecap: square"/>
     </g>
     <g id="line2d_51">
      <g>
       <use xlink:href="#m80ea79e98c" x="287.069655" y="367.265" style="stroke: #000000; stroke-width: 0.6"/>
      </g>
     </g>
    </g>
    <g id="xtick_26">
     <g id="line2d_52">
      <path d="M 297.901978 367.265 
L 297.901978 34.625 
" clip-path="url(#p6651bcafed)" style="fill: none; stroke: #d3d3d3; stroke-width: 0.1; stroke-linecap: square"/>
     </g>
     <g id="line2d_53">
      <g>
       <use xlink:href="#m80ea79e98c" x="297.901978" y="367.265" style="stroke: #000000; stroke-width: 0.6"/>
      </g>
     </g>
    </g>
    <g id="xtick_27">
     <g id="line2d_54">
      <path d="M 319.566625 367.265 
L 319.566625 34.625 
" clip-path="url(#p6651bcafed)" style="fill: none; stroke: #d3d3d3; stroke-width: 0.1; stroke-linecap: square"/>
     </g>
     <g id="line2d_55">
      <g>
       <use xlink:href="#m80ea79e98c" x="319.566625" y="367.265" style="stroke: #000000; stroke-width: 0.6"/>
      </g>
     </g>
    </g>
    <g id="xtick_28">
     <g id="line2d_56">
      <path d="M 330.398948 367.265 
L 330.398948 34.625 
" clip-path="url(#p6651bcafed)" style="fill: none; stroke: #d3d3d3; stroke-width: 0.1; stroke-linecap: square"/>
     </g>
     <g id="line2d_57">
      <g>
       <use xlink:href="#m80ea79e98c" x="330.398948" y="367.265" style="stroke: #000000; stroke-width: 0.6"/>
      </g>
     </g>
    </g>
    <g id="xtick_29">
     <g id="line2d_58">
      <path d="M 341.231272 367.265 
L 341.231272 34.625 
" clip-path="url(#p6651bcafed)" style="fill: none; stroke: #d3d3d3; stroke-width: 0.1; stroke-linecap: square"/>
     </g>
     <g id="line2d_59">
      <g>
       <use xlink:href="#m80ea79e98c" x="341.231272" y="367.265" style="stroke: #000000; stroke-width: 0.6"/>
      </g>
     </g>
    </g>
    <g id="xtick_30">
     <g id="line2d_60">
      <path d="M 352.063595 367.265 
L 352.063595 34.625 
" clip-path="url(#p6651bcafed)" style="fill: none; stroke: #d3d3d3; stroke-width: 0.1; stroke-linecap: square"/>
     </g>
     <g id="line2d_61">
      <g>
       <use xlink:href="#m80ea79e98c" x="352.063595" y="367.265" style="stroke: #000000; stroke-width: 0.6"/>
      </g>
     </g>
    </g>
    <g id="xtick_31">
     <g id="line2d_62">
      <path d="M 373.728242 367.265 
L 373.728242 34.625 
" clip-path="url(#p6651bcafed)" style="fill: none; stroke: #d3d3d3; stroke-width: 0.1; stroke-linecap: square"/>
     </g>
     <g id="line2d_63">
      <g>
       <use xlink:href="#m80ea79e98c" x="373.728242" y="367.265" style="stroke: #000000; stroke-width: 0.6"/>
      </g>
     </g>
    </g>
    <g id="text_7">
     <!-- Melting temperature ($^{\circ}$C) -->
     <g transform="translate(152.121875 394.710313)scale(0.1 -0.1)">
      <defs>
       <path id="ArialMT-4d" d="M 475 0 
L 475 4581 
L 1388 4581 
L 2472 1338 
Q 2622 884 2691 659 
Q 2769 909 2934 1394 
L 4031 4581 
L 4847 4581 
L 4847 0 
L 4263 0 
L 4263 3834 
L 2931 0 
L 2384 0 
L 1059 3900 
L 1059 0 
L 475 0 
z
" transform="scale(0.015625)"/>
       <path id="ArialMT-65" d="M 2694 1069 
L 3275 997 
Q 3138 488 2766 206 
Q 2394 -75 1816 -75 
Q 1088 -75 661 373 
Q 234 822 234 1631 
Q 234 2469 665 2931 
Q 1097 3394 1784 3394 
Q 2450 3394 2872 2941 
Q 3294 2488 3294 1666 
Q 3294 1616 3291 1516 
L 816 1516 
Q 847 969 1125 678 
Q 1403 388 1819 388 
Q 2128 388 2347 550 
Q 2566 713 2694 1069 
z
M 847 1978 
L 2700 1978 
Q 2663 2397 2488 2606 
Q 2219 2931 1791 2931 
Q 1403 2931 1139 2672 
Q 875 2413 847 1978 
z
" transform="scale(0.015625)"/>
       <path id="ArialMT-6c" d="M 409 0 
L 409 4581 
L 972 4581 
L 972 0 
L 409 0 
z
" transform="scale(0.015625)"/>
       <path id="ArialMT-74" d="M 1650 503 
L 1731 6 
Q 1494 -44 1306 -44 
Q 1000 -44 831 53 
Q 663 150 594 308 
Q 525 466 525 972 
L 525 2881 
L 113 2881 
L 113 3319 
L 525 3319 
L 525 4141 
L 1084 4478 
L 1084 3319 
L 1650 3319 
L 1650 2881 
L 1084 2881 
L 1084 941 
Q 1084 700 1114 631 
Q 1144 563 1211 522 
Q 1278 481 1403 481 
Q 1497 481 1650 503 
z
" transform="scale(0.015625)"/>
       <path id="ArialMT-69" d="M 425 3934 
L 425 4581 
L 988 4581 
L 988 3934 
L 425 3934 
z
M 425 0 
L 425 3319 
L 988 3319 
L 988 0 
L 425 0 
z
" transform="scale(0.015625)"/>
       <path id="ArialMT-6e" d="M 422 0 
L 422 3319 
L 928 3319 
L 928 2847 
Q 1294 3394 1984 3394 
Q 2284 3394 2536 3286 
Q 2788 3178 2913 3003 
Q 3038 2828 3088 2588 
Q 3119 2431 3119 2041 
L 3119 0 
L 2556 0 
L 2556 2019 
Q 2556 2363 2490 2533 
Q 2425 2703 2258 2804 
Q 2091 2906 1866 2906 
Q 1506 2906 1245 2678 
Q 984 2450 984 1813 
L 984 0 
L 422 0 
z
" transform="scale(0.015625)"/>
       <path id="ArialMT-67" d="M 319 -275 
L 866 -356 
Q 900 -609 1056 -725 
Q 1266 -881 1628 -881 
Q 2019 -881 2231 -725 
Q 2444 -569 2519 -288 
Q 2563 -116 2559 434 
Q 2191 0 1641 0 
Q 956 0 581 494 
Q 206 988 206 1678 
Q 206 2153 378 2554 
Q 550 2956 876 3175 
Q 1203 3394 1644 3394 
Q 2231 3394 2613 2919 
L 2613 3319 
L 3131 3319 
L 3131 450 
Q 3131 -325 2973 -648 
Q 2816 -972 2473 -1159 
Q 2131 -1347 1631 -1347 
Q 1038 -1347 672 -1080 
Q 306 -813 319 -275 
z
M 784 1719 
Q 784 1066 1043 766 
Q 1303 466 1694 466 
Q 2081 466 2343 764 
Q 2606 1063 2606 1700 
Q 2606 2309 2336 2618 
Q 2066 2928 1684 2928 
Q 1309 2928 1046 2623 
Q 784 2319 784 1719 
z
" transform="scale(0.015625)"/>
       <path id="ArialMT-20" transform="scale(0.015625)"/>
       <path id="ArialMT-6d" d="M 422 0 
L 422 3319 
L 925 3319 
L 925 2853 
Q 1081 3097 1340 3245 
Q 1600 3394 1931 3394 
Q 2300 3394 2536 3241 
Q 2772 3088 2869 2813 
Q 3263 3394 3894 3394 
Q 4388 3394 4653 3120 
Q 4919 2847 4919 2278 
L 4919 0 
L 4359 0 
L 4359 2091 
Q 4359 2428 4304 2576 
Q 4250 2725 4106 2815 
Q 3963 2906 3769 2906 
Q 3419 2906 3187 2673 
Q 2956 2441 2956 1928 
L 2956 0 
L 2394 0 
L 2394 2156 
Q 2394 2531 2256 2718 
Q 2119 2906 1806 2906 
Q 1569 2906 1367 2781 
Q 1166 2656 1075 2415 
Q 984 2175 984 1722 
L 984 0 
L 422 0 
z
" transform="scale(0.015625)"/>
       <path id="ArialMT-70" d="M 422 -1272 
L 422 3319 
L 934 3319 
L 934 2888 
Q 1116 3141 1344 3267 
Q 1572 3394 1897 3394 
Q 2322 3394 2647 3175 
Q 2972 2956 3137 2557 
Q 3303 2159 3303 1684 
Q 3303 1175 3120 767 
Q 2938 359 2589 142 
Q 2241 -75 1856 -75 
Q 1575 -75 1351 44 
Q 1128 163 984 344 
L 984 -1272 
L 422 -1272 
z
M 931 1641 
Q 931 1000 1190 694 
Q 1450 388 1819 388 
Q 2194 388 2461 705 
Q 2728 1022 2728 1688 
Q 2728 2322 2467 2637 
Q 2206 2953 1844 2953 
Q 1484 2953 1207 2617 
Q 931 2281 931 1641 
z
" transform="scale(0.015625)"/>
       <path id="ArialMT-72" d="M 416 0 
L 416 3319 
L 922 3319 
L 922 2816 
Q 1116 3169 1280 3281 
Q 1444 3394 1641 3394 
Q 1925 3394 2219 3213 
L 2025 2691 
Q 1819 2813 1613 2813 
Q 1428 2813 1281 2702 
Q 1134 2591 1072 2394 
Q 978 2094 978 1738 
L 978 0 
L 416 0 
z
" transform="scale(0.015625)"/>
       <path id="ArialMT-61" d="M 2588 409 
Q 2275 144 1986 34 
Q 1697 -75 1366 -75 
Q 819 -75 525 192 
Q 231 459 231 875 
Q 231 1119 342 1320 
Q 453 1522 633 1644 
Q 813 1766 1038 1828 
Q 1203 1872 1538 1913 
Q 2219 1994 2541 2106 
Q 2544 2222 2544 2253 
Q 2544 2597 2384 2738 
Q 2169 2928 1744 2928 
Q 1347 2928 1158 2789 
Q 969 2650 878 2297 
L 328 2372 
Q 403 2725 575 2942 
Q 747 3159 1072 3276 
Q 1397 3394 1825 3394 
Q 2250 3394 2515 3294 
Q 2781 3194 2906 3042 
Q 3031 2891 3081 2659 
Q 3109 2516 3109 2141 
L 3109 1391 
Q 3109 606 3145 398 
Q 3181 191 3288 0 
L 2700 0 
Q 2613 175 2588 409 
z
M 2541 1666 
Q 2234 1541 1622 1453 
Q 1275 1403 1131 1340 
Q 988 1278 909 1158 
Q 831 1038 831 891 
Q 831 666 1001 516 
Q 1172 366 1500 366 
Q 1825 366 2078 508 
Q 2331 650 2450 897 
Q 2541 1088 2541 1459 
L 2541 1666 
z
" transform="scale(0.015625)"/>
       <path id="ArialMT-75" d="M 2597 0 
L 2597 488 
Q 2209 -75 1544 -75 
Q 1250 -75 995 37 
Q 741 150 617 320 
Q 494 491 444 738 
Q 409 903 409 1263 
L 409 3319 
L 972 3319 
L 972 1478 
Q 972 1038 1006 884 
Q 1059 663 1231 536 
Q 1403 409 1656 409 
Q 1909 409 2131 539 
Q 2353 669 2445 892 
Q 2538 1116 2538 1541 
L 2538 3319 
L 3100 3319 
L 3100 0 
L 2597 0 
z
" transform="scale(0.015625)"/>
       <path id="ArialMT-28" d="M 1497 -1347 
Q 1031 -759 709 28 
Q 388 816 388 1659 
Q 388 2403 628 3084 
Q 909 3875 1497 4659 
L 1900 4659 
Q 1522 4009 1400 3731 
Q 1209 3300 1100 2831 
Q 966 2247 966 1656 
Q 966 153 1900 -1347 
L 1497 -1347 
z
" transform="scale(0.015625)"/>
       <path id="Cmsy10-b1" d="M 1600 359 
Q 1269 359 983 526 
Q 697 694 528 984 
Q 359 1275 359 1600 
Q 359 1925 528 2215 
Q 697 2506 983 2673 
Q 1269 2841 1600 2841 
Q 1931 2841 2215 2672 
Q 2500 2503 2667 2214 
Q 2834 1925 2834 1600 
Q 2834 1275 2667 986 
Q 2500 697 2215 528 
Q 1931 359 1600 359 
z
M 1600 616 
Q 2000 616 2289 908 
Q 2578 1200 2578 1600 
Q 2578 1856 2445 2086 
Q 2313 2316 2088 2450 
Q 1863 2584 1600 2584 
Q 1403 2584 1225 2507 
Q 1047 2431 906 2290 
Q 766 2150 691 1973 
Q 616 1797 616 1600 
Q 616 1200 905 908 
Q 1194 616 1600 616 
z
" transform="scale(0.015625)"/>
       <path id="ArialMT-43" d="M 3763 1606 
L 4369 1453 
Q 4178 706 3683 314 
Q 3188 -78 2472 -78 
Q 1731 -78 1267 223 
Q 803 525 561 1097 
Q 319 1669 319 2325 
Q 319 3041 592 3573 
Q 866 4106 1370 4382 
Q 1875 4659 2481 4659 
Q 3169 4659 3637 4309 
Q 4106 3959 4291 3325 
L 3694 3184 
Q 3534 3684 3231 3912 
Q 2928 4141 2469 4141 
Q 1941 4141 1586 3887 
Q 1231 3634 1087 3207 
Q 944 2781 944 2328 
Q 944 1744 1114 1308 
Q 1284 872 1643 656 
Q 2003 441 2422 441 
Q 2931 441 3284 734 
Q 3638 1028 3763 1606 
z
" transform="scale(0.015625)"/>
       <path id="ArialMT-29" d="M 791 -1347 
L 388 -1347 
Q 1322 153 1322 1656 
Q 1322 2244 1188 2822 
Q 1081 3291 891 3722 
Q 769 4003 388 4659 
L 791 4659 
Q 1378 3875 1659 3084 
Q 1900 2403 1900 1659 
Q 1900 816 1576 28 
Q 1253 -759 791 -1347 
z
" transform="scale(0.015625)"/>
      </defs>
      <use xlink:href="#ArialMT-4d" transform="translate(0 0.203125)"/>
      <use xlink:href="#ArialMT-65" transform="translate(83.300781 0.203125)"/>
      <use xlink:href="#ArialMT-6c" transform="translate(138.916016 0.203125)"/>
      <use xlink:href="#ArialMT-74" transform="translate(161.132812 0.203125)"/>
      <use xlink:href="#ArialMT-69" transform="translate(188.916016 0.203125)"/>
      <use xlink:href="#ArialMT-6e" transform="translate(211.132812 0.203125)"/>
      <use xlink:href="#ArialMT-67" transform="translate(266.748047 0.203125)"/>
      <use xlink:href="#ArialMT-20" transform="translate(322.363281 0.203125)"/>
      <use xlink:href="#ArialMT-74" transform="translate(350.146484 0.203125)"/>
      <use xlink:href="#ArialMT-65" transform="translate(377.929688 0.203125)"/>
      <use xlink:href="#ArialMT-6d" transform="translate(433.544922 0.203125)"/>
      <use xlink:href="#ArialMT-70" transform="translate(516.845703 0.203125)"/>
      <use xlink:href="#ArialMT-65" transform="translate(572.460938 0.203125)"/>
      <use xlink:href="#ArialMT-72" transform="translate(628.076172 0.203125)"/>
      <use xlink:href="#ArialMT-61" transform="translate(661.376953 0.203125)"/>
      <use xlink:href="#ArialMT-74" transform="translate(716.992188 0.203125)"/>
      <use xlink:href="#ArialMT-75" transform="translate(744.775391 0.203125)"/>
      <use xlink:href="#ArialMT-72" transform="translate(800.390625 0.203125)"/>
      <use xlink:href="#ArialMT-65" transform="translate(833.691406 0.203125)"/>
      <use xlink:href="#ArialMT-20" transform="translate(889.306641 0.203125)"/>
      <use xlink:href="#ArialMT-28" transform="translate(917.089844 0.203125)"/>
      <use xlink:href="#Cmsy10-b1" transform="translate(954.854766 38.467188)scale(0.7)"/>
      <use xlink:href="#ArialMT-43" transform="translate(996.232109 0.203125)"/>
      <use xlink:href="#ArialMT-29" transform="translate(1068.448906 0.203125)"/>
     </g>
    </g>
   </g>
   <g id="matplotlib.axis_2">
    <g id="ytick_1">
     <g id="line2d_64">
      <path d="M 39.821875 344.104886 
L 374.621875 344.104886 
" clip-path="url(#p6651bcafed)" style="fill: none; stroke: #000000; stroke-width: 0.1; stroke-linecap: square"/>
     </g>
     <g id="line2d_65">
      <defs>
       <path id="meec1a95876" d="M 0 0 
L -3.5 0 
" style="stroke: #000000; stroke-width: 0.8"/>
      </defs>
      <g>
       <use xlink:href="#meec1a95876" x="39.821875" y="344.104886" style="stroke: #000000; stroke-width: 0.8"/>
      </g>
     </g>
     <g id="text_8">
      <!-- 25 -->
      <g transform="translate(21.7 347.683793)scale(0.1 -0.1)">
       <defs>
        <path id="ArialMT-35" d="M 266 1200 
L 856 1250 
Q 922 819 1161 601 
Q 1400 384 1738 384 
Q 2144 384 2425 690 
Q 2706 997 2706 1503 
Q 2706 1984 2436 2262 
Q 2166 2541 1728 2541 
Q 1456 2541 1237 2417 
Q 1019 2294 894 2097 
L 366 2166 
L 809 4519 
L 3088 4519 
L 3088 3981 
L 1259 3981 
L 1013 2750 
Q 1425 3038 1878 3038 
Q 2478 3038 2890 2622 
Q 3303 2206 3303 1553 
Q 3303 931 2941 478 
Q 2500 -78 1738 -78 
Q 1113 -78 717 272 
Q 322 622 266 1200 
z
" transform="scale(0.015625)"/>
       </defs>
       <use xlink:href="#ArialMT-32"/>
       <use xlink:href="#ArialMT-35" x="55.615234"/>
      </g>
     </g>
    </g>
    <g id="ytick_2">
     <g id="line2d_66">
      <path d="M 39.821875 283.128961 
L 374.621875 283.128961 
" clip-path="url(#p6651bcafed)" style="fill: none; stroke: #000000; stroke-width: 0.1; stroke-linecap: square"/>
     </g>
     <g id="line2d_67">
      <g>
       <use xlink:href="#meec1a95876" x="39.821875" y="283.128961" style="stroke: #000000; stroke-width: 0.8"/>
      </g>
     </g>
     <g id="text_9">
      <!-- 26 -->
      <g transform="translate(21.7 286.707867)scale(0.1 -0.1)">
       <use xlink:href="#ArialMT-32"/>
       <use xlink:href="#ArialMT-36" x="55.615234"/>
      </g>
     </g>
    </g>
    <g id="ytick_3">
     <g id="line2d_68">
      <path d="M 39.821875 222.153036 
L 374.621875 222.153036 
" clip-path="url(#p6651bcafed)" style="fill: none; stroke: #000000; stroke-width: 0.1; stroke-linecap: square"/>
     </g>
     <g id="line2d_69">
      <g>
       <use xlink:href="#meec1a95876" x="39.821875" y="222.153036" style="stroke: #000000; stroke-width: 0.8"/>
      </g>
     </g>
     <g id="text_10">
      <!-- 27 -->
      <g transform="translate(21.7 225.731942)scale(0.1 -0.1)">
       <defs>
        <path id="ArialMT-37" d="M 303 3981 
L 303 4522 
L 3269 4522 
L 3269 4084 
Q 2831 3619 2401 2847 
Q 1972 2075 1738 1259 
Q 1569 684 1522 0 
L 944 0 
Q 953 541 1156 1306 
Q 1359 2072 1739 2783 
Q 2119 3494 2547 3981 
L 303 3981 
z
" transform="scale(0.015625)"/>
       </defs>
       <use xlink:href="#ArialMT-32"/>
       <use xlink:href="#ArialMT-37" x="55.615234"/>
      </g>
     </g>
    </g>
    <g id="ytick_4">
     <g id="line2d_70">
      <path d="M 39.821875 161.177111 
L 374.621875 161.177111 
" clip-path="url(#p6651bcafed)" style="fill: none; stroke: #000000; stroke-width: 0.1; stroke-linecap: square"/>
     </g>
     <g id="line2d_71">
      <g>
       <use xlink:href="#meec1a95876" x="39.821875" y="161.177111" style="stroke: #000000; stroke-width: 0.8"/>
      </g>
     </g>
     <g id="text_11">
      <!-- 28 -->
      <g transform="translate(21.7 164.756017)scale(0.1 -0.1)">
       <use xlink:href="#ArialMT-32"/>
       <use xlink:href="#ArialMT-38" x="55.615234"/>
      </g>
     </g>
    </g>
    <g id="ytick_5">
     <g id="line2d_72">
      <path d="M 39.821875 100.201186 
L 374.621875 100.201186 
" clip-path="url(#p6651bcafed)" style="fill: none; stroke: #000000; stroke-width: 0.1; stroke-linecap: square"/>
     </g>
     <g id="line2d_73">
      <g>
       <use xlink:href="#meec1a95876" x="39.821875" y="100.201186" style="stroke: #000000; stroke-width: 0.8"/>
      </g>
     </g>
     <g id="text_12">
      <!-- 29 -->
      <g transform="translate(21.7 103.780092)scale(0.1 -0.1)">
       <use xlink:href="#ArialMT-32"/>
       <use xlink:href="#ArialMT-39" x="55.615234"/>
      </g>
     </g>
    </g>
    <g id="ytick_6">
     <g id="line2d_74">
      <path d="M 39.821875 39.225261 
L 374.621875 39.225261 
" clip-path="url(#p6651bcafed)" style="fill: none; stroke: #000000; stroke-width: 0.1; stroke-linecap: square"/>
     </g>
     <g id="line2d_75">
      <g>
       <use xlink:href="#meec1a95876" x="39.821875" y="39.225261" style="stroke: #000000; stroke-width: 0.8"/>
      </g>
     </g>
     <g id="text_13">
      <!-- 30 -->
      <g transform="translate(21.7 42.804167)scale(0.1 -0.1)">
       <defs>
        <path id="ArialMT-33" d="M 269 1209 
L 831 1284 
Q 928 806 1161 595 
Q 1394 384 1728 384 
Q 2125 384 2398 659 
Q 2672 934 2672 1341 
Q 2672 1728 2419 1979 
Q 2166 2231 1775 2231 
Q 1616 2231 1378 2169 
L 1441 2663 
Q 1497 2656 1531 2656 
Q 1891 2656 2178 2843 
Q 2466 3031 2466 3422 
Q 2466 3731 2256 3934 
Q 2047 4138 1716 4138 
Q 1388 4138 1169 3931 
Q 950 3725 888 3313 
L 325 3413 
Q 428 3978 793 4289 
Q 1159 4600 1703 4600 
Q 2078 4600 2393 4439 
Q 2709 4278 2876 4000 
Q 3044 3722 3044 3409 
Q 3044 3113 2884 2869 
Q 2725 2625 2413 2481 
Q 2819 2388 3044 2092 
Q 3269 1797 3269 1353 
Q 3269 753 2831 336 
Q 2394 -81 1725 -81 
Q 1122 -81 723 278 
Q 325 638 269 1209 
z
" transform="scale(0.015625)"/>
       </defs>
       <use xlink:href="#ArialMT-33"/>
       <use xlink:href="#ArialMT-30" x="55.615234"/>
      </g>
     </g>
    </g>
    <g id="ytick_7">
     <g id="line2d_76">
      <path d="M 39.821875 356.300071 
L 374.621875 356.300071 
" clip-path="url(#p6651bcafed)" style="fill: none; stroke: #d3d3d3; stroke-width: 0.1; stroke-linecap: square"/>
     </g>
     <g id="line2d_77">
      <defs>
       <path id="m41f9a1d61a" d="M 0 0 
L -2 0 
" style="stroke: #000000; stroke-width: 0.6"/>
      </defs>
      <g>
       <use xlink:href="#m41f9a1d61a" x="39.821875" y="356.300071" style="stroke: #000000; stroke-width: 0.6"/>
      </g>
     </g>
    </g>
    <g id="ytick_8">
     <g id="line2d_78">
      <path d="M 39.821875 331.909701 
L 374.621875 331.909701 
" clip-path="url(#p6651bcafed)" style="fill: none; stroke: #d3d3d3; stroke-width: 0.1; stroke-linecap: square"/>
     </g>
     <g id="line2d_79">
      <g>
       <use xlink:href="#m41f9a1d61a" x="39.821875" y="331.909701" style="stroke: #000000; stroke-width: 0.6"/>
      </g>
     </g>
    </g>
    <g id="ytick_9">
     <g id="line2d_80">
      <path d="M 39.821875 319.714516 
L 374.621875 319.714516 
" clip-path="url(#p6651bcafed)" style="fill: none; stroke: #d3d3d3; stroke-width: 0.1; stroke-linecap: square"/>
     </g>
     <g id="line2d_81">
      <g>
       <use xlink:href="#m41f9a1d61a" x="39.821875" y="319.714516" style="stroke: #000000; stroke-width: 0.6"/>
      </g>
     </g>
    </g>
    <g id="ytick_10">
     <g id="line2d_82">
      <path d="M 39.821875 307.519331 
L 374.621875 307.519331 
" clip-path="url(#p6651bcafed)" style="fill: none; stroke: #d3d3d3; stroke-width: 0.1; stroke-linecap: square"/>
     </g>
     <g id="line2d_83">
      <g>
       <use xlink:href="#m41f9a1d61a" x="39.821875" y="307.519331" style="stroke: #000000; stroke-width: 0.6"/>
      </g>
     </g>
    </g>
    <g id="ytick_11">
     <g id="line2d_84">
      <path d="M 39.821875 295.324146 
L 374.621875 295.324146 
" clip-path="url(#p6651bcafed)" style="fill: none; stroke: #d3d3d3; stroke-width: 0.1; stroke-linecap: square"/>
     </g>
     <g id="line2d_85">
      <g>
       <use xlink:href="#m41f9a1d61a" x="39.821875" y="295.324146" style="stroke: #000000; stroke-width: 0.6"/>
      </g>
     </g>
    </g>
    <g id="ytick_12">
     <g id="line2d_86">
      <path d="M 39.821875 270.933776 
L 374.621875 270.933776 
" clip-path="url(#p6651bcafed)" style="fill: none; stroke: #d3d3d3; stroke-width: 0.1; stroke-linecap: square"/>
     </g>
     <g id="line2d_87">
      <g>
       <use xlink:href="#m41f9a1d61a" x="39.821875" y="270.933776" style="stroke: #000000; stroke-width: 0.6"/>
      </g>
     </g>
    </g>
    <g id="ytick_13">
     <g id="line2d_88">
      <path d="M 39.821875 258.738591 
L 374.621875 258.738591 
" clip-path="url(#p6651bcafed)" style="fill: none; stroke: #d3d3d3; stroke-width: 0.1; stroke-linecap: square"/>
     </g>
     <g id="line2d_89">
      <g>
       <use xlink:href="#m41f9a1d61a" x="39.821875" y="258.738591" style="stroke: #000000; stroke-width: 0.6"/>
      </g>
     </g>
    </g>
    <g id="ytick_14">
     <g id="line2d_90">
      <path d="M 39.821875 246.543406 
L 374.621875 246.543406 
" clip-path="url(#p6651bcafed)" style="fill: none; stroke: #d3d3d3; stroke-width: 0.1; stroke-linecap: square"/>
     </g>
     <g id="line2d_91">
      <g>
       <use xlink:href="#m41f9a1d61a" x="39.821875" y="246.543406" style="stroke: #000000; stroke-width: 0.6"/>
      </g>
     </g>
    </g>
    <g id="ytick_15">
     <g id="line2d_92">
      <path d="M 39.821875 234.348221 
L 374.621875 234.348221 
" clip-path="url(#p6651bcafed)" style="fill: none; stroke: #d3d3d3; stroke-width: 0.1; stroke-linecap: square"/>
     </g>
     <g id="line2d_93">
      <g>
       <use xlink:href="#m41f9a1d61a" x="39.821875" y="234.348221" style="stroke: #000000; stroke-width: 0.6"/>
      </g>
     </g>
    </g>
    <g id="ytick_16">
     <g id="line2d_94">
      <path d="M 39.821875 209.957851 
L 374.621875 209.957851 
" clip-path="url(#p6651bcafed)" style="fill: none; stroke: #d3d3d3; stroke-width: 0.1; stroke-linecap: square"/>
     </g>
     <g id="line2d_95">
      <g>
       <use xlink:href="#m41f9a1d61a" x="39.821875" y="209.957851" style="stroke: #000000; stroke-width: 0.6"/>
      </g>
     </g>
    </g>
    <g id="ytick_17">
     <g id="line2d_96">
      <path d="M 39.821875 197.762666 
L 374.621875 197.762666 
" clip-path="url(#p6651bcafed)" style="fill: none; stroke: #d3d3d3; stroke-width: 0.1; stroke-linecap: square"/>
     </g>
     <g id="line2d_97">
      <g>
       <use xlink:href="#m41f9a1d61a" x="39.821875" y="197.762666" style="stroke: #000000; stroke-width: 0.6"/>
      </g>
     </g>
    </g>
    <g id="ytick_18">
     <g id="line2d_98">
      <path d="M 39.821875 185.567481 
L 374.621875 185.567481 
" clip-path="url(#p6651bcafed)" style="fill: none; stroke: #d3d3d3; stroke-width: 0.1; stroke-linecap: square"/>
     </g>
     <g id="line2d_99">
      <g>
       <use xlink:href="#m41f9a1d61a" x="39.821875" y="185.567481" style="stroke: #000000; stroke-width: 0.6"/>
      </g>
     </g>
    </g>
    <g id="ytick_19">
     <g id="line2d_100">
      <path d="M 39.821875 173.372296 
L 374.621875 173.372296 
" clip-path="url(#p6651bcafed)" style="fill: none; stroke: #d3d3d3; stroke-width: 0.1; stroke-linecap: square"/>
     </g>
     <g id="line2d_101">
      <g>
       <use xlink:href="#m41f9a1d61a" x="39.821875" y="173.372296" style="stroke: #000000; stroke-width: 0.6"/>
      </g>
     </g>
    </g>
    <g id="ytick_20">
     <g id="line2d_102">
      <path d="M 39.821875 148.981926 
L 374.621875 148.981926 
" clip-path="url(#p6651bcafed)" style="fill: none; stroke: #d3d3d3; stroke-width: 0.1; stroke-linecap: square"/>
     </g>
     <g id="line2d_103">
      <g>
       <use xlink:href="#m41f9a1d61a" x="39.821875" y="148.981926" style="stroke: #000000; stroke-width: 0.6"/>
      </g>
     </g>
    </g>
    <g id="ytick_21">
     <g id="line2d_104">
      <path d="M 39.821875 136.786741 
L 374.621875 136.786741 
" clip-path="url(#p6651bcafed)" style="fill: none; stroke: #d3d3d3; stroke-width: 0.1; stroke-linecap: square"/>
     </g>
     <g id="line2d_105">
      <g>
       <use xlink:href="#m41f9a1d61a" x="39.821875" y="136.786741" style="stroke: #000000; stroke-width: 0.6"/>
      </g>
     </g>
    </g>
    <g id="ytick_22">
     <g id="line2d_106">
      <path d="M 39.821875 124.591556 
L 374.621875 124.591556 
" clip-path="url(#p6651bcafed)" style="fill: none; stroke: #d3d3d3; stroke-width: 0.1; stroke-linecap: square"/>
     </g>
     <g id="line2d_107">
      <g>
       <use xlink:href="#m41f9a1d61a" x="39.821875" y="124.591556" style="stroke: #000000; stroke-width: 0.6"/>
      </g>
     </g>
    </g>
    <g id="ytick_23">
     <g id="line2d_108">
      <path d="M 39.821875 112.396371 
L 374.621875 112.396371 
" clip-path="url(#p6651bcafed)" style="fill: none; stroke: #d3d3d3; stroke-width: 0.1; stroke-linecap: square"/>
     </g>
     <g id="line2d_109">
      <g>
       <use xlink:href="#m41f9a1d61a" x="39.821875" y="112.396371" style="stroke: #000000; stroke-width: 0.6"/>
      </g>
     </g>
    </g>
    <g id="ytick_24">
     <g id="line2d_110">
      <path d="M 39.821875 88.006001 
L 374.621875 88.006001 
" clip-path="url(#p6651bcafed)" style="fill: none; stroke: #d3d3d3; stroke-width: 0.1; stroke-linecap: square"/>
     </g>
     <g id="line2d_111">
      <g>
       <use xlink:href="#m41f9a1d61a" x="39.821875" y="88.006001" style="stroke: #000000; stroke-width: 0.6"/>
      </g>
     </g>
    </g>
    <g id="ytick_25">
     <g id="line2d_112">
      <path d="M 39.821875 75.810816 
L 374.621875 75.810816 
" clip-path="url(#p6651bcafed)" style="fill: none; stroke: #d3d3d3; stroke-width: 0.1; stroke-linecap: square"/>
     </g>
     <g id="line2d_113">
      <g>
       <use xlink:href="#m41f9a1d61a" x="39.821875" y="75.810816" style="stroke: #000000; stroke-width: 0.6"/>
      </g>
     </g>
    </g>
    <g id="ytick_26">
     <g id="line2d_114">
      <path d="M 39.821875 63.615631 
L 374.621875 63.615631 
" clip-path="url(#p6651bcafed)" style="fill: none; stroke: #d3d3d3; stroke-width: 0.1; stroke-linecap: square"/>
     </g>
     <g id="line2d_115">
      <g>
       <use xlink:href="#m41f9a1d61a" x="39.821875" y="63.615631" style="stroke: #000000; stroke-width: 0.6"/>
      </g>
     </g>
    </g>
    <g id="ytick_27">
     <g id="line2d_116">
      <path d="M 39.821875 51.420446 
L 374.621875 51.420446 
" clip-path="url(#p6651bcafed)" style="fill: none; stroke: #d3d3d3; stroke-width: 0.1; stroke-linecap: square"/>
     </g>
     <g id="line2d_117">
      <g>
       <use xlink:href="#m41f9a1d61a" x="39.821875" y="51.420446" style="stroke: #000000; stroke-width: 0.6"/>
      </g>
     </g>
    </g>
    <g id="text_14">
     <!-- $\Delta H_{fus}$ (kJ/mol) -->
     <g transform="translate(14.5 234.145)rotate(-90)scale(0.1 -0.1)">
      <defs>
       <path id="Cmr10-a2" d="M 347 0 
Q 294 0 294 50 
Q 297 56 298 59 
Q 300 63 300 72 
L 2503 4513 
Q 2531 4581 2619 4581 
L 2706 4581 
Q 2794 4581 2822 4513 
L 5025 72 
Q 5028 66 5029 61 
Q 5031 56 5031 50 
Q 5031 0 4978 0 
L 347 0 
z
M 769 513 
L 4141 513 
L 2456 3909 
L 769 513 
z
" transform="scale(0.015625)"/>
       <path id="Cmmi10-48" d="M 300 0 
Q 238 0 238 84 
Q 241 100 250 139 
Q 259 178 276 201 
Q 294 225 319 225 
Q 709 225 863 269 
Q 947 297 984 441 
L 1863 3956 
Q 1875 4019 1875 4044 
Q 1875 4113 1797 4122 
Q 1678 4147 1338 4147 
Q 1275 4147 1275 4231 
Q 1297 4313 1309 4342 
Q 1322 4372 1381 4372 
L 3103 4372 
Q 3169 4372 3169 4288 
Q 3166 4272 3156 4234 
Q 3147 4197 3131 4172 
Q 3116 4147 3084 4147 
Q 2694 4147 2541 4103 
Q 2456 4072 2419 3928 
L 2034 2388 
L 3956 2388 
L 4347 3956 
Q 4359 4019 4359 4044 
Q 4359 4113 4281 4122 
Q 4159 4147 3822 4147 
Q 3756 4147 3756 4231 
Q 3778 4313 3790 4342 
Q 3803 4372 3866 4372 
L 5588 4372 
Q 5650 4372 5650 4288 
Q 5647 4272 5637 4233 
Q 5628 4194 5611 4170 
Q 5594 4147 5569 4147 
Q 5178 4147 5025 4103 
Q 4941 4075 4903 3928 
L 4025 416 
Q 4013 353 4013 325 
Q 4013 259 4091 250 
Q 4213 225 4550 225 
Q 4616 225 4616 141 
Q 4597 66 4578 33 
Q 4559 0 4506 0 
L 2784 0 
Q 2719 0 2719 84 
Q 2731 131 2737 153 
Q 2744 175 2761 200 
Q 2778 225 2803 225 
Q 3194 225 3347 269 
Q 3431 297 3469 441 
L 3897 2163 
L 1978 2163 
L 1544 416 
Q 1528 338 1528 325 
Q 1528 259 1606 250 
Q 1728 225 2069 225 
Q 2131 225 2131 141 
Q 2109 56 2095 28 
Q 2081 0 2022 0 
L 300 0 
z
" transform="scale(0.015625)"/>
       <path id="Cmmi10-66" d="M 622 -1056 
Q 741 -1147 909 -1147 
Q 1138 -1147 1281 -641 
Q 1341 -397 1606 966 
L 1900 2534 
L 1350 2534 
Q 1288 2534 1288 2619 
Q 1313 2759 1369 2759 
L 1941 2759 
L 2016 3175 
Q 2053 3369 2084 3508 
Q 2116 3647 2152 3765 
Q 2188 3884 2259 4031 
Q 2369 4241 2555 4377 
Q 2741 4513 2956 4513 
Q 3097 4513 3230 4461 
Q 3363 4409 3447 4306 
Q 3531 4203 3531 4063 
Q 3531 3900 3423 3779 
Q 3316 3659 3163 3659 
Q 3059 3659 2986 3723 
Q 2913 3788 2913 3891 
Q 2913 4031 3008 4136 
Q 3103 4241 3244 4256 
Q 3125 4347 2950 4347 
Q 2853 4347 2767 4256 
Q 2681 4166 2656 4063 
Q 2616 3900 2478 3181 
L 2400 2759 
L 3059 2759 
Q 3122 2759 3122 2675 
Q 3119 2659 3109 2620 
Q 3100 2581 3083 2557 
Q 3066 2534 3041 2534 
L 2356 2534 
L 2059 972 
Q 2003 631 1929 279 
Q 1856 -72 1723 -442 
Q 1591 -813 1384 -1063 
Q 1178 -1313 897 -1313 
Q 681 -1313 511 -1189 
Q 341 -1066 341 -863 
Q 341 -700 445 -579 
Q 550 -459 709 -459 
Q 816 -459 887 -523 
Q 959 -588 959 -691 
Q 959 -828 857 -942 
Q 756 -1056 622 -1056 
z
" transform="scale(0.015625)"/>
       <path id="Cmmi10-75" d="M 678 697 
Q 678 906 734 1126 
Q 791 1347 892 1617 
Q 994 1888 1069 2088 
Q 1153 2322 1153 2472 
Q 1153 2663 1013 2663 
Q 759 2663 595 2402 
Q 431 2141 353 1819 
Q 341 1778 300 1778 
L 225 1778 
Q 172 1778 172 1838 
L 172 1856 
Q 275 2238 487 2533 
Q 700 2828 1025 2828 
Q 1253 2828 1411 2678 
Q 1569 2528 1569 2297 
Q 1569 2178 1516 2047 
Q 1488 1969 1388 1706 
Q 1288 1444 1234 1272 
Q 1181 1100 1147 934 
Q 1113 769 1113 603 
Q 1113 391 1203 244 
Q 1294 97 1497 97 
Q 1906 97 2216 603 
Q 2222 628 2226 651 
Q 2231 675 2234 697 
L 2694 2553 
Q 2716 2638 2794 2698 
Q 2872 2759 2963 2759 
Q 3041 2759 3098 2709 
Q 3156 2659 3156 2578 
Q 3156 2541 3150 2528 
L 2688 684 
Q 2644 494 2644 372 
Q 2644 97 2828 97 
Q 3034 97 3136 351 
Q 3238 606 3309 941 
Q 3322 978 3359 978 
L 3438 978 
Q 3463 978 3478 956 
Q 3494 934 3494 916 
Q 3425 641 3361 444 
Q 3297 247 3159 87 
Q 3022 -72 2816 -72 
Q 2613 -72 2452 39 
Q 2291 150 2234 341 
Q 2088 153 1894 40 
Q 1700 -72 1484 -72 
Q 1116 -72 897 129 
Q 678 331 678 697 
z
" transform="scale(0.015625)"/>
       <path id="Cmmi10-73" d="M 556 391 
Q 728 97 1247 97 
Q 1472 97 1675 173 
Q 1878 250 2011 403 
Q 2144 556 2144 775 
Q 2144 941 2025 1047 
Q 1906 1153 1734 1191 
L 1388 1259 
Q 1150 1319 997 1481 
Q 844 1644 844 1875 
Q 844 2159 998 2378 
Q 1153 2597 1406 2712 
Q 1659 2828 1931 2828 
Q 2222 2828 2451 2689 
Q 2681 2550 2681 2278 
Q 2681 2131 2598 2018 
Q 2516 1906 2369 1906 
Q 2284 1906 2223 1961 
Q 2163 2016 2163 2100 
Q 2163 2175 2205 2245 
Q 2247 2316 2317 2358 
Q 2388 2400 2463 2400 
Q 2406 2538 2251 2600 
Q 2097 2663 1919 2663 
Q 1756 2663 1593 2597 
Q 1431 2531 1332 2404 
Q 1234 2278 1234 2106 
Q 1234 1991 1315 1903 
Q 1397 1816 1516 1778 
L 1888 1703 
Q 2066 1666 2214 1570 
Q 2363 1475 2448 1329 
Q 2534 1184 2534 997 
Q 2534 759 2401 528 
Q 2269 297 2075 159 
Q 1734 -72 1241 -72 
Q 900 -72 615 84 
Q 331 241 331 550 
Q 331 725 432 854 
Q 534 984 709 984 
Q 813 984 883 921 
Q 953 859 953 756 
Q 953 609 843 500 
Q 734 391 588 391 
L 556 391 
z
" transform="scale(0.015625)"/>
       <path id="ArialMT-6b" d="M 425 0 
L 425 4581 
L 988 4581 
L 988 1969 
L 2319 3319 
L 3047 3319 
L 1778 2088 
L 3175 0 
L 2481 0 
L 1384 1697 
L 988 1316 
L 988 0 
L 425 0 
z
" transform="scale(0.015625)"/>
       <path id="ArialMT-4a" d="M 184 1300 
L 731 1375 
Q 753 850 928 656 
Q 1103 463 1413 463 
Q 1641 463 1806 567 
Q 1972 672 2034 851 
Q 2097 1031 2097 1425 
L 2097 4581 
L 2703 4581 
L 2703 1459 
Q 2703 884 2564 568 
Q 2425 253 2123 87 
Q 1822 -78 1416 -78 
Q 813 -78 492 269 
Q 172 616 184 1300 
z
" transform="scale(0.015625)"/>
       <path id="ArialMT-2f" d="M 0 -78 
L 1328 4659 
L 1778 4659 
L 453 -78 
L 0 -78 
z
" transform="scale(0.015625)"/>
       <path id="ArialMT-6f" d="M 213 1659 
Q 213 2581 725 3025 
Q 1153 3394 1769 3394 
Q 2453 3394 2887 2945 
Q 3322 2497 3322 1706 
Q 3322 1066 3130 698 
Q 2938 331 2570 128 
Q 2203 -75 1769 -75 
Q 1072 -75 642 372 
Q 213 819 213 1659 
z
M 791 1659 
Q 791 1022 1069 705 
Q 1347 388 1769 388 
Q 2188 388 2466 706 
Q 2744 1025 2744 1678 
Q 2744 2294 2464 2611 
Q 2184 2928 1769 2928 
Q 1347 2928 1069 2612 
Q 791 2297 791 1659 
z
" transform="scale(0.015625)"/>
      </defs>
      <use xlink:href="#Cmr10-a2" transform="translate(0 0.203125)"/>
      <use xlink:href="#Cmmi10-48" transform="translate(83.300781 0.203125)"/>
      <use xlink:href="#Cmmi10-66" transform="translate(166.40625 -16.803125)scale(0.7)"/>
      <use xlink:href="#Cmmi10-75" transform="translate(200.620117 -16.803125)scale(0.7)"/>
      <use xlink:href="#Cmmi10-73" transform="translate(240.644531 -16.803125)scale(0.7)"/>
      <use xlink:href="#ArialMT-20" transform="translate(279.766016 0.203125)"/>
      <use xlink:href="#ArialMT-28" transform="translate(307.549219 0.203125)"/>
      <use xlink:href="#ArialMT-6b" transform="translate(340.85 0.203125)"/>
      <use xlink:href="#ArialMT-4a" transform="translate(390.85 0.203125)"/>
      <use xlink:href="#ArialMT-2f" transform="translate(440.85 0.203125)"/>
      <use xlink:href="#ArialMT-6d" transform="translate(468.633203 0.203125)"/>
      <use xlink:href="#ArialMT-6f" transform="translate(551.933984 0.203125)"/>
      <use xlink:href="#ArialMT-6c" transform="translate(607.549219 0.203125)"/>
      <use xlink:href="#ArialMT-29" transform="translate(629.766016 0.203125)"/>
     </g>
    </g>
   </g>
   <g id="line2d_118">
    <path d="M 39.821875 49.745 
L 43.203693 56.043882 
L 46.585511 62.235656 
L 49.96733 68.322618 
L 53.349148 74.306987 
L 56.730966 80.190906 
L 60.112784 85.976445 
L 63.494602 91.665606 
L 66.87642 97.260324 
L 70.258239 102.762473 
L 73.640057 108.173864 
L 77.021875 113.49625 
L 80.403693 118.731331 
L 83.785511 123.880752 
L 87.16733 128.946105 
L 90.549148 133.928937 
L 93.930966 138.830744 
L 97.312784 143.652978 
L 100.694602 148.397048 
L 104.07642 153.064321 
L 107.458239 157.656123 
L 110.840057 162.173742 
L 114.221875 166.618427 
L 117.603693 170.991393 
L 120.985511 175.293821 
L 124.36733 179.526855 
L 127.749148 183.691611 
L 131.130966 187.789171 
L 134.512784 191.820589 
L 137.894602 195.786889 
L 141.27642 199.689068 
L 144.658239 203.528095 
L 148.040057 207.304914 
L 151.421875 211.020445 
L 154.803693 214.67558 
L 158.185511 218.271192 
L 161.56733 221.808128 
L 164.949148 225.287216 
L 168.330966 228.709259 
L 171.712784 232.075044 
L 175.094602 235.385335 
L 178.47642 238.640877 
L 181.858239 241.842398 
L 185.240057 244.990607 
L 188.621875 248.086195 
L 192.003693 251.129838 
L 195.385511 254.122193 
L 198.76733 257.063903 
L 202.149148 259.955595 
L 205.530966 262.79788 
L 208.912784 265.591357 
L 212.294602 268.336609 
L 215.67642 271.034205 
L 219.058239 273.684702 
L 222.440057 276.288643 
L 225.821875 278.84656 
L 229.203693 281.358971 
L 232.585511 283.826384 
L 235.96733 286.249293 
L 239.349148 288.628184 
L 242.730966 290.96353 
L 246.112784 293.255793 
L 249.494602 295.505427 
L 252.87642 297.712874 
L 256.258239 299.878567 
L 259.640057 302.002929 
L 263.021875 304.086375 
L 266.403693 306.129311 
L 269.785511 308.132132 
L 273.16733 310.095227 
L 276.549148 312.018975 
L 279.930966 313.903749 
L 283.312784 315.749911 
L 286.694602 317.557819 
L 290.07642 319.32782 
L 293.458239 321.060257 
L 296.840057 322.755464 
L 300.221875 324.413767 
L 303.603693 326.035488 
L 306.985511 327.62094 
L 310.36733 329.170431 
L 313.749148 330.684263 
L 317.130966 332.16273 
L 320.512784 333.606122 
L 323.894602 335.014722 
L 327.27642 336.388807 
L 330.658239 337.728651 
L 334.040057 339.034519 
L 337.421875 340.306672 
L 340.803693 341.545368 
L 344.185511 342.750857 
L 347.56733 343.923384 
L 350.949148 345.063193 
L 354.330966 346.170518 
L 357.712784 347.245591 
L 361.094602 348.288642 
L 364.47642 349.299891 
L 367.858239 350.279558 
L 371.240057 351.227858 
L 374.621875 352.145 
" clip-path="url(#p6651bcafed)" style="fill: none; stroke: #bf00bf; stroke-width: 1.5; stroke-linecap: square"/>
   </g>
   <g id="patch_3">
    <path d="M 39.821875 367.265 
L 39.821875 34.625 
" style="fill: none; stroke: #000000; stroke-width: 0.8; stroke-linejoin: miter; stroke-linecap: square"/>
   </g>
   <g id="patch_4">
    <path d="M 374.621875 367.265 
L 374.621875 34.625 
" style="fill: none; stroke: #000000; stroke-width: 0.8; stroke-linejoin: miter; stroke-linecap: square"/>
   </g>
   <g id="patch_5">
    <path d="M 39.821875 367.265 
L 374.621875 367.265 
" style="fill: none; stroke: #000000; stroke-width: 0.8; stroke-linejoin: miter; stroke-linecap: square"/>
   </g>
   <g id="patch_6">
    <path d="M 39.821875 34.625 
L 374.621875 34.625 
" style="fill: none; stroke: #000000; stroke-width: 0.8; stroke-linejoin: miter; stroke-linecap: square"/>
   </g>
   <g id="legend_1">
    <g id="patch_7">
     <path d="M 256.129688 71.154688 
L 367.621875 71.154688 
Q 369.621875 71.154688 369.621875 69.154688 
L 369.621875 41.625 
Q 369.621875 39.625 367.621875 39.625 
L 256.129688 39.625 
Q 254.129688 39.625 254.129688 41.625 
L 254.129688 69.154688 
Q 254.129688 71.154688 256.129688 71.154688 
z
" style="fill: #ffffff; opacity: 0.8; stroke: #cccccc; stroke-linejoin: miter"/>
    </g>
    <g id="line2d_119">
     <path d="M 258.129688 47.404688 
L 268.129688 47.404688 
L 278.129688 47.404688 
" style="fill: none; stroke: #bf00bf; stroke-width: 1.5; stroke-linecap: square"/>
    </g>
    <g id="text_15">
     <!-- Enthalpy of fusion -->
     <g transform="translate(286.129688 50.904688)scale(0.1 -0.1)">
      <defs>
       <path id="ArialMT-45" d="M 506 0 
L 506 4581 
L 3819 4581 
L 3819 4041 
L 1113 4041 
L 1113 2638 
L 3647 2638 
L 3647 2100 
L 1113 2100 
L 1113 541 
L 3925 541 
L 3925 0 
L 506 0 
z
" transform="scale(0.015625)"/>
       <path id="ArialMT-68" d="M 422 0 
L 422 4581 
L 984 4581 
L 984 2938 
Q 1378 3394 1978 3394 
Q 2347 3394 2619 3248 
Q 2891 3103 3008 2847 
Q 3125 2591 3125 2103 
L 3125 0 
L 2563 0 
L 2563 2103 
Q 2563 2525 2380 2717 
Q 2197 2909 1863 2909 
Q 1613 2909 1392 2779 
Q 1172 2650 1078 2428 
Q 984 2206 984 1816 
L 984 0 
L 422 0 
z
" transform="scale(0.015625)"/>
       <path id="ArialMT-79" d="M 397 -1278 
L 334 -750 
Q 519 -800 656 -800 
Q 844 -800 956 -737 
Q 1069 -675 1141 -563 
Q 1194 -478 1313 -144 
Q 1328 -97 1363 -6 
L 103 3319 
L 709 3319 
L 1400 1397 
Q 1534 1031 1641 628 
Q 1738 1016 1872 1384 
L 2581 3319 
L 3144 3319 
L 1881 -56 
Q 1678 -603 1566 -809 
Q 1416 -1088 1222 -1217 
Q 1028 -1347 759 -1347 
Q 597 -1347 397 -1278 
z
" transform="scale(0.015625)"/>
       <path id="ArialMT-66" d="M 556 0 
L 556 2881 
L 59 2881 
L 59 3319 
L 556 3319 
L 556 3672 
Q 556 4006 616 4169 
Q 697 4388 901 4523 
Q 1106 4659 1475 4659 
Q 1713 4659 2000 4603 
L 1916 4113 
Q 1741 4144 1584 4144 
Q 1328 4144 1222 4034 
Q 1116 3925 1116 3625 
L 1116 3319 
L 1763 3319 
L 1763 2881 
L 1116 2881 
L 1116 0 
L 556 0 
z
" transform="scale(0.015625)"/>
       <path id="ArialMT-73" d="M 197 991 
L 753 1078 
Q 800 744 1014 566 
Q 1228 388 1613 388 
Q 2000 388 2187 545 
Q 2375 703 2375 916 
Q 2375 1106 2209 1216 
Q 2094 1291 1634 1406 
Q 1016 1563 777 1677 
Q 538 1791 414 1992 
Q 291 2194 291 2438 
Q 291 2659 392 2848 
Q 494 3038 669 3163 
Q 800 3259 1026 3326 
Q 1253 3394 1513 3394 
Q 1903 3394 2198 3281 
Q 2494 3169 2634 2976 
Q 2775 2784 2828 2463 
L 2278 2388 
Q 2241 2644 2061 2787 
Q 1881 2931 1553 2931 
Q 1166 2931 1000 2803 
Q 834 2675 834 2503 
Q 834 2394 903 2306 
Q 972 2216 1119 2156 
Q 1203 2125 1616 2013 
Q 2213 1853 2448 1751 
Q 2684 1650 2818 1456 
Q 2953 1263 2953 975 
Q 2953 694 2789 445 
Q 2625 197 2315 61 
Q 2006 -75 1616 -75 
Q 969 -75 630 194 
Q 291 463 197 991 
z
" transform="scale(0.015625)"/>
      </defs>
      <use xlink:href="#ArialMT-45"/>
      <use xlink:href="#ArialMT-6e" x="66.699219"/>
      <use xlink:href="#ArialMT-74" x="122.314453"/>
      <use xlink:href="#ArialMT-68" x="150.097656"/>
      <use xlink:href="#ArialMT-61" x="205.712891"/>
      <use xlink:href="#ArialMT-6c" x="261.328125"/>
      <use xlink:href="#ArialMT-70" x="283.544922"/>
      <use xlink:href="#ArialMT-79" x="339.160156"/>
      <use xlink:href="#ArialMT-20" x="389.160156"/>
      <use xlink:href="#ArialMT-6f" x="416.943359"/>
      <use xlink:href="#ArialMT-66" x="472.558594"/>
      <use xlink:href="#ArialMT-20" x="500.341797"/>
      <use xlink:href="#ArialMT-66" x="528.125"/>
      <use xlink:href="#ArialMT-75" x="555.908203"/>
      <use xlink:href="#ArialMT-73" x="611.523438"/>
      <use xlink:href="#ArialMT-69" x="661.523438"/>
      <use xlink:href="#ArialMT-6f" x="683.740234"/>
      <use xlink:href="#ArialMT-6e" x="739.355469"/>
     </g>
    </g>
    <g id="line2d_120">
     <g>
      <use xlink:href="#me6cad45103" x="268.129688" y="61.667188" style="fill: #ff0000; stroke: #ffffff"/>
     </g>
    </g>
    <g id="text_16">
     <!-- Triple point -->
     <g transform="translate(286.129688 65.167188)scale(0.1 -0.1)">
      <defs>
       <path id="ArialMT-54" d="M 1659 0 
L 1659 4041 
L 150 4041 
L 150 4581 
L 3781 4581 
L 3781 4041 
L 2266 4041 
L 2266 0 
L 1659 0 
z
" transform="scale(0.015625)"/>
      </defs>
      <use xlink:href="#ArialMT-54"/>
      <use xlink:href="#ArialMT-72" x="57.333984"/>
      <use xlink:href="#ArialMT-69" x="90.634766"/>
      <use xlink:href="#ArialMT-70" x="112.851562"/>
      <use xlink:href="#ArialMT-6c" x="168.466797"/>
      <use xlink:href="#ArialMT-65" x="190.683594"/>
      <use xlink:href="#ArialMT-20" x="246.298828"/>
      <use xlink:href="#ArialMT-70" x="274.082031"/>
      <use xlink:href="#ArialMT-6f" x="329.697266"/>
      <use xlink:href="#ArialMT-69" x="385.3125"/>
      <use xlink:href="#ArialMT-6e" x="407.529297"/>
      <use xlink:href="#ArialMT-74" x="463.144531"/>
     </g>
    </g>
   </g>
  </g>
  <g id="axes_2">
   <g id="matplotlib.axis_3">
    <g id="xtick_32">
     <g id="line2d_121">
      <defs>
       <path id="m859d65e92f" d="M 0 0 
L 0 -3.5 
" style="stroke: #000000; stroke-width: 0.8"/>
      </defs>
      <g>
       <use xlink:href="#m859d65e92f" x="92.087835" y="34.625" style="stroke: #000000; stroke-width: 0.8"/>
      </g>
     </g>
     <g id="text_17">
      <!-- 781 -->
      <g transform="translate(83.746429 25.6375)scale(0.1 -0.1)">
       <defs>
        <path id="ArialMT-31" d="M 2384 0 
L 1822 0 
L 1822 3584 
Q 1619 3391 1289 3197 
Q 959 3003 697 2906 
L 697 3450 
Q 1169 3672 1522 3987 
Q 1875 4303 2022 4600 
L 2384 4600 
L 2384 0 
z
" transform="scale(0.015625)"/>
       </defs>
       <use xlink:href="#ArialMT-37"/>
       <use xlink:href="#ArialMT-38" x="55.615234"/>
       <use xlink:href="#ArialMT-31" x="111.230469"/>
      </g>
     </g>
    </g>
    <g id="xtick_33">
     <g id="line2d_122">
      <g>
       <use xlink:href="#m859d65e92f" x="146.249452" y="34.625" style="stroke: #000000; stroke-width: 0.8"/>
      </g>
     </g>
     <g id="text_18">
      <!-- 1589 -->
      <g transform="translate(135.127577 25.6375)scale(0.1 -0.1)">
       <use xlink:href="#ArialMT-31"/>
       <use xlink:href="#ArialMT-35" x="55.615234"/>
       <use xlink:href="#ArialMT-38" x="111.230469"/>
       <use xlink:href="#ArialMT-39" x="166.845703"/>
      </g>
     </g>
    </g>
    <g id="xtick_34">
     <g id="line2d_123">
      <g>
       <use xlink:href="#m859d65e92f" x="200.411068" y="34.625" style="stroke: #000000; stroke-width: 0.8"/>
      </g>
     </g>
     <g id="text_19">
      <!-- 2398 -->
      <g transform="translate(189.289193 25.6375)scale(0.1 -0.1)">
       <use xlink:href="#ArialMT-32"/>
       <use xlink:href="#ArialMT-33" x="55.615234"/>
       <use xlink:href="#ArialMT-39" x="111.230469"/>
       <use xlink:href="#ArialMT-38" x="166.845703"/>
      </g>
     </g>
    </g>
    <g id="xtick_35">
     <g id="line2d_124">
      <g>
       <use xlink:href="#m859d65e92f" x="254.572685" y="34.625" style="stroke: #000000; stroke-width: 0.8"/>
      </g>
     </g>
     <g id="text_20">
      <!-- 3207 -->
      <g transform="translate(243.45081 25.6375)scale(0.1 -0.1)">
       <use xlink:href="#ArialMT-33"/>
       <use xlink:href="#ArialMT-32" x="55.615234"/>
       <use xlink:href="#ArialMT-30" x="111.230469"/>
       <use xlink:href="#ArialMT-37" x="166.845703"/>
      </g>
     </g>
    </g>
    <g id="xtick_36">
     <g id="line2d_125">
      <g>
       <use xlink:href="#m859d65e92f" x="308.734302" y="34.625" style="stroke: #000000; stroke-width: 0.8"/>
      </g>
     </g>
     <g id="text_21">
      <!-- 4016 -->
      <g transform="translate(297.612427 25.6375)scale(0.1 -0.1)">
       <use xlink:href="#ArialMT-34"/>
       <use xlink:href="#ArialMT-30" x="55.615234"/>
       <use xlink:href="#ArialMT-31" x="111.230469"/>
       <use xlink:href="#ArialMT-36" x="166.845703"/>
      </g>
     </g>
    </g>
    <g id="xtick_37">
     <g id="line2d_126">
      <g>
       <use xlink:href="#m859d65e92f" x="362.895918" y="34.625" style="stroke: #000000; stroke-width: 0.8"/>
      </g>
     </g>
     <g id="text_22">
      <!-- 4825 -->
      <g transform="translate(351.774043 25.6375)scale(0.1 -0.1)">
       <use xlink:href="#ArialMT-34"/>
       <use xlink:href="#ArialMT-38" x="55.615234"/>
       <use xlink:href="#ArialMT-32" x="111.230469"/>
       <use xlink:href="#ArialMT-35" x="166.845703"/>
      </g>
     </g>
    </g>
    <g id="text_23">
     <!-- Melting pressure (bar) -->
     <g transform="translate(158.319531 14.479688)scale(0.1 -0.1)">
      <defs>
       <path id="ArialMT-62" d="M 941 0 
L 419 0 
L 419 4581 
L 981 4581 
L 981 2947 
Q 1338 3394 1891 3394 
Q 2197 3394 2470 3270 
Q 2744 3147 2920 2923 
Q 3097 2700 3197 2384 
Q 3297 2069 3297 1709 
Q 3297 856 2875 390 
Q 2453 -75 1863 -75 
Q 1275 -75 941 416 
L 941 0 
z
M 934 1684 
Q 934 1088 1097 822 
Q 1363 388 1816 388 
Q 2184 388 2453 708 
Q 2722 1028 2722 1663 
Q 2722 2313 2464 2622 
Q 2206 2931 1841 2931 
Q 1472 2931 1203 2611 
Q 934 2291 934 1684 
z
" transform="scale(0.015625)"/>
      </defs>
      <use xlink:href="#ArialMT-4d"/>
      <use xlink:href="#ArialMT-65" x="83.300781"/>
      <use xlink:href="#ArialMT-6c" x="138.916016"/>
      <use xlink:href="#ArialMT-74" x="161.132812"/>
      <use xlink:href="#ArialMT-69" x="188.916016"/>
      <use xlink:href="#ArialMT-6e" x="211.132812"/>
      <use xlink:href="#ArialMT-67" x="266.748047"/>
      <use xlink:href="#ArialMT-20" x="322.363281"/>
      <use xlink:href="#ArialMT-70" x="350.146484"/>
      <use xlink:href="#ArialMT-72" x="405.761719"/>
      <use xlink:href="#ArialMT-65" x="439.0625"/>
      <use xlink:href="#ArialMT-73" x="494.677734"/>
      <use xlink:href="#ArialMT-73" x="544.677734"/>
      <use xlink:href="#ArialMT-75" x="594.677734"/>
      <use xlink:href="#ArialMT-72" x="650.292969"/>
      <use xlink:href="#ArialMT-65" x="683.59375"/>
      <use xlink:href="#ArialMT-20" x="739.208984"/>
      <use xlink:href="#ArialMT-28" x="766.992188"/>
      <use xlink:href="#ArialMT-62" x="800.292969"/>
      <use xlink:href="#ArialMT-61" x="855.908203"/>
      <use xlink:href="#ArialMT-72" x="911.523438"/>
      <use xlink:href="#ArialMT-29" x="944.824219"/>
     </g>
    </g>
   </g>
   <g id="patch_8">
    <path d="M 39.821875 367.265 
L 39.821875 34.625 
" style="fill: none; stroke: #000000; stroke-width: 0.8; stroke-linejoin: miter; stroke-linecap: square"/>
   </g>
   <g id="patch_9">
    <path d="M 374.621875 367.265 
L 374.621875 34.625 
" style="fill: none; stroke: #000000; stroke-width: 0.8; stroke-linejoin: miter; stroke-linecap: square"/>
   </g>
   <g id="patch_10">
    <path d="M 39.821875 367.265 
L 374.621875 367.265 
" style="fill: none; stroke: #000000; stroke-width: 0.8; stroke-linejoin: miter; stroke-linecap: square"/>
   </g>
   <g id="patch_11">
    <path d="M 39.821875 34.625 
L 374.621875 34.625 
" style="fill: none; stroke: #000000; stroke-width: 0.8; stroke-linejoin: miter; stroke-linecap: square"/>
   </g>
  </g>
  <g id="axes_3">
   <g id="matplotlib.axis_4">
    <g id="ytick_28">
     <g id="line2d_127">
      <defs>
       <path id="mdee1286caf" d="M 0 0 
L 3.5 0 
" style="stroke: #000000; stroke-width: 0.8"/>
      </defs>
      <g>
       <use xlink:href="#mdee1286caf" x="374.621875" y="344.104886" style="stroke: #000000; stroke-width: 0.8"/>
      </g>
     </g>
     <g id="text_24">
      <!-- 428 -->
      <g transform="translate(381.621875 347.683793)scale(0.1 -0.1)">
       <use xlink:href="#ArialMT-34"/>
       <use xlink:href="#ArialMT-32" x="55.615234"/>
       <use xlink:href="#ArialMT-38" x="111.230469"/>
      </g>
     </g>
    </g>
    <g id="ytick_29">
     <g id="line2d_128">
      <g>
       <use xlink:href="#mdee1286caf" x="374.621875" y="283.128961" style="stroke: #000000; stroke-width: 0.8"/>
      </g>
     </g>
     <g id="text_25">
      <!-- 445 -->
      <g transform="translate(381.621875 286.707867)scale(0.1 -0.1)">
       <use xlink:href="#ArialMT-34"/>
       <use xlink:href="#ArialMT-34" x="55.615234"/>
       <use xlink:href="#ArialMT-35" x="111.230469"/>
      </g>
     </g>
    </g>
    <g id="ytick_30">
     <g id="line2d_129">
      <g>
       <use xlink:href="#mdee1286caf" x="374.621875" y="222.153036" style="stroke: #000000; stroke-width: 0.8"/>
      </g>
     </g>
     <g id="text_26">
      <!-- 462 -->
      <g transform="translate(381.621875 225.731942)scale(0.1 -0.1)">
       <use xlink:href="#ArialMT-34"/>
       <use xlink:href="#ArialMT-36" x="55.615234"/>
       <use xlink:href="#ArialMT-32" x="111.230469"/>
      </g>
     </g>
    </g>
    <g id="ytick_31">
     <g id="line2d_130">
      <g>
       <use xlink:href="#mdee1286caf" x="374.621875" y="161.177111" style="stroke: #000000; stroke-width: 0.8"/>
      </g>
     </g>
     <g id="text_27">
      <!-- 479 -->
      <g transform="translate(381.621875 164.756017)scale(0.1 -0.1)">
       <use xlink:href="#ArialMT-34"/>
       <use xlink:href="#ArialMT-37" x="55.615234"/>
       <use xlink:href="#ArialMT-39" x="111.230469"/>
      </g>
     </g>
    </g>
    <g id="ytick_32">
     <g id="line2d_131">
      <g>
       <use xlink:href="#mdee1286caf" x="374.621875" y="100.201186" style="stroke: #000000; stroke-width: 0.8"/>
      </g>
     </g>
     <g id="text_28">
      <!-- 496 -->
      <g transform="translate(381.621875 103.780092)scale(0.1 -0.1)">
       <use xlink:href="#ArialMT-34"/>
       <use xlink:href="#ArialMT-39" x="55.615234"/>
       <use xlink:href="#ArialMT-36" x="111.230469"/>
      </g>
     </g>
    </g>
    <g id="ytick_33">
     <g id="line2d_132">
      <g>
       <use xlink:href="#mdee1286caf" x="374.621875" y="39.225261" style="stroke: #000000; stroke-width: 0.8"/>
      </g>
     </g>
     <g id="text_29">
      <!-- 513 -->
      <g transform="translate(381.621875 42.804167)scale(0.1 -0.1)">
       <use xlink:href="#ArialMT-35"/>
       <use xlink:href="#ArialMT-31" x="55.615234"/>
       <use xlink:href="#ArialMT-33" x="111.230469"/>
      </g>
     </g>
    </g>
    <g id="text_30">
     <!-- $\Delta H_{fus}$ (kJ/kg) -->
     <g transform="translate(409.604688 231.345)rotate(-90)scale(0.1 -0.1)">
      <use xlink:href="#Cmr10-a2" transform="translate(0 0.203125)"/>
      <use xlink:href="#Cmmi10-48" transform="translate(83.300781 0.203125)"/>
      <use xlink:href="#Cmmi10-66" transform="translate(166.40625 -16.803125)scale(0.7)"/>
      <use xlink:href="#Cmmi10-75" transform="translate(200.620117 -16.803125)scale(0.7)"/>
      <use xlink:href="#Cmmi10-73" transform="translate(240.644531 -16.803125)scale(0.7)"/>
      <use xlink:href="#ArialMT-20" transform="translate(279.766016 0.203125)"/>
      <use xlink:href="#ArialMT-28" transform="translate(307.549219 0.203125)"/>
      <use xlink:href="#ArialMT-6b" transform="translate(340.85 0.203125)"/>
      <use xlink:href="#ArialMT-4a" transform="translate(390.85 0.203125)"/>
      <use xlink:href="#ArialMT-2f" transform="translate(440.85 0.203125)"/>
      <use xlink:href="#ArialMT-6b" transform="translate(468.633203 0.203125)"/>
      <use xlink:href="#ArialMT-67" transform="translate(518.633203 0.203125)"/>
      <use xlink:href="#ArialMT-29" transform="translate(574.248438 0.203125)"/>
     </g>
    </g>
   </g>
   <g id="patch_12">
    <path d="M 39.821875 367.265 
L 39.821875 34.625 
" style="fill: none; stroke: #000000; stroke-width: 0.8; stroke-linejoin: miter; stroke-linecap: square"/>
   </g>
   <g id="patch_13">
    <path d="M 374.621875 367.265 
L 374.621875 34.625 
" style="fill: none; stroke: #000000; stroke-width: 0.8; stroke-linejoin: miter; stroke-linecap: square"/>
   </g>
   <g id="patch_14">
    <path d="M 39.821875 367.265 
L 374.621875 367.265 
" style="fill: none; stroke: #000000; stroke-width: 0.8; stroke-linejoin: miter; stroke-linecap: square"/>
   </g>
   <g id="patch_15">
    <path d="M 39.821875 34.625 
L 374.621875 34.625 
" style="fill: none; stroke: #000000; stroke-width: 0.8; stroke-linejoin: miter; stroke-linecap: square"/>
   </g>
  </g>
 </g>
 <defs>
  <clipPath id="p6651bcafed">
   <rect x="39.821875" y="34.625" width="334.8" height="332.64"/>
  </clipPath>
 </defs>
</svg>
