<?xml version="1.0" encoding="utf-8" standalone="no"?>
<!DOCTYPE svg PUBLIC "-//W3C//DTD SVG 1.1//EN"
  "http://www.w3.org/Graphics/SVG/1.1/DTD/svg11.dtd">
<svg xmlns:xlink="http://www.w3.org/1999/xlink" width="402.3375pt" height="370.205312pt" viewBox="0 0 402.3375 370.205312" xmlns="http://www.w3.org/2000/svg" version="1.1">
 <metadata>
  <rdf:RDF xmlns:dc="http://purl.org/dc/elements/1.1/" xmlns:cc="http://creativecommons.org/ns#" xmlns:rdf="http://www.w3.org/1999/02/22-rdf-syntax-ns#">
   <cc:Work>
    <dc:type rdf:resource="http://purl.org/dc/dcmitype/StillImage"/>
    <dc:date>2022-01-22T12:34:38.245375</dc:date>
    <dc:format>image/svg+xml</dc:format>
    <dc:creator>
     <cc:Agent>
      <dc:title>Matplotlib v3.5.0, https://matplotlib.org/</dc:title>
     </cc:Agent>
    </dc:creator>
   </cc:Work>
  </rdf:RDF>
 </metadata>
 <defs>
  <style type="text/css">*{stroke-linejoin: round; stroke-linecap: butt}</style>
 </defs>
 <g id="figure_1">
  <g id="patch_1">
   <path d="M 0 370.205312 
L 402.3375 370.205312 
L 402.3375 0 
L 0 0 
L 0 370.205312 
z
" style="fill: none"/>
  </g>
  <g id="axes_1">
   <g id="patch_2">
    <path d="M 49.584375 333.36 
L 384.384375 333.36 
L 384.384375 7.2 
L 49.584375 7.2 
z
" style="fill: #ffffff"/>
   </g>
   <g id="patch_3">
    <path d="M 49.584375 313.189826 
L 51.70097 309.869509 
L 53.817566 306.606775 
L 55.934161 303.400137 
L 58.050757 300.248162 
L 60.167352 297.149463 
L 62.283948 294.102701 
L 64.400543 291.106582 
L 66.517139 288.159852 
L 68.633734 285.261301 
L 70.75033 282.409757 
L 72.866925 279.604085 
L 74.98352 276.843188 
L 77.100116 274.126002 
L 79.216711 271.451496 
L 81.333307 268.818674 
L 83.449902 266.226569 
L 85.566498 263.674242 
L 87.683093 261.160786 
L 89.799689 258.685319 
L 91.916284 256.246986 
L 94.03288 253.844958 
L 96.149475 251.47843 
L 98.26607 249.146622 
L 100.382666 246.848773 
L 102.499261 244.584149 
L 104.615857 242.352033 
L 106.732452 240.15173 
L 108.849048 237.982566 
L 110.965643 235.843884 
L 113.082239 233.735045 
L 115.198834 231.65543 
L 117.31543 229.604435 
L 119.432025 227.581473 
L 121.54862 225.585974 
L 123.665216 223.617382 
L 125.781811 221.675157 
L 127.898407 219.758772 
L 130.015002 217.867715 
L 132.131598 216.001487 
L 134.248193 214.159603 
L 136.364789 212.341589 
L 138.481384 210.546984 
L 140.59798 208.775339 
L 142.714575 207.026216 
L 144.83117 205.299188 
L 146.947766 203.59384 
L 149.064361 201.909765 
L 151.180957 200.246569 
L 153.297552 198.603864 
L 155.414148 196.981275 
L 157.530743 195.378435 
L 159.647339 193.794985 
L 161.763934 192.230576 
L 163.88053 190.684865 
L 165.997125 189.15752 
L 168.11372 187.648216 
L 170.230316 186.156634 
L 172.346911 184.682465 
L 174.463507 183.225405 
L 176.580102 181.785157 
L 178.696698 180.361434 
L 180.813293 178.953951 
L 182.929889 177.562433 
L 185.046484 176.18661 
L 187.16308 174.826217 
L 189.279675 173.480997 
L 191.39627 172.150696 
L 193.512866 170.835069 
L 195.629461 169.533873 
L 197.746057 168.246873 
L 199.862652 166.973837 
L 201.979248 165.714539 
L 204.095843 164.468759 
L 206.212439 163.23628 
L 208.329034 162.016889 
L 210.44563 160.81038 
L 212.562225 159.616549 
L 214.67882 158.435198 
L 216.795416 157.266132 
L 218.912011 156.10916 
L 221.028607 154.964096 
L 223.145202 153.830756 
L 225.261798 152.708962 
L 227.378393 151.598538 
L 229.494989 150.499312 
L 231.611584 149.411116 
L 233.72818 148.333783 
L 235.844775 147.267154 
L 237.96137 146.211068 
L 240.077966 145.16537 
L 242.194561 144.129907 
L 244.311157 143.104531 
L 246.427752 142.089094 
L 248.544348 141.083453 
L 250.660943 140.087467 
L 252.777539 139.100996 
L 254.894134 138.123906 
L 257.01073 137.156063 
L 259.127325 136.197337 
L 259.127325 136.197337 
L 259.649943 43.975868 
L 260.17256 38.428469 
L 260.695178 35.183439 
L 261.217796 32.881051 
L 261.740413 31.095179 
L 262.263031 29.636014 
L 262.785649 28.402308 
L 263.308266 27.333623 
L 263.830884 26.390975 
L 264.353502 25.547748 
L 264.876119 24.784957 
L 265.398737 24.088583 
L 265.921355 23.44798 
L 266.443972 22.854875 
L 266.96659 22.302708 
L 267.489208 21.786189 
L 268.011825 21.300995 
L 268.534443 20.843541 
L 269.057061 20.410828 
L 269.579679 20.000314 
L 270.102296 19.609834 
L 270.624914 19.237522 
L 271.147532 18.881763 
L 271.670149 18.541148 
L 272.192767 18.214439 
L 272.715385 17.900545 
L 273.238002 17.5985 
L 273.76062 17.30744 
L 274.283238 17.026595 
L 274.805855 16.755272 
L 275.328473 16.492847 
L 275.851091 16.238754 
L 276.373708 15.99248 
L 276.896326 15.753559 
L 277.418944 15.521564 
L 277.941561 15.296105 
L 278.464179 15.076824 
L 278.986797 14.863391 
L 279.509414 14.655503 
L 280.032032 14.452878 
L 280.55465 14.255256 
L 281.077267 14.062397 
L 281.599885 13.874077 
L 282.122503 13.690086 
L 282.64512 13.51023 
L 283.167738 13.334327 
L 283.690356 13.162207 
L 284.212973 12.993711 
L 284.735591 12.82869 
L 285.258209 12.667002 
L 285.780826 12.508516 
L 286.303444 12.353108 
L 286.826062 12.200661 
L 287.348679 12.051063 
L 287.871297 11.90421 
L 288.393915 11.760003 
L 288.916532 11.618349 
L 289.43915 11.479158 
L 289.961768 11.342347 
L 290.484386 11.207835 
L 291.007003 11.075547 
L 291.529621 10.94541 
L 292.052239 10.817355 
L 292.574856 10.691317 
L 293.097474 10.567233 
L 293.620092 10.445043 
L 294.142709 10.324691 
L 294.665327 10.206122 
L 295.187945 10.089284 
L 295.710562 9.974127 
L 296.23318 9.860604 
L 296.755798 9.748668 
L 297.278415 9.638277 
L 297.801033 9.529387 
L 298.323651 9.421959 
L 298.846268 9.315954 
L 299.368886 9.211335 
L 299.891504 9.108066 
L 300.414121 9.006112 
L 300.936739 8.905441 
L 301.459357 8.80602 
L 301.981974 8.707819 
L 302.504592 8.610809 
L 303.02721 8.51496 
L 303.549827 8.420246 
L 304.072445 8.326639 
L 304.595063 8.234115 
L 305.11768 8.142648 
L 305.640298 8.052215 
L 306.162916 7.962792 
L 306.685533 7.874358 
L 307.208151 7.786889 
L 307.730769 7.700367 
L 308.253386 7.61477 
L 308.776004 7.530078 
L 309.298622 7.446274 
L 309.821239 7.363338 
L 310.343857 7.281252 
L 310.866475 7.2 
L 310.866475 7.2 
L 180.225425 7.2 
L 49.584375 7.2 
z
" clip-path="url(#p441b20c6cf)" style="fill: #add8e6; stroke: #add8e6; stroke-linejoin: miter"/>
   </g>
   <g id="patch_4">
    <path d="M 384.384375 100.969008 
L 383.119152 101.247903 
L 381.85393 101.528031 
L 380.588707 101.8094 
L 379.323484 102.09202 
L 378.058261 102.375898 
L 376.793039 102.661042 
L 375.527816 102.947462 
L 374.262593 103.235166 
L 372.99737 103.524162 
L 371.732148 103.814459 
L 370.466925 104.106067 
L 369.201702 104.398993 
L 367.93648 104.693247 
L 366.671257 104.988838 
L 365.406034 105.285775 
L 364.140811 105.584067 
L 362.875589 105.883724 
L 361.610366 106.184755 
L 360.345143 106.487169 
L 359.07992 106.790977 
L 357.814698 107.096186 
L 356.549475 107.402809 
L 355.284252 107.710853 
L 354.01903 108.02033 
L 352.753807 108.331248 
L 351.488584 108.643619 
L 350.223361 108.957452 
L 348.958139 109.272758 
L 347.692916 109.589547 
L 346.427693 109.90783 
L 345.16247 110.227617 
L 343.897248 110.548918 
L 342.632025 110.871745 
L 341.366802 111.196109 
L 340.10158 111.522021 
L 338.836357 111.849491 
L 337.571134 112.178531 
L 336.305911 112.509152 
L 335.040689 112.841365 
L 333.775466 113.175183 
L 332.510243 113.510617 
L 331.24502 113.847678 
L 329.979798 114.186378 
L 328.714575 114.52673 
L 327.449352 114.868745 
L 326.18413 115.212436 
L 324.918907 115.557816 
L 323.653684 115.904895 
L 322.388461 116.253688 
L 321.123239 116.604207 
L 319.858016 116.956464 
L 318.592793 117.310473 
L 317.32757 117.666247 
L 316.062348 118.023799 
L 314.797125 118.383142 
L 313.531902 118.74429 
L 312.26668 119.107256 
L 311.001457 119.472055 
L 309.736234 119.8387 
L 308.471011 120.207205 
L 307.205789 120.577584 
L 305.940566 120.949852 
L 304.675343 121.324023 
L 303.41012 121.700113 
L 302.144898 122.078134 
L 300.879675 122.458104 
L 299.614452 122.840036 
L 298.34923 123.223946 
L 297.084007 123.609849 
L 295.818784 123.997761 
L 294.553561 124.387698 
L 293.288339 124.779675 
L 292.023116 125.173709 
L 290.757893 125.569815 
L 289.49267 125.968011 
L 288.227448 126.368313 
L 286.962225 126.770736 
L 285.697002 127.1753 
L 284.43178 127.58202 
L 283.166557 127.990913 
L 281.901334 128.401998 
L 280.636111 128.815292 
L 279.370889 129.230813 
L 278.105666 129.648579 
L 276.840443 130.068607 
L 275.57522 130.490918 
L 274.309998 130.915528 
L 273.044775 131.342457 
L 271.779552 131.771725 
L 270.51433 132.20335 
L 269.249107 132.637351 
L 267.983884 133.073749 
L 266.718661 133.512564 
L 265.453439 133.953815 
L 264.188216 134.397522 
L 262.922993 134.843708 
L 261.65777 135.292391 
L 260.392548 135.743594 
L 259.127325 136.197337 
L 259.127325 136.197337 
L 259.649943 43.975868 
L 260.17256 38.428469 
L 260.695178 35.183439 
L 261.217796 32.881051 
L 261.740413 31.095179 
L 262.263031 29.636014 
L 262.785649 28.402308 
L 263.308266 27.333623 
L 263.830884 26.390975 
L 264.353502 25.547748 
L 264.876119 24.784957 
L 265.398737 24.088583 
L 265.921355 23.44798 
L 266.443972 22.854875 
L 266.96659 22.302708 
L 267.489208 21.786189 
L 268.011825 21.300995 
L 268.534443 20.843541 
L 269.057061 20.410828 
L 269.579679 20.000314 
L 270.102296 19.609834 
L 270.624914 19.237522 
L 271.147532 18.881763 
L 271.670149 18.541148 
L 272.192767 18.214439 
L 272.715385 17.900545 
L 273.238002 17.5985 
L 273.76062 17.30744 
L 274.283238 17.026595 
L 274.805855 16.755272 
L 275.328473 16.492847 
L 275.851091 16.238754 
L 276.373708 15.99248 
L 276.896326 15.753559 
L 277.418944 15.521564 
L 277.941561 15.296105 
L 278.464179 15.076824 
L 278.986797 14.863391 
L 279.509414 14.655503 
L 280.032032 14.452878 
L 280.55465 14.255256 
L 281.077267 14.062397 
L 281.599885 13.874077 
L 282.122503 13.690086 
L 282.64512 13.51023 
L 283.167738 13.334327 
L 283.690356 13.162207 
L 284.212973 12.993711 
L 284.735591 12.82869 
L 285.258209 12.667002 
L 285.780826 12.508516 
L 286.303444 12.353108 
L 286.826062 12.200661 
L 287.348679 12.051063 
L 287.871297 11.90421 
L 288.393915 11.760003 
L 288.916532 11.618349 
L 289.43915 11.479158 
L 289.961768 11.342347 
L 290.484386 11.207835 
L 291.007003 11.075547 
L 291.529621 10.94541 
L 292.052239 10.817355 
L 292.574856 10.691317 
L 293.097474 10.567233 
L 293.620092 10.445043 
L 294.142709 10.324691 
L 294.665327 10.206122 
L 295.187945 10.089284 
L 295.710562 9.974127 
L 296.23318 9.860604 
L 296.755798 9.748668 
L 297.278415 9.638277 
L 297.801033 9.529387 
L 298.323651 9.421959 
L 298.846268 9.315954 
L 299.368886 9.211335 
L 299.891504 9.108066 
L 300.414121 9.006112 
L 300.936739 8.905441 
L 301.459357 8.80602 
L 301.981974 8.707819 
L 302.504592 8.610809 
L 303.02721 8.51496 
L 303.549827 8.420246 
L 304.072445 8.326639 
L 304.595063 8.234115 
L 305.11768 8.142648 
L 305.640298 8.052215 
L 306.162916 7.962792 
L 306.685533 7.874358 
L 307.208151 7.786889 
L 307.730769 7.700367 
L 308.253386 7.61477 
L 308.776004 7.530078 
L 309.298622 7.446274 
L 309.821239 7.363338 
L 310.343857 7.281252 
L 310.866475 7.2 
L 310.866475 7.2 
L 347.625425 7.2 
L 384.384375 7.2 
z
" clip-path="url(#p441b20c6cf)" style="fill: #90ee90; stroke: #90ee90; stroke-linejoin: miter"/>
   </g>
   <g id="PolyCollection_1">
    <defs>
     <path id="md4bc4e7052" d="M 49.584375 -36.845312 
L 49.584375 -57.015487 
L 51.70097 -60.335803 
L 53.817566 -63.598538 
L 55.934161 -66.805176 
L 58.050757 -69.957151 
L 60.167352 -73.05585 
L 62.283948 -76.102611 
L 64.400543 -79.098731 
L 66.517139 -82.04546 
L 68.633734 -84.944011 
L 70.75033 -87.795555 
L 72.866925 -90.601227 
L 74.98352 -93.362125 
L 77.100116 -96.079311 
L 79.216711 -98.753816 
L 81.333307 -101.386638 
L 83.449902 -103.978744 
L 85.566498 -106.531071 
L 87.683093 -109.044527 
L 89.799689 -111.519994 
L 91.916284 -113.958327 
L 94.03288 -116.360354 
L 96.149475 -118.726882 
L 98.26607 -121.058691 
L 100.382666 -123.356539 
L 102.499261 -125.621164 
L 104.615857 -127.85328 
L 106.732452 -130.053582 
L 108.849048 -132.222746 
L 110.965643 -134.361429 
L 113.082239 -136.470268 
L 115.198834 -138.549883 
L 117.31543 -140.600878 
L 119.432025 -142.623839 
L 121.54862 -144.619338 
L 123.665216 -146.58793 
L 125.781811 -148.530156 
L 127.898407 -150.446541 
L 130.015002 -152.337598 
L 132.131598 -154.203825 
L 134.248193 -156.04571 
L 136.364789 -157.863724 
L 138.481384 -159.658329 
L 140.59798 -161.429974 
L 142.714575 -163.179097 
L 144.83117 -164.906124 
L 146.947766 -166.611473 
L 149.064361 -168.295547 
L 151.180957 -169.958744 
L 153.297552 -171.601448 
L 155.414148 -173.224037 
L 157.530743 -174.826877 
L 159.647339 -176.410327 
L 161.763934 -177.974737 
L 163.88053 -179.520447 
L 165.997125 -181.047792 
L 168.11372 -182.557097 
L 170.230316 -184.048678 
L 172.346911 -185.522848 
L 174.463507 -186.979908 
L 176.580102 -188.420155 
L 178.696698 -189.843879 
L 180.813293 -191.251361 
L 182.929889 -192.642879 
L 185.046484 -194.018703 
L 187.16308 -195.379095 
L 189.279675 -196.724316 
L 191.39627 -198.054616 
L 193.512866 -199.370244 
L 195.629461 -200.67144 
L 197.746057 -201.95844 
L 199.862652 -203.231476 
L 201.979248 -204.490773 
L 204.095843 -205.736553 
L 206.212439 -206.969033 
L 208.329034 -208.188423 
L 210.44563 -209.394932 
L 212.562225 -210.588763 
L 214.67882 -211.770114 
L 216.795416 -212.939181 
L 218.912011 -214.096152 
L 221.028607 -215.241217 
L 223.145202 -216.374556 
L 225.261798 -217.49635 
L 227.378393 -218.606774 
L 229.494989 -219.706 
L 231.611584 -220.794197 
L 233.72818 -221.871529 
L 235.844775 -222.938159 
L 237.96137 -223.994245 
L 240.077966 -225.039943 
L 242.194561 -226.075405 
L 244.311157 -227.100781 
L 246.427752 -228.116218 
L 248.544348 -229.121859 
L 250.660943 -230.117846 
L 252.777539 -231.104316 
L 254.894134 -232.081406 
L 257.01073 -233.049249 
L 259.127325 -234.007975 
L 259.127325 -234.007975 
L 260.392548 -234.461719 
L 261.65777 -234.912921 
L 262.922993 -235.361605 
L 264.188216 -235.80779 
L 265.453439 -236.251498 
L 266.718661 -236.692749 
L 267.983884 -237.131563 
L 269.249107 -237.567961 
L 270.51433 -238.001963 
L 271.779552 -238.433588 
L 273.044775 -238.862855 
L 274.309998 -239.289785 
L 275.57522 -239.714395 
L 276.840443 -240.136705 
L 278.105666 -240.556734 
L 279.370889 -240.974499 
L 280.636111 -241.39002 
L 281.901334 -241.803314 
L 283.166557 -242.214399 
L 284.43178 -242.623293 
L 285.697002 -243.030013 
L 286.962225 -243.434576 
L 288.227448 -243.837 
L 289.49267 -244.237301 
L 290.757893 -244.635497 
L 292.023116 -245.031604 
L 293.288339 -245.425637 
L 294.553561 -245.817615 
L 295.818784 -246.207551 
L 297.084007 -246.595463 
L 298.34923 -246.981367 
L 299.614452 -247.365277 
L 300.879675 -247.747209 
L 302.144898 -248.127178 
L 303.41012 -248.5052 
L 304.675343 -248.881289 
L 305.940566 -249.25546 
L 307.205789 -249.627729 
L 308.471011 -249.998108 
L 309.736234 -250.366613 
L 311.001457 -250.733258 
L 312.26668 -251.098056 
L 313.531902 -251.461023 
L 314.797125 -251.822171 
L 316.062348 -252.181514 
L 317.32757 -252.539066 
L 318.592793 -252.894839 
L 319.858016 -253.248848 
L 321.123239 -253.601106 
L 322.388461 -253.951624 
L 323.653684 -254.300417 
L 324.918907 -254.647497 
L 326.18413 -254.992876 
L 327.449352 -255.336567 
L 328.714575 -255.678583 
L 329.979798 -256.018934 
L 331.24502 -256.357635 
L 332.510243 -256.694696 
L 333.775466 -257.030129 
L 335.040689 -257.363947 
L 336.305911 -257.696161 
L 337.571134 -258.026782 
L 338.836357 -258.355822 
L 340.10158 -258.683292 
L 341.366802 -259.009203 
L 342.632025 -259.333567 
L 343.897248 -259.656394 
L 345.16247 -259.977696 
L 346.427693 -260.297483 
L 347.692916 -260.615765 
L 348.958139 -260.932554 
L 350.223361 -261.24786 
L 351.488584 -261.561694 
L 352.753807 -261.874064 
L 354.01903 -262.184983 
L 355.284252 -262.494459 
L 356.549475 -262.802504 
L 357.814698 -263.109126 
L 359.07992 -263.414336 
L 360.345143 -263.718143 
L 361.610366 -264.020557 
L 362.875589 -264.321588 
L 364.140811 -264.621245 
L 365.406034 -264.919537 
L 366.671257 -265.216475 
L 367.93648 -265.512066 
L 369.201702 -265.80632 
L 370.466925 -266.099246 
L 371.732148 -266.390853 
L 372.99737 -266.681151 
L 374.262593 -266.970147 
L 375.527816 -267.25785 
L 376.793039 -267.54427 
L 378.058261 -267.829415 
L 379.323484 -268.113293 
L 380.588707 -268.395912 
L 381.85393 -268.677282 
L 383.119152 -268.95741 
L 384.384375 -269.236304 
L 384.384375 -36.845312 
L 384.384375 -36.845312 
L 383.119152 -36.845312 
L 381.85393 -36.845312 
L 380.588707 -36.845312 
L 379.323484 -36.845312 
L 378.058261 -36.845312 
L 376.793039 -36.845312 
L 375.527816 -36.845312 
L 374.262593 -36.845312 
L 372.99737 -36.845312 
L 371.732148 -36.845312 
L 370.466925 -36.845312 
L 369.201702 -36.845312 
L 367.93648 -36.845312 
L 366.671257 -36.845312 
L 365.406034 -36.845312 
L 364.140811 -36.845312 
L 362.875589 -36.845312 
L 361.610366 -36.845312 
L 360.345143 -36.845312 
L 359.07992 -36.845312 
L 357.814698 -36.845312 
L 356.549475 -36.845312 
L 355.284252 -36.845312 
L 354.01903 -36.845312 
L 352.753807 -36.845312 
L 351.488584 -36.845312 
L 350.223361 -36.845312 
L 348.958139 -36.845312 
L 347.692916 -36.845312 
L 346.427693 -36.845312 
L 345.16247 -36.845312 
L 343.897248 -36.845312 
L 342.632025 -36.845312 
L 341.366802 -36.845312 
L 340.10158 -36.845312 
L 338.836357 -36.845312 
L 337.571134 -36.845312 
L 336.305911 -36.845312 
L 335.040689 -36.845312 
L 333.775466 -36.845312 
L 332.510243 -36.845312 
L 331.24502 -36.845312 
L 329.979798 -36.845312 
L 328.714575 -36.845312 
L 327.449352 -36.845312 
L 326.18413 -36.845312 
L 324.918907 -36.845312 
L 323.653684 -36.845312 
L 322.388461 -36.845312 
L 321.123239 -36.845312 
L 319.858016 -36.845312 
L 318.592793 -36.845312 
L 317.32757 -36.845312 
L 316.062348 -36.845312 
L 314.797125 -36.845312 
L 313.531902 -36.845312 
L 312.26668 -36.845312 
L 311.001457 -36.845312 
L 309.736234 -36.845312 
L 308.471011 -36.845312 
L 307.205789 -36.845312 
L 305.940566 -36.845312 
L 304.675343 -36.845312 
L 303.41012 -36.845312 
L 302.144898 -36.845312 
L 300.879675 -36.845312 
L 299.614452 -36.845312 
L 298.34923 -36.845312 
L 297.084007 -36.845312 
L 295.818784 -36.845312 
L 294.553561 -36.845312 
L 293.288339 -36.845312 
L 292.023116 -36.845312 
L 290.757893 -36.845312 
L 289.49267 -36.845312 
L 288.227448 -36.845312 
L 286.962225 -36.845312 
L 285.697002 -36.845312 
L 284.43178 -36.845312 
L 283.166557 -36.845312 
L 281.901334 -36.845312 
L 280.636111 -36.845312 
L 279.370889 -36.845312 
L 278.105666 -36.845312 
L 276.840443 -36.845312 
L 275.57522 -36.845312 
L 274.309998 -36.845312 
L 273.044775 -36.845312 
L 271.779552 -36.845312 
L 270.51433 -36.845312 
L 269.249107 -36.845312 
L 267.983884 -36.845312 
L 266.718661 -36.845312 
L 265.453439 -36.845312 
L 264.188216 -36.845312 
L 262.922993 -36.845312 
L 261.65777 -36.845312 
L 260.392548 -36.845312 
L 259.127325 -36.845312 
L 259.127325 -36.845312 
L 257.01073 -36.845312 
L 254.894134 -36.845312 
L 252.777539 -36.845312 
L 250.660943 -36.845312 
L 248.544348 -36.845312 
L 246.427752 -36.845312 
L 244.311157 -36.845312 
L 242.194561 -36.845312 
L 240.077966 -36.845312 
L 237.96137 -36.845312 
L 235.844775 -36.845312 
L 233.72818 -36.845312 
L 231.611584 -36.845312 
L 229.494989 -36.845312 
L 227.378393 -36.845312 
L 225.261798 -36.845312 
L 223.145202 -36.845312 
L 221.028607 -36.845312 
L 218.912011 -36.845312 
L 216.795416 -36.845312 
L 214.67882 -36.845312 
L 212.562225 -36.845312 
L 210.44563 -36.845312 
L 208.329034 -36.845312 
L 206.212439 -36.845312 
L 204.095843 -36.845312 
L 201.979248 -36.845312 
L 199.862652 -36.845312 
L 197.746057 -36.845312 
L 195.629461 -36.845312 
L 193.512866 -36.845312 
L 191.39627 -36.845312 
L 189.279675 -36.845312 
L 187.16308 -36.845312 
L 185.046484 -36.845312 
L 182.929889 -36.845312 
L 180.813293 -36.845312 
L 178.696698 -36.845312 
L 176.580102 -36.845312 
L 174.463507 -36.845312 
L 172.346911 -36.845312 
L 170.230316 -36.845312 
L 168.11372 -36.845312 
L 165.997125 -36.845312 
L 163.88053 -36.845312 
L 161.763934 -36.845312 
L 159.647339 -36.845312 
L 157.530743 -36.845312 
L 155.414148 -36.845312 
L 153.297552 -36.845312 
L 151.180957 -36.845312 
L 149.064361 -36.845312 
L 146.947766 -36.845312 
L 144.83117 -36.845312 
L 142.714575 -36.845312 
L 140.59798 -36.845312 
L 138.481384 -36.845312 
L 136.364789 -36.845312 
L 134.248193 -36.845312 
L 132.131598 -36.845312 
L 130.015002 -36.845312 
L 127.898407 -36.845312 
L 125.781811 -36.845312 
L 123.665216 -36.845312 
L 121.54862 -36.845312 
L 119.432025 -36.845312 
L 117.31543 -36.845312 
L 115.198834 -36.845312 
L 113.082239 -36.845312 
L 110.965643 -36.845312 
L 108.849048 -36.845312 
L 106.732452 -36.845312 
L 104.615857 -36.845312 
L 102.499261 -36.845312 
L 100.382666 -36.845312 
L 98.26607 -36.845312 
L 96.149475 -36.845312 
L 94.03288 -36.845312 
L 91.916284 -36.845312 
L 89.799689 -36.845312 
L 87.683093 -36.845312 
L 85.566498 -36.845312 
L 83.449902 -36.845312 
L 81.333307 -36.845312 
L 79.216711 -36.845312 
L 77.100116 -36.845312 
L 74.98352 -36.845312 
L 72.866925 -36.845312 
L 70.75033 -36.845312 
L 68.633734 -36.845312 
L 66.517139 -36.845312 
L 64.400543 -36.845312 
L 62.283948 -36.845312 
L 60.167352 -36.845312 
L 58.050757 -36.845312 
L 55.934161 -36.845312 
L 53.817566 -36.845312 
L 51.70097 -36.845312 
L 49.584375 -36.845312 
z
" style="stroke: #d3d3d3"/>
    </defs>
    <g clip-path="url(#p441b20c6cf)">
     <use xlink:href="#md4bc4e7052" x="0" y="370.205312" style="fill: #d3d3d3; stroke: #d3d3d3"/>
    </g>
   </g>
   <g id="PolyCollection_2">
    <defs>
     <path id="mcff74cc798" d="M 49.584375 -36.845312 
L 49.584375 -294.839987 
L 133.284375 -294.839987 
L 216.984375 -294.839987 
L 300.684375 -294.839987 
L 384.384375 -294.839987 
L 384.384375 -36.845312 
L 384.384375 -36.845312 
L 300.684375 -36.845312 
L 216.984375 -36.845312 
L 133.284375 -36.845312 
L 49.584375 -36.845312 
z
" style="stroke: #ffffff; stroke-opacity: 0.8"/>
    </defs>
    <g clip-path="url(#p441b20c6cf)">
     <use xlink:href="#mcff74cc798" x="0" y="370.205312" style="fill: #ffffff; fill-opacity: 0.8; stroke: #ffffff; stroke-opacity: 0.8"/>
    </g>
   </g>
   <g id="matplotlib.axis_1">
    <g id="xtick_1">
     <g id="line2d_1">
      <path d="M 49.584375 333.36 
L 49.584375 7.2 
" clip-path="url(#p441b20c6cf)" style="fill: none; stroke: #d3d3d3; stroke-width: 0.2; stroke-linecap: square"/>
     </g>
     <g id="line2d_2">
      <defs>
       <path id="m603bef39bc" d="M 0 0 
L 0 3.5 
" style="stroke: #000000; stroke-width: 0.8"/>
      </defs>
      <g>
       <use xlink:href="#m603bef39bc" x="49.584375" y="333.36" style="stroke: #000000; stroke-width: 0.8"/>
      </g>
     </g>
     <g id="text_1">
      <!-- 300 -->
      <g transform="translate(41.242969 347.517812)scale(0.1 -0.1)">
       <defs>
        <path id="ArialMT-33" d="M 269 1209 
L 831 1284 
Q 928 806 1161 595 
Q 1394 384 1728 384 
Q 2125 384 2398 659 
Q 2672 934 2672 1341 
Q 2672 1728 2419 1979 
Q 2166 2231 1775 2231 
Q 1616 2231 1378 2169 
L 1441 2663 
Q 1497 2656 1531 2656 
Q 1891 2656 2178 2843 
Q 2466 3031 2466 3422 
Q 2466 3731 2256 3934 
Q 2047 4138 1716 4138 
Q 1388 4138 1169 3931 
Q 950 3725 888 3313 
L 325 3413 
Q 428 3978 793 4289 
Q 1159 4600 1703 4600 
Q 2078 4600 2393 4439 
Q 2709 4278 2876 4000 
Q 3044 3722 3044 3409 
Q 3044 3113 2884 2869 
Q 2725 2625 2413 2481 
Q 2819 2388 3044 2092 
Q 3269 1797 3269 1353 
Q 3269 753 2831 336 
Q 2394 -81 1725 -81 
Q 1122 -81 723 278 
Q 325 638 269 1209 
z
" transform="scale(0.015625)"/>
        <path id="ArialMT-30" d="M 266 2259 
Q 266 3072 433 3567 
Q 600 4063 929 4331 
Q 1259 4600 1759 4600 
Q 2128 4600 2406 4451 
Q 2684 4303 2865 4023 
Q 3047 3744 3150 3342 
Q 3253 2941 3253 2259 
Q 3253 1453 3087 958 
Q 2922 463 2592 192 
Q 2263 -78 1759 -78 
Q 1097 -78 719 397 
Q 266 969 266 2259 
z
M 844 2259 
Q 844 1131 1108 757 
Q 1372 384 1759 384 
Q 2147 384 2411 759 
Q 2675 1134 2675 2259 
Q 2675 3391 2411 3762 
Q 2147 4134 1753 4134 
Q 1366 4134 1134 3806 
Q 844 3388 844 2259 
z
" transform="scale(0.015625)"/>
       </defs>
       <use xlink:href="#ArialMT-33"/>
       <use xlink:href="#ArialMT-30" x="55.615234"/>
       <use xlink:href="#ArialMT-30" x="111.230469"/>
      </g>
     </g>
    </g>
    <g id="xtick_2">
     <g id="line2d_3">
      <path d="M 91.434375 333.36 
L 91.434375 7.2 
" clip-path="url(#p441b20c6cf)" style="fill: none; stroke: #d3d3d3; stroke-width: 0.2; stroke-linecap: square"/>
     </g>
     <g id="line2d_4">
      <g>
       <use xlink:href="#m603bef39bc" x="91.434375" y="333.36" style="stroke: #000000; stroke-width: 0.8"/>
      </g>
     </g>
     <g id="text_2">
      <!-- 400 -->
      <g transform="translate(83.092969 347.517812)scale(0.1 -0.1)">
       <defs>
        <path id="ArialMT-34" d="M 2069 0 
L 2069 1097 
L 81 1097 
L 81 1613 
L 2172 4581 
L 2631 4581 
L 2631 1613 
L 3250 1613 
L 3250 1097 
L 2631 1097 
L 2631 0 
L 2069 0 
z
M 2069 1613 
L 2069 3678 
L 634 1613 
L 2069 1613 
z
" transform="scale(0.015625)"/>
       </defs>
       <use xlink:href="#ArialMT-34"/>
       <use xlink:href="#ArialMT-30" x="55.615234"/>
       <use xlink:href="#ArialMT-30" x="111.230469"/>
      </g>
     </g>
    </g>
    <g id="xtick_3">
     <g id="line2d_5">
      <path d="M 133.284375 333.36 
L 133.284375 7.2 
" clip-path="url(#p441b20c6cf)" style="fill: none; stroke: #d3d3d3; stroke-width: 0.2; stroke-linecap: square"/>
     </g>
     <g id="line2d_6">
      <g>
       <use xlink:href="#m603bef39bc" x="133.284375" y="333.36" style="stroke: #000000; stroke-width: 0.8"/>
      </g>
     </g>
     <g id="text_3">
      <!-- 500 -->
      <g transform="translate(124.942969 347.517812)scale(0.1 -0.1)">
       <defs>
        <path id="ArialMT-35" d="M 266 1200 
L 856 1250 
Q 922 819 1161 601 
Q 1400 384 1738 384 
Q 2144 384 2425 690 
Q 2706 997 2706 1503 
Q 2706 1984 2436 2262 
Q 2166 2541 1728 2541 
Q 1456 2541 1237 2417 
Q 1019 2294 894 2097 
L 366 2166 
L 809 4519 
L 3088 4519 
L 3088 3981 
L 1259 3981 
L 1013 2750 
Q 1425 3038 1878 3038 
Q 2478 3038 2890 2622 
Q 3303 2206 3303 1553 
Q 3303 931 2941 478 
Q 2500 -78 1738 -78 
Q 1113 -78 717 272 
Q 322 622 266 1200 
z
" transform="scale(0.015625)"/>
       </defs>
       <use xlink:href="#ArialMT-35"/>
       <use xlink:href="#ArialMT-30" x="55.615234"/>
       <use xlink:href="#ArialMT-30" x="111.230469"/>
      </g>
     </g>
    </g>
    <g id="xtick_4">
     <g id="line2d_7">
      <path d="M 175.134375 333.36 
L 175.134375 7.2 
" clip-path="url(#p441b20c6cf)" style="fill: none; stroke: #d3d3d3; stroke-width: 0.2; stroke-linecap: square"/>
     </g>
     <g id="line2d_8">
      <g>
       <use xlink:href="#m603bef39bc" x="175.134375" y="333.36" style="stroke: #000000; stroke-width: 0.8"/>
      </g>
     </g>
     <g id="text_4">
      <!-- 600 -->
      <g transform="translate(166.792969 347.517812)scale(0.1 -0.1)">
       <defs>
        <path id="ArialMT-36" d="M 3184 3459 
L 2625 3416 
Q 2550 3747 2413 3897 
Q 2184 4138 1850 4138 
Q 1581 4138 1378 3988 
Q 1113 3794 959 3422 
Q 806 3050 800 2363 
Q 1003 2672 1297 2822 
Q 1591 2972 1913 2972 
Q 2475 2972 2870 2558 
Q 3266 2144 3266 1488 
Q 3266 1056 3080 686 
Q 2894 316 2569 119 
Q 2244 -78 1831 -78 
Q 1128 -78 684 439 
Q 241 956 241 2144 
Q 241 3472 731 4075 
Q 1159 4600 1884 4600 
Q 2425 4600 2770 4297 
Q 3116 3994 3184 3459 
z
M 888 1484 
Q 888 1194 1011 928 
Q 1134 663 1356 523 
Q 1578 384 1822 384 
Q 2178 384 2434 671 
Q 2691 959 2691 1453 
Q 2691 1928 2437 2201 
Q 2184 2475 1800 2475 
Q 1419 2475 1153 2201 
Q 888 1928 888 1484 
z
" transform="scale(0.015625)"/>
       </defs>
       <use xlink:href="#ArialMT-36"/>
       <use xlink:href="#ArialMT-30" x="55.615234"/>
       <use xlink:href="#ArialMT-30" x="111.230469"/>
      </g>
     </g>
    </g>
    <g id="xtick_5">
     <g id="line2d_9">
      <path d="M 216.984375 333.36 
L 216.984375 7.2 
" clip-path="url(#p441b20c6cf)" style="fill: none; stroke: #d3d3d3; stroke-width: 0.2; stroke-linecap: square"/>
     </g>
     <g id="line2d_10">
      <g>
       <use xlink:href="#m603bef39bc" x="216.984375" y="333.36" style="stroke: #000000; stroke-width: 0.8"/>
      </g>
     </g>
     <g id="text_5">
      <!-- 700 -->
      <g transform="translate(208.642969 347.517812)scale(0.1 -0.1)">
       <defs>
        <path id="ArialMT-37" d="M 303 3981 
L 303 4522 
L 3269 4522 
L 3269 4084 
Q 2831 3619 2401 2847 
Q 1972 2075 1738 1259 
Q 1569 684 1522 0 
L 944 0 
Q 953 541 1156 1306 
Q 1359 2072 1739 2783 
Q 2119 3494 2547 3981 
L 303 3981 
z
" transform="scale(0.015625)"/>
       </defs>
       <use xlink:href="#ArialMT-37"/>
       <use xlink:href="#ArialMT-30" x="55.615234"/>
       <use xlink:href="#ArialMT-30" x="111.230469"/>
      </g>
     </g>
    </g>
    <g id="xtick_6">
     <g id="line2d_11">
      <path d="M 258.834375 333.36 
L 258.834375 7.2 
" clip-path="url(#p441b20c6cf)" style="fill: none; stroke: #d3d3d3; stroke-width: 0.2; stroke-linecap: square"/>
     </g>
     <g id="line2d_12">
      <g>
       <use xlink:href="#m603bef39bc" x="258.834375" y="333.36" style="stroke: #000000; stroke-width: 0.8"/>
      </g>
     </g>
     <g id="text_6">
      <!-- 800 -->
      <g transform="translate(250.492969 347.517812)scale(0.1 -0.1)">
       <defs>
        <path id="ArialMT-38" d="M 1131 2484 
Q 781 2613 612 2850 
Q 444 3088 444 3419 
Q 444 3919 803 4259 
Q 1163 4600 1759 4600 
Q 2359 4600 2725 4251 
Q 3091 3903 3091 3403 
Q 3091 3084 2923 2848 
Q 2756 2613 2416 2484 
Q 2838 2347 3058 2040 
Q 3278 1734 3278 1309 
Q 3278 722 2862 322 
Q 2447 -78 1769 -78 
Q 1091 -78 675 323 
Q 259 725 259 1325 
Q 259 1772 486 2073 
Q 713 2375 1131 2484 
z
M 1019 3438 
Q 1019 3113 1228 2906 
Q 1438 2700 1772 2700 
Q 2097 2700 2305 2904 
Q 2513 3109 2513 3406 
Q 2513 3716 2298 3927 
Q 2084 4138 1766 4138 
Q 1444 4138 1231 3931 
Q 1019 3725 1019 3438 
z
M 838 1322 
Q 838 1081 952 856 
Q 1066 631 1291 507 
Q 1516 384 1775 384 
Q 2178 384 2440 643 
Q 2703 903 2703 1303 
Q 2703 1709 2433 1975 
Q 2163 2241 1756 2241 
Q 1359 2241 1098 1978 
Q 838 1716 838 1322 
z
" transform="scale(0.015625)"/>
       </defs>
       <use xlink:href="#ArialMT-38"/>
       <use xlink:href="#ArialMT-30" x="55.615234"/>
       <use xlink:href="#ArialMT-30" x="111.230469"/>
      </g>
     </g>
    </g>
    <g id="xtick_7">
     <g id="line2d_13">
      <path d="M 300.684375 333.36 
L 300.684375 7.2 
" clip-path="url(#p441b20c6cf)" style="fill: none; stroke: #d3d3d3; stroke-width: 0.2; stroke-linecap: square"/>
     </g>
     <g id="line2d_14">
      <g>
       <use xlink:href="#m603bef39bc" x="300.684375" y="333.36" style="stroke: #000000; stroke-width: 0.8"/>
      </g>
     </g>
     <g id="text_7">
      <!-- 900 -->
      <g transform="translate(292.342969 347.517812)scale(0.1 -0.1)">
       <defs>
        <path id="ArialMT-39" d="M 350 1059 
L 891 1109 
Q 959 728 1153 556 
Q 1347 384 1650 384 
Q 1909 384 2104 503 
Q 2300 622 2425 820 
Q 2550 1019 2634 1356 
Q 2719 1694 2719 2044 
Q 2719 2081 2716 2156 
Q 2547 1888 2255 1720 
Q 1963 1553 1622 1553 
Q 1053 1553 659 1965 
Q 266 2378 266 3053 
Q 266 3750 677 4175 
Q 1088 4600 1706 4600 
Q 2153 4600 2523 4359 
Q 2894 4119 3086 3673 
Q 3278 3228 3278 2384 
Q 3278 1506 3087 986 
Q 2897 466 2520 194 
Q 2144 -78 1638 -78 
Q 1100 -78 759 220 
Q 419 519 350 1059 
z
M 2653 3081 
Q 2653 3566 2395 3850 
Q 2138 4134 1775 4134 
Q 1400 4134 1122 3828 
Q 844 3522 844 3034 
Q 844 2597 1108 2323 
Q 1372 2050 1759 2050 
Q 2150 2050 2401 2323 
Q 2653 2597 2653 3081 
z
" transform="scale(0.015625)"/>
       </defs>
       <use xlink:href="#ArialMT-39"/>
       <use xlink:href="#ArialMT-30" x="55.615234"/>
       <use xlink:href="#ArialMT-30" x="111.230469"/>
      </g>
     </g>
    </g>
    <g id="xtick_8">
     <g id="line2d_15">
      <path d="M 342.534375 333.36 
L 342.534375 7.2 
" clip-path="url(#p441b20c6cf)" style="fill: none; stroke: #d3d3d3; stroke-width: 0.2; stroke-linecap: square"/>
     </g>
     <g id="line2d_16">
      <g>
       <use xlink:href="#m603bef39bc" x="342.534375" y="333.36" style="stroke: #000000; stroke-width: 0.8"/>
      </g>
     </g>
     <g id="text_8">
      <!-- 1000 -->
      <g transform="translate(331.4125 347.517812)scale(0.1 -0.1)">
       <defs>
        <path id="ArialMT-31" d="M 2384 0 
L 1822 0 
L 1822 3584 
Q 1619 3391 1289 3197 
Q 959 3003 697 2906 
L 697 3450 
Q 1169 3672 1522 3987 
Q 1875 4303 2022 4600 
L 2384 4600 
L 2384 0 
z
" transform="scale(0.015625)"/>
       </defs>
       <use xlink:href="#ArialMT-31"/>
       <use xlink:href="#ArialMT-30" x="55.615234"/>
       <use xlink:href="#ArialMT-30" x="111.230469"/>
       <use xlink:href="#ArialMT-30" x="166.845703"/>
      </g>
     </g>
    </g>
    <g id="xtick_9">
     <g id="line2d_17">
      <path d="M 384.384375 333.36 
L 384.384375 7.2 
" clip-path="url(#p441b20c6cf)" style="fill: none; stroke: #d3d3d3; stroke-width: 0.2; stroke-linecap: square"/>
     </g>
     <g id="line2d_18">
      <g>
       <use xlink:href="#m603bef39bc" x="384.384375" y="333.36" style="stroke: #000000; stroke-width: 0.8"/>
      </g>
     </g>
     <g id="text_9">
      <!-- 1100 -->
      <g transform="translate(373.63125 347.517812)scale(0.1 -0.1)">
       <use xlink:href="#ArialMT-31"/>
       <use xlink:href="#ArialMT-31" x="48.240234"/>
       <use xlink:href="#ArialMT-30" x="103.855469"/>
       <use xlink:href="#ArialMT-30" x="159.470703"/>
      </g>
     </g>
    </g>
    <g id="text_10">
     <!-- Temperature ($^{\circ}$C) -->
     <g transform="translate(177.734375 360.805313)scale(0.1 -0.1)">
      <defs>
       <path id="ArialMT-54" d="M 1659 0 
L 1659 4041 
L 150 4041 
L 150 4581 
L 3781 4581 
L 3781 4041 
L 2266 4041 
L 2266 0 
L 1659 0 
z
" transform="scale(0.015625)"/>
       <path id="ArialMT-65" d="M 2694 1069 
L 3275 997 
Q 3138 488 2766 206 
Q 2394 -75 1816 -75 
Q 1088 -75 661 373 
Q 234 822 234 1631 
Q 234 2469 665 2931 
Q 1097 3394 1784 3394 
Q 2450 3394 2872 2941 
Q 3294 2488 3294 1666 
Q 3294 1616 3291 1516 
L 816 1516 
Q 847 969 1125 678 
Q 1403 388 1819 388 
Q 2128 388 2347 550 
Q 2566 713 2694 1069 
z
M 847 1978 
L 2700 1978 
Q 2663 2397 2488 2606 
Q 2219 2931 1791 2931 
Q 1403 2931 1139 2672 
Q 875 2413 847 1978 
z
" transform="scale(0.015625)"/>
       <path id="ArialMT-6d" d="M 422 0 
L 422 3319 
L 925 3319 
L 925 2853 
Q 1081 3097 1340 3245 
Q 1600 3394 1931 3394 
Q 2300 3394 2536 3241 
Q 2772 3088 2869 2813 
Q 3263 3394 3894 3394 
Q 4388 3394 4653 3120 
Q 4919 2847 4919 2278 
L 4919 0 
L 4359 0 
L 4359 2091 
Q 4359 2428 4304 2576 
Q 4250 2725 4106 2815 
Q 3963 2906 3769 2906 
Q 3419 2906 3187 2673 
Q 2956 2441 2956 1928 
L 2956 0 
L 2394 0 
L 2394 2156 
Q 2394 2531 2256 2718 
Q 2119 2906 1806 2906 
Q 1569 2906 1367 2781 
Q 1166 2656 1075 2415 
Q 984 2175 984 1722 
L 984 0 
L 422 0 
z
" transform="scale(0.015625)"/>
       <path id="ArialMT-70" d="M 422 -1272 
L 422 3319 
L 934 3319 
L 934 2888 
Q 1116 3141 1344 3267 
Q 1572 3394 1897 3394 
Q 2322 3394 2647 3175 
Q 2972 2956 3137 2557 
Q 3303 2159 3303 1684 
Q 3303 1175 3120 767 
Q 2938 359 2589 142 
Q 2241 -75 1856 -75 
Q 1575 -75 1351 44 
Q 1128 163 984 344 
L 984 -1272 
L 422 -1272 
z
M 931 1641 
Q 931 1000 1190 694 
Q 1450 388 1819 388 
Q 2194 388 2461 705 
Q 2728 1022 2728 1688 
Q 2728 2322 2467 2637 
Q 2206 2953 1844 2953 
Q 1484 2953 1207 2617 
Q 931 2281 931 1641 
z
" transform="scale(0.015625)"/>
       <path id="ArialMT-72" d="M 416 0 
L 416 3319 
L 922 3319 
L 922 2816 
Q 1116 3169 1280 3281 
Q 1444 3394 1641 3394 
Q 1925 3394 2219 3213 
L 2025 2691 
Q 1819 2813 1613 2813 
Q 1428 2813 1281 2702 
Q 1134 2591 1072 2394 
Q 978 2094 978 1738 
L 978 0 
L 416 0 
z
" transform="scale(0.015625)"/>
       <path id="ArialMT-61" d="M 2588 409 
Q 2275 144 1986 34 
Q 1697 -75 1366 -75 
Q 819 -75 525 192 
Q 231 459 231 875 
Q 231 1119 342 1320 
Q 453 1522 633 1644 
Q 813 1766 1038 1828 
Q 1203 1872 1538 1913 
Q 2219 1994 2541 2106 
Q 2544 2222 2544 2253 
Q 2544 2597 2384 2738 
Q 2169 2928 1744 2928 
Q 1347 2928 1158 2789 
Q 969 2650 878 2297 
L 328 2372 
Q 403 2725 575 2942 
Q 747 3159 1072 3276 
Q 1397 3394 1825 3394 
Q 2250 3394 2515 3294 
Q 2781 3194 2906 3042 
Q 3031 2891 3081 2659 
Q 3109 2516 3109 2141 
L 3109 1391 
Q 3109 606 3145 398 
Q 3181 191 3288 0 
L 2700 0 
Q 2613 175 2588 409 
z
M 2541 1666 
Q 2234 1541 1622 1453 
Q 1275 1403 1131 1340 
Q 988 1278 909 1158 
Q 831 1038 831 891 
Q 831 666 1001 516 
Q 1172 366 1500 366 
Q 1825 366 2078 508 
Q 2331 650 2450 897 
Q 2541 1088 2541 1459 
L 2541 1666 
z
" transform="scale(0.015625)"/>
       <path id="ArialMT-74" d="M 1650 503 
L 1731 6 
Q 1494 -44 1306 -44 
Q 1000 -44 831 53 
Q 663 150 594 308 
Q 525 466 525 972 
L 525 2881 
L 113 2881 
L 113 3319 
L 525 3319 
L 525 4141 
L 1084 4478 
L 1084 3319 
L 1650 3319 
L 1650 2881 
L 1084 2881 
L 1084 941 
Q 1084 700 1114 631 
Q 1144 563 1211 522 
Q 1278 481 1403 481 
Q 1497 481 1650 503 
z
" transform="scale(0.015625)"/>
       <path id="ArialMT-75" d="M 2597 0 
L 2597 488 
Q 2209 -75 1544 -75 
Q 1250 -75 995 37 
Q 741 150 617 320 
Q 494 491 444 738 
Q 409 903 409 1263 
L 409 3319 
L 972 3319 
L 972 1478 
Q 972 1038 1006 884 
Q 1059 663 1231 536 
Q 1403 409 1656 409 
Q 1909 409 2131 539 
Q 2353 669 2445 892 
Q 2538 1116 2538 1541 
L 2538 3319 
L 3100 3319 
L 3100 0 
L 2597 0 
z
" transform="scale(0.015625)"/>
       <path id="ArialMT-20" transform="scale(0.015625)"/>
       <path id="ArialMT-28" d="M 1497 -1347 
Q 1031 -759 709 28 
Q 388 816 388 1659 
Q 388 2403 628 3084 
Q 909 3875 1497 4659 
L 1900 4659 
Q 1522 4009 1400 3731 
Q 1209 3300 1100 2831 
Q 966 2247 966 1656 
Q 966 153 1900 -1347 
L 1497 -1347 
z
" transform="scale(0.015625)"/>
       <path id="Cmsy10-b1" d="M 1600 359 
Q 1269 359 983 526 
Q 697 694 528 984 
Q 359 1275 359 1600 
Q 359 1925 528 2215 
Q 697 2506 983 2673 
Q 1269 2841 1600 2841 
Q 1931 2841 2215 2672 
Q 2500 2503 2667 2214 
Q 2834 1925 2834 1600 
Q 2834 1275 2667 986 
Q 2500 697 2215 528 
Q 1931 359 1600 359 
z
M 1600 616 
Q 2000 616 2289 908 
Q 2578 1200 2578 1600 
Q 2578 1856 2445 2086 
Q 2313 2316 2088 2450 
Q 1863 2584 1600 2584 
Q 1403 2584 1225 2507 
Q 1047 2431 906 2290 
Q 766 2150 691 1973 
Q 616 1797 616 1600 
Q 616 1200 905 908 
Q 1194 616 1600 616 
z
" transform="scale(0.015625)"/>
       <path id="ArialMT-43" d="M 3763 1606 
L 4369 1453 
Q 4178 706 3683 314 
Q 3188 -78 2472 -78 
Q 1731 -78 1267 223 
Q 803 525 561 1097 
Q 319 1669 319 2325 
Q 319 3041 592 3573 
Q 866 4106 1370 4382 
Q 1875 4659 2481 4659 
Q 3169 4659 3637 4309 
Q 4106 3959 4291 3325 
L 3694 3184 
Q 3534 3684 3231 3912 
Q 2928 4141 2469 4141 
Q 1941 4141 1586 3887 
Q 1231 3634 1087 3207 
Q 944 2781 944 2328 
Q 944 1744 1114 1308 
Q 1284 872 1643 656 
Q 2003 441 2422 441 
Q 2931 441 3284 734 
Q 3638 1028 3763 1606 
z
" transform="scale(0.015625)"/>
       <path id="ArialMT-29" d="M 791 -1347 
L 388 -1347 
Q 1322 153 1322 1656 
Q 1322 2244 1188 2822 
Q 1081 3291 891 3722 
Q 769 4003 388 4659 
L 791 4659 
Q 1378 3875 1659 3084 
Q 1900 2403 1900 1659 
Q 1900 816 1576 28 
Q 1253 -759 791 -1347 
z
" transform="scale(0.015625)"/>
      </defs>
      <use xlink:href="#ArialMT-54" transform="translate(0 0.203125)"/>
      <use xlink:href="#ArialMT-65" transform="translate(61.083984 0.203125)"/>
      <use xlink:href="#ArialMT-6d" transform="translate(116.699219 0.203125)"/>
      <use xlink:href="#ArialMT-70" transform="translate(200 0.203125)"/>
      <use xlink:href="#ArialMT-65" transform="translate(255.615234 0.203125)"/>
      <use xlink:href="#ArialMT-72" transform="translate(311.230469 0.203125)"/>
      <use xlink:href="#ArialMT-61" transform="translate(344.53125 0.203125)"/>
      <use xlink:href="#ArialMT-74" transform="translate(400.146484 0.203125)"/>
      <use xlink:href="#ArialMT-75" transform="translate(427.929688 0.203125)"/>
      <use xlink:href="#ArialMT-72" transform="translate(483.544922 0.203125)"/>
      <use xlink:href="#ArialMT-65" transform="translate(516.845703 0.203125)"/>
      <use xlink:href="#ArialMT-20" transform="translate(572.460938 0.203125)"/>
      <use xlink:href="#ArialMT-28" transform="translate(600.244141 0.203125)"/>
      <use xlink:href="#Cmsy10-b1" transform="translate(638.009063 38.467188)scale(0.7)"/>
      <use xlink:href="#ArialMT-43" transform="translate(679.386406 0.203125)"/>
      <use xlink:href="#ArialMT-29" transform="translate(751.603203 0.203125)"/>
     </g>
    </g>
   </g>
   <g id="matplotlib.axis_2">
    <g id="ytick_1">
     <g id="line2d_19">
      <path d="M 49.584375 333.36 
L 384.384375 333.36 
" clip-path="url(#p441b20c6cf)" style="fill: none; stroke: #d3d3d3; stroke-width: 0.2; stroke-linecap: square"/>
     </g>
     <g id="line2d_20">
      <defs>
       <path id="mfa21eb0ed7" d="M 0 0 
L -3.5 0 
" style="stroke: #000000; stroke-width: 0.8"/>
      </defs>
      <g>
       <use xlink:href="#mfa21eb0ed7" x="49.584375" y="333.36" style="stroke: #000000; stroke-width: 0.8"/>
      </g>
     </g>
     <g id="text_11">
      <!-- $\mathdefault{10^{-14}}$ -->
      <g transform="translate(20.584375 338.51625)scale(0.1 -0.1)">
       <defs>
        <path id="ArialMT-2d" d="M 203 1375 
L 203 1941 
L 1931 1941 
L 1931 1375 
L 203 1375 
z
" transform="scale(0.015625)"/>
       </defs>
       <use xlink:href="#ArialMT-31" transform="translate(0 0.99375)"/>
       <use xlink:href="#ArialMT-30" transform="translate(55.615234 0.99375)"/>
       <use xlink:href="#ArialMT-2d" transform="translate(112.972813 70.6875)scale(0.7)"/>
       <use xlink:href="#ArialMT-31" transform="translate(136.283359 70.6875)scale(0.7)"/>
       <use xlink:href="#ArialMT-34" transform="translate(175.214023 70.6875)scale(0.7)"/>
      </g>
     </g>
    </g>
    <g id="ytick_2">
     <g id="line2d_21">
      <path d="M 49.584375 314.931809 
L 384.384375 314.931809 
" clip-path="url(#p441b20c6cf)" style="fill: none; stroke: #d3d3d3; stroke-width: 0.2; stroke-linecap: square"/>
     </g>
     <g id="line2d_22">
      <g>
       <use xlink:href="#mfa21eb0ed7" x="49.584375" y="314.931809" style="stroke: #000000; stroke-width: 0.8"/>
      </g>
     </g>
     <g id="text_12">
      <!-- $\mathdefault{10^{-13}}$ -->
      <g transform="translate(20.584375 320.088059)scale(0.1 -0.1)">
       <use xlink:href="#ArialMT-31" transform="translate(0 0.99375)"/>
       <use xlink:href="#ArialMT-30" transform="translate(55.615234 0.99375)"/>
       <use xlink:href="#ArialMT-2d" transform="translate(112.972813 70.6875)scale(0.7)"/>
       <use xlink:href="#ArialMT-31" transform="translate(136.283359 70.6875)scale(0.7)"/>
       <use xlink:href="#ArialMT-33" transform="translate(175.214023 70.6875)scale(0.7)"/>
      </g>
     </g>
    </g>
    <g id="ytick_3">
     <g id="line2d_23">
      <path d="M 49.584375 296.503618 
L 384.384375 296.503618 
" clip-path="url(#p441b20c6cf)" style="fill: none; stroke: #d3d3d3; stroke-width: 0.2; stroke-linecap: square"/>
     </g>
     <g id="line2d_24">
      <g>
       <use xlink:href="#mfa21eb0ed7" x="49.584375" y="296.503618" style="stroke: #000000; stroke-width: 0.8"/>
      </g>
     </g>
     <g id="text_13">
      <!-- $\mathdefault{10^{-12}}$ -->
      <g transform="translate(20.584375 301.659868)scale(0.1 -0.1)">
       <defs>
        <path id="ArialMT-32" d="M 3222 541 
L 3222 0 
L 194 0 
Q 188 203 259 391 
Q 375 700 629 1000 
Q 884 1300 1366 1694 
Q 2113 2306 2375 2664 
Q 2638 3022 2638 3341 
Q 2638 3675 2398 3904 
Q 2159 4134 1775 4134 
Q 1369 4134 1125 3890 
Q 881 3647 878 3216 
L 300 3275 
Q 359 3922 746 4261 
Q 1134 4600 1788 4600 
Q 2447 4600 2831 4234 
Q 3216 3869 3216 3328 
Q 3216 3053 3103 2787 
Q 2991 2522 2730 2228 
Q 2469 1934 1863 1422 
Q 1356 997 1212 845 
Q 1069 694 975 541 
L 3222 541 
z
" transform="scale(0.015625)"/>
       </defs>
       <use xlink:href="#ArialMT-31" transform="translate(0 0.99375)"/>
       <use xlink:href="#ArialMT-30" transform="translate(55.615234 0.99375)"/>
       <use xlink:href="#ArialMT-2d" transform="translate(112.972813 70.6875)scale(0.7)"/>
       <use xlink:href="#ArialMT-31" transform="translate(136.283359 70.6875)scale(0.7)"/>
       <use xlink:href="#ArialMT-32" transform="translate(175.214023 70.6875)scale(0.7)"/>
      </g>
     </g>
    </g>
    <g id="ytick_4">
     <g id="line2d_25">
      <path d="M 49.584375 278.075427 
L 384.384375 278.075427 
" clip-path="url(#p441b20c6cf)" style="fill: none; stroke: #d3d3d3; stroke-width: 0.2; stroke-linecap: square"/>
     </g>
     <g id="line2d_26">
      <g>
       <use xlink:href="#mfa21eb0ed7" x="49.584375" y="278.075427" style="stroke: #000000; stroke-width: 0.8"/>
      </g>
     </g>
     <g id="text_14">
      <!-- $\mathdefault{10^{-11}}$ -->
      <g transform="translate(20.584375 283.231677)scale(0.1 -0.1)">
       <use xlink:href="#ArialMT-31" transform="translate(0 0.99375)"/>
       <use xlink:href="#ArialMT-30" transform="translate(55.615234 0.99375)"/>
       <use xlink:href="#ArialMT-2d" transform="translate(112.972813 70.6875)scale(0.7)"/>
       <use xlink:href="#ArialMT-31" transform="translate(136.283359 70.6875)scale(0.7)"/>
       <use xlink:href="#ArialMT-31" transform="translate(175.214023 70.6875)scale(0.7)"/>
      </g>
     </g>
    </g>
    <g id="ytick_5">
     <g id="line2d_27">
      <path d="M 49.584375 259.647236 
L 384.384375 259.647236 
" clip-path="url(#p441b20c6cf)" style="fill: none; stroke: #d3d3d3; stroke-width: 0.2; stroke-linecap: square"/>
     </g>
     <g id="line2d_28">
      <g>
       <use xlink:href="#mfa21eb0ed7" x="49.584375" y="259.647236" style="stroke: #000000; stroke-width: 0.8"/>
      </g>
     </g>
     <g id="text_15">
      <!-- $\mathdefault{10^{-10}}$ -->
      <g transform="translate(20.584375 264.803486)scale(0.1 -0.1)">
       <use xlink:href="#ArialMT-31" transform="translate(0 0.99375)"/>
       <use xlink:href="#ArialMT-30" transform="translate(55.615234 0.99375)"/>
       <use xlink:href="#ArialMT-2d" transform="translate(112.972813 70.6875)scale(0.7)"/>
       <use xlink:href="#ArialMT-31" transform="translate(136.283359 70.6875)scale(0.7)"/>
       <use xlink:href="#ArialMT-30" transform="translate(175.214023 70.6875)scale(0.7)"/>
      </g>
     </g>
    </g>
    <g id="ytick_6">
     <g id="line2d_29">
      <path d="M 49.584375 241.219045 
L 384.384375 241.219045 
" clip-path="url(#p441b20c6cf)" style="fill: none; stroke: #d3d3d3; stroke-width: 0.2; stroke-linecap: square"/>
     </g>
     <g id="line2d_30">
      <g>
       <use xlink:href="#mfa21eb0ed7" x="49.584375" y="241.219045" style="stroke: #000000; stroke-width: 0.8"/>
      </g>
     </g>
     <g id="text_16">
      <!-- $\mathdefault{10^{-9}}$ -->
      <g transform="translate(24.484375 246.375295)scale(0.1 -0.1)">
       <use xlink:href="#ArialMT-31" transform="translate(0 0.99375)"/>
       <use xlink:href="#ArialMT-30" transform="translate(55.615234 0.99375)"/>
       <use xlink:href="#ArialMT-2d" transform="translate(112.972813 70.6875)scale(0.7)"/>
       <use xlink:href="#ArialMT-39" transform="translate(136.283359 70.6875)scale(0.7)"/>
      </g>
     </g>
    </g>
    <g id="ytick_7">
     <g id="line2d_31">
      <path d="M 49.584375 222.790854 
L 384.384375 222.790854 
" clip-path="url(#p441b20c6cf)" style="fill: none; stroke: #d3d3d3; stroke-width: 0.2; stroke-linecap: square"/>
     </g>
     <g id="line2d_32">
      <g>
       <use xlink:href="#mfa21eb0ed7" x="49.584375" y="222.790854" style="stroke: #000000; stroke-width: 0.8"/>
      </g>
     </g>
     <g id="text_17">
      <!-- $\mathdefault{10^{-8}}$ -->
      <g transform="translate(24.484375 227.947104)scale(0.1 -0.1)">
       <use xlink:href="#ArialMT-31" transform="translate(0 0.99375)"/>
       <use xlink:href="#ArialMT-30" transform="translate(55.615234 0.99375)"/>
       <use xlink:href="#ArialMT-2d" transform="translate(112.972813 70.6875)scale(0.7)"/>
       <use xlink:href="#ArialMT-38" transform="translate(136.283359 70.6875)scale(0.7)"/>
      </g>
     </g>
    </g>
    <g id="ytick_8">
     <g id="line2d_33">
      <path d="M 49.584375 204.362663 
L 384.384375 204.362663 
" clip-path="url(#p441b20c6cf)" style="fill: none; stroke: #d3d3d3; stroke-width: 0.2; stroke-linecap: square"/>
     </g>
     <g id="line2d_34">
      <g>
       <use xlink:href="#mfa21eb0ed7" x="49.584375" y="204.362663" style="stroke: #000000; stroke-width: 0.8"/>
      </g>
     </g>
     <g id="text_18">
      <!-- $\mathdefault{10^{-7}}$ -->
      <g transform="translate(24.484375 209.468913)scale(0.1 -0.1)">
       <use xlink:href="#ArialMT-31" transform="translate(0 0.846875)"/>
       <use xlink:href="#ArialMT-30" transform="translate(55.615234 0.846875)"/>
       <use xlink:href="#ArialMT-2d" transform="translate(112.972813 70.540625)scale(0.7)"/>
       <use xlink:href="#ArialMT-37" transform="translate(136.283359 70.540625)scale(0.7)"/>
      </g>
     </g>
    </g>
    <g id="ytick_9">
     <g id="line2d_35">
      <path d="M 49.584375 185.934472 
L 384.384375 185.934472 
" clip-path="url(#p441b20c6cf)" style="fill: none; stroke: #d3d3d3; stroke-width: 0.2; stroke-linecap: square"/>
     </g>
     <g id="line2d_36">
      <g>
       <use xlink:href="#mfa21eb0ed7" x="49.584375" y="185.934472" style="stroke: #000000; stroke-width: 0.8"/>
      </g>
     </g>
     <g id="text_19">
      <!-- $\mathdefault{10^{-6}}$ -->
      <g transform="translate(24.484375 191.090722)scale(0.1 -0.1)">
       <use xlink:href="#ArialMT-31" transform="translate(0 0.99375)"/>
       <use xlink:href="#ArialMT-30" transform="translate(55.615234 0.99375)"/>
       <use xlink:href="#ArialMT-2d" transform="translate(112.972813 70.6875)scale(0.7)"/>
       <use xlink:href="#ArialMT-36" transform="translate(136.283359 70.6875)scale(0.7)"/>
      </g>
     </g>
    </g>
    <g id="ytick_10">
     <g id="line2d_37">
      <path d="M 49.584375 167.506281 
L 384.384375 167.506281 
" clip-path="url(#p441b20c6cf)" style="fill: none; stroke: #d3d3d3; stroke-width: 0.2; stroke-linecap: square"/>
     </g>
     <g id="line2d_38">
      <g>
       <use xlink:href="#mfa21eb0ed7" x="49.584375" y="167.506281" style="stroke: #000000; stroke-width: 0.8"/>
      </g>
     </g>
     <g id="text_20">
      <!-- $\mathdefault{10^{-5}}$ -->
      <g transform="translate(24.484375 172.612531)scale(0.1 -0.1)">
       <use xlink:href="#ArialMT-31" transform="translate(0 0.879688)"/>
       <use xlink:href="#ArialMT-30" transform="translate(55.615234 0.879688)"/>
       <use xlink:href="#ArialMT-2d" transform="translate(112.972813 70.573438)scale(0.7)"/>
       <use xlink:href="#ArialMT-35" transform="translate(136.283359 70.573438)scale(0.7)"/>
      </g>
     </g>
    </g>
    <g id="ytick_11">
     <g id="line2d_39">
      <path d="M 49.584375 149.07809 
L 384.384375 149.07809 
" clip-path="url(#p441b20c6cf)" style="fill: none; stroke: #d3d3d3; stroke-width: 0.2; stroke-linecap: square"/>
     </g>
     <g id="line2d_40">
      <g>
       <use xlink:href="#mfa21eb0ed7" x="49.584375" y="149.07809" style="stroke: #000000; stroke-width: 0.8"/>
      </g>
     </g>
     <g id="text_21">
      <!-- $\mathdefault{10^{-4}}$ -->
      <g transform="translate(24.484375 154.18434)scale(0.1 -0.1)">
       <use xlink:href="#ArialMT-31" transform="translate(0 0.201563)"/>
       <use xlink:href="#ArialMT-30" transform="translate(55.615234 0.201563)"/>
       <use xlink:href="#ArialMT-2d" transform="translate(112.972813 69.895313)scale(0.7)"/>
       <use xlink:href="#ArialMT-34" transform="translate(136.283359 69.895313)scale(0.7)"/>
      </g>
     </g>
    </g>
    <g id="ytick_12">
     <g id="line2d_41">
      <path d="M 49.584375 130.649899 
L 384.384375 130.649899 
" clip-path="url(#p441b20c6cf)" style="fill: none; stroke: #d3d3d3; stroke-width: 0.2; stroke-linecap: square"/>
     </g>
     <g id="line2d_42">
      <g>
       <use xlink:href="#mfa21eb0ed7" x="49.584375" y="130.649899" style="stroke: #000000; stroke-width: 0.8"/>
      </g>
     </g>
     <g id="text_22">
      <!-- $\mathdefault{10^{-3}}$ -->
      <g transform="translate(24.484375 135.806149)scale(0.1 -0.1)">
       <use xlink:href="#ArialMT-31" transform="translate(0 0.99375)"/>
       <use xlink:href="#ArialMT-30" transform="translate(55.615234 0.99375)"/>
       <use xlink:href="#ArialMT-2d" transform="translate(112.972813 70.6875)scale(0.7)"/>
       <use xlink:href="#ArialMT-33" transform="translate(136.283359 70.6875)scale(0.7)"/>
      </g>
     </g>
    </g>
    <g id="ytick_13">
     <g id="line2d_43">
      <path d="M 49.584375 112.221708 
L 384.384375 112.221708 
" clip-path="url(#p441b20c6cf)" style="fill: none; stroke: #d3d3d3; stroke-width: 0.2; stroke-linecap: square"/>
     </g>
     <g id="line2d_44">
      <g>
       <use xlink:href="#mfa21eb0ed7" x="49.584375" y="112.221708" style="stroke: #000000; stroke-width: 0.8"/>
      </g>
     </g>
     <g id="text_23">
      <!-- $\mathdefault{10^{-2}}$ -->
      <g transform="translate(24.484375 117.377958)scale(0.1 -0.1)">
       <use xlink:href="#ArialMT-31" transform="translate(0 0.99375)"/>
       <use xlink:href="#ArialMT-30" transform="translate(55.615234 0.99375)"/>
       <use xlink:href="#ArialMT-2d" transform="translate(112.972813 70.6875)scale(0.7)"/>
       <use xlink:href="#ArialMT-32" transform="translate(136.283359 70.6875)scale(0.7)"/>
      </g>
     </g>
    </g>
    <g id="ytick_14">
     <g id="line2d_45">
      <path d="M 49.584375 93.793517 
L 384.384375 93.793517 
" clip-path="url(#p441b20c6cf)" style="fill: none; stroke: #d3d3d3; stroke-width: 0.2; stroke-linecap: square"/>
     </g>
     <g id="line2d_46">
      <g>
       <use xlink:href="#mfa21eb0ed7" x="49.584375" y="93.793517" style="stroke: #000000; stroke-width: 0.8"/>
      </g>
     </g>
     <g id="text_24">
      <!-- $\mathdefault{10^{-1}}$ -->
      <g transform="translate(24.484375 98.949767)scale(0.1 -0.1)">
       <use xlink:href="#ArialMT-31" transform="translate(0 0.99375)"/>
       <use xlink:href="#ArialMT-30" transform="translate(55.615234 0.99375)"/>
       <use xlink:href="#ArialMT-2d" transform="translate(112.972813 70.6875)scale(0.7)"/>
       <use xlink:href="#ArialMT-31" transform="translate(136.283359 70.6875)scale(0.7)"/>
      </g>
     </g>
    </g>
    <g id="ytick_15">
     <g id="line2d_47">
      <path d="M 49.584375 75.365326 
L 384.384375 75.365326 
" clip-path="url(#p441b20c6cf)" style="fill: none; stroke: #d3d3d3; stroke-width: 0.2; stroke-linecap: square"/>
     </g>
     <g id="line2d_48">
      <g>
       <use xlink:href="#mfa21eb0ed7" x="49.584375" y="75.365326" style="stroke: #000000; stroke-width: 0.8"/>
      </g>
     </g>
     <g id="text_25">
      <!-- $\mathdefault{10^{0}}$ -->
      <g transform="translate(26.884375 80.521576)scale(0.1 -0.1)">
       <use xlink:href="#ArialMT-31" transform="translate(0 0.99375)"/>
       <use xlink:href="#ArialMT-30" transform="translate(55.615234 0.99375)"/>
       <use xlink:href="#ArialMT-30" transform="translate(112.972813 70.6875)scale(0.7)"/>
      </g>
     </g>
    </g>
    <g id="ytick_16">
     <g id="line2d_49">
      <path d="M 49.584375 56.937135 
L 384.384375 56.937135 
" clip-path="url(#p441b20c6cf)" style="fill: none; stroke: #d3d3d3; stroke-width: 0.2; stroke-linecap: square"/>
     </g>
     <g id="line2d_50">
      <g>
       <use xlink:href="#mfa21eb0ed7" x="49.584375" y="56.937135" style="stroke: #000000; stroke-width: 0.8"/>
      </g>
     </g>
     <g id="text_26">
      <!-- $\mathdefault{10^{1}}$ -->
      <g transform="translate(26.884375 62.093385)scale(0.1 -0.1)">
       <use xlink:href="#ArialMT-31" transform="translate(0 0.99375)"/>
       <use xlink:href="#ArialMT-30" transform="translate(55.615234 0.99375)"/>
       <use xlink:href="#ArialMT-31" transform="translate(112.972813 70.6875)scale(0.7)"/>
      </g>
     </g>
    </g>
    <g id="ytick_17">
     <g id="line2d_51">
      <path d="M 49.584375 38.508944 
L 384.384375 38.508944 
" clip-path="url(#p441b20c6cf)" style="fill: none; stroke: #d3d3d3; stroke-width: 0.2; stroke-linecap: square"/>
     </g>
     <g id="line2d_52">
      <g>
       <use xlink:href="#mfa21eb0ed7" x="49.584375" y="38.508944" style="stroke: #000000; stroke-width: 0.8"/>
      </g>
     </g>
     <g id="text_27">
      <!-- $\mathdefault{10^{2}}$ -->
      <g transform="translate(26.884375 43.665194)scale(0.1 -0.1)">
       <use xlink:href="#ArialMT-31" transform="translate(0 0.99375)"/>
       <use xlink:href="#ArialMT-30" transform="translate(55.615234 0.99375)"/>
       <use xlink:href="#ArialMT-32" transform="translate(112.972813 70.6875)scale(0.7)"/>
      </g>
     </g>
    </g>
    <g id="ytick_18">
     <g id="line2d_53">
      <path d="M 49.584375 20.080753 
L 384.384375 20.080753 
" clip-path="url(#p441b20c6cf)" style="fill: none; stroke: #d3d3d3; stroke-width: 0.2; stroke-linecap: square"/>
     </g>
     <g id="line2d_54">
      <g>
       <use xlink:href="#mfa21eb0ed7" x="49.584375" y="20.080753" style="stroke: #000000; stroke-width: 0.8"/>
      </g>
     </g>
     <g id="text_28">
      <!-- $\mathdefault{10^{3}}$ -->
      <g transform="translate(26.884375 25.237003)scale(0.1 -0.1)">
       <use xlink:href="#ArialMT-31" transform="translate(0 0.99375)"/>
       <use xlink:href="#ArialMT-30" transform="translate(55.615234 0.99375)"/>
       <use xlink:href="#ArialMT-33" transform="translate(112.972813 70.6875)scale(0.7)"/>
      </g>
     </g>
    </g>
    <g id="text_29">
     <!-- P (bar) -->
     <g transform="translate(14.479687 185.472187)rotate(-90)scale(0.1 -0.1)">
      <defs>
       <path id="ArialMT-50" d="M 494 0 
L 494 4581 
L 2222 4581 
Q 2678 4581 2919 4538 
Q 3256 4481 3484 4323 
Q 3713 4166 3852 3881 
Q 3991 3597 3991 3256 
Q 3991 2672 3619 2267 
Q 3247 1863 2275 1863 
L 1100 1863 
L 1100 0 
L 494 0 
z
M 1100 2403 
L 2284 2403 
Q 2872 2403 3119 2622 
Q 3366 2841 3366 3238 
Q 3366 3525 3220 3729 
Q 3075 3934 2838 4000 
Q 2684 4041 2272 4041 
L 1100 4041 
L 1100 2403 
z
" transform="scale(0.015625)"/>
       <path id="ArialMT-62" d="M 941 0 
L 419 0 
L 419 4581 
L 981 4581 
L 981 2947 
Q 1338 3394 1891 3394 
Q 2197 3394 2470 3270 
Q 2744 3147 2920 2923 
Q 3097 2700 3197 2384 
Q 3297 2069 3297 1709 
Q 3297 856 2875 390 
Q 2453 -75 1863 -75 
Q 1275 -75 941 416 
L 941 0 
z
M 934 1684 
Q 934 1088 1097 822 
Q 1363 388 1816 388 
Q 2184 388 2453 708 
Q 2722 1028 2722 1663 
Q 2722 2313 2464 2622 
Q 2206 2931 1841 2931 
Q 1472 2931 1203 2611 
Q 934 2291 934 1684 
z
" transform="scale(0.015625)"/>
      </defs>
      <use xlink:href="#ArialMT-50"/>
      <use xlink:href="#ArialMT-20" x="64.949219"/>
      <use xlink:href="#ArialMT-28" x="92.732422"/>
      <use xlink:href="#ArialMT-62" x="126.033203"/>
      <use xlink:href="#ArialMT-61" x="181.648438"/>
      <use xlink:href="#ArialMT-72" x="237.263672"/>
      <use xlink:href="#ArialMT-29" x="270.564453"/>
     </g>
    </g>
   </g>
   <g id="line2d_55">
    <path d="M 49.584375 75.365326 
L 384.384375 75.365326 
" clip-path="url(#p441b20c6cf)" style="fill: none; stroke-dasharray: 1.5,2.475; stroke-dashoffset: 0; stroke: #ff0000; stroke-width: 1.5"/>
   </g>
   <g id="line2d_56">
    <path d="M 259.257102 136.150678 
L 262.63892 134.944229 
L 266.020739 133.755664 
L 269.402557 132.584587 
L 272.784375 131.430615 
L 276.166193 130.293376 
L 279.548011 129.172508 
L 282.92983 128.067662 
L 286.311648 126.978495 
L 289.693466 125.904676 
L 293.075284 124.845883 
L 296.457102 123.801803 
L 299.83892 122.772132 
L 303.220739 121.756573 
L 306.602557 120.754837 
L 309.984375 119.766645 
L 313.366193 118.791724 
L 316.748011 117.829809 
L 320.12983 116.88064 
L 323.511648 115.943966 
L 326.893466 115.019542 
L 330.275284 114.107129 
L 333.657102 113.206495 
L 337.03892 112.317412 
L 340.420739 111.439661 
L 343.802557 110.573026 
L 347.184375 109.717297 
L 350.566193 108.872269 
L 353.948011 108.037743 
L 357.32983 107.213525 
L 360.711648 106.399424 
L 364.093466 105.595256 
L 367.475284 104.80084 
L 370.857102 104.015999 
L 374.23892 103.240561 
L 377.620739 102.474359 
L 381.002557 101.717228 
L 384.384375 100.969008 
" clip-path="url(#p441b20c6cf)" style="fill: none; stroke: #ffa500; stroke-width: 1.5; stroke-linecap: square"/>
   </g>
   <g id="line2d_57">
    <path d="M 259.257102 136.150678 
L 262.63892 134.944229 
L 266.020739 133.755664 
L 269.402557 132.584587 
L 272.784375 131.430615 
L 276.166193 130.293376 
L 279.548011 129.172508 
L 282.92983 128.067662 
L 286.311648 126.978495 
L 289.693466 125.904676 
L 293.075284 124.845883 
L 296.457102 123.801803 
L 299.83892 122.772132 
L 303.220739 121.756573 
L 306.602557 120.754837 
L 309.984375 119.766645 
L 313.366193 118.791724 
L 316.748011 117.829809 
L 320.12983 116.88064 
L 323.511648 115.943966 
L 326.893466 115.019542 
L 330.275284 114.107129 
L 333.657102 113.206495 
L 337.03892 112.317412 
L 340.420739 111.439661 
L 343.802557 110.573026 
L 347.184375 109.717297 
L 350.566193 108.872269 
L 353.948011 108.037743 
L 357.32983 107.213525 
L 360.711648 106.399424 
L 364.093466 105.595256 
L 367.475284 104.80084 
L 370.857102 104.015999 
L 374.23892 103.240561 
L 377.620739 102.474359 
L 381.002557 101.717228 
L 384.384375 100.969008 
" clip-path="url(#p441b20c6cf)" style="fill: none; stroke-dasharray: 1.85,0.8; stroke-dashoffset: 0; stroke: #ff0000; stroke-width: 0.5"/>
   </g>
   <g id="line2d_58">
    <path d="M 49.584375 277.390152 
L 52.966193 273.180126 
L 56.348011 269.085558 
L 59.72983 265.101763 
L 63.111648 261.224305 
L 66.493466 257.448984 
L 69.875284 253.771815 
L 73.257102 250.189021 
L 76.63892 246.697014 
L 80.020739 243.292386 
L 83.402557 239.971899 
L 86.784375 236.732471 
L 90.166193 233.571171 
L 93.548011 230.485204 
L 96.92983 227.47191 
L 100.311648 224.528753 
L 103.693466 221.653311 
L 107.075284 218.843273 
L 110.457102 216.096434 
L 113.83892 213.410686 
L 117.220739 210.784012 
L 120.602557 208.214485 
L 123.984375 205.70026 
L 127.366193 203.23957 
L 130.748011 200.830724 
L 134.12983 198.4721 
L 137.511648 196.162144 
L 140.893466 193.899365 
L 144.275284 191.682333 
L 147.657102 189.509673 
L 151.03892 187.380067 
L 154.420739 185.292248 
L 157.802557 183.244998 
L 161.184375 181.237145 
L 164.566193 179.267564 
L 167.948011 177.33517 
L 171.32983 175.438921 
L 174.711648 173.57781 
L 178.093466 171.750872 
L 181.475284 169.957172 
L 184.857102 168.195812 
L 188.23892 166.465926 
L 191.620739 164.766677 
L 195.002557 163.097258 
L 198.384375 161.456891 
L 201.766193 159.844824 
L 205.148011 158.260331 
L 208.52983 156.70271 
L 211.911648 155.171283 
L 215.293466 153.665396 
L 218.675284 152.184415 
L 222.057102 150.727726 
L 225.43892 149.294738 
L 228.820739 147.884875 
L 232.202557 146.497584 
L 235.584375 145.132326 
L 238.966193 143.78858 
L 242.348011 142.465842 
L 245.72983 141.163623 
L 249.111648 139.88145 
L 252.493466 138.618863 
L 255.875284 137.375416 
" clip-path="url(#p441b20c6cf)" style="fill: none; stroke-dasharray: 5.55,2.4; stroke-dashoffset: 0; stroke: #ffa500; stroke-width: 1.5"/>
   </g>
   <g id="line2d_59">
    <path d="M 49.584375 313.189826 
L 52.966193 307.91234 
L 56.348011 302.779588 
L 59.72983 297.785695 
L 63.111648 292.925101 
L 66.493466 288.192541 
L 69.875284 283.58302 
L 73.257102 279.091802 
L 76.63892 274.714391 
L 80.020739 270.446514 
L 83.402557 266.284112 
L 86.784375 262.223322 
L 90.166193 258.260468 
L 93.548011 254.392049 
L 96.92983 250.61473 
L 100.311648 246.92533 
L 103.693466 243.320815 
L 107.075284 239.798288 
L 110.457102 236.354984 
L 113.83892 232.988259 
L 117.220739 229.695588 
L 120.602557 226.474553 
L 123.984375 223.322841 
L 127.366193 220.238239 
L 130.748011 217.218626 
L 134.12983 214.26197 
L 137.511648 211.366321 
L 140.893466 208.52981 
L 144.275284 205.750645 
L 147.657102 203.027104 
L 151.03892 200.357533 
L 154.420739 197.740344 
L 157.802557 195.17401 
L 161.184375 192.657064 
L 164.566193 190.188092 
L 167.948011 187.765736 
L 171.32983 185.388689 
L 174.711648 183.055692 
L 178.093466 180.765529 
L 181.475284 178.517034 
L 184.857102 176.309079 
L 188.23892 174.140577 
L 191.620739 172.01048 
L 195.002557 169.917778 
L 198.384375 167.861493 
L 201.766193 165.840684 
L 205.148011 163.854439 
L 208.52983 161.901881 
L 211.911648 159.982159 
L 215.293466 158.094452 
L 218.675284 156.237965 
L 222.057102 154.41193 
L 225.43892 152.615605 
L 228.820739 150.84827 
L 232.202557 149.109228 
L 235.584375 147.397807 
L 238.966193 145.713352 
L 242.348011 144.055232 
L 245.72983 142.422833 
L 249.111648 140.815563 
L 252.493466 139.232844 
L 255.875284 137.67412 
" clip-path="url(#p441b20c6cf)" style="fill: none; stroke: #008000; stroke-width: 1.5; stroke-linecap: square"/>
   </g>
   <g id="line2d_60">
    <path d="M 259.257102 136.138847 
L 262.63892 134.626502 
L 266.020739 133.136574 
L 269.402557 131.668568 
L 272.784375 130.222004 
L 276.166193 128.796416 
L 279.548011 127.391351 
L 282.92983 126.006369 
L 286.311648 124.641042 
L 289.693466 123.294954 
L 293.075284 121.967703 
L 296.457102 120.658895 
L 299.83892 119.368149 
L 303.220739 118.095093 
L 306.602557 116.839366 
L 309.984375 115.600616 
L 313.366193 114.378502 
L 316.748011 113.172691 
L 320.12983 111.982859 
L 323.511648 110.80869 
L 326.893466 109.649877 
L 330.275284 108.50612 
L 333.657102 107.377128 
L 337.03892 106.262618 
L 340.420739 105.162311 
L 343.802557 104.075939 
L 347.184375 103.003239 
L 350.566193 101.943953 
L 353.948011 100.897832 
L 357.32983 99.864631 
L 360.711648 98.844114 
L 364.093466 97.836048 
L 367.475284 96.840205 
L 370.857102 95.856367 
L 374.23892 94.884316 
L 377.620739 93.923842 
L 381.002557 92.974739 
L 384.384375 92.036807 
" clip-path="url(#p441b20c6cf)" style="fill: none; stroke-dasharray: 5.55,2.4; stroke-dashoffset: 0; stroke: #008000; stroke-width: 1.5"/>
   </g>
   <g id="line2d_61">
    <path d="M 259.127325 136.197337 
L 259.649943 43.975868 
L 260.17256 38.428469 
L 260.695178 35.183439 
L 261.217796 32.881051 
L 261.740413 31.095179 
L 262.263031 29.636014 
L 262.785649 28.402308 
L 263.308266 27.333623 
L 263.830884 26.390975 
L 264.353502 25.547748 
L 264.876119 24.784957 
L 265.398737 24.088583 
L 265.921355 23.44798 
L 266.443972 22.854875 
L 266.96659 22.302708 
L 267.489208 21.786189 
L 268.011825 21.300995 
L 268.534443 20.843541 
L 269.057061 20.410828 
L 269.579679 20.000314 
L 270.102296 19.609834 
L 270.624914 19.237522 
L 271.147532 18.881763 
L 271.670149 18.541148 
L 272.192767 18.214439 
L 272.715385 17.900545 
L 273.238002 17.5985 
L 273.76062 17.30744 
L 274.283238 17.026595 
L 274.805855 16.755272 
L 275.328473 16.492847 
L 275.851091 16.238754 
L 276.373708 15.99248 
L 276.896326 15.753559 
L 277.418944 15.521564 
L 277.941561 15.296105 
L 278.464179 15.076824 
L 278.986797 14.863391 
L 279.509414 14.655503 
L 280.032032 14.452878 
L 280.55465 14.255256 
L 281.077267 14.062397 
L 281.599885 13.874077 
L 282.122503 13.690086 
L 282.64512 13.51023 
L 283.167738 13.334327 
L 283.690356 13.162207 
L 284.212973 12.993711 
L 284.735591 12.82869 
L 285.258209 12.667002 
L 285.780826 12.508516 
L 286.303444 12.353108 
L 286.826062 12.200661 
L 287.348679 12.051063 
L 287.871297 11.90421 
L 288.393915 11.760003 
L 288.916532 11.618349 
L 289.43915 11.479158 
L 289.961768 11.342347 
L 290.484386 11.207835 
L 291.007003 11.075547 
L 291.529621 10.94541 
L 292.052239 10.817355 
L 292.574856 10.691317 
L 293.097474 10.567233 
L 293.620092 10.445043 
L 294.142709 10.324691 
L 294.665327 10.206122 
L 295.187945 10.089284 
L 295.710562 9.974127 
L 296.23318 9.860604 
L 296.755798 9.748668 
L 297.278415 9.638277 
L 297.801033 9.529387 
L 298.323651 9.421959 
L 298.846268 9.315954 
L 299.368886 9.211335 
L 299.891504 9.108066 
L 300.414121 9.006112 
L 300.936739 8.905441 
L 301.459357 8.80602 
L 301.981974 8.707819 
L 302.504592 8.610809 
L 303.02721 8.51496 
L 303.549827 8.420246 
L 304.072445 8.326639 
L 304.595063 8.234115 
L 305.11768 8.142648 
L 305.640298 8.052215 
L 306.162916 7.962792 
L 306.685533 7.874358 
L 307.208151 7.786889 
L 307.730769 7.700367 
L 308.253386 7.61477 
L 308.776004 7.530078 
L 309.298622 7.446274 
L 309.821239 7.363338 
L 310.343857 7.281252 
L 310.866475 7.2 
" clip-path="url(#p441b20c6cf)" style="fill: none; stroke: #bf00bf; stroke-width: 1.5; stroke-linecap: square"/>
   </g>
   <g id="line2d_62">
    <defs>
     <path id="mda2197608e" d="M 0 3 
C 0.795609 3 1.55874 2.683901 2.12132 2.12132 
C 2.683901 1.55874 3 0.795609 3 0 
C 3 -0.795609 2.683901 -1.55874 2.12132 -2.12132 
C 1.55874 -2.683901 0.795609 -3 0 -3 
C -0.795609 -3 -1.55874 -2.683901 -2.12132 -2.12132 
C -2.683901 -1.55874 -3 -0.795609 -3 0 
C -3 0.795609 -2.683901 1.55874 -2.12132 2.12132 
C -1.55874 2.683901 -0.795609 3 0 3 
z
" style="stroke: #ffffff"/>
    </defs>
    <g clip-path="url(#p441b20c6cf)">
     <use xlink:href="#mda2197608e" x="259.127325" y="136.197337" style="fill: #ff0000; stroke: #ffffff"/>
    </g>
   </g>
   <g id="patch_5">
    <path d="M 49.584375 333.36 
L 49.584375 7.2 
" style="fill: none; stroke: #000000; stroke-width: 0.8; stroke-linejoin: miter; stroke-linecap: square"/>
   </g>
   <g id="patch_6">
    <path d="M 384.384375 333.36 
L 384.384375 7.2 
" style="fill: none; stroke: #000000; stroke-width: 0.8; stroke-linejoin: miter; stroke-linecap: square"/>
   </g>
   <g id="patch_7">
    <path d="M 49.584375 333.36 
L 384.384375 333.36 
" style="fill: none; stroke: #000000; stroke-width: 0.8; stroke-linejoin: miter; stroke-linecap: square"/>
   </g>
   <g id="patch_8">
    <path d="M 49.584375 7.2 
L 384.384375 7.2 
" style="fill: none; stroke: #000000; stroke-width: 0.8; stroke-linejoin: miter; stroke-linecap: square"/>
   </g>
   <g id="legend_1">
    <g id="patch_9">
     <path d="M 265.90625 328.36 
L 377.384375 328.36 
Q 379.384375 328.36 379.384375 326.36 
L 379.384375 227.986562 
Q 379.384375 225.986562 377.384375 225.986562 
L 265.90625 225.986562 
Q 263.90625 225.986562 263.90625 227.986562 
L 263.90625 326.36 
Q 263.90625 328.36 265.90625 328.36 
z
" style="fill: #ffffff; opacity: 0.8; stroke: #cccccc; stroke-linejoin: miter"/>
    </g>
    <g id="line2d_63">
     <path d="M 267.90625 233.644375 
L 277.90625 233.644375 
L 287.90625 233.644375 
" style="fill: none; stroke: #ffa500; stroke-width: 1.5; stroke-linecap: square"/>
    </g>
    <g id="text_30">
     <!-- Boiling curve -->
     <g transform="translate(295.90625 237.144375)scale(0.1 -0.1)">
      <defs>
       <path id="ArialMT-42" d="M 469 0 
L 469 4581 
L 2188 4581 
Q 2713 4581 3030 4442 
Q 3347 4303 3526 4014 
Q 3706 3725 3706 3409 
Q 3706 3116 3547 2856 
Q 3388 2597 3066 2438 
Q 3481 2316 3704 2022 
Q 3928 1728 3928 1328 
Q 3928 1006 3792 729 
Q 3656 453 3456 303 
Q 3256 153 2954 76 
Q 2653 0 2216 0 
L 469 0 
z
M 1075 2656 
L 2066 2656 
Q 2469 2656 2644 2709 
Q 2875 2778 2992 2937 
Q 3109 3097 3109 3338 
Q 3109 3566 3000 3739 
Q 2891 3913 2687 3977 
Q 2484 4041 1991 4041 
L 1075 4041 
L 1075 2656 
z
M 1075 541 
L 2216 541 
Q 2509 541 2628 563 
Q 2838 600 2978 687 
Q 3119 775 3209 942 
Q 3300 1109 3300 1328 
Q 3300 1584 3169 1773 
Q 3038 1963 2805 2039 
Q 2572 2116 2134 2116 
L 1075 2116 
L 1075 541 
z
" transform="scale(0.015625)"/>
       <path id="ArialMT-6f" d="M 213 1659 
Q 213 2581 725 3025 
Q 1153 3394 1769 3394 
Q 2453 3394 2887 2945 
Q 3322 2497 3322 1706 
Q 3322 1066 3130 698 
Q 2938 331 2570 128 
Q 2203 -75 1769 -75 
Q 1072 -75 642 372 
Q 213 819 213 1659 
z
M 791 1659 
Q 791 1022 1069 705 
Q 1347 388 1769 388 
Q 2188 388 2466 706 
Q 2744 1025 2744 1678 
Q 2744 2294 2464 2611 
Q 2184 2928 1769 2928 
Q 1347 2928 1069 2612 
Q 791 2297 791 1659 
z
" transform="scale(0.015625)"/>
       <path id="ArialMT-69" d="M 425 3934 
L 425 4581 
L 988 4581 
L 988 3934 
L 425 3934 
z
M 425 0 
L 425 3319 
L 988 3319 
L 988 0 
L 425 0 
z
" transform="scale(0.015625)"/>
       <path id="ArialMT-6c" d="M 409 0 
L 409 4581 
L 972 4581 
L 972 0 
L 409 0 
z
" transform="scale(0.015625)"/>
       <path id="ArialMT-6e" d="M 422 0 
L 422 3319 
L 928 3319 
L 928 2847 
Q 1294 3394 1984 3394 
Q 2284 3394 2536 3286 
Q 2788 3178 2913 3003 
Q 3038 2828 3088 2588 
Q 3119 2431 3119 2041 
L 3119 0 
L 2556 0 
L 2556 2019 
Q 2556 2363 2490 2533 
Q 2425 2703 2258 2804 
Q 2091 2906 1866 2906 
Q 1506 2906 1245 2678 
Q 984 2450 984 1813 
L 984 0 
L 422 0 
z
" transform="scale(0.015625)"/>
       <path id="ArialMT-67" d="M 319 -275 
L 866 -356 
Q 900 -609 1056 -725 
Q 1266 -881 1628 -881 
Q 2019 -881 2231 -725 
Q 2444 -569 2519 -288 
Q 2563 -116 2559 434 
Q 2191 0 1641 0 
Q 956 0 581 494 
Q 206 988 206 1678 
Q 206 2153 378 2554 
Q 550 2956 876 3175 
Q 1203 3394 1644 3394 
Q 2231 3394 2613 2919 
L 2613 3319 
L 3131 3319 
L 3131 450 
Q 3131 -325 2973 -648 
Q 2816 -972 2473 -1159 
Q 2131 -1347 1631 -1347 
Q 1038 -1347 672 -1080 
Q 306 -813 319 -275 
z
M 784 1719 
Q 784 1066 1043 766 
Q 1303 466 1694 466 
Q 2081 466 2343 764 
Q 2606 1063 2606 1700 
Q 2606 2309 2336 2618 
Q 2066 2928 1684 2928 
Q 1309 2928 1046 2623 
Q 784 2319 784 1719 
z
" transform="scale(0.015625)"/>
       <path id="ArialMT-63" d="M 2588 1216 
L 3141 1144 
Q 3050 572 2676 248 
Q 2303 -75 1759 -75 
Q 1078 -75 664 370 
Q 250 816 250 1647 
Q 250 2184 428 2587 
Q 606 2991 970 3192 
Q 1334 3394 1763 3394 
Q 2303 3394 2647 3120 
Q 2991 2847 3088 2344 
L 2541 2259 
Q 2463 2594 2264 2762 
Q 2066 2931 1784 2931 
Q 1359 2931 1093 2626 
Q 828 2322 828 1663 
Q 828 994 1084 691 
Q 1341 388 1753 388 
Q 2084 388 2306 591 
Q 2528 794 2588 1216 
z
" transform="scale(0.015625)"/>
       <path id="ArialMT-76" d="M 1344 0 
L 81 3319 
L 675 3319 
L 1388 1331 
Q 1503 1009 1600 663 
Q 1675 925 1809 1294 
L 2547 3319 
L 3125 3319 
L 1869 0 
L 1344 0 
z
" transform="scale(0.015625)"/>
      </defs>
      <use xlink:href="#ArialMT-42"/>
      <use xlink:href="#ArialMT-6f" x="66.699219"/>
      <use xlink:href="#ArialMT-69" x="122.314453"/>
      <use xlink:href="#ArialMT-6c" x="144.53125"/>
      <use xlink:href="#ArialMT-69" x="166.748047"/>
      <use xlink:href="#ArialMT-6e" x="188.964844"/>
      <use xlink:href="#ArialMT-67" x="244.580078"/>
      <use xlink:href="#ArialMT-20" x="300.195312"/>
      <use xlink:href="#ArialMT-63" x="327.978516"/>
      <use xlink:href="#ArialMT-75" x="377.978516"/>
      <use xlink:href="#ArialMT-72" x="433.59375"/>
      <use xlink:href="#ArialMT-76" x="466.894531"/>
      <use xlink:href="#ArialMT-65" x="516.894531"/>
     </g>
    </g>
    <g id="line2d_64">
     <path d="M 267.90625 247.906875 
L 277.90625 247.906875 
L 287.90625 247.906875 
" style="fill: none; stroke: #008000; stroke-width: 1.5; stroke-linecap: square"/>
    </g>
    <g id="text_31">
     <!-- Sublimation curve -->
     <g transform="translate(295.90625 251.406875)scale(0.1 -0.1)">
      <defs>
       <path id="ArialMT-53" d="M 288 1472 
L 859 1522 
Q 900 1178 1048 958 
Q 1197 738 1509 602 
Q 1822 466 2213 466 
Q 2559 466 2825 569 
Q 3091 672 3220 851 
Q 3350 1031 3350 1244 
Q 3350 1459 3225 1620 
Q 3100 1781 2813 1891 
Q 2628 1963 1997 2114 
Q 1366 2266 1113 2400 
Q 784 2572 623 2826 
Q 463 3081 463 3397 
Q 463 3744 659 4045 
Q 856 4347 1234 4503 
Q 1613 4659 2075 4659 
Q 2584 4659 2973 4495 
Q 3363 4331 3572 4012 
Q 3781 3694 3797 3291 
L 3216 3247 
Q 3169 3681 2898 3903 
Q 2628 4125 2100 4125 
Q 1550 4125 1298 3923 
Q 1047 3722 1047 3438 
Q 1047 3191 1225 3031 
Q 1400 2872 2139 2705 
Q 2878 2538 3153 2413 
Q 3553 2228 3743 1945 
Q 3934 1663 3934 1294 
Q 3934 928 3725 604 
Q 3516 281 3123 101 
Q 2731 -78 2241 -78 
Q 1619 -78 1198 103 
Q 778 284 539 648 
Q 300 1013 288 1472 
z
" transform="scale(0.015625)"/>
      </defs>
      <use xlink:href="#ArialMT-53"/>
      <use xlink:href="#ArialMT-75" x="66.699219"/>
      <use xlink:href="#ArialMT-62" x="122.314453"/>
      <use xlink:href="#ArialMT-6c" x="177.929688"/>
      <use xlink:href="#ArialMT-69" x="200.146484"/>
      <use xlink:href="#ArialMT-6d" x="222.363281"/>
      <use xlink:href="#ArialMT-61" x="305.664062"/>
      <use xlink:href="#ArialMT-74" x="361.279297"/>
      <use xlink:href="#ArialMT-69" x="389.0625"/>
      <use xlink:href="#ArialMT-6f" x="411.279297"/>
      <use xlink:href="#ArialMT-6e" x="466.894531"/>
      <use xlink:href="#ArialMT-20" x="522.509766"/>
      <use xlink:href="#ArialMT-63" x="550.292969"/>
      <use xlink:href="#ArialMT-75" x="600.292969"/>
      <use xlink:href="#ArialMT-72" x="655.908203"/>
      <use xlink:href="#ArialMT-76" x="689.208984"/>
      <use xlink:href="#ArialMT-65" x="739.208984"/>
     </g>
    </g>
    <g id="line2d_65">
     <path d="M 267.90625 262.052187 
L 277.90625 262.052187 
L 287.90625 262.052187 
" style="fill: none; stroke: #bf00bf; stroke-width: 1.5; stroke-linecap: square"/>
    </g>
    <g id="text_32">
     <!-- Melting curve -->
     <g transform="translate(295.90625 265.552187)scale(0.1 -0.1)">
      <defs>
       <path id="ArialMT-4d" d="M 475 0 
L 475 4581 
L 1388 4581 
L 2472 1338 
Q 2622 884 2691 659 
Q 2769 909 2934 1394 
L 4031 4581 
L 4847 4581 
L 4847 0 
L 4263 0 
L 4263 3834 
L 2931 0 
L 2384 0 
L 1059 3900 
L 1059 0 
L 475 0 
z
" transform="scale(0.015625)"/>
      </defs>
      <use xlink:href="#ArialMT-4d"/>
      <use xlink:href="#ArialMT-65" x="83.300781"/>
      <use xlink:href="#ArialMT-6c" x="138.916016"/>
      <use xlink:href="#ArialMT-74" x="161.132812"/>
      <use xlink:href="#ArialMT-69" x="188.916016"/>
      <use xlink:href="#ArialMT-6e" x="211.132812"/>
      <use xlink:href="#ArialMT-67" x="266.748047"/>
      <use xlink:href="#ArialMT-20" x="322.363281"/>
      <use xlink:href="#ArialMT-63" x="350.146484"/>
      <use xlink:href="#ArialMT-75" x="400.146484"/>
      <use xlink:href="#ArialMT-72" x="455.761719"/>
      <use xlink:href="#ArialMT-76" x="489.0625"/>
      <use xlink:href="#ArialMT-65" x="539.0625"/>
     </g>
    </g>
    <g id="line2d_66">
     <g>
      <use xlink:href="#mda2197608e" x="277.90625" y="276.314687" style="fill: #ff0000; stroke: #ffffff"/>
     </g>
    </g>
    <g id="text_33">
     <!-- Triple point -->
     <g transform="translate(295.90625 279.814687)scale(0.1 -0.1)">
      <use xlink:href="#ArialMT-54"/>
      <use xlink:href="#ArialMT-72" x="57.333984"/>
      <use xlink:href="#ArialMT-69" x="90.634766"/>
      <use xlink:href="#ArialMT-70" x="112.851562"/>
      <use xlink:href="#ArialMT-6c" x="168.466797"/>
      <use xlink:href="#ArialMT-65" x="190.683594"/>
      <use xlink:href="#ArialMT-20" x="246.298828"/>
      <use xlink:href="#ArialMT-70" x="274.082031"/>
      <use xlink:href="#ArialMT-6f" x="329.697266"/>
      <use xlink:href="#ArialMT-69" x="385.3125"/>
      <use xlink:href="#ArialMT-6e" x="407.529297"/>
      <use xlink:href="#ArialMT-74" x="463.144531"/>
     </g>
    </g>
    <g id="patch_10">
     <path d="M 267.90625 294.081875 
L 287.90625 294.081875 
L 287.90625 287.081875 
L 267.90625 287.081875 
z
" style="fill: #add8e6; stroke: #add8e6; stroke-linejoin: miter"/>
    </g>
    <g id="text_34">
     <!-- Solid phase -->
     <g transform="translate(295.90625 294.081875)scale(0.1 -0.1)">
      <defs>
       <path id="ArialMT-64" d="M 2575 0 
L 2575 419 
Q 2259 -75 1647 -75 
Q 1250 -75 917 144 
Q 584 363 401 755 
Q 219 1147 219 1656 
Q 219 2153 384 2558 
Q 550 2963 881 3178 
Q 1213 3394 1622 3394 
Q 1922 3394 2156 3267 
Q 2391 3141 2538 2938 
L 2538 4581 
L 3097 4581 
L 3097 0 
L 2575 0 
z
M 797 1656 
Q 797 1019 1065 703 
Q 1334 388 1700 388 
Q 2069 388 2326 689 
Q 2584 991 2584 1609 
Q 2584 2291 2321 2609 
Q 2059 2928 1675 2928 
Q 1300 2928 1048 2622 
Q 797 2316 797 1656 
z
" transform="scale(0.015625)"/>
       <path id="ArialMT-68" d="M 422 0 
L 422 4581 
L 984 4581 
L 984 2938 
Q 1378 3394 1978 3394 
Q 2347 3394 2619 3248 
Q 2891 3103 3008 2847 
Q 3125 2591 3125 2103 
L 3125 0 
L 2563 0 
L 2563 2103 
Q 2563 2525 2380 2717 
Q 2197 2909 1863 2909 
Q 1613 2909 1392 2779 
Q 1172 2650 1078 2428 
Q 984 2206 984 1816 
L 984 0 
L 422 0 
z
" transform="scale(0.015625)"/>
       <path id="ArialMT-73" d="M 197 991 
L 753 1078 
Q 800 744 1014 566 
Q 1228 388 1613 388 
Q 2000 388 2187 545 
Q 2375 703 2375 916 
Q 2375 1106 2209 1216 
Q 2094 1291 1634 1406 
Q 1016 1563 777 1677 
Q 538 1791 414 1992 
Q 291 2194 291 2438 
Q 291 2659 392 2848 
Q 494 3038 669 3163 
Q 800 3259 1026 3326 
Q 1253 3394 1513 3394 
Q 1903 3394 2198 3281 
Q 2494 3169 2634 2976 
Q 2775 2784 2828 2463 
L 2278 2388 
Q 2241 2644 2061 2787 
Q 1881 2931 1553 2931 
Q 1166 2931 1000 2803 
Q 834 2675 834 2503 
Q 834 2394 903 2306 
Q 972 2216 1119 2156 
Q 1203 2125 1616 2013 
Q 2213 1853 2448 1751 
Q 2684 1650 2818 1456 
Q 2953 1263 2953 975 
Q 2953 694 2789 445 
Q 2625 197 2315 61 
Q 2006 -75 1616 -75 
Q 969 -75 630 194 
Q 291 463 197 991 
z
" transform="scale(0.015625)"/>
      </defs>
      <use xlink:href="#ArialMT-53"/>
      <use xlink:href="#ArialMT-6f" x="66.699219"/>
      <use xlink:href="#ArialMT-6c" x="122.314453"/>
      <use xlink:href="#ArialMT-69" x="144.53125"/>
      <use xlink:href="#ArialMT-64" x="166.748047"/>
      <use xlink:href="#ArialMT-20" x="222.363281"/>
      <use xlink:href="#ArialMT-70" x="250.146484"/>
      <use xlink:href="#ArialMT-68" x="305.761719"/>
      <use xlink:href="#ArialMT-61" x="361.376953"/>
      <use xlink:href="#ArialMT-73" x="416.992188"/>
      <use xlink:href="#ArialMT-65" x="466.992188"/>
     </g>
    </g>
    <g id="patch_11">
     <path d="M 267.90625 308.227187 
L 287.90625 308.227187 
L 287.90625 301.227187 
L 267.90625 301.227187 
z
" style="fill: #90ee90; stroke: #90ee90; stroke-linejoin: miter"/>
    </g>
    <g id="text_35">
     <!-- Liquid phase -->
     <g transform="translate(295.90625 308.227187)scale(0.1 -0.1)">
      <defs>
       <path id="ArialMT-4c" d="M 469 0 
L 469 4581 
L 1075 4581 
L 1075 541 
L 3331 541 
L 3331 0 
L 469 0 
z
" transform="scale(0.015625)"/>
       <path id="ArialMT-71" d="M 2538 -1272 
L 2538 353 
Q 2406 169 2170 47 
Q 1934 -75 1669 -75 
Q 1078 -75 651 397 
Q 225 869 225 1691 
Q 225 2191 398 2587 
Q 572 2984 901 3189 
Q 1231 3394 1625 3394 
Q 2241 3394 2594 2875 
L 2594 3319 
L 3100 3319 
L 3100 -1272 
L 2538 -1272 
z
M 803 1669 
Q 803 1028 1072 708 
Q 1341 388 1716 388 
Q 2075 388 2334 692 
Q 2594 997 2594 1619 
Q 2594 2281 2320 2615 
Q 2047 2950 1678 2950 
Q 1313 2950 1058 2639 
Q 803 2328 803 1669 
z
" transform="scale(0.015625)"/>
      </defs>
      <use xlink:href="#ArialMT-4c"/>
      <use xlink:href="#ArialMT-69" x="55.615234"/>
      <use xlink:href="#ArialMT-71" x="77.832031"/>
      <use xlink:href="#ArialMT-75" x="133.447266"/>
      <use xlink:href="#ArialMT-69" x="189.0625"/>
      <use xlink:href="#ArialMT-64" x="211.279297"/>
      <use xlink:href="#ArialMT-20" x="266.894531"/>
      <use xlink:href="#ArialMT-70" x="294.677734"/>
      <use xlink:href="#ArialMT-68" x="350.292969"/>
      <use xlink:href="#ArialMT-61" x="405.908203"/>
      <use xlink:href="#ArialMT-73" x="461.523438"/>
      <use xlink:href="#ArialMT-65" x="511.523438"/>
     </g>
    </g>
    <g id="patch_12">
     <path d="M 267.90625 322.3725 
L 287.90625 322.3725 
L 287.90625 315.3725 
L 267.90625 315.3725 
z
" style="fill: #d3d3d3; stroke: #d3d3d3; stroke-linejoin: miter"/>
    </g>
    <g id="text_36">
     <!-- Vapor phase -->
     <g transform="translate(295.90625 322.3725)scale(0.1 -0.1)">
      <defs>
       <path id="ArialMT-56" d="M 1803 0 
L 28 4581 
L 684 4581 
L 1875 1253 
Q 2019 853 2116 503 
Q 2222 878 2363 1253 
L 3600 4581 
L 4219 4581 
L 2425 0 
L 1803 0 
z
" transform="scale(0.015625)"/>
      </defs>
      <use xlink:href="#ArialMT-56"/>
      <use xlink:href="#ArialMT-61" x="59.324219"/>
      <use xlink:href="#ArialMT-70" x="114.939453"/>
      <use xlink:href="#ArialMT-6f" x="170.554688"/>
      <use xlink:href="#ArialMT-72" x="226.169922"/>
      <use xlink:href="#ArialMT-20" x="259.470703"/>
      <use xlink:href="#ArialMT-70" x="287.253906"/>
      <use xlink:href="#ArialMT-68" x="342.869141"/>
      <use xlink:href="#ArialMT-61" x="398.484375"/>
      <use xlink:href="#ArialMT-73" x="454.099609"/>
      <use xlink:href="#ArialMT-65" x="504.099609"/>
     </g>
    </g>
   </g>
  </g>
 </g>
 <defs>
  <clipPath id="p441b20c6cf">
   <rect x="49.584375" y="7.2" width="334.8" height="326.16"/>
  </clipPath>
 </defs>
</svg>
