<?xml version="1.0" encoding="utf-8" standalone="no"?>
<!DOCTYPE svg PUBLIC "-//W3C//DTD SVG 1.1//EN"
  "http://www.w3.org/Graphics/SVG/1.1/DTD/svg11.dtd">
<svg xmlns:xlink="http://www.w3.org/1999/xlink" width="758.25pt" height="324.4pt" viewBox="0 0 758.25 324.4" xmlns="http://www.w3.org/2000/svg" version="1.1">
 <metadata>
  <rdf:RDF xmlns:dc="http://purl.org/dc/elements/1.1/" xmlns:cc="http://creativecommons.org/ns#" xmlns:rdf="http://www.w3.org/1999/02/22-rdf-syntax-ns#">
   <cc:Work>
    <dc:type rdf:resource="http://purl.org/dc/dcmitype/StillImage"/>
    <dc:date>2022-02-10T20:02:57.925171</dc:date>
    <dc:format>image/svg+xml</dc:format>
    <dc:creator>
     <cc:Agent>
      <dc:title>Matplotlib v3.5.0, https://matplotlib.org/</dc:title>
     </cc:Agent>
    </dc:creator>
   </cc:Work>
  </rdf:RDF>
 </metadata>
 <defs>
  <style type="text/css">*{stroke-linejoin: round; stroke-linecap: butt}</style>
 </defs>
 <g id="figure_1">
  <g id="patch_1">
   <path d="M 0 324.4 
L 758.25 324.4 
L 758.25 0 
L 0 0 
z
" style="fill: #ffffff"/>
  </g>
  <g id="axes_1">
   <g id="patch_2">
    <path d="M 44.267188 284.4 
L 348.630824 284.4 
L 348.630824 7.2 
L 44.267188 7.2 
z
" style="fill: #ffffff"/>
   </g>
   <g id="matplotlib.axis_1">
    <g id="xtick_1">
     <g id="line2d_1">
      <defs>
       <path id="m07467bf2e0" d="M 0 0 
L 0 3.5 
" style="stroke: #000000; stroke-width: 0.8"/>
      </defs>
      <g>
       <use xlink:href="#m07467bf2e0" x="44.267187" y="284.4" style="stroke: #000000; stroke-width: 0.8"/>
      </g>
     </g>
     <g id="text_1">
      <!-- $\mathdefault{10^{-11}}$ -->
      <g transform="translate(33.267187 301.7125)scale(0.1 -0.1)">
       <defs>
        <path id="ArialMT-31" d="M 2384 0 
L 1822 0 
L 1822 3584 
Q 1619 3391 1289 3197 
Q 959 3003 697 2906 
L 697 3450 
Q 1169 3672 1522 3987 
Q 1875 4303 2022 4600 
L 2384 4600 
L 2384 0 
z
" transform="scale(0.015625)"/>
        <path id="ArialMT-30" d="M 266 2259 
Q 266 3072 433 3567 
Q 600 4063 929 4331 
Q 1259 4600 1759 4600 
Q 2128 4600 2406 4451 
Q 2684 4303 2865 4023 
Q 3047 3744 3150 3342 
Q 3253 2941 3253 2259 
Q 3253 1453 3087 958 
Q 2922 463 2592 192 
Q 2263 -78 1759 -78 
Q 1097 -78 719 397 
Q 266 969 266 2259 
z
M 844 2259 
Q 844 1131 1108 757 
Q 1372 384 1759 384 
Q 2147 384 2411 759 
Q 2675 1134 2675 2259 
Q 2675 3391 2411 3762 
Q 2147 4134 1753 4134 
Q 1366 4134 1134 3806 
Q 844 3388 844 2259 
z
" transform="scale(0.015625)"/>
        <path id="ArialMT-2d" d="M 203 1375 
L 203 1941 
L 1931 1941 
L 1931 1375 
L 203 1375 
z
" transform="scale(0.015625)"/>
       </defs>
       <use xlink:href="#ArialMT-31" transform="translate(0 0.99375)"/>
       <use xlink:href="#ArialMT-30" transform="translate(55.615234 0.99375)"/>
       <use xlink:href="#ArialMT-2d" transform="translate(112.972813 70.6875)scale(0.7)"/>
       <use xlink:href="#ArialMT-31" transform="translate(136.283359 70.6875)scale(0.7)"/>
       <use xlink:href="#ArialMT-31" transform="translate(175.214023 70.6875)scale(0.7)"/>
      </g>
     </g>
    </g>
    <g id="xtick_2">
     <g id="line2d_2">
      <g>
       <use xlink:href="#m07467bf2e0" x="120.358097" y="284.4" style="stroke: #000000; stroke-width: 0.8"/>
      </g>
     </g>
     <g id="text_2">
      <!-- $\mathdefault{10^{-9}}$ -->
      <g transform="translate(111.308097 301.7125)scale(0.1 -0.1)">
       <defs>
        <path id="ArialMT-39" d="M 350 1059 
L 891 1109 
Q 959 728 1153 556 
Q 1347 384 1650 384 
Q 1909 384 2104 503 
Q 2300 622 2425 820 
Q 2550 1019 2634 1356 
Q 2719 1694 2719 2044 
Q 2719 2081 2716 2156 
Q 2547 1888 2255 1720 
Q 1963 1553 1622 1553 
Q 1053 1553 659 1965 
Q 266 2378 266 3053 
Q 266 3750 677 4175 
Q 1088 4600 1706 4600 
Q 2153 4600 2523 4359 
Q 2894 4119 3086 3673 
Q 3278 3228 3278 2384 
Q 3278 1506 3087 986 
Q 2897 466 2520 194 
Q 2144 -78 1638 -78 
Q 1100 -78 759 220 
Q 419 519 350 1059 
z
M 2653 3081 
Q 2653 3566 2395 3850 
Q 2138 4134 1775 4134 
Q 1400 4134 1122 3828 
Q 844 3522 844 3034 
Q 844 2597 1108 2323 
Q 1372 2050 1759 2050 
Q 2150 2050 2401 2323 
Q 2653 2597 2653 3081 
z
" transform="scale(0.015625)"/>
       </defs>
       <use xlink:href="#ArialMT-31" transform="translate(0 0.99375)"/>
       <use xlink:href="#ArialMT-30" transform="translate(55.615234 0.99375)"/>
       <use xlink:href="#ArialMT-2d" transform="translate(112.972813 70.6875)scale(0.7)"/>
       <use xlink:href="#ArialMT-39" transform="translate(136.283359 70.6875)scale(0.7)"/>
      </g>
     </g>
    </g>
    <g id="xtick_3">
     <g id="line2d_3">
      <g>
       <use xlink:href="#m07467bf2e0" x="196.449006" y="284.4" style="stroke: #000000; stroke-width: 0.8"/>
      </g>
     </g>
     <g id="text_3">
      <!-- $\mathdefault{10^{-7}}$ -->
      <g transform="translate(187.399006 301.6125)scale(0.1 -0.1)">
       <defs>
        <path id="ArialMT-37" d="M 303 3981 
L 303 4522 
L 3269 4522 
L 3269 4084 
Q 2831 3619 2401 2847 
Q 1972 2075 1738 1259 
Q 1569 684 1522 0 
L 944 0 
Q 953 541 1156 1306 
Q 1359 2072 1739 2783 
Q 2119 3494 2547 3981 
L 303 3981 
z
" transform="scale(0.015625)"/>
       </defs>
       <use xlink:href="#ArialMT-31" transform="translate(0 0.846875)"/>
       <use xlink:href="#ArialMT-30" transform="translate(55.615234 0.846875)"/>
       <use xlink:href="#ArialMT-2d" transform="translate(112.972813 70.540625)scale(0.7)"/>
       <use xlink:href="#ArialMT-37" transform="translate(136.283359 70.540625)scale(0.7)"/>
      </g>
     </g>
    </g>
    <g id="xtick_4">
     <g id="line2d_4">
      <g>
       <use xlink:href="#m07467bf2e0" x="272.539915" y="284.4" style="stroke: #000000; stroke-width: 0.8"/>
      </g>
     </g>
     <g id="text_4">
      <!-- $\mathdefault{10^{-5}}$ -->
      <g transform="translate(263.489915 301.6125)scale(0.1 -0.1)">
       <defs>
        <path id="ArialMT-35" d="M 266 1200 
L 856 1250 
Q 922 819 1161 601 
Q 1400 384 1738 384 
Q 2144 384 2425 690 
Q 2706 997 2706 1503 
Q 2706 1984 2436 2262 
Q 2166 2541 1728 2541 
Q 1456 2541 1237 2417 
Q 1019 2294 894 2097 
L 366 2166 
L 809 4519 
L 3088 4519 
L 3088 3981 
L 1259 3981 
L 1013 2750 
Q 1425 3038 1878 3038 
Q 2478 3038 2890 2622 
Q 3303 2206 3303 1553 
Q 3303 931 2941 478 
Q 2500 -78 1738 -78 
Q 1113 -78 717 272 
Q 322 622 266 1200 
z
" transform="scale(0.015625)"/>
       </defs>
       <use xlink:href="#ArialMT-31" transform="translate(0 0.879688)"/>
       <use xlink:href="#ArialMT-30" transform="translate(55.615234 0.879688)"/>
       <use xlink:href="#ArialMT-2d" transform="translate(112.972813 70.573438)scale(0.7)"/>
       <use xlink:href="#ArialMT-35" transform="translate(136.283359 70.573438)scale(0.7)"/>
      </g>
     </g>
    </g>
    <g id="xtick_5">
     <g id="line2d_5">
      <g>
       <use xlink:href="#m07467bf2e0" x="348.630824" y="284.4" style="stroke: #000000; stroke-width: 0.8"/>
      </g>
     </g>
     <g id="text_5">
      <!-- $\mathdefault{10^{-3}}$ -->
      <g transform="translate(339.580824 301.7125)scale(0.1 -0.1)">
       <defs>
        <path id="ArialMT-33" d="M 269 1209 
L 831 1284 
Q 928 806 1161 595 
Q 1394 384 1728 384 
Q 2125 384 2398 659 
Q 2672 934 2672 1341 
Q 2672 1728 2419 1979 
Q 2166 2231 1775 2231 
Q 1616 2231 1378 2169 
L 1441 2663 
Q 1497 2656 1531 2656 
Q 1891 2656 2178 2843 
Q 2466 3031 2466 3422 
Q 2466 3731 2256 3934 
Q 2047 4138 1716 4138 
Q 1388 4138 1169 3931 
Q 950 3725 888 3313 
L 325 3413 
Q 428 3978 793 4289 
Q 1159 4600 1703 4600 
Q 2078 4600 2393 4439 
Q 2709 4278 2876 4000 
Q 3044 3722 3044 3409 
Q 3044 3113 2884 2869 
Q 2725 2625 2413 2481 
Q 2819 2388 3044 2092 
Q 3269 1797 3269 1353 
Q 3269 753 2831 336 
Q 2394 -81 1725 -81 
Q 1122 -81 723 278 
Q 325 638 269 1209 
z
" transform="scale(0.015625)"/>
       </defs>
       <use xlink:href="#ArialMT-31" transform="translate(0 0.99375)"/>
       <use xlink:href="#ArialMT-30" transform="translate(55.615234 0.99375)"/>
       <use xlink:href="#ArialMT-2d" transform="translate(112.972813 70.6875)scale(0.7)"/>
       <use xlink:href="#ArialMT-33" transform="translate(136.283359 70.6875)scale(0.7)"/>
      </g>
     </g>
    </g>
    <g id="text_6">
     <!-- log$_{\mathregular{10}}$(X$_{\mathregular{NaCl}}$) -->
     <g transform="translate(170.349006 315)scale(0.1 -0.1)">
      <defs>
       <path id="ArialMT-6c" d="M 409 0 
L 409 4581 
L 972 4581 
L 972 0 
L 409 0 
z
" transform="scale(0.015625)"/>
       <path id="ArialMT-6f" d="M 213 1659 
Q 213 2581 725 3025 
Q 1153 3394 1769 3394 
Q 2453 3394 2887 2945 
Q 3322 2497 3322 1706 
Q 3322 1066 3130 698 
Q 2938 331 2570 128 
Q 2203 -75 1769 -75 
Q 1072 -75 642 372 
Q 213 819 213 1659 
z
M 791 1659 
Q 791 1022 1069 705 
Q 1347 388 1769 388 
Q 2188 388 2466 706 
Q 2744 1025 2744 1678 
Q 2744 2294 2464 2611 
Q 2184 2928 1769 2928 
Q 1347 2928 1069 2612 
Q 791 2297 791 1659 
z
" transform="scale(0.015625)"/>
       <path id="ArialMT-67" d="M 319 -275 
L 866 -356 
Q 900 -609 1056 -725 
Q 1266 -881 1628 -881 
Q 2019 -881 2231 -725 
Q 2444 -569 2519 -288 
Q 2563 -116 2559 434 
Q 2191 0 1641 0 
Q 956 0 581 494 
Q 206 988 206 1678 
Q 206 2153 378 2554 
Q 550 2956 876 3175 
Q 1203 3394 1644 3394 
Q 2231 3394 2613 2919 
L 2613 3319 
L 3131 3319 
L 3131 450 
Q 3131 -325 2973 -648 
Q 2816 -972 2473 -1159 
Q 2131 -1347 1631 -1347 
Q 1038 -1347 672 -1080 
Q 306 -813 319 -275 
z
M 784 1719 
Q 784 1066 1043 766 
Q 1303 466 1694 466 
Q 2081 466 2343 764 
Q 2606 1063 2606 1700 
Q 2606 2309 2336 2618 
Q 2066 2928 1684 2928 
Q 1309 2928 1046 2623 
Q 784 2319 784 1719 
z
" transform="scale(0.015625)"/>
       <path id="ArialMT-28" d="M 1497 -1347 
Q 1031 -759 709 28 
Q 388 816 388 1659 
Q 388 2403 628 3084 
Q 909 3875 1497 4659 
L 1900 4659 
Q 1522 4009 1400 3731 
Q 1209 3300 1100 2831 
Q 966 2247 966 1656 
Q 966 153 1900 -1347 
L 1497 -1347 
z
" transform="scale(0.015625)"/>
       <path id="ArialMT-58" d="M 28 0 
L 1800 2388 
L 238 4581 
L 959 4581 
L 1791 3406 
Q 2050 3041 2159 2844 
Q 2313 3094 2522 3366 
L 3444 4581 
L 4103 4581 
L 2494 2422 
L 4228 0 
L 3478 0 
L 2325 1634 
Q 2228 1775 2125 1941 
Q 1972 1691 1906 1597 
L 756 0 
L 28 0 
z
" transform="scale(0.015625)"/>
       <path id="ArialMT-4e" d="M 488 0 
L 488 4581 
L 1109 4581 
L 3516 984 
L 3516 4581 
L 4097 4581 
L 4097 0 
L 3475 0 
L 1069 3600 
L 1069 0 
L 488 0 
z
" transform="scale(0.015625)"/>
       <path id="ArialMT-61" d="M 2588 409 
Q 2275 144 1986 34 
Q 1697 -75 1366 -75 
Q 819 -75 525 192 
Q 231 459 231 875 
Q 231 1119 342 1320 
Q 453 1522 633 1644 
Q 813 1766 1038 1828 
Q 1203 1872 1538 1913 
Q 2219 1994 2541 2106 
Q 2544 2222 2544 2253 
Q 2544 2597 2384 2738 
Q 2169 2928 1744 2928 
Q 1347 2928 1158 2789 
Q 969 2650 878 2297 
L 328 2372 
Q 403 2725 575 2942 
Q 747 3159 1072 3276 
Q 1397 3394 1825 3394 
Q 2250 3394 2515 3294 
Q 2781 3194 2906 3042 
Q 3031 2891 3081 2659 
Q 3109 2516 3109 2141 
L 3109 1391 
Q 3109 606 3145 398 
Q 3181 191 3288 0 
L 2700 0 
Q 2613 175 2588 409 
z
M 2541 1666 
Q 2234 1541 1622 1453 
Q 1275 1403 1131 1340 
Q 988 1278 909 1158 
Q 831 1038 831 891 
Q 831 666 1001 516 
Q 1172 366 1500 366 
Q 1825 366 2078 508 
Q 2331 650 2450 897 
Q 2541 1088 2541 1459 
L 2541 1666 
z
" transform="scale(0.015625)"/>
       <path id="ArialMT-43" d="M 3763 1606 
L 4369 1453 
Q 4178 706 3683 314 
Q 3188 -78 2472 -78 
Q 1731 -78 1267 223 
Q 803 525 561 1097 
Q 319 1669 319 2325 
Q 319 3041 592 3573 
Q 866 4106 1370 4382 
Q 1875 4659 2481 4659 
Q 3169 4659 3637 4309 
Q 4106 3959 4291 3325 
L 3694 3184 
Q 3534 3684 3231 3912 
Q 2928 4141 2469 4141 
Q 1941 4141 1586 3887 
Q 1231 3634 1087 3207 
Q 944 2781 944 2328 
Q 944 1744 1114 1308 
Q 1284 872 1643 656 
Q 2003 441 2422 441 
Q 2931 441 3284 734 
Q 3638 1028 3763 1606 
z
" transform="scale(0.015625)"/>
       <path id="ArialMT-29" d="M 791 -1347 
L 388 -1347 
Q 1322 153 1322 1656 
Q 1322 2244 1188 2822 
Q 1081 3291 891 3722 
Q 769 4003 388 4659 
L 791 4659 
Q 1378 3875 1659 3084 
Q 1900 2403 1900 1659 
Q 1900 816 1576 28 
Q 1253 -759 791 -1347 
z
" transform="scale(0.015625)"/>
      </defs>
      <use xlink:href="#ArialMT-6c" transform="translate(0 0.203125)"/>
      <use xlink:href="#ArialMT-6f" transform="translate(22.216797 0.203125)"/>
      <use xlink:href="#ArialMT-67" transform="translate(77.832031 0.203125)"/>
      <use xlink:href="#ArialMT-31" transform="translate(137.911406 -16.803125)scale(0.7)"/>
      <use xlink:href="#ArialMT-30" transform="translate(176.84207 -16.803125)scale(0.7)"/>
      <use xlink:href="#ArialMT-28" transform="translate(222.150078 0.203125)"/>
      <use xlink:href="#ArialMT-58" transform="translate(255.450859 0.203125)"/>
      <use xlink:href="#ArialMT-4e" transform="translate(326.614219 -16.803125)scale(0.7)"/>
      <use xlink:href="#ArialMT-61" transform="translate(377.165977 -16.803125)scale(0.7)"/>
      <use xlink:href="#ArialMT-43" transform="translate(416.096641 -16.803125)scale(0.7)"/>
      <use xlink:href="#ArialMT-6c" transform="translate(466.648398 -16.803125)scale(0.7)"/>
      <use xlink:href="#ArialMT-29" transform="translate(488.5775 0.203125)"/>
     </g>
    </g>
   </g>
   <g id="matplotlib.axis_2">
    <g id="ytick_1">
     <g id="line2d_6">
      <defs>
       <path id="mbbf5122ed2" d="M 0 0 
L -3.5 0 
" style="stroke: #000000; stroke-width: 0.8"/>
      </defs>
      <g>
       <use xlink:href="#mbbf5122ed2" x="44.267188" y="271.867518" style="stroke: #000000; stroke-width: 0.8"/>
      </g>
     </g>
     <g id="text_7">
      <!-- 0 -->
      <g transform="translate(31.70625 275.446424)scale(0.1 -0.1)">
       <use xlink:href="#ArialMT-30"/>
      </g>
     </g>
    </g>
    <g id="ytick_2">
     <g id="line2d_7">
      <g>
       <use xlink:href="#mbbf5122ed2" x="44.267188" y="238.108651" style="stroke: #000000; stroke-width: 0.8"/>
      </g>
     </g>
     <g id="text_8">
      <!-- 50 -->
      <g transform="translate(26.145313 241.687558)scale(0.1 -0.1)">
       <use xlink:href="#ArialMT-35"/>
       <use xlink:href="#ArialMT-30" x="55.615234"/>
      </g>
     </g>
    </g>
    <g id="ytick_3">
     <g id="line2d_8">
      <g>
       <use xlink:href="#mbbf5122ed2" x="44.267188" y="204.349785" style="stroke: #000000; stroke-width: 0.8"/>
      </g>
     </g>
     <g id="text_9">
      <!-- 100 -->
      <g transform="translate(20.584375 207.928691)scale(0.1 -0.1)">
       <use xlink:href="#ArialMT-31"/>
       <use xlink:href="#ArialMT-30" x="55.615234"/>
       <use xlink:href="#ArialMT-30" x="111.230469"/>
      </g>
     </g>
    </g>
    <g id="ytick_4">
     <g id="line2d_9">
      <g>
       <use xlink:href="#mbbf5122ed2" x="44.267188" y="170.590919" style="stroke: #000000; stroke-width: 0.8"/>
      </g>
     </g>
     <g id="text_10">
      <!-- 150 -->
      <g transform="translate(20.584375 174.169825)scale(0.1 -0.1)">
       <use xlink:href="#ArialMT-31"/>
       <use xlink:href="#ArialMT-35" x="55.615234"/>
       <use xlink:href="#ArialMT-30" x="111.230469"/>
      </g>
     </g>
    </g>
    <g id="ytick_5">
     <g id="line2d_10">
      <g>
       <use xlink:href="#mbbf5122ed2" x="44.267188" y="136.832052" style="stroke: #000000; stroke-width: 0.8"/>
      </g>
     </g>
     <g id="text_11">
      <!-- 200 -->
      <g transform="translate(20.584375 140.410958)scale(0.1 -0.1)">
       <defs>
        <path id="ArialMT-32" d="M 3222 541 
L 3222 0 
L 194 0 
Q 188 203 259 391 
Q 375 700 629 1000 
Q 884 1300 1366 1694 
Q 2113 2306 2375 2664 
Q 2638 3022 2638 3341 
Q 2638 3675 2398 3904 
Q 2159 4134 1775 4134 
Q 1369 4134 1125 3890 
Q 881 3647 878 3216 
L 300 3275 
Q 359 3922 746 4261 
Q 1134 4600 1788 4600 
Q 2447 4600 2831 4234 
Q 3216 3869 3216 3328 
Q 3216 3053 3103 2787 
Q 2991 2522 2730 2228 
Q 2469 1934 1863 1422 
Q 1356 997 1212 845 
Q 1069 694 975 541 
L 3222 541 
z
" transform="scale(0.015625)"/>
       </defs>
       <use xlink:href="#ArialMT-32"/>
       <use xlink:href="#ArialMT-30" x="55.615234"/>
       <use xlink:href="#ArialMT-30" x="111.230469"/>
      </g>
     </g>
    </g>
    <g id="ytick_6">
     <g id="line2d_11">
      <g>
       <use xlink:href="#mbbf5122ed2" x="44.267188" y="103.073186" style="stroke: #000000; stroke-width: 0.8"/>
      </g>
     </g>
     <g id="text_12">
      <!-- 250 -->
      <g transform="translate(20.584375 106.652092)scale(0.1 -0.1)">
       <use xlink:href="#ArialMT-32"/>
       <use xlink:href="#ArialMT-35" x="55.615234"/>
       <use xlink:href="#ArialMT-30" x="111.230469"/>
      </g>
     </g>
    </g>
    <g id="ytick_7">
     <g id="line2d_12">
      <g>
       <use xlink:href="#mbbf5122ed2" x="44.267188" y="69.314319" style="stroke: #000000; stroke-width: 0.8"/>
      </g>
     </g>
     <g id="text_13">
      <!-- 300 -->
      <g transform="translate(20.584375 72.893226)scale(0.1 -0.1)">
       <use xlink:href="#ArialMT-33"/>
       <use xlink:href="#ArialMT-30" x="55.615234"/>
       <use xlink:href="#ArialMT-30" x="111.230469"/>
      </g>
     </g>
    </g>
    <g id="ytick_8">
     <g id="line2d_13">
      <g>
       <use xlink:href="#mbbf5122ed2" x="44.267188" y="35.555453" style="stroke: #000000; stroke-width: 0.8"/>
      </g>
     </g>
     <g id="text_14">
      <!-- 350 -->
      <g transform="translate(20.584375 39.134359)scale(0.1 -0.1)">
       <use xlink:href="#ArialMT-33"/>
       <use xlink:href="#ArialMT-35" x="55.615234"/>
       <use xlink:href="#ArialMT-30" x="111.230469"/>
      </g>
     </g>
    </g>
    <g id="text_15">
     <!-- Pressure (bar) -->
     <g transform="translate(14.479688 177.750781)rotate(-90)scale(0.1 -0.1)">
      <defs>
       <path id="ArialMT-50" d="M 494 0 
L 494 4581 
L 2222 4581 
Q 2678 4581 2919 4538 
Q 3256 4481 3484 4323 
Q 3713 4166 3852 3881 
Q 3991 3597 3991 3256 
Q 3991 2672 3619 2267 
Q 3247 1863 2275 1863 
L 1100 1863 
L 1100 0 
L 494 0 
z
M 1100 2403 
L 2284 2403 
Q 2872 2403 3119 2622 
Q 3366 2841 3366 3238 
Q 3366 3525 3220 3729 
Q 3075 3934 2838 4000 
Q 2684 4041 2272 4041 
L 1100 4041 
L 1100 2403 
z
" transform="scale(0.015625)"/>
       <path id="ArialMT-72" d="M 416 0 
L 416 3319 
L 922 3319 
L 922 2816 
Q 1116 3169 1280 3281 
Q 1444 3394 1641 3394 
Q 1925 3394 2219 3213 
L 2025 2691 
Q 1819 2813 1613 2813 
Q 1428 2813 1281 2702 
Q 1134 2591 1072 2394 
Q 978 2094 978 1738 
L 978 0 
L 416 0 
z
" transform="scale(0.015625)"/>
       <path id="ArialMT-65" d="M 2694 1069 
L 3275 997 
Q 3138 488 2766 206 
Q 2394 -75 1816 -75 
Q 1088 -75 661 373 
Q 234 822 234 1631 
Q 234 2469 665 2931 
Q 1097 3394 1784 3394 
Q 2450 3394 2872 2941 
Q 3294 2488 3294 1666 
Q 3294 1616 3291 1516 
L 816 1516 
Q 847 969 1125 678 
Q 1403 388 1819 388 
Q 2128 388 2347 550 
Q 2566 713 2694 1069 
z
M 847 1978 
L 2700 1978 
Q 2663 2397 2488 2606 
Q 2219 2931 1791 2931 
Q 1403 2931 1139 2672 
Q 875 2413 847 1978 
z
" transform="scale(0.015625)"/>
       <path id="ArialMT-73" d="M 197 991 
L 753 1078 
Q 800 744 1014 566 
Q 1228 388 1613 388 
Q 2000 388 2187 545 
Q 2375 703 2375 916 
Q 2375 1106 2209 1216 
Q 2094 1291 1634 1406 
Q 1016 1563 777 1677 
Q 538 1791 414 1992 
Q 291 2194 291 2438 
Q 291 2659 392 2848 
Q 494 3038 669 3163 
Q 800 3259 1026 3326 
Q 1253 3394 1513 3394 
Q 1903 3394 2198 3281 
Q 2494 3169 2634 2976 
Q 2775 2784 2828 2463 
L 2278 2388 
Q 2241 2644 2061 2787 
Q 1881 2931 1553 2931 
Q 1166 2931 1000 2803 
Q 834 2675 834 2503 
Q 834 2394 903 2306 
Q 972 2216 1119 2156 
Q 1203 2125 1616 2013 
Q 2213 1853 2448 1751 
Q 2684 1650 2818 1456 
Q 2953 1263 2953 975 
Q 2953 694 2789 445 
Q 2625 197 2315 61 
Q 2006 -75 1616 -75 
Q 969 -75 630 194 
Q 291 463 197 991 
z
" transform="scale(0.015625)"/>
       <path id="ArialMT-75" d="M 2597 0 
L 2597 488 
Q 2209 -75 1544 -75 
Q 1250 -75 995 37 
Q 741 150 617 320 
Q 494 491 444 738 
Q 409 903 409 1263 
L 409 3319 
L 972 3319 
L 972 1478 
Q 972 1038 1006 884 
Q 1059 663 1231 536 
Q 1403 409 1656 409 
Q 1909 409 2131 539 
Q 2353 669 2445 892 
Q 2538 1116 2538 1541 
L 2538 3319 
L 3100 3319 
L 3100 0 
L 2597 0 
z
" transform="scale(0.015625)"/>
       <path id="ArialMT-20" transform="scale(0.015625)"/>
       <path id="ArialMT-62" d="M 941 0 
L 419 0 
L 419 4581 
L 981 4581 
L 981 2947 
Q 1338 3394 1891 3394 
Q 2197 3394 2470 3270 
Q 2744 3147 2920 2923 
Q 3097 2700 3197 2384 
Q 3297 2069 3297 1709 
Q 3297 856 2875 390 
Q 2453 -75 1863 -75 
Q 1275 -75 941 416 
L 941 0 
z
M 934 1684 
Q 934 1088 1097 822 
Q 1363 388 1816 388 
Q 2184 388 2453 708 
Q 2722 1028 2722 1663 
Q 2722 2313 2464 2622 
Q 2206 2931 1841 2931 
Q 1472 2931 1203 2611 
Q 934 2291 934 1684 
z
" transform="scale(0.015625)"/>
      </defs>
      <use xlink:href="#ArialMT-50"/>
      <use xlink:href="#ArialMT-72" x="66.699219"/>
      <use xlink:href="#ArialMT-65" x="100"/>
      <use xlink:href="#ArialMT-73" x="155.615234"/>
      <use xlink:href="#ArialMT-73" x="205.615234"/>
      <use xlink:href="#ArialMT-75" x="255.615234"/>
      <use xlink:href="#ArialMT-72" x="311.230469"/>
      <use xlink:href="#ArialMT-65" x="344.53125"/>
      <use xlink:href="#ArialMT-20" x="400.146484"/>
      <use xlink:href="#ArialMT-28" x="427.929688"/>
      <use xlink:href="#ArialMT-62" x="461.230469"/>
      <use xlink:href="#ArialMT-61" x="516.845703"/>
      <use xlink:href="#ArialMT-72" x="572.460938"/>
      <use xlink:href="#ArialMT-29" x="605.761719"/>
     </g>
    </g>
   </g>
   <g id="line2d_14">
    <path d="M 172.581863 271.8 
L 143.941421 271.460526 
L 134.957892 271.121052 
L 129.79999 270.781577 
L 123.838786 270.102629 
L 120.512632 269.423681 
L 118.50248 268.744732 
L 117.281261 268.065784 
L 116.584476 267.386835 
L 116.260397 266.707887 
L 116.213872 266.028939 
L 116.381287 265.34999 
L 116.939352 264.331568 
L 117.777408 263.313145 
L 119.215049 261.955248 
L 121.382779 260.257877 
L 124.359138 258.221032 
L 128.742294 255.505238 
L 135.22486 251.771022 
L 146.34304 245.660486 
L 170.490469 232.420992 
L 182.362682 225.631508 
L 192.618727 219.520973 
L 202.431123 213.410437 
L 211.276596 207.639375 
L 219.709012 201.868314 
L 227.731936 196.097253 
L 234.916243 190.665665 
L 241.75489 185.234078 
L 248.655452 179.463017 
L 255.195292 173.691955 
L 261.39216 167.920894 
L 267.265091 162.149832 
L 272.834175 156.378771 
L 278.422979 150.268235 
L 284.006743 143.818225 
L 289.297243 137.368215 
L 294.584818 130.578731 
L 300.1132 123.110299 
L 305.860341 114.962918 
L 312.282663 105.45764 
L 314.30006 102.402372 
L 314.30006 102.402372 
" clip-path="url(#pa396c9385b)" style="fill: none; stroke: #1f77b4; stroke-width: 1.5; stroke-linecap: square"/>
   </g>
   <g id="line2d_15">
    <path d="M 212.681182 271.8 
L 180.387373 271.364446 
L 170.969982 270.928892 
L 165.557019 270.493338 
L 161.891193 270.057784 
L 157.158558 269.186676 
L 154.26092 268.315568 
L 152.379529 267.44446 
L 151.143129 266.573352 
L 150.351602 265.702244 
L 149.884663 264.831136 
L 149.664348 263.960028 
L 149.637229 263.08892 
L 149.878016 261.782259 
L 150.37944 260.475597 
L 151.35109 258.733381 
L 152.582544 256.991165 
L 154.390314 254.813395 
L 156.844707 252.200071 
L 160.448937 248.715639 
L 165.293901 244.3601 
L 172.94297 237.82679 
L 206.001141 209.951335 
L 215.297642 201.67581 
L 223.776567 193.835838 
L 231.473465 186.431421 
L 238.860762 179.027003 
L 245.936973 171.622585 
L 252.704736 164.218168 
L 259.169733 156.81375 
L 265.339935 149.409333 
L 271.225078 142.004915 
L 276.836285 134.600498 
L 282.492589 126.760526 
L 287.871118 118.920554 
L 292.988415 111.080583 
L 298.125751 102.805057 
L 303.263161 94.093978 
L 308.386561 84.947344 
L 313.48901 75.365157 
L 318.572081 65.347415 
L 323.854473 54.458566 
L 323.854473 54.458566 
" clip-path="url(#pa396c9385b)" style="fill: none; stroke: #ff7f0e; stroke-width: 1.5; stroke-linecap: square"/>
   </g>
   <g id="line2d_16">
    <path d="M 247.930718 271.8 
L 213.34905 271.29499 
L 203.637697 270.78998 
L 198.02266 270.28497 
L 194.180545 269.77996 
L 191.333225 269.27495 
L 187.357157 268.26493 
L 184.727261 267.25491 
L 182.9028 266.24489 
L 181.613903 265.23487 
L 180.706288 264.22485 
L 180.083432 263.21483 
L 179.680914 262.20481 
L 179.395005 260.68978 
L 179.40129 259.174749 
L 179.630564 257.659719 
L 180.202047 255.639679 
L 181.006741 253.619639 
L 182.259631 251.094589 
L 184.032539 248.064529 
L 186.368808 244.529459 
L 189.665124 239.984369 
L 193.983546 234.429259 
L 200.583107 226.349098 
L 217.100969 206.653707 
L 227.915773 193.523447 
L 236.772247 182.413226 
L 244.539216 172.313026 
L 251.645653 162.717836 
L 258.47684 153.122645 
L 265.029112 143.527455 
L 271.303153 133.932265 
L 277.302833 124.337074 
L 283.034416 114.741884 
L 288.505999 105.146693 
L 293.727116 95.551503 
L 298.964197 85.451303 
L 303.949153 75.351102 
L 308.927873 64.745892 
L 313.662291 54.140681 
L 318.380268 43.030461 
L 323.071636 31.41523 
L 327.542231 19.8 
L 327.542231 19.8 
" clip-path="url(#pa396c9385b)" style="fill: none; stroke: #2ca02c; stroke-width: 1.5; stroke-linecap: square"/>
   </g>
   <g id="patch_3">
    <path d="M 44.267188 284.4 
L 44.267188 7.2 
" style="fill: none; stroke: #000000; stroke-width: 0.8; stroke-linejoin: miter; stroke-linecap: square"/>
   </g>
   <g id="patch_4">
    <path d="M 348.630824 284.4 
L 348.630824 7.2 
" style="fill: none; stroke: #000000; stroke-width: 0.8; stroke-linejoin: miter; stroke-linecap: square"/>
   </g>
   <g id="patch_5">
    <path d="M 44.267187 284.4 
L 348.630824 284.4 
" style="fill: none; stroke: #000000; stroke-width: 0.8; stroke-linejoin: miter; stroke-linecap: square"/>
   </g>
   <g id="patch_6">
    <path d="M 44.267187 7.2 
L 348.630824 7.2 
" style="fill: none; stroke: #000000; stroke-width: 0.8; stroke-linejoin: miter; stroke-linecap: square"/>
   </g>
   <g id="text_16">
    <!-- (a) -->
    <g transform="translate(45.789006 21.479625)scale(0.12 -0.12)">
     <defs>
      <path id="Arial-BoldMT-28" d="M 1916 -1347 
L 1313 -1347 
Q 834 -625 584 153 
Q 334 931 334 1659 
Q 334 2563 644 3369 
Q 913 4069 1325 4659 
L 1925 4659 
Q 1497 3713 1336 3048 
Q 1175 2384 1175 1641 
Q 1175 1128 1270 590 
Q 1366 53 1531 -431 
Q 1641 -750 1916 -1347 
z
" transform="scale(0.015625)"/>
      <path id="Arial-BoldMT-61" d="M 1116 2306 
L 319 2450 
Q 453 2931 781 3162 
Q 1109 3394 1756 3394 
Q 2344 3394 2631 3255 
Q 2919 3116 3036 2902 
Q 3153 2688 3153 2116 
L 3144 1091 
Q 3144 653 3186 445 
Q 3228 238 3344 0 
L 2475 0 
Q 2441 88 2391 259 
Q 2369 338 2359 363 
Q 2134 144 1878 34 
Q 1622 -75 1331 -75 
Q 819 -75 523 203 
Q 228 481 228 906 
Q 228 1188 362 1408 
Q 497 1628 739 1745 
Q 981 1863 1438 1950 
Q 2053 2066 2291 2166 
L 2291 2253 
Q 2291 2506 2166 2614 
Q 2041 2722 1694 2722 
Q 1459 2722 1328 2630 
Q 1197 2538 1116 2306 
z
M 2291 1594 
Q 2122 1538 1756 1459 
Q 1391 1381 1278 1306 
Q 1106 1184 1106 997 
Q 1106 813 1243 678 
Q 1381 544 1594 544 
Q 1831 544 2047 700 
Q 2206 819 2256 991 
Q 2291 1103 2291 1419 
L 2291 1594 
z
" transform="scale(0.015625)"/>
      <path id="Arial-BoldMT-29" d="M 216 -1347 
Q 475 -791 581 -494 
Q 688 -197 778 190 
Q 869 578 912 926 
Q 956 1275 956 1641 
Q 956 2384 797 3048 
Q 638 3713 209 4659 
L 806 4659 
Q 1278 3988 1539 3234 
Q 1800 2481 1800 1706 
Q 1800 1053 1594 306 
Q 1359 -531 822 -1347 
L 216 -1347 
z
" transform="scale(0.015625)"/>
     </defs>
     <use xlink:href="#Arial-BoldMT-28"/>
     <use xlink:href="#Arial-BoldMT-61" x="33.300781"/>
     <use xlink:href="#Arial-BoldMT-29" x="88.916016"/>
    </g>
   </g>
   <g id="legend_1">
    <g id="patch_7">
     <path d="M 164.799006 57.635937 
L 228.099006 57.635937 
Q 230.099006 57.635937 230.099006 55.635937 
L 230.099006 14.2 
Q 230.099006 12.2 228.099006 12.2 
L 164.799006 12.2 
Q 162.799006 12.2 162.799006 14.2 
L 162.799006 55.635937 
Q 162.799006 57.635937 164.799006 57.635937 
z
" style="fill: #ffffff; opacity: 0.8; stroke: #cccccc; stroke-linejoin: miter"/>
    </g>
    <g id="line2d_17">
     <path d="M 166.799006 19.857812 
L 176.799006 19.857812 
L 186.799006 19.857812 
" style="fill: none; stroke: #1f77b4; stroke-width: 1.5; stroke-linecap: square"/>
    </g>
    <g id="text_17">
     <!-- 450 $^{\circ}$C -->
     <g transform="translate(194.799006 23.357812)scale(0.1 -0.1)">
      <defs>
       <path id="ArialMT-34" d="M 2069 0 
L 2069 1097 
L 81 1097 
L 81 1613 
L 2172 4581 
L 2631 4581 
L 2631 1613 
L 3250 1613 
L 3250 1097 
L 2631 1097 
L 2631 0 
L 2069 0 
z
M 2069 1613 
L 2069 3678 
L 634 1613 
L 2069 1613 
z
" transform="scale(0.015625)"/>
       <path id="Cmsy10-b1" d="M 1600 359 
Q 1269 359 983 526 
Q 697 694 528 984 
Q 359 1275 359 1600 
Q 359 1925 528 2215 
Q 697 2506 983 2673 
Q 1269 2841 1600 2841 
Q 1931 2841 2215 2672 
Q 2500 2503 2667 2214 
Q 2834 1925 2834 1600 
Q 2834 1275 2667 986 
Q 2500 697 2215 528 
Q 1931 359 1600 359 
z
M 1600 616 
Q 2000 616 2289 908 
Q 2578 1200 2578 1600 
Q 2578 1856 2445 2086 
Q 2313 2316 2088 2450 
Q 1863 2584 1600 2584 
Q 1403 2584 1225 2507 
Q 1047 2431 906 2290 
Q 766 2150 691 1973 
Q 616 1797 616 1600 
Q 616 1200 905 908 
Q 1194 616 1600 616 
z
" transform="scale(0.015625)"/>
      </defs>
      <use xlink:href="#ArialMT-34" transform="translate(0 0.203125)"/>
      <use xlink:href="#ArialMT-35" transform="translate(55.615234 0.203125)"/>
      <use xlink:href="#ArialMT-30" transform="translate(111.230469 0.203125)"/>
      <use xlink:href="#ArialMT-20" transform="translate(166.845703 0.203125)"/>
      <use xlink:href="#Cmsy10-b1" transform="translate(199.093047 38.467188)scale(0.7)"/>
      <use xlink:href="#ArialMT-43" transform="translate(240.470391 0.203125)"/>
     </g>
    </g>
    <g id="line2d_18">
     <path d="M 166.799006 34.003125 
L 176.799006 34.003125 
L 186.799006 34.003125 
" style="fill: none; stroke: #ff7f0e; stroke-width: 1.5; stroke-linecap: square"/>
    </g>
    <g id="text_18">
     <!-- 500 $^{\circ}$C -->
     <g transform="translate(194.799006 37.503125)scale(0.1 -0.1)">
      <use xlink:href="#ArialMT-35" transform="translate(0 0.203125)"/>
      <use xlink:href="#ArialMT-30" transform="translate(55.615234 0.203125)"/>
      <use xlink:href="#ArialMT-30" transform="translate(111.230469 0.203125)"/>
      <use xlink:href="#ArialMT-20" transform="translate(166.845703 0.203125)"/>
      <use xlink:href="#Cmsy10-b1" transform="translate(199.093047 38.467188)scale(0.7)"/>
      <use xlink:href="#ArialMT-43" transform="translate(240.470391 0.203125)"/>
     </g>
    </g>
    <g id="line2d_19">
     <path d="M 166.799006 48.148437 
L 176.799006 48.148437 
L 186.799006 48.148437 
" style="fill: none; stroke: #2ca02c; stroke-width: 1.5; stroke-linecap: square"/>
    </g>
    <g id="text_19">
     <!-- 550 $^{\circ}$C -->
     <g transform="translate(194.799006 51.648437)scale(0.1 -0.1)">
      <use xlink:href="#ArialMT-35" transform="translate(0 0.203125)"/>
      <use xlink:href="#ArialMT-35" transform="translate(55.615234 0.203125)"/>
      <use xlink:href="#ArialMT-30" transform="translate(111.230469 0.203125)"/>
      <use xlink:href="#ArialMT-20" transform="translate(166.845703 0.203125)"/>
      <use xlink:href="#Cmsy10-b1" transform="translate(199.093047 38.467188)scale(0.7)"/>
      <use xlink:href="#ArialMT-43" transform="translate(240.470391 0.203125)"/>
     </g>
    </g>
   </g>
  </g>
  <g id="axes_2">
   <g id="patch_8">
    <path d="M 409.503551 284.4 
L 713.867187 284.4 
L 713.867187 7.2 
L 409.503551 7.2 
z
" style="fill: #ffffff"/>
   </g>
   <g id="matplotlib.axis_3">
    <g id="xtick_6">
     <g id="line2d_20">
      <g>
       <use xlink:href="#m07467bf2e0" x="409.503551" y="284.4" style="stroke: #000000; stroke-width: 0.8"/>
      </g>
     </g>
     <g id="text_20">
      <!-- $\mathdefault{10^{-12}}$ -->
      <g transform="translate(398.503551 301.7125)scale(0.1 -0.1)">
       <use xlink:href="#ArialMT-31" transform="translate(0 0.99375)"/>
       <use xlink:href="#ArialMT-30" transform="translate(55.615234 0.99375)"/>
       <use xlink:href="#ArialMT-2d" transform="translate(112.972813 70.6875)scale(0.7)"/>
       <use xlink:href="#ArialMT-31" transform="translate(136.283359 70.6875)scale(0.7)"/>
       <use xlink:href="#ArialMT-32" transform="translate(175.214023 70.6875)scale(0.7)"/>
      </g>
     </g>
    </g>
    <g id="xtick_7">
     <g id="line2d_21">
      <g>
       <use xlink:href="#m07467bf2e0" x="460.230824" y="284.4" style="stroke: #000000; stroke-width: 0.8"/>
      </g>
     </g>
     <g id="text_21">
      <!-- $\mathdefault{10^{-10}}$ -->
      <g transform="translate(449.230824 301.7125)scale(0.1 -0.1)">
       <use xlink:href="#ArialMT-31" transform="translate(0 0.99375)"/>
       <use xlink:href="#ArialMT-30" transform="translate(55.615234 0.99375)"/>
       <use xlink:href="#ArialMT-2d" transform="translate(112.972813 70.6875)scale(0.7)"/>
       <use xlink:href="#ArialMT-31" transform="translate(136.283359 70.6875)scale(0.7)"/>
       <use xlink:href="#ArialMT-30" transform="translate(175.214023 70.6875)scale(0.7)"/>
      </g>
     </g>
    </g>
    <g id="xtick_8">
     <g id="line2d_22">
      <g>
       <use xlink:href="#m07467bf2e0" x="510.958097" y="284.4" style="stroke: #000000; stroke-width: 0.8"/>
      </g>
     </g>
     <g id="text_22">
      <!-- $\mathdefault{10^{-8}}$ -->
      <g transform="translate(501.908097 301.7125)scale(0.1 -0.1)">
       <defs>
        <path id="ArialMT-38" d="M 1131 2484 
Q 781 2613 612 2850 
Q 444 3088 444 3419 
Q 444 3919 803 4259 
Q 1163 4600 1759 4600 
Q 2359 4600 2725 4251 
Q 3091 3903 3091 3403 
Q 3091 3084 2923 2848 
Q 2756 2613 2416 2484 
Q 2838 2347 3058 2040 
Q 3278 1734 3278 1309 
Q 3278 722 2862 322 
Q 2447 -78 1769 -78 
Q 1091 -78 675 323 
Q 259 725 259 1325 
Q 259 1772 486 2073 
Q 713 2375 1131 2484 
z
M 1019 3438 
Q 1019 3113 1228 2906 
Q 1438 2700 1772 2700 
Q 2097 2700 2305 2904 
Q 2513 3109 2513 3406 
Q 2513 3716 2298 3927 
Q 2084 4138 1766 4138 
Q 1444 4138 1231 3931 
Q 1019 3725 1019 3438 
z
M 838 1322 
Q 838 1081 952 856 
Q 1066 631 1291 507 
Q 1516 384 1775 384 
Q 2178 384 2440 643 
Q 2703 903 2703 1303 
Q 2703 1709 2433 1975 
Q 2163 2241 1756 2241 
Q 1359 2241 1098 1978 
Q 838 1716 838 1322 
z
" transform="scale(0.015625)"/>
       </defs>
       <use xlink:href="#ArialMT-31" transform="translate(0 0.99375)"/>
       <use xlink:href="#ArialMT-30" transform="translate(55.615234 0.99375)"/>
       <use xlink:href="#ArialMT-2d" transform="translate(112.972813 70.6875)scale(0.7)"/>
       <use xlink:href="#ArialMT-38" transform="translate(136.283359 70.6875)scale(0.7)"/>
      </g>
     </g>
    </g>
    <g id="xtick_9">
     <g id="line2d_23">
      <g>
       <use xlink:href="#m07467bf2e0" x="561.685369" y="284.4" style="stroke: #000000; stroke-width: 0.8"/>
      </g>
     </g>
     <g id="text_23">
      <!-- $\mathdefault{10^{-6}}$ -->
      <g transform="translate(552.635369 301.7125)scale(0.1 -0.1)">
       <defs>
        <path id="ArialMT-36" d="M 3184 3459 
L 2625 3416 
Q 2550 3747 2413 3897 
Q 2184 4138 1850 4138 
Q 1581 4138 1378 3988 
Q 1113 3794 959 3422 
Q 806 3050 800 2363 
Q 1003 2672 1297 2822 
Q 1591 2972 1913 2972 
Q 2475 2972 2870 2558 
Q 3266 2144 3266 1488 
Q 3266 1056 3080 686 
Q 2894 316 2569 119 
Q 2244 -78 1831 -78 
Q 1128 -78 684 439 
Q 241 956 241 2144 
Q 241 3472 731 4075 
Q 1159 4600 1884 4600 
Q 2425 4600 2770 4297 
Q 3116 3994 3184 3459 
z
M 888 1484 
Q 888 1194 1011 928 
Q 1134 663 1356 523 
Q 1578 384 1822 384 
Q 2178 384 2434 671 
Q 2691 959 2691 1453 
Q 2691 1928 2437 2201 
Q 2184 2475 1800 2475 
Q 1419 2475 1153 2201 
Q 888 1928 888 1484 
z
" transform="scale(0.015625)"/>
       </defs>
       <use xlink:href="#ArialMT-31" transform="translate(0 0.99375)"/>
       <use xlink:href="#ArialMT-30" transform="translate(55.615234 0.99375)"/>
       <use xlink:href="#ArialMT-2d" transform="translate(112.972813 70.6875)scale(0.7)"/>
       <use xlink:href="#ArialMT-36" transform="translate(136.283359 70.6875)scale(0.7)"/>
      </g>
     </g>
    </g>
    <g id="xtick_10">
     <g id="line2d_24">
      <g>
       <use xlink:href="#m07467bf2e0" x="612.412642" y="284.4" style="stroke: #000000; stroke-width: 0.8"/>
      </g>
     </g>
     <g id="text_24">
      <!-- $\mathdefault{10^{-4}}$ -->
      <g transform="translate(603.362642 301.6125)scale(0.1 -0.1)">
       <use xlink:href="#ArialMT-31" transform="translate(0 0.201563)"/>
       <use xlink:href="#ArialMT-30" transform="translate(55.615234 0.201563)"/>
       <use xlink:href="#ArialMT-2d" transform="translate(112.972813 69.895313)scale(0.7)"/>
       <use xlink:href="#ArialMT-34" transform="translate(136.283359 69.895313)scale(0.7)"/>
      </g>
     </g>
    </g>
    <g id="xtick_11">
     <g id="line2d_25">
      <g>
       <use xlink:href="#m07467bf2e0" x="663.139915" y="284.4" style="stroke: #000000; stroke-width: 0.8"/>
      </g>
     </g>
     <g id="text_25">
      <!-- $\mathdefault{10^{-2}}$ -->
      <g transform="translate(654.089915 301.7125)scale(0.1 -0.1)">
       <use xlink:href="#ArialMT-31" transform="translate(0 0.99375)"/>
       <use xlink:href="#ArialMT-30" transform="translate(55.615234 0.99375)"/>
       <use xlink:href="#ArialMT-2d" transform="translate(112.972813 70.6875)scale(0.7)"/>
       <use xlink:href="#ArialMT-32" transform="translate(136.283359 70.6875)scale(0.7)"/>
      </g>
     </g>
    </g>
    <g id="xtick_12">
     <g id="line2d_26">
      <g>
       <use xlink:href="#m07467bf2e0" x="713.867187" y="284.4" style="stroke: #000000; stroke-width: 0.8"/>
      </g>
     </g>
     <g id="text_26">
      <!-- $\mathdefault{10^{0}}$ -->
      <g transform="translate(706.017187 301.7125)scale(0.1 -0.1)">
       <use xlink:href="#ArialMT-31" transform="translate(0 0.99375)"/>
       <use xlink:href="#ArialMT-30" transform="translate(55.615234 0.99375)"/>
       <use xlink:href="#ArialMT-30" transform="translate(112.972813 70.6875)scale(0.7)"/>
      </g>
     </g>
    </g>
    <g id="text_27">
     <!-- log$_{\mathregular{10}}$(X$_{\mathregular{NaCl}}$) -->
     <g transform="translate(535.585369 315)scale(0.1 -0.1)">
      <use xlink:href="#ArialMT-6c" transform="translate(0 0.203125)"/>
      <use xlink:href="#ArialMT-6f" transform="translate(22.216797 0.203125)"/>
      <use xlink:href="#ArialMT-67" transform="translate(77.832031 0.203125)"/>
      <use xlink:href="#ArialMT-31" transform="translate(137.911406 -16.803125)scale(0.7)"/>
      <use xlink:href="#ArialMT-30" transform="translate(176.84207 -16.803125)scale(0.7)"/>
      <use xlink:href="#ArialMT-28" transform="translate(222.150078 0.203125)"/>
      <use xlink:href="#ArialMT-58" transform="translate(255.450859 0.203125)"/>
      <use xlink:href="#ArialMT-4e" transform="translate(326.614219 -16.803125)scale(0.7)"/>
      <use xlink:href="#ArialMT-61" transform="translate(377.165977 -16.803125)scale(0.7)"/>
      <use xlink:href="#ArialMT-43" transform="translate(416.096641 -16.803125)scale(0.7)"/>
      <use xlink:href="#ArialMT-6c" transform="translate(466.648398 -16.803125)scale(0.7)"/>
      <use xlink:href="#ArialMT-29" transform="translate(488.5775 0.203125)"/>
     </g>
    </g>
   </g>
   <g id="matplotlib.axis_4">
    <g id="ytick_9">
     <g id="line2d_27">
      <defs>
       <path id="m990ea7695f" d="M 0 0 
L 3.5 0 
" style="stroke: #000000; stroke-width: 0.8"/>
      </defs>
      <g>
       <use xlink:href="#m990ea7695f" x="713.867187" y="255.891557" style="stroke: #000000; stroke-width: 0.8"/>
      </g>
     </g>
     <g id="text_28">
      <!-- 100 -->
      <g transform="translate(720.867187 259.470463)scale(0.1 -0.1)">
       <use xlink:href="#ArialMT-31"/>
       <use xlink:href="#ArialMT-30" x="55.615234"/>
       <use xlink:href="#ArialMT-30" x="111.230469"/>
      </g>
     </g>
    </g>
    <g id="ytick_10">
     <g id="line2d_28">
      <g>
       <use xlink:href="#m990ea7695f" x="713.867187" y="222.196527" style="stroke: #000000; stroke-width: 0.8"/>
      </g>
     </g>
     <g id="text_29">
      <!-- 200 -->
      <g transform="translate(720.867187 225.775434)scale(0.1 -0.1)">
       <use xlink:href="#ArialMT-32"/>
       <use xlink:href="#ArialMT-30" x="55.615234"/>
       <use xlink:href="#ArialMT-30" x="111.230469"/>
      </g>
     </g>
    </g>
    <g id="ytick_11">
     <g id="line2d_29">
      <g>
       <use xlink:href="#m990ea7695f" x="713.867187" y="188.501498" style="stroke: #000000; stroke-width: 0.8"/>
      </g>
     </g>
     <g id="text_30">
      <!-- 300 -->
      <g transform="translate(720.867187 192.080404)scale(0.1 -0.1)">
       <use xlink:href="#ArialMT-33"/>
       <use xlink:href="#ArialMT-30" x="55.615234"/>
       <use xlink:href="#ArialMT-30" x="111.230469"/>
      </g>
     </g>
    </g>
    <g id="ytick_12">
     <g id="line2d_30">
      <g>
       <use xlink:href="#m990ea7695f" x="713.867187" y="154.806468" style="stroke: #000000; stroke-width: 0.8"/>
      </g>
     </g>
     <g id="text_31">
      <!-- 400 -->
      <g transform="translate(720.867187 158.385375)scale(0.1 -0.1)">
       <use xlink:href="#ArialMT-34"/>
       <use xlink:href="#ArialMT-30" x="55.615234"/>
       <use xlink:href="#ArialMT-30" x="111.230469"/>
      </g>
     </g>
    </g>
    <g id="ytick_13">
     <g id="line2d_31">
      <g>
       <use xlink:href="#m990ea7695f" x="713.867187" y="121.111439" style="stroke: #000000; stroke-width: 0.8"/>
      </g>
     </g>
     <g id="text_32">
      <!-- 500 -->
      <g transform="translate(720.867187 124.690345)scale(0.1 -0.1)">
       <use xlink:href="#ArialMT-35"/>
       <use xlink:href="#ArialMT-30" x="55.615234"/>
       <use xlink:href="#ArialMT-30" x="111.230469"/>
      </g>
     </g>
    </g>
    <g id="ytick_14">
     <g id="line2d_32">
      <g>
       <use xlink:href="#m990ea7695f" x="713.867187" y="87.416409" style="stroke: #000000; stroke-width: 0.8"/>
      </g>
     </g>
     <g id="text_33">
      <!-- 600 -->
      <g transform="translate(720.867187 90.995316)scale(0.1 -0.1)">
       <use xlink:href="#ArialMT-36"/>
       <use xlink:href="#ArialMT-30" x="55.615234"/>
       <use xlink:href="#ArialMT-30" x="111.230469"/>
      </g>
     </g>
    </g>
    <g id="ytick_15">
     <g id="line2d_33">
      <g>
       <use xlink:href="#m990ea7695f" x="713.867187" y="53.72138" style="stroke: #000000; stroke-width: 0.8"/>
      </g>
     </g>
     <g id="text_34">
      <!-- 700 -->
      <g transform="translate(720.867187 57.300286)scale(0.1 -0.1)">
       <use xlink:href="#ArialMT-37"/>
       <use xlink:href="#ArialMT-30" x="55.615234"/>
       <use xlink:href="#ArialMT-30" x="111.230469"/>
      </g>
     </g>
    </g>
    <g id="ytick_16">
     <g id="line2d_34">
      <g>
       <use xlink:href="#m990ea7695f" x="713.867187" y="20.02635" style="stroke: #000000; stroke-width: 0.8"/>
      </g>
     </g>
     <g id="text_35">
      <!-- 800 -->
      <g transform="translate(720.867187 23.605257)scale(0.1 -0.1)">
       <use xlink:href="#ArialMT-38"/>
       <use xlink:href="#ArialMT-30" x="55.615234"/>
       <use xlink:href="#ArialMT-30" x="111.230469"/>
      </g>
     </g>
    </g>
    <g id="text_36">
     <!-- Temperature ($^{\circ}$C) -->
     <g transform="translate(748.85 185.05)rotate(-90)scale(0.1 -0.1)">
      <defs>
       <path id="ArialMT-54" d="M 1659 0 
L 1659 4041 
L 150 4041 
L 150 4581 
L 3781 4581 
L 3781 4041 
L 2266 4041 
L 2266 0 
L 1659 0 
z
" transform="scale(0.015625)"/>
       <path id="ArialMT-6d" d="M 422 0 
L 422 3319 
L 925 3319 
L 925 2853 
Q 1081 3097 1340 3245 
Q 1600 3394 1931 3394 
Q 2300 3394 2536 3241 
Q 2772 3088 2869 2813 
Q 3263 3394 3894 3394 
Q 4388 3394 4653 3120 
Q 4919 2847 4919 2278 
L 4919 0 
L 4359 0 
L 4359 2091 
Q 4359 2428 4304 2576 
Q 4250 2725 4106 2815 
Q 3963 2906 3769 2906 
Q 3419 2906 3187 2673 
Q 2956 2441 2956 1928 
L 2956 0 
L 2394 0 
L 2394 2156 
Q 2394 2531 2256 2718 
Q 2119 2906 1806 2906 
Q 1569 2906 1367 2781 
Q 1166 2656 1075 2415 
Q 984 2175 984 1722 
L 984 0 
L 422 0 
z
" transform="scale(0.015625)"/>
       <path id="ArialMT-70" d="M 422 -1272 
L 422 3319 
L 934 3319 
L 934 2888 
Q 1116 3141 1344 3267 
Q 1572 3394 1897 3394 
Q 2322 3394 2647 3175 
Q 2972 2956 3137 2557 
Q 3303 2159 3303 1684 
Q 3303 1175 3120 767 
Q 2938 359 2589 142 
Q 2241 -75 1856 -75 
Q 1575 -75 1351 44 
Q 1128 163 984 344 
L 984 -1272 
L 422 -1272 
z
M 931 1641 
Q 931 1000 1190 694 
Q 1450 388 1819 388 
Q 2194 388 2461 705 
Q 2728 1022 2728 1688 
Q 2728 2322 2467 2637 
Q 2206 2953 1844 2953 
Q 1484 2953 1207 2617 
Q 931 2281 931 1641 
z
" transform="scale(0.015625)"/>
       <path id="ArialMT-74" d="M 1650 503 
L 1731 6 
Q 1494 -44 1306 -44 
Q 1000 -44 831 53 
Q 663 150 594 308 
Q 525 466 525 972 
L 525 2881 
L 113 2881 
L 113 3319 
L 525 3319 
L 525 4141 
L 1084 4478 
L 1084 3319 
L 1650 3319 
L 1650 2881 
L 1084 2881 
L 1084 941 
Q 1084 700 1114 631 
Q 1144 563 1211 522 
Q 1278 481 1403 481 
Q 1497 481 1650 503 
z
" transform="scale(0.015625)"/>
      </defs>
      <use xlink:href="#ArialMT-54" transform="translate(0 0.203125)"/>
      <use xlink:href="#ArialMT-65" transform="translate(61.083984 0.203125)"/>
      <use xlink:href="#ArialMT-6d" transform="translate(116.699219 0.203125)"/>
      <use xlink:href="#ArialMT-70" transform="translate(200 0.203125)"/>
      <use xlink:href="#ArialMT-65" transform="translate(255.615234 0.203125)"/>
      <use xlink:href="#ArialMT-72" transform="translate(311.230469 0.203125)"/>
      <use xlink:href="#ArialMT-61" transform="translate(344.53125 0.203125)"/>
      <use xlink:href="#ArialMT-74" transform="translate(400.146484 0.203125)"/>
      <use xlink:href="#ArialMT-75" transform="translate(427.929688 0.203125)"/>
      <use xlink:href="#ArialMT-72" transform="translate(483.544922 0.203125)"/>
      <use xlink:href="#ArialMT-65" transform="translate(516.845703 0.203125)"/>
      <use xlink:href="#ArialMT-20" transform="translate(572.460938 0.203125)"/>
      <use xlink:href="#ArialMT-28" transform="translate(600.244141 0.203125)"/>
      <use xlink:href="#Cmsy10-b1" transform="translate(638.009063 38.467188)scale(0.7)"/>
      <use xlink:href="#ArialMT-43" transform="translate(679.386406 0.203125)"/>
      <use xlink:href="#ArialMT-29" transform="translate(751.603203 0.203125)"/>
     </g>
    </g>
   </g>
   <g id="line2d_35">
    <path d="M 408.752293 253.276114 
L 390.58075 250.918639 
L 372.645706 248.561165 
L 356.496679 246.20369 
L 342.886389 243.846215 
L 332.033884 241.48874 
L 323.852079 239.131265 
L 318.101193 236.77379 
L 314.481366 234.416316 
L 312.684364 232.058841 
L 312.420053 229.701366 
L 313.428169 227.343891 
L 315.4819 224.986416 
L 318.387206 222.628941 
L 321.980085 220.271467 
L 326.123055 217.913992 
L 330.701516 215.556517 
L 335.620315 213.199042 
L 340.800678 210.841567 
L 346.177525 208.484093 
L 351.697195 206.126618 
L 357.315509 203.769143 
L 362.99616 201.411668 
L 368.709367 199.054193 
L 374.43076 196.696718 
L 380.140451 194.339244 
L 385.82227 191.981769 
L 391.463133 189.624294 
L 397.052514 187.266819 
L 402.582009 184.909344 
L 408.044978 182.551869 
L 413.436244 180.194395 
L 418.751844 177.83692 
L 423.988815 175.479445 
L 429.145018 173.12197 
L 434.21896 170.764495 
L 439.209607 168.40702 
L 444.115979 166.049546 
L 448.934765 163.692071 
L 453.661547 161.334596 
L 458.314396 158.977121 
L 462.887811 156.619646 
L 467.379984 154.262172 
L 471.790855 151.904697 
L 476.121262 149.547222 
L 480.372524 147.189747 
L 484.546214 144.832272 
L 488.64403 142.474797 
L 492.66772 140.117323 
L 496.619036 137.759848 
L 500.499713 135.402373 
L 504.311448 133.044898 
L 508.0559 130.687423 
L 511.734683 128.329948 
L 515.349365 125.972474 
L 518.90147 123.614999 
L 522.39248 121.257524 
L 525.823876 118.900049 
L 529.197016 116.542574 
L 532.513143 114.185099 
L 535.773502 111.827625 
L 538.979323 109.47015 
L 542.131826 107.112675 
L 545.232211 104.7552 
L 548.281656 102.397725 
L 551.281319 100.04025 
L 554.232329 97.682776 
L 557.135794 95.325301 
L 559.992793 92.967826 
L 562.804379 90.610351 
L 565.571581 88.252876 
L 568.2954 85.895402 
L 570.97681 83.537927 
L 573.616762 81.180452 
L 576.216181 78.822977 
L 578.775966 76.465502 
L 581.296992 74.108027 
L 583.780113 71.750553 
L 586.226157 69.393078 
L 588.635932 67.035603 
L 591.010221 64.678128 
L 593.349789 62.320653 
L 595.655378 59.963178 
L 597.927712 57.605704 
L 600.167494 55.248229 
L 602.375408 52.890754 
L 604.55212 50.533279 
L 606.698279 48.175804 
L 608.814516 45.818329 
L 610.901445 43.460855 
L 612.959664 41.10338 
L 614.989756 38.745905 
L 616.992287 36.38843 
L 618.96781 34.030955 
L 620.916862 31.673481 
L 622.839967 29.316006 
L 624.737637 26.958531 
L 626.610367 24.601056 
L 628.458643 22.243581 
L 630.282938 19.886106 
" clip-path="url(#pfc7dafdebe)" style="fill: none; stroke: #1f77b4; stroke-width: 3; stroke-linecap: square"/>
   </g>
   <g id="line2d_36">
    <path d="M 495.629086 223.938079 
L 490.408504 221.885689 
L 484.547137 219.833299 
L 478.275808 217.780909 
L 471.85905 215.728519 
L 465.535876 213.67613 
L 459.498061 211.62374 
L 453.886673 209.57135 
L 448.796771 207.51896 
L 444.285081 205.46657 
L 440.378127 203.41418 
L 437.079641 201.36179 
L 434.376846 199.3094 
L 432.24553 197.25701 
L 430.654017 195.204621 
L 429.566187 193.152231 
L 428.943726 191.099841 
L 428.747754 189.047451 
L 428.939973 186.995061 
L 429.483448 184.942671 
L 430.343116 182.890281 
L 431.486075 180.837891 
L 432.881739 178.785502 
L 434.501865 176.733112 
L 436.320494 174.680722 
L 438.313802 172.628332 
L 440.459821 170.575942 
L 442.73785 168.523552 
L 445.126854 166.471162 
L 447.598075 164.418772 
L 450.068123 162.366383 
L 452.653888 160.313993 
L 455.336449 158.261603 
L 458.078062 156.209213 
L 460.855976 154.156823 
L 463.65557 152.104433 
L 466.467051 150.052043 
L 469.28364 147.999653 
L 472.100486 145.947263 
L 474.913989 143.894874 
L 477.721376 141.842484 
L 480.520425 139.790094 
L 483.309287 137.737704 
L 486.08637 135.685314 
L 488.850268 133.632924 
L 491.599714 131.580534 
L 494.33355 129.528144 
L 497.050715 127.475755 
L 499.750233 125.423365 
L 502.431206 123.370975 
L 505.092815 121.318585 
L 507.734613 119.266195 
L 510.35577 117.213805 
L 512.954882 115.161415 
L 515.530811 113.109025 
L 518.082648 111.056636 
L 520.609674 109.004246 
L 523.11133 106.951856 
L 525.587193 104.899466 
L 528.036955 102.847076 
L 530.460403 100.794686 
L 532.857409 98.742296 
L 535.227914 96.689906 
L 537.57192 94.637516 
L 539.889479 92.585127 
L 542.180689 90.532737 
L 544.445682 88.480347 
L 546.684625 86.427957 
L 548.89771 84.375567 
L 551.085152 82.323177 
L 553.247185 80.270787 
L 555.384062 78.218397 
L 557.496046 76.166008 
L 559.583414 74.113618 
L 561.646449 72.061228 
L 563.685443 70.008838 
L 565.700696 67.956448 
L 567.69251 65.904058 
L 569.661189 63.851668 
L 571.607043 61.799278 
L 573.53038 59.746889 
L 575.43151 57.694499 
L 577.310744 55.642109 
L 579.168389 53.589719 
L 581.004754 51.537329 
L 582.820144 49.484939 
L 584.614864 47.432549 
L 586.389214 45.380159 
L 588.143494 43.327769 
L 589.877999 41.27538 
L 591.593022 39.22299 
L 593.288851 37.1706 
L 594.965773 35.11821 
L 596.624068 33.06582 
L 598.264016 31.01343 
L 599.88589 28.96104 
L 601.489962 26.90865 
L 603.076496 24.856261 
L 604.645756 22.803871 
L 606.198 20.751481 
" clip-path="url(#pfc7dafdebe)" style="fill: none; stroke: #ff7f0e; stroke-width: 3; stroke-linecap: square"/>
   </g>
   <g id="line2d_37">
    <path d="M 548.895452 193.121067 
L 546.99695 191.419832 
L 545.039218 189.718597 
L 542.976093 188.017362 
L 540.802587 186.316127 
L 538.537397 184.614891 
L 536.211518 182.913656 
L 533.860932 181.212421 
L 531.522064 179.511186 
L 529.229066 177.80995 
L 527.012319 176.108715 
L 524.897706 174.40748 
L 522.906335 172.706245 
L 521.054457 171.005009 
L 519.353246 169.303774 
L 517.807849 167.602539 
L 516.413577 165.901304 
L 515.135781 164.200069 
L 513.798786 162.498833 
L 512.729004 160.797598 
L 511.918671 159.096363 
L 511.307065 157.395128 
L 510.85565 155.693892 
L 510.538586 153.992657 
L 510.338058 152.291422 
L 510.241557 150.590187 
L 510.240145 148.888951 
L 510.327305 147.187716 
L 510.498148 145.486481 
L 510.748853 143.785246 
L 511.076288 142.084011 
L 511.477727 140.382775 
L 511.950672 138.68154 
L 512.492724 136.980305 
L 513.101499 135.27907 
L 513.774588 133.577834 
L 514.509523 131.876599 
L 515.303779 130.175364 
L 516.154771 128.474129 
L 517.059865 126.772893 
L 518.0164 125.071658 
L 519.021699 123.370423 
L 520.073091 121.669188 
L 521.168494 119.967953 
L 522.305929 118.266717 
L 523.480801 116.565482 
L 524.688821 114.864247 
L 525.92613 113.163012 
L 527.189251 111.461776 
L 528.475041 109.760541 
L 529.780658 108.059306 
L 531.103526 106.358071 
L 532.441308 104.656835 
L 533.791881 102.9556 
L 535.153313 101.254365 
L 536.523846 99.55313 
L 537.901878 97.851894 
L 539.285948 96.150659 
L 540.674723 94.449424 
L 542.066986 92.748189 
L 543.461626 91.046954 
L 544.857629 89.345718 
L 546.254065 87.644483 
L 547.650089 85.943248 
L 549.044925 84.242013 
L 550.437866 82.540777 
L 551.828266 80.839542 
L 553.215533 79.138307 
L 554.59913 77.437072 
L 555.978564 75.735836 
L 557.353387 74.034601 
L 558.723191 72.333366 
L 560.087603 70.632131 
L 561.446287 68.930896 
L 562.798935 67.22966 
L 564.145269 65.528425 
L 565.485038 63.82719 
L 566.818013 62.125955 
L 568.14399 60.424719 
L 569.462786 58.723484 
L 570.774234 57.022249 
L 572.078188 55.321014 
L 573.374518 53.619778 
L 574.663106 51.918543 
L 575.943852 50.217308 
L 577.216666 48.516073 
L 578.481473 46.814838 
L 579.738205 45.113602 
L 580.986807 43.412367 
L 582.227233 41.711132 
L 583.459445 40.009897 
L 584.683415 38.308661 
L 585.89912 36.607426 
L 587.106544 34.906191 
L 588.30568 33.204956 
L 589.496524 31.50372 
L 590.679079 29.802485 
L 591.853353 28.10125 
L 593.019358 26.400015 
L 594.177111 24.69878 
" clip-path="url(#pfc7dafdebe)" style="fill: none; stroke: #2ca02c; stroke-width: 3; stroke-linecap: square"/>
   </g>
   <g id="line2d_38">
    <path d="M 574.875446 174.659857 
L 573.733833 173.197647 
L 572.629621 171.735438 
L 571.532484 170.273228 
L 570.425846 168.811019 
L 569.30121 167.348809 
L 568.151784 165.8866 
L 566.95784 164.424391 
L 565.579773 162.962181 
L 564.213614 161.499972 
L 562.956106 160.037762 
L 561.774141 158.575553 
L 560.648348 157.113343 
L 559.56694 155.651134 
L 558.522998 154.188924 
L 557.512929 152.726715 
L 556.535476 151.264505 
L 555.591031 149.802296 
L 554.681117 148.340086 
L 553.808008 146.877877 
L 552.974425 145.415667 
L 552.183308 143.953458 
L 551.437632 142.491249 
L 550.740274 141.029039 
L 550.093909 139.56683 
L 549.500938 138.10462 
L 548.963441 136.642411 
L 548.483145 135.180201 
L 548.061414 133.717992 
L 547.699247 132.255782 
L 547.397288 130.793573 
L 547.155845 129.331363 
L 546.974909 127.869154 
L 546.854184 126.406944 
L 546.793114 124.944735 
L 546.790912 123.482525 
L 546.846593 122.020316 
L 546.959238 120.558106 
L 547.129169 119.095897 
L 547.353328 117.633688 
L 547.62809 116.171478 
L 547.95007 114.709269 
L 548.316104 113.247059 
L 548.723236 111.78485 
L 549.168701 110.32264 
L 549.649912 108.860431 
L 550.164446 107.398221 
L 550.710034 105.936012 
L 551.28455 104.473802 
L 551.886 103.011593 
L 552.512515 101.549383 
L 553.16234 100.087174 
L 553.833829 98.624964 
L 554.525437 97.162755 
L 555.235712 95.700546 
L 555.963292 94.238336 
L 556.706895 92.776127 
L 557.465317 91.313917 
L 558.237427 89.851708 
L 559.022161 88.389498 
L 559.818519 86.927289 
L 560.625558 85.465079 
L 561.442393 84.00287 
L 562.268192 82.54066 
L 563.10217 81.078451 
L 563.943588 79.616241 
L 564.791753 78.154032 
L 565.646009 76.691822 
L 566.50574 75.229613 
L 567.370368 73.767403 
L 568.239344 72.305194 
L 569.112156 70.842985 
L 569.988317 69.380775 
L 570.867371 67.918566 
L 571.748889 66.456356 
L 572.632464 64.994147 
L 573.517716 63.531937 
L 574.404284 62.069728 
L 575.291831 60.607518 
L 576.180036 59.145309 
L 577.0686 57.683099 
L 577.957238 56.22089 
L 578.845686 54.75868 
L 579.733691 53.296471 
L 580.621018 51.834261 
L 581.507444 50.372052 
L 582.39276 48.909842 
L 583.276769 47.447633 
L 584.159285 45.985424 
L 585.040134 44.523214 
L 585.919154 43.061005 
L 586.796189 41.598795 
L 587.671095 40.136586 
L 588.543737 38.674376 
L 589.413988 37.212167 
L 590.281727 35.749957 
L 591.146843 34.287748 
L 592.009232 32.825538 
L 592.868794 31.363329 
L 593.725439 29.901119 
" clip-path="url(#pfc7dafdebe)" style="fill: none; stroke: #d62728; stroke-width: 3; stroke-linecap: square"/>
   </g>
   <g id="line2d_39">
    <path d="M 606.13965 149.331801 
L 605.391571 148.243318 
L 604.655795 147.154834 
L 603.926763 146.066351 
L 603.200614 144.977868 
L 602.474867 143.889385 
L 601.748151 142.800902 
L 601.019989 141.712418 
L 600.290611 140.623935 
L 599.560809 139.535452 
L 598.8318 138.446969 
L 598.105124 137.358486 
L 597.382551 136.270002 
L 596.666002 135.181519 
L 595.957492 134.093036 
L 595.25907 133.004553 
L 594.572778 131.916069 
L 593.900622 130.827586 
L 593.244533 129.739103 
L 592.606355 128.65062 
L 591.987825 127.562137 
L 591.390561 126.473653 
L 590.816055 125.38517 
L 590.265667 124.296687 
L 589.740625 123.208204 
L 589.242025 122.119721 
L 588.770839 121.031237 
L 588.329092 119.942754 
L 587.917466 118.854271 
L 587.535328 117.765788 
L 587.182031 116.677305 
L 586.856915 115.588821 
L 586.55931 114.500338 
L 586.288539 113.411855 
L 586.04392 112.323372 
L 585.824767 111.234888 
L 585.630397 110.146405 
L 585.460126 109.057922 
L 585.313275 107.969439 
L 585.189169 106.880956 
L 585.087142 105.792472 
L 585.006532 104.703989 
L 584.94669 103.615506 
L 584.906974 102.527023 
L 584.886754 101.43854 
L 584.885412 100.350056 
L 584.90234 99.261573 
L 584.936945 98.17309 
L 584.988645 97.084607 
L 585.056872 95.996123 
L 585.141071 94.90764 
L 585.240701 93.819157 
L 585.355234 92.730674 
L 585.484155 91.642191 
L 585.626965 90.553707 
L 585.783175 89.465224 
L 585.952313 88.376741 
L 586.133918 87.288258 
L 586.327542 86.199775 
L 586.532751 85.111291 
L 586.749124 84.022808 
L 586.97625 82.934325 
L 587.213734 81.845842 
L 587.46119 80.757359 
L 587.718245 79.668875 
L 587.984537 78.580392 
L 588.259715 77.491909 
L 588.54344 76.403426 
L 588.835383 75.314942 
L 589.135225 74.226459 
L 589.442658 73.137976 
L 589.757382 72.049493 
L 590.079108 70.96101 
L 590.407557 69.872526 
L 590.742458 68.784043 
L 591.083548 67.69556 
L 591.430573 66.607077 
L 591.783288 65.518594 
L 592.141456 64.43011 
L 592.504846 63.341627 
L 592.873236 62.253144 
L 593.246412 61.164661 
L 593.624164 60.076178 
L 594.006292 58.987694 
L 594.392602 57.899211 
L 594.782903 56.810728 
L 595.177016 55.722245 
L 595.574763 54.633761 
L 595.975974 53.545278 
L 596.380484 52.456795 
L 596.788134 51.368312 
L 597.198769 50.279829 
L 597.612242 49.191345 
L 598.028406 48.102862 
L 598.447124 47.014379 
L 598.86826 45.925896 
L 599.291684 44.837413 
L 599.717269 43.748929 
L 600.144895 42.660446 
L 600.574441 41.571963 
" clip-path="url(#pfc7dafdebe)" style="fill: none; stroke: #9467bd; stroke-width: 3; stroke-linecap: square"/>
   </g>
   <g id="line2d_40">
    <path d="M 619.758346 126.657759 
L 619.295231 125.949237 
L 618.843021 125.240715 
L 618.401436 124.532192 
L 617.970269 123.82367 
L 617.549372 123.115147 
L 617.138645 122.406625 
L 616.738036 121.698102 
L 616.347541 120.98958 
L 615.967771 120.281057 
L 615.598805 119.572535 
L 615.240356 118.864012 
L 614.892166 118.15549 
L 614.554004 117.446968 
L 614.225665 116.738445 
L 613.906959 116.029923 
L 613.597714 115.3214 
L 613.297773 114.612878 
L 613.006988 113.904355 
L 612.725224 113.195833 
L 612.45235 112.48731 
L 612.188244 111.778788 
L 611.932789 111.070266 
L 611.685873 110.361743 
L 611.447386 109.653221 
L 611.217224 108.944698 
L 610.995283 108.236176 
L 610.78146 107.527653 
L 610.575655 106.819131 
L 610.377771 106.110608 
L 610.187707 105.402086 
L 610.005368 104.693563 
L 609.830654 103.985041 
L 609.663471 103.276519 
L 609.503721 102.567996 
L 609.351308 101.859474 
L 609.206136 101.150951 
L 609.068108 100.442429 
L 608.937128 99.733906 
L 608.813101 99.025384 
L 608.69593 98.316861 
L 608.585519 97.608339 
L 608.481772 96.899816 
L 608.384594 96.191294 
L 608.29389 95.482772 
L 608.209563 94.774249 
L 608.13152 94.065727 
L 608.059665 93.357204 
L 607.993905 92.648682 
L 607.934144 91.940159 
L 607.88029 91.231637 
L 607.83225 90.523114 
L 607.789931 89.814592 
L 607.753241 89.10607 
L 607.722089 88.397547 
L 607.696384 87.689025 
L 607.676036 86.980502 
L 607.660956 86.27198 
L 607.651056 85.563457 
L 607.646247 84.854935 
L 607.646442 84.146412 
L 607.651555 83.43789 
L 607.661501 82.729367 
L 607.676195 82.020845 
L 607.695554 81.312323 
L 607.719495 80.6038 
L 607.747936 79.895278 
L 607.780796 79.186755 
L 607.817995 78.478233 
L 607.859455 77.76971 
L 607.905097 77.061188 
L 607.954843 76.352665 
L 608.008619 75.644143 
L 608.066349 74.93562 
L 608.127958 74.227098 
L 608.193375 73.518576 
L 608.262525 72.810053 
L 608.335339 72.101531 
L 608.411746 71.393008 
L 608.491677 70.684486 
L 608.575064 69.975963 
L 608.66184 69.267441 
L 608.751938 68.558918 
L 608.845293 67.850396 
L 608.94184 67.141874 
L 609.041518 66.433351 
L 609.144262 65.724829 
L 609.250012 65.016306 
L 609.358708 64.307784 
L 609.470289 63.599261 
L 609.584698 62.890739 
L 609.701876 62.182216 
L 609.821767 61.473694 
L 609.944315 60.765171 
L 610.069465 60.056649 
L 610.197162 59.348127 
L 610.327355 58.639604 
L 610.45999 57.931082 
L 610.595016 57.222559 
L 610.732382 56.514037 
" clip-path="url(#pfc7dafdebe)" style="fill: none; stroke: #8c564b; stroke-width: 3; stroke-linecap: square"/>
   </g>
   <g id="line2d_41">
    <path d="M 308.372986 271.8 
L 323.567214 269.77996 
L 337.111014 267.75992 
L 352.308148 265.23487 
L 366.039221 262.70982 
L 378.627444 260.18477 
L 392.523829 257.154709 
L 405.334658 254.124649 
L 417.230421 251.094589 
L 428.33034 248.064529 
L 440.388162 244.529459 
L 451.580739 240.994389 
L 461.986298 237.459319 
L 471.670278 233.924248 
L 480.691617 230.389178 
L 489.10618 226.854108 
L 496.968312 223.319038 
L 504.331292 219.783968 
L 512.201784 215.743888 
L 519.564196 211.703808 
L 526.491848 207.663727 
L 533.853831 203.118637 
L 541.611048 198.068537 
L 550.501978 192.008417 
L 562.662052 183.423246 
L 582.989762 168.777956 
L 589.057626 164.232866 
L 591.390628 162.212826 
L 597.494627 157.162725 
L 602.184886 153.122645 
L 605.386364 150.092585 
L 608.259707 147.062525 
L 610.791598 144.032465 
L 612.991106 141.002405 
L 614.881391 137.972345 
L 616.493513 134.942285 
L 617.861904 131.912224 
L 619.196448 128.377154 
L 620.298052 124.842084 
L 621.330636 120.802004 
L 622.371073 115.751904 
L 623.079793 111.206814 
L 623.559726 106.661723 
L 623.800598 102.116633 
L 623.805955 98.076553 
L 623.60711 94.036473 
L 623.196044 89.996393 
L 622.564282 85.956313 
L 621.703269 81.916232 
L 620.604989 77.876152 
L 619.262809 73.836072 
L 617.672559 69.795992 
L 615.83383 65.755912 
L 613.751527 61.715832 
L 611.13323 57.170741 
L 608.254379 52.625651 
L 604.463122 47.070541 
L 596.7838 35.960321 
L 595.026707 32.930261 
L 594.088344 30.91022 
L 593.577795 29.39519 
L 593.310737 27.88016 
L 593.32273 26.87014 
L 593.5469 25.86012 
L 594.066374 24.8501 
L 595.020073 23.84008 
L 595.732655 23.33507 
L 596.667815 22.83006 
L 597.90803 22.32505 
L 599.591214 21.82004 
L 601.975202 21.31503 
L 605.636228 20.81002 
L 612.39468 20.30501 
L 655.518822 19.8 
L 655.518822 19.8 
" clip-path="url(#pfc7dafdebe)" style="fill: none; stroke: #e377c2; stroke-width: 1.5; stroke-linecap: square"/>
   </g>
   <g id="line2d_42">
    <path d="M 547.502994 191.871001 
L 545.58686 190.186249 
L 543.574796 188.501498 
L 541.452852 186.816746 
L 539.233911 185.131995 
L 536.945423 183.447243 
L 534.621411 181.762492 
L 532.297491 180.07774 
L 530.007763 178.392989 
L 527.783088 176.708238 
L 525.650163 175.023486 
L 523.631162 173.338735 
L 521.74361 171.653983 
L 520.000269 169.969232 
L 518.408604 168.28448 
L 516.968698 166.599729 
L 515.664207 164.914977 
L 514.362772 163.230226 
L 513.162509 161.545474 
L 512.255217 159.860723 
L 511.565933 158.175971 
L 511.049146 156.49122 
L 510.674773 154.806468 
L 510.422255 153.121717 
L 510.277214 151.436965 
L 510.229429 149.752214 
L 510.271507 148.067462 
L 510.397969 146.382711 
L 510.604623 144.69796 
L 510.888108 143.013208 
L 511.245589 141.328457 
L 511.674544 139.643705 
L 512.172599 137.958954 
L 512.737436 136.274202 
L 513.366734 134.589451 
L 514.058127 132.904699 
L 514.809204 131.219948 
L 515.617489 129.535196 
L 516.48044 127.850445 
L 517.395502 126.165693 
L 518.360079 124.480942 
L 519.371562 122.79619 
L 520.427376 121.111439 
L 521.526041 119.426687 
L 522.664557 117.741936 
L 523.838446 116.057184 
L 525.043669 114.372433 
L 526.276592 112.687681 
L 527.533938 111.00293 
L 528.812734 109.318179 
L 530.110294 107.633427 
L 531.424179 105.948676 
L 532.752168 104.263924 
L 534.09225 102.579173 
L 535.442584 100.894421 
L 536.801499 99.20967 
L 538.167471 97.524918 
L 539.539102 95.840167 
L 540.915119 94.155415 
L 542.294361 92.470664 
L 543.675766 90.785912 
L 545.058363 89.101161 
L 546.441265 87.416409 
L 547.823649 85.731658 
L 549.204785 84.046906 
L 550.583983 82.362155 
L 551.960625 80.677403 
L 553.334143 78.992652 
L 554.704019 77.307901 
L 556.069778 75.623149 
L 557.430985 73.938398 
L 558.78725 72.253646 
L 560.138211 70.568895 
L 561.483542 68.884143 
L 562.82294 67.199392 
L 564.156148 65.51464 
L 565.482921 63.829889 
L 566.80302 62.145137 
L 568.116264 60.460386 
L 569.422466 58.775634 
L 570.721471 57.090883 
L 572.013127 55.406131 
L 573.297315 53.72138 
L 574.573917 52.036628 
L 575.842832 50.351877 
L 577.103976 48.667125 
L 578.357273 46.982374 
L 579.602656 45.297623 
L 580.840073 43.612871 
L 582.069477 41.92812 
L 583.290828 40.243368 
L 584.5041 38.558617 
L 585.709268 36.873865 
L 586.906319 35.189114 
L 588.095239 33.504362 
L 589.276029 31.819611 
L 590.44869 30.134859 
L 591.613228 28.450108 
L 592.769653 26.765356 
L 593.917984 25.080605 
" clip-path="url(#pfc7dafdebe)" style="fill: none; stroke-dasharray: 5.55,2.4; stroke-dashoffset: 0; stroke: #000000; stroke-width: 1.5"/>
   </g>
   <g id="line2d_43">
    <path d="M 547.502994 191.871001 
L 545.58686 190.186249 
L 543.574796 188.501498 
L 541.452852 186.816746 
L 539.233911 185.131995 
L 536.945423 183.447243 
L 534.621411 181.762492 
L 532.297491 180.07774 
L 530.007763 178.392989 
L 527.783088 176.708238 
L 525.650163 175.023486 
L 523.631162 173.338735 
L 521.74361 171.653983 
L 520.000269 169.969232 
L 518.408604 168.28448 
L 516.968698 166.599729 
L 515.664207 164.914977 
L 514.362772 163.230226 
L 513.162509 161.545474 
L 512.255217 159.860723 
L 511.565933 158.175971 
L 511.049146 156.49122 
L 510.674773 154.806468 
L 510.422255 153.121717 
L 510.277214 151.436965 
L 510.229429 149.752214 
L 510.271507 148.067462 
L 510.397969 146.382711 
L 510.604623 144.69796 
L 510.888108 143.013208 
L 511.245589 141.328457 
L 511.674544 139.643705 
L 512.172599 137.958954 
L 512.737436 136.274202 
L 513.366734 134.589451 
L 514.058127 132.904699 
L 514.809204 131.219948 
L 515.617489 129.535196 
L 516.48044 127.850445 
L 517.395502 126.165693 
L 518.360079 124.480942 
L 519.371562 122.79619 
L 520.427376 121.111439 
L 521.526041 119.426687 
L 522.664557 117.741936 
L 523.838446 116.057184 
L 525.043669 114.372433 
L 526.276592 112.687681 
L 527.533938 111.00293 
L 528.812734 109.318179 
L 530.110294 107.633427 
L 531.424179 105.948676 
L 532.752168 104.263924 
L 534.09225 102.579173 
L 535.442584 100.894421 
L 536.801499 99.20967 
L 538.167471 97.524918 
L 539.539102 95.840167 
L 540.915119 94.155415 
L 542.294361 92.470664 
L 543.675766 90.785912 
L 545.058363 89.101161 
L 546.441265 87.416409 
L 547.823649 85.731658 
L 549.204785 84.046906 
L 550.583983 82.362155 
L 551.960625 80.677403 
L 553.334143 78.992652 
L 554.704019 77.307901 
L 556.069778 75.623149 
L 557.430985 73.938398 
L 558.78725 72.253646 
L 560.138211 70.568895 
L 561.483542 68.884143 
L 562.82294 67.199392 
L 564.156148 65.51464 
L 565.482921 63.829889 
L 566.80302 62.145137 
L 568.116264 60.460386 
L 569.422466 58.775634 
L 570.721471 57.090883 
L 572.013127 55.406131 
L 573.297315 53.72138 
L 574.573917 52.036628 
L 575.842832 50.351877 
L 577.103976 48.667125 
L 578.357273 46.982374 
L 579.602656 45.297623 
L 580.840073 43.612871 
L 582.069477 41.92812 
L 583.290828 40.243368 
L 584.5041 38.558617 
L 585.709268 36.873865 
L 586.906319 35.189114 
L 588.095239 33.504362 
L 589.276029 31.819611 
L 590.44869 30.134859 
L 591.613228 28.450108 
L 592.769653 26.765356 
L 593.917984 25.080605 
" clip-path="url(#pfc7dafdebe)" style="fill: none; stroke-dasharray: 5.55,2.4; stroke-dashoffset: 0; stroke: #000000; stroke-width: 1.5"/>
   </g>
   <g id="line2d_44">
    <path d="M 573.841725 173.338735 
L 572.568521 171.653983 
L 571.303558 169.969232 
L 570.023249 168.28448 
L 568.716086 166.599729 
L 567.366391 164.914977 
L 565.846355 163.230226 
L 564.254265 161.545474 
L 562.809461 159.860723 
L 561.461521 158.175971 
L 560.183311 156.49122 
L 558.959616 154.806468 
L 557.782557 153.121717 
L 556.649065 151.436965 
L 555.559283 149.752214 
L 554.515461 148.067462 
L 553.52115 146.382711 
L 552.580622 144.69796 
L 551.698412 143.013208 
L 550.879003 141.328457 
L 550.126582 139.643705 
L 549.444873 137.958954 
L 548.837047 136.274202 
L 548.305644 134.589451 
L 547.852573 132.904699 
L 547.479094 131.219948 
L 547.185867 129.535196 
L 546.972986 127.850445 
L 546.840016 126.165693 
L 546.786083 124.480942 
L 546.809905 122.79619 
L 546.90987 121.111439 
L 547.085846 119.426687 
L 547.334954 117.741936 
L 547.6516 116.057184 
L 548.030595 114.372433 
L 548.467156 112.687681 
L 548.95685 111.00293 
L 549.495574 109.318179 
L 550.079526 107.633427 
L 550.705183 105.948676 
L 551.369268 104.263924 
L 552.06875 102.579173 
L 552.800807 100.894421 
L 553.562816 99.20967 
L 554.352343 97.524918 
L 555.167122 95.840167 
L 556.005044 94.155415 
L 556.864147 92.470664 
L 557.742604 90.785912 
L 558.638715 89.101161 
L 559.550896 87.416409 
L 560.477669 85.731658 
L 561.417659 84.046906 
L 562.369577 82.362155 
L 563.332236 80.677403 
L 564.304523 78.992652 
L 565.285379 77.307901 
L 566.273847 75.623149 
L 567.26902 73.938398 
L 568.27005 72.253646 
L 569.276148 70.568895 
L 570.286579 68.884143 
L 571.300655 67.199392 
L 572.317733 65.51464 
L 573.33721 63.829889 
L 574.358536 62.145137 
L 575.381179 60.460386 
L 576.40466 58.775634 
L 577.428517 57.090883 
L 578.45233 55.406131 
L 579.475703 53.72138 
L 580.498263 52.036628 
L 581.519668 50.351877 
L 582.539595 48.667125 
L 583.557746 46.982374 
L 584.57384 45.297623 
L 585.58762 43.612871 
L 586.598841 41.92812 
L 587.607279 40.243368 
L 588.612721 38.558617 
L 589.614979 36.873865 
L 590.613869 35.189114 
L 591.609217 33.504362 
L 592.600874 31.819611 
L 593.588699 30.134859 
" clip-path="url(#pfc7dafdebe)" style="fill: none; stroke-dasharray: 5.55,2.4; stroke-dashoffset: 0; stroke: #000000; stroke-width: 1.5"/>
   </g>
   <g id="line2d_45">
    <path d="M 605.272034 148.067462 
L 604.138211 146.382711 
L 603.014019 144.69796 
L 601.890004 143.013208 
L 600.762811 141.328457 
L 599.633377 139.643705 
L 598.505609 137.958954 
L 597.38533 136.274202 
L 596.279488 134.589451 
L 595.195574 132.904699 
L 594.141161 131.219948 
L 593.123563 129.535196 
L 592.14965 127.850445 
L 591.225647 126.165693 
L 590.357086 124.480942 
L 589.548731 122.79619 
L 588.804599 121.111439 
L 588.130214 119.426687 
L 587.527274 117.741936 
L 586.993398 116.057184 
L 586.526115 114.372433 
L 586.122923 112.687681 
L 585.781292 111.00293 
L 585.498682 109.318179 
L 585.272568 107.633427 
L 585.100452 105.948676 
L 584.979874 104.263924 
L 584.908427 102.579173 
L 584.883761 100.894421 
L 584.903594 99.20967 
L 584.965708 97.524918 
L 585.067968 95.840167 
L 585.208308 94.155415 
L 585.38474 92.470664 
L 585.595359 90.785912 
L 585.838331 89.101161 
L 586.111904 87.416409 
L 586.414399 85.731658 
L 586.744215 84.046906 
L 587.099823 82.362155 
L 587.479751 80.677403 
L 587.882619 78.992652 
L 588.307086 77.307901 
L 588.751903 75.623149 
L 589.21586 73.938398 
L 589.69781 72.253646 
L 590.196668 70.568895 
L 590.7114 68.884143 
L 591.241016 67.199392 
L 591.784579 65.51464 
L 592.341206 63.829889 
L 592.910054 62.145137 
L 593.490316 60.460386 
L 594.081229 58.775634 
L 594.682078 57.090883 
L 595.292161 55.406131 
L 595.910837 53.72138 
L 596.537479 52.036628 
L 597.171499 50.351877 
L 597.812343 48.667125 
L 598.459472 46.982374 
L 599.11239 45.297623 
L 599.770613 43.612871 
L 600.433687 41.92812 
" clip-path="url(#pfc7dafdebe)" style="fill: none; stroke-dasharray: 5.55,2.4; stroke-dashoffset: 0; stroke: #000000; stroke-width: 1.5"/>
   </g>
   <g id="line2d_46">
    <path d="M 619.435542 126.165693 
L 618.3699 124.480942 
L 617.363218 122.79619 
L 616.413973 121.111439 
L 615.524172 119.426687 
L 614.693581 117.741936 
L 613.919045 116.057184 
L 613.198069 114.372433 
L 612.528626 112.687681 
L 611.908957 111.00293 
L 611.337518 109.318179 
L 610.812869 107.633427 
L 610.333645 105.948676 
L 609.89852 104.263924 
L 609.506183 102.579173 
L 609.15534 100.894421 
L 608.844697 99.20967 
L 608.572959 97.524918 
L 608.33884 95.840167 
L 608.141056 94.155415 
L 607.978329 92.470664 
L 607.849396 90.785912 
L 607.753005 89.101161 
L 607.687926 87.416409 
L 607.652942 85.731658 
L 607.646864 84.046906 
L 607.668529 82.362155 
L 607.716797 80.677403 
L 607.790559 78.992652 
L 607.888734 77.307901 
L 608.010272 75.623149 
L 608.154158 73.938398 
L 608.319401 72.253646 
L 608.505046 70.568895 
L 608.710172 68.884143 
L 608.933885 67.199392 
L 609.175323 65.51464 
L 609.433655 63.829889 
L 609.708084 62.145137 
L 609.997835 60.460386 
L 610.302168 58.775634 
L 610.620369 57.090883 
" clip-path="url(#pfc7dafdebe)" style="fill: none; stroke-dasharray: 5.55,2.4; stroke-dashoffset: 0; stroke: #000000; stroke-width: 1.5"/>
   </g>
   <g id="patch_9">
    <path d="M 409.503551 284.4 
L 409.503551 7.2 
" style="fill: none; stroke: #000000; stroke-width: 0.8; stroke-linejoin: miter; stroke-linecap: square"/>
   </g>
   <g id="patch_10">
    <path d="M 713.867187 284.4 
L 713.867187 7.2 
" style="fill: none; stroke: #000000; stroke-width: 0.8; stroke-linejoin: miter; stroke-linecap: square"/>
   </g>
   <g id="patch_11">
    <path d="M 409.503551 284.4 
L 713.867187 284.4 
" style="fill: none; stroke: #000000; stroke-width: 0.8; stroke-linejoin: miter; stroke-linecap: square"/>
   </g>
   <g id="patch_12">
    <path d="M 409.503551 7.2 
L 713.867187 7.2 
" style="fill: none; stroke: #000000; stroke-width: 0.8; stroke-linejoin: miter; stroke-linecap: square"/>
   </g>
   <g id="text_37">
    <!-- (b) -->
    <g transform="translate(411.025369 21.479625)scale(0.12 -0.12)">
     <defs>
      <path id="Arial-BoldMT-62" d="M 422 0 
L 422 4581 
L 1300 4581 
L 1300 2931 
Q 1706 3394 2263 3394 
Q 2869 3394 3266 2955 
Q 3663 2516 3663 1694 
Q 3663 844 3258 384 
Q 2853 -75 2275 -75 
Q 1991 -75 1714 67 
Q 1438 209 1238 488 
L 1238 0 
L 422 0 
z
M 1294 1731 
Q 1294 1216 1456 969 
Q 1684 619 2063 619 
Q 2353 619 2558 867 
Q 2763 1116 2763 1650 
Q 2763 2219 2556 2470 
Q 2350 2722 2028 2722 
Q 1713 2722 1503 2476 
Q 1294 2231 1294 1731 
z
" transform="scale(0.015625)"/>
     </defs>
     <use xlink:href="#Arial-BoldMT-28"/>
     <use xlink:href="#Arial-BoldMT-62" x="33.300781"/>
     <use xlink:href="#Arial-BoldMT-29" x="94.384766"/>
    </g>
   </g>
   <g id="legend_2">
    <g id="patch_13">
     <path d="M 609.285937 279.4 
L 706.867187 279.4 
Q 708.867187 279.4 708.867187 277.4 
L 708.867187 154.397187 
Q 708.867187 152.397187 706.867187 152.397187 
L 609.285937 152.397187 
Q 607.285937 152.397187 607.285937 154.397187 
L 607.285937 277.4 
Q 607.285937 279.4 609.285937 279.4 
z
" style="fill: #ffffff; opacity: 0.8; stroke: #cccccc; stroke-linejoin: miter"/>
    </g>
    <g id="line2d_47">
     <path d="M 611.285937 160.055 
L 621.285937 160.055 
L 631.285937 160.055 
" style="fill: none; stroke: #1f77b4; stroke-width: 3; stroke-linecap: square"/>
    </g>
    <g id="text_38">
     <!-- 1 bar -->
     <g transform="translate(639.285937 163.555)scale(0.1 -0.1)">
      <use xlink:href="#ArialMT-31"/>
      <use xlink:href="#ArialMT-20" x="55.615234"/>
      <use xlink:href="#ArialMT-62" x="83.398438"/>
      <use xlink:href="#ArialMT-61" x="139.013672"/>
      <use xlink:href="#ArialMT-72" x="194.628906"/>
     </g>
    </g>
    <g id="line2d_48">
     <path d="M 611.285937 174.200312 
L 621.285937 174.200312 
L 631.285937 174.200312 
" style="fill: none; stroke: #ff7f0e; stroke-width: 3; stroke-linecap: square"/>
    </g>
    <g id="text_39">
     <!-- 10 bar -->
     <g transform="translate(639.285937 177.700312)scale(0.1 -0.1)">
      <use xlink:href="#ArialMT-31"/>
      <use xlink:href="#ArialMT-30" x="55.615234"/>
      <use xlink:href="#ArialMT-20" x="111.230469"/>
      <use xlink:href="#ArialMT-62" x="139.013672"/>
      <use xlink:href="#ArialMT-61" x="194.628906"/>
      <use xlink:href="#ArialMT-72" x="250.244141"/>
     </g>
    </g>
    <g id="line2d_49">
     <path d="M 611.285937 188.345625 
L 621.285937 188.345625 
L 631.285937 188.345625 
" style="fill: none; stroke: #2ca02c; stroke-width: 3; stroke-linecap: square"/>
    </g>
    <g id="text_40">
     <!-- 50 bar -->
     <g transform="translate(639.285937 191.845625)scale(0.1 -0.1)">
      <use xlink:href="#ArialMT-35"/>
      <use xlink:href="#ArialMT-30" x="55.615234"/>
      <use xlink:href="#ArialMT-20" x="111.230469"/>
      <use xlink:href="#ArialMT-62" x="139.013672"/>
      <use xlink:href="#ArialMT-61" x="194.628906"/>
      <use xlink:href="#ArialMT-72" x="250.244141"/>
     </g>
    </g>
    <g id="line2d_50">
     <path d="M 611.285937 202.490937 
L 621.285937 202.490937 
L 631.285937 202.490937 
" style="fill: none; stroke: #d62728; stroke-width: 3; stroke-linecap: square"/>
    </g>
    <g id="text_41">
     <!-- 100 bar -->
     <g transform="translate(639.285937 205.990937)scale(0.1 -0.1)">
      <use xlink:href="#ArialMT-31"/>
      <use xlink:href="#ArialMT-30" x="55.615234"/>
      <use xlink:href="#ArialMT-30" x="111.230469"/>
      <use xlink:href="#ArialMT-20" x="166.845703"/>
      <use xlink:href="#ArialMT-62" x="194.628906"/>
      <use xlink:href="#ArialMT-61" x="250.244141"/>
      <use xlink:href="#ArialMT-72" x="305.859375"/>
     </g>
    </g>
    <g id="line2d_51">
     <path d="M 611.285937 216.63625 
L 621.285937 216.63625 
L 631.285937 216.63625 
" style="fill: none; stroke: #9467bd; stroke-width: 3; stroke-linecap: square"/>
    </g>
    <g id="text_42">
     <!-- 200 bar -->
     <g transform="translate(639.285937 220.13625)scale(0.1 -0.1)">
      <use xlink:href="#ArialMT-32"/>
      <use xlink:href="#ArialMT-30" x="55.615234"/>
      <use xlink:href="#ArialMT-30" x="111.230469"/>
      <use xlink:href="#ArialMT-20" x="166.845703"/>
      <use xlink:href="#ArialMT-62" x="194.628906"/>
      <use xlink:href="#ArialMT-61" x="250.244141"/>
      <use xlink:href="#ArialMT-72" x="305.859375"/>
     </g>
    </g>
    <g id="line2d_52">
     <path d="M 611.285937 230.781562 
L 621.285937 230.781562 
L 631.285937 230.781562 
" style="fill: none; stroke: #8c564b; stroke-width: 3; stroke-linecap: square"/>
    </g>
    <g id="text_43">
     <!-- 300 bar -->
     <g transform="translate(639.285937 234.281562)scale(0.1 -0.1)">
      <use xlink:href="#ArialMT-33"/>
      <use xlink:href="#ArialMT-30" x="55.615234"/>
      <use xlink:href="#ArialMT-30" x="111.230469"/>
      <use xlink:href="#ArialMT-20" x="166.845703"/>
      <use xlink:href="#ArialMT-62" x="194.628906"/>
      <use xlink:href="#ArialMT-61" x="250.244141"/>
      <use xlink:href="#ArialMT-72" x="305.859375"/>
     </g>
    </g>
    <g id="line2d_53">
     <path d="M 611.285937 244.926875 
L 621.285937 244.926875 
L 631.285937 244.926875 
" style="fill: none; stroke: #e377c2; stroke-width: 1.5; stroke-linecap: square"/>
    </g>
    <g id="text_44">
     <!-- V+L+H -->
     <g transform="translate(639.285937 248.426875)scale(0.1 -0.1)">
      <defs>
       <path id="ArialMT-56" d="M 1803 0 
L 28 4581 
L 684 4581 
L 1875 1253 
Q 2019 853 2116 503 
Q 2222 878 2363 1253 
L 3600 4581 
L 4219 4581 
L 2425 0 
L 1803 0 
z
" transform="scale(0.015625)"/>
       <path id="ArialMT-2b" d="M 1603 741 
L 1603 1997 
L 356 1997 
L 356 2522 
L 1603 2522 
L 1603 3769 
L 2134 3769 
L 2134 2522 
L 3381 2522 
L 3381 1997 
L 2134 1997 
L 2134 741 
L 1603 741 
z
" transform="scale(0.015625)"/>
       <path id="ArialMT-4c" d="M 469 0 
L 469 4581 
L 1075 4581 
L 1075 541 
L 3331 541 
L 3331 0 
L 469 0 
z
" transform="scale(0.015625)"/>
       <path id="ArialMT-48" d="M 513 0 
L 513 4581 
L 1119 4581 
L 1119 2700 
L 3500 2700 
L 3500 4581 
L 4106 4581 
L 4106 0 
L 3500 0 
L 3500 2159 
L 1119 2159 
L 1119 0 
L 513 0 
z
" transform="scale(0.015625)"/>
      </defs>
      <use xlink:href="#ArialMT-56"/>
      <use xlink:href="#ArialMT-2b" x="66.699219"/>
      <use xlink:href="#ArialMT-4c" x="125.097656"/>
      <use xlink:href="#ArialMT-2b" x="180.712891"/>
      <use xlink:href="#ArialMT-48" x="239.111328"/>
     </g>
    </g>
    <g id="line2d_54">
     <path d="M 611.285937 265.486094 
L 621.285937 265.486094 
L 631.285937 265.486094 
" style="fill: none; stroke-dasharray: 5.55,2.4; stroke-dashoffset: 0; stroke: #000000; stroke-width: 1.5"/>
    </g>
    <g id="text_45">
     <!-- Driesner -->
     <g transform="translate(639.285937 262.572187)scale(0.1 -0.1)">
      <defs>
       <path id="ArialMT-44" d="M 494 0 
L 494 4581 
L 2072 4581 
Q 2606 4581 2888 4516 
Q 3281 4425 3559 4188 
Q 3922 3881 4101 3404 
Q 4281 2928 4281 2316 
Q 4281 1794 4159 1391 
Q 4038 988 3847 723 
Q 3656 459 3429 307 
Q 3203 156 2883 78 
Q 2563 0 2147 0 
L 494 0 
z
M 1100 541 
L 2078 541 
Q 2531 541 2789 625 
Q 3047 709 3200 863 
Q 3416 1078 3536 1442 
Q 3656 1806 3656 2325 
Q 3656 3044 3420 3430 
Q 3184 3816 2847 3947 
Q 2603 4041 2063 4041 
L 1100 4041 
L 1100 541 
z
" transform="scale(0.015625)"/>
       <path id="ArialMT-69" d="M 425 3934 
L 425 4581 
L 988 4581 
L 988 3934 
L 425 3934 
z
M 425 0 
L 425 3319 
L 988 3319 
L 988 0 
L 425 0 
z
" transform="scale(0.015625)"/>
       <path id="ArialMT-6e" d="M 422 0 
L 422 3319 
L 928 3319 
L 928 2847 
Q 1294 3394 1984 3394 
Q 2284 3394 2536 3286 
Q 2788 3178 2913 3003 
Q 3038 2828 3088 2588 
Q 3119 2431 3119 2041 
L 3119 0 
L 2556 0 
L 2556 2019 
Q 2556 2363 2490 2533 
Q 2425 2703 2258 2804 
Q 2091 2906 1866 2906 
Q 1506 2906 1245 2678 
Q 984 2450 984 1813 
L 984 0 
L 422 0 
z
" transform="scale(0.015625)"/>
      </defs>
      <use xlink:href="#ArialMT-44"/>
      <use xlink:href="#ArialMT-72" x="72.216797"/>
      <use xlink:href="#ArialMT-69" x="105.517578"/>
      <use xlink:href="#ArialMT-65" x="127.734375"/>
      <use xlink:href="#ArialMT-73" x="183.349609"/>
      <use xlink:href="#ArialMT-6e" x="233.349609"/>
      <use xlink:href="#ArialMT-65" x="288.964844"/>
      <use xlink:href="#ArialMT-72" x="344.580078"/>
     </g>
     <!-- Heinrich(2007) -->
     <g transform="translate(639.285937 273.295312)scale(0.1 -0.1)">
      <defs>
       <path id="ArialMT-63" d="M 2588 1216 
L 3141 1144 
Q 3050 572 2676 248 
Q 2303 -75 1759 -75 
Q 1078 -75 664 370 
Q 250 816 250 1647 
Q 250 2184 428 2587 
Q 606 2991 970 3192 
Q 1334 3394 1763 3394 
Q 2303 3394 2647 3120 
Q 2991 2847 3088 2344 
L 2541 2259 
Q 2463 2594 2264 2762 
Q 2066 2931 1784 2931 
Q 1359 2931 1093 2626 
Q 828 2322 828 1663 
Q 828 994 1084 691 
Q 1341 388 1753 388 
Q 2084 388 2306 591 
Q 2528 794 2588 1216 
z
" transform="scale(0.015625)"/>
       <path id="ArialMT-68" d="M 422 0 
L 422 4581 
L 984 4581 
L 984 2938 
Q 1378 3394 1978 3394 
Q 2347 3394 2619 3248 
Q 2891 3103 3008 2847 
Q 3125 2591 3125 2103 
L 3125 0 
L 2563 0 
L 2563 2103 
Q 2563 2525 2380 2717 
Q 2197 2909 1863 2909 
Q 1613 2909 1392 2779 
Q 1172 2650 1078 2428 
Q 984 2206 984 1816 
L 984 0 
L 422 0 
z
" transform="scale(0.015625)"/>
      </defs>
      <use xlink:href="#ArialMT-48"/>
      <use xlink:href="#ArialMT-65" x="72.216797"/>
      <use xlink:href="#ArialMT-69" x="127.832031"/>
      <use xlink:href="#ArialMT-6e" x="150.048828"/>
      <use xlink:href="#ArialMT-72" x="205.664062"/>
      <use xlink:href="#ArialMT-69" x="238.964844"/>
      <use xlink:href="#ArialMT-63" x="261.181641"/>
      <use xlink:href="#ArialMT-68" x="311.181641"/>
      <use xlink:href="#ArialMT-28" x="366.796875"/>
      <use xlink:href="#ArialMT-32" x="400.097656"/>
      <use xlink:href="#ArialMT-30" x="455.712891"/>
      <use xlink:href="#ArialMT-30" x="511.328125"/>
      <use xlink:href="#ArialMT-37" x="566.943359"/>
      <use xlink:href="#ArialMT-29" x="622.558594"/>
     </g>
    </g>
   </g>
  </g>
 </g>
 <defs>
  <clipPath id="pa396c9385b">
   <rect x="44.267188" y="7.2" width="304.363636" height="277.2"/>
  </clipPath>
  <clipPath id="pfc7dafdebe">
   <rect x="409.503551" y="7.2" width="304.363636" height="277.2"/>
  </clipPath>
 </defs>
</svg>
