<?xml version="1.0" encoding="utf-8" standalone="no"?>
<!DOCTYPE svg PUBLIC "-//W3C//DTD SVG 1.1//EN"
  "http://www.w3.org/Graphics/SVG/1.1/DTD/svg11.dtd">
<svg height="488.065312pt" version="1.1" viewBox="0 0 949.828125 488.065312" width="949.828125pt" xmlns="http://www.w3.org/2000/svg" xmlns:xlink="http://www.w3.org/1999/xlink">
 <metadata>
  <rdf:RDF xmlns:cc="http://creativecommons.org/ns#" xmlns:dc="http://purl.org/dc/elements/1.1/" xmlns:rdf="http://www.w3.org/1999/02/22-rdf-syntax-ns#">
   <cc:Work>
    <dc:type rdf:resource="http://purl.org/dc/dcmitype/StillImage"/>
    <dc:date>2022-01-25T18:56:08.347719</dc:date>
    <dc:format>image/svg+xml</dc:format>
    <dc:creator>
     <cc:Agent>
      <dc:title>Matplotlib v3.4.2, https://matplotlib.org/</dc:title>
     </cc:Agent>
    </dc:creator>
   </cc:Work>
  </rdf:RDF>
 </metadata>
 <defs>
  <style type="text/css">*{stroke-linecap:butt;stroke-linejoin:round;}</style>
 </defs>
 <g id="figure_1">
  <g id="patch_1">
   <path d="M 0 488.065312 
L 949.828125 488.065312 
L 949.828125 0 
L 0 0 
z
" style="fill:#ffffff;"/>
  </g>
  <g id="axes_1">
   <g id="patch_2">
    <path d="M 49.828125 450.72 
L 942.628125 450.72 
L 942.628125 7.2 
L 49.828125 7.2 
z
" style="fill:#ffffff;"/>
   </g>
   <g id="matplotlib.axis_1">
    <g id="xtick_1">
     <g id="line2d_1">
      <defs>
       <path d="M 0 0 
L 0 3.5 
" id="mbe934a660a" style="stroke:#000000;stroke-width:0.8;"/>
      </defs>
      <g>
       <use style="stroke:#000000;stroke-width:0.8;" x="175.15908" xlink:href="#mbe934a660a" y="450.72"/>
      </g>
     </g>
     <g id="text_1">
      <!-- 4 -->
      <g transform="translate(172.378611 464.877812)scale(0.1 -0.1)">
       <defs>
        <path d="M 2069 0 
L 2069 1097 
L 81 1097 
L 81 1613 
L 2172 4581 
L 2631 4581 
L 2631 1613 
L 3250 1613 
L 3250 1097 
L 2631 1097 
L 2631 0 
L 2069 0 
z
M 2069 1613 
L 2069 3678 
L 634 1613 
L 2069 1613 
z
" id="ArialMT-34" transform="scale(0.015625)"/>
       </defs>
       <use xlink:href="#ArialMT-34"/>
      </g>
     </g>
    </g>
    <g id="xtick_2">
     <g id="line2d_2">
      <g>
       <use style="stroke:#000000;stroke-width:0.8;" x="342.845939" xlink:href="#mbe934a660a" y="450.72"/>
      </g>
     </g>
     <g id="text_2">
      <!-- 5 -->
      <g transform="translate(340.06547 464.877812)scale(0.1 -0.1)">
       <defs>
        <path d="M 266 1200 
L 856 1250 
Q 922 819 1161 601 
Q 1400 384 1738 384 
Q 2144 384 2425 690 
Q 2706 997 2706 1503 
Q 2706 1984 2436 2262 
Q 2166 2541 1728 2541 
Q 1456 2541 1237 2417 
Q 1019 2294 894 2097 
L 366 2166 
L 809 4519 
L 3088 4519 
L 3088 3981 
L 1259 3981 
L 1013 2750 
Q 1425 3038 1878 3038 
Q 2478 3038 2890 2622 
Q 3303 2206 3303 1553 
Q 3303 931 2941 478 
Q 2500 -78 1738 -78 
Q 1113 -78 717 272 
Q 322 622 266 1200 
z
" id="ArialMT-35" transform="scale(0.015625)"/>
       </defs>
       <use xlink:href="#ArialMT-35"/>
      </g>
     </g>
    </g>
    <g id="xtick_3">
     <g id="line2d_3">
      <g>
       <use style="stroke:#000000;stroke-width:0.8;" x="510.532797" xlink:href="#mbe934a660a" y="450.72"/>
      </g>
     </g>
     <g id="text_3">
      <!-- 6 -->
      <g transform="translate(507.752329 464.877812)scale(0.1 -0.1)">
       <defs>
        <path d="M 3184 3459 
L 2625 3416 
Q 2550 3747 2413 3897 
Q 2184 4138 1850 4138 
Q 1581 4138 1378 3988 
Q 1113 3794 959 3422 
Q 806 3050 800 2363 
Q 1003 2672 1297 2822 
Q 1591 2972 1913 2972 
Q 2475 2972 2870 2558 
Q 3266 2144 3266 1488 
Q 3266 1056 3080 686 
Q 2894 316 2569 119 
Q 2244 -78 1831 -78 
Q 1128 -78 684 439 
Q 241 956 241 2144 
Q 241 3472 731 4075 
Q 1159 4600 1884 4600 
Q 2425 4600 2770 4297 
Q 3116 3994 3184 3459 
z
M 888 1484 
Q 888 1194 1011 928 
Q 1134 663 1356 523 
Q 1578 384 1822 384 
Q 2178 384 2434 671 
Q 2691 959 2691 1453 
Q 2691 1928 2437 2201 
Q 2184 2475 1800 2475 
Q 1419 2475 1153 2201 
Q 888 1928 888 1484 
z
" id="ArialMT-36" transform="scale(0.015625)"/>
       </defs>
       <use xlink:href="#ArialMT-36"/>
      </g>
     </g>
    </g>
    <g id="xtick_4">
     <g id="line2d_4">
      <g>
       <use style="stroke:#000000;stroke-width:0.8;" x="678.219656" xlink:href="#mbe934a660a" y="450.72"/>
      </g>
     </g>
     <g id="text_4">
      <!-- 7 -->
      <g transform="translate(675.439187 464.877812)scale(0.1 -0.1)">
       <defs>
        <path d="M 303 3981 
L 303 4522 
L 3269 4522 
L 3269 4084 
Q 2831 3619 2401 2847 
Q 1972 2075 1738 1259 
Q 1569 684 1522 0 
L 944 0 
Q 953 541 1156 1306 
Q 1359 2072 1739 2783 
Q 2119 3494 2547 3981 
L 303 3981 
z
" id="ArialMT-37" transform="scale(0.015625)"/>
       </defs>
       <use xlink:href="#ArialMT-37"/>
      </g>
     </g>
    </g>
    <g id="xtick_5">
     <g id="line2d_5">
      <g>
       <use style="stroke:#000000;stroke-width:0.8;" x="845.906515" xlink:href="#mbe934a660a" y="450.72"/>
      </g>
     </g>
     <g id="text_5">
      <!-- 8 -->
      <g transform="translate(843.126046 464.877812)scale(0.1 -0.1)">
       <defs>
        <path d="M 1131 2484 
Q 781 2613 612 2850 
Q 444 3088 444 3419 
Q 444 3919 803 4259 
Q 1163 4600 1759 4600 
Q 2359 4600 2725 4251 
Q 3091 3903 3091 3403 
Q 3091 3084 2923 2848 
Q 2756 2613 2416 2484 
Q 2838 2347 3058 2040 
Q 3278 1734 3278 1309 
Q 3278 722 2862 322 
Q 2447 -78 1769 -78 
Q 1091 -78 675 323 
Q 259 725 259 1325 
Q 259 1772 486 2073 
Q 713 2375 1131 2484 
z
M 1019 3438 
Q 1019 3113 1228 2906 
Q 1438 2700 1772 2700 
Q 2097 2700 2305 2904 
Q 2513 3109 2513 3406 
Q 2513 3716 2298 3927 
Q 2084 4138 1766 4138 
Q 1444 4138 1231 3931 
Q 1019 3725 1019 3438 
z
M 838 1322 
Q 838 1081 952 856 
Q 1066 631 1291 507 
Q 1516 384 1775 384 
Q 2178 384 2440 643 
Q 2703 903 2703 1303 
Q 2703 1709 2433 1975 
Q 2163 2241 1756 2241 
Q 1359 2241 1098 1978 
Q 838 1716 838 1322 
z
" id="ArialMT-38" transform="scale(0.015625)"/>
       </defs>
       <use xlink:href="#ArialMT-38"/>
      </g>
     </g>
    </g>
    <g id="text_6">
     <!-- $log_{10}P[Pa]$ -->
     <g transform="translate(474.278125 478.365312)scale(0.1 -0.1)">
      <defs>
       <path d="M 281 519 
Q 281 538 286 575 
Q 291 613 295 648 
Q 300 684 300 703 
L 1094 3872 
Q 1119 3981 1125 4044 
Q 1125 4147 709 4147 
Q 647 4147 647 4231 
Q 650 4247 661 4287 
Q 672 4328 689 4350 
Q 706 4372 738 4372 
L 1600 4441 
Q 1678 4441 1678 4359 
L 756 678 
Q 709 575 709 372 
Q 709 97 897 97 
Q 1094 97 1192 342 
Q 1291 588 1369 941 
Q 1381 978 1422 978 
L 1497 978 
Q 1522 978 1539 958 
Q 1556 938 1556 916 
Q 1481 606 1420 426 
Q 1359 247 1225 87 
Q 1091 -72 884 -72 
Q 628 -72 454 93 
Q 281 259 281 519 
z
" id="Cmmi10-6c" transform="scale(0.015625)"/>
       <path d="M 1288 -72 
Q 984 -72 748 72 
Q 513 216 384 459 
Q 256 703 256 1013 
Q 256 1447 498 1872 
Q 741 2297 1142 2562 
Q 1544 2828 1984 2828 
Q 2222 2828 2408 2747 
Q 2594 2666 2731 2519 
Q 2869 2372 2942 2175 
Q 3016 1978 3016 1747 
Q 3016 1413 2875 1089 
Q 2734 766 2489 502 
Q 2244 238 1928 83 
Q 1613 -72 1288 -72 
z
M 1300 97 
Q 1584 97 1820 290 
Q 2056 484 2207 779 
Q 2359 1075 2440 1403 
Q 2522 1731 2522 1997 
Q 2522 2275 2383 2469 
Q 2244 2663 1972 2663 
Q 1597 2663 1315 2342 
Q 1034 2022 892 1576 
Q 750 1131 750 763 
Q 750 484 892 290 
Q 1034 97 1300 97 
z
" id="Cmmi10-6f" transform="scale(0.015625)"/>
       <path d="M 91 -916 
Q 91 -759 198 -642 
Q 306 -525 459 -525 
Q 563 -525 633 -589 
Q 703 -653 703 -756 
Q 703 -872 637 -964 
Q 572 -1056 469 -1094 
Q 641 -1147 1006 -1147 
Q 1300 -1147 1544 -920 
Q 1788 -694 1863 -397 
L 2047 353 
Q 1700 0 1325 0 
Q 1050 0 854 140 
Q 659 281 556 515 
Q 453 750 453 1013 
Q 453 1306 573 1628 
Q 694 1950 911 2225 
Q 1128 2500 1409 2664 
Q 1691 2828 2003 2828 
Q 2191 2828 2341 2725 
Q 2491 2622 2578 2450 
Q 2641 2700 2853 2700 
Q 2934 2700 2990 2651 
Q 3047 2603 3047 2522 
Q 3047 2503 3045 2493 
Q 3044 2484 3041 2472 
L 2309 -434 
Q 2259 -634 2125 -800 
Q 1991 -966 1809 -1077 
Q 1628 -1188 1412 -1250 
Q 1197 -1313 997 -1313 
Q 631 -1313 361 -1242 
Q 91 -1172 91 -916 
z
M 1338 166 
Q 1747 166 2144 728 
L 2497 2125 
Q 2453 2347 2322 2505 
Q 2191 2663 1991 2663 
Q 1778 2663 1589 2489 
Q 1400 2316 1275 2075 
Q 1156 1844 1045 1411 
Q 934 978 934 728 
Q 934 509 1034 337 
Q 1134 166 1338 166 
z
" id="Cmmi10-67" transform="scale(0.015625)"/>
       <path d="M 594 0 
L 594 225 
Q 1394 225 1394 428 
L 1394 3788 
Q 1063 3628 556 3628 
L 556 3853 
Q 1341 3853 1741 4263 
L 1831 4263 
Q 1853 4263 1873 4245 
Q 1894 4228 1894 4206 
L 1894 428 
Q 1894 225 2694 225 
L 2694 0 
L 594 0 
z
" id="Cmr10-31" transform="scale(0.015625)"/>
       <path d="M 1600 -141 
Q 816 -141 533 504 
Q 250 1150 250 2041 
Q 250 2597 351 3087 
Q 453 3578 754 3920 
Q 1056 4263 1600 4263 
Q 2022 4263 2290 4056 
Q 2559 3850 2700 3523 
Q 2841 3197 2892 2823 
Q 2944 2450 2944 2041 
Q 2944 1491 2842 1011 
Q 2741 531 2444 195 
Q 2147 -141 1600 -141 
z
M 1600 25 
Q 1956 25 2131 390 
Q 2306 756 2347 1200 
Q 2388 1644 2388 2144 
Q 2388 2625 2347 3031 
Q 2306 3438 2132 3767 
Q 1959 4097 1600 4097 
Q 1238 4097 1063 3765 
Q 888 3434 847 3029 
Q 806 2625 806 2144 
Q 806 1788 823 1472 
Q 841 1156 916 820 
Q 991 484 1158 254 
Q 1325 25 1600 25 
z
" id="Cmr10-30" transform="scale(0.015625)"/>
       <path d="M 313 0 
Q 250 0 250 84 
Q 253 100 262 139 
Q 272 178 289 201 
Q 306 225 331 225 
Q 722 225 878 269 
Q 959 297 997 441 
L 1875 3956 
Q 1888 4019 1888 4044 
Q 1888 4113 1813 4122 
Q 1691 4147 1350 4147 
Q 1288 4147 1288 4231 
Q 1291 4247 1300 4286 
Q 1309 4325 1326 4348 
Q 1344 4372 1369 4372 
L 3578 4372 
Q 3881 4372 4165 4264 
Q 4450 4156 4631 3934 
Q 4813 3713 4813 3397 
Q 4813 2991 4527 2672 
Q 4241 2353 3814 2175 
Q 3388 1997 2988 1997 
L 1947 1997 
L 1556 416 
Q 1544 353 1544 325 
Q 1544 300 1551 283 
Q 1559 266 1573 261 
Q 1588 256 1619 250 
Q 1741 225 2081 225 
Q 2144 225 2144 141 
Q 2122 50 2109 25 
Q 2097 0 2034 0 
L 313 0 
z
M 1978 2188 
L 2875 2188 
Q 3497 2188 3822 2522 
Q 3988 2688 4092 3000 
Q 4197 3313 4197 3566 
Q 4197 3881 3956 4014 
Q 3716 4147 3359 4147 
L 2747 4147 
Q 2572 4147 2515 4117 
Q 2459 4088 2413 3928 
L 1978 2188 
z
" id="Cmmi10-50" transform="scale(0.015625)"/>
       <path d="M 756 -1600 
L 756 4800 
L 1631 4800 
L 1631 4544 
L 1013 4544 
L 1013 -1344 
L 1631 -1344 
L 1631 -1600 
L 756 -1600 
z
" id="Cmr10-5b" transform="scale(0.015625)"/>
       <path d="M 1113 -72 
Q 709 -72 476 233 
Q 244 538 244 953 
Q 244 1363 456 1803 
Q 669 2244 1030 2536 
Q 1391 2828 1806 2828 
Q 1997 2828 2147 2725 
Q 2297 2622 2381 2444 
Q 2453 2700 2663 2700 
Q 2744 2700 2798 2651 
Q 2853 2603 2853 2522 
Q 2853 2503 2851 2493 
Q 2850 2484 2847 2472 
L 2400 684 
Q 2356 494 2356 372 
Q 2356 97 2541 97 
Q 2741 97 2845 351 
Q 2950 606 3022 941 
Q 3034 978 3072 978 
L 3150 978 
Q 3175 978 3190 956 
Q 3206 934 3206 916 
Q 3094 469 2961 198 
Q 2828 -72 2528 -72 
Q 2313 -72 2147 54 
Q 1981 181 1941 391 
Q 1528 -72 1113 -72 
z
M 1119 97 
Q 1350 97 1567 270 
Q 1784 444 1941 678 
Q 1947 684 1947 697 
L 2291 2088 
L 2297 2106 
Q 2259 2334 2132 2498 
Q 2006 2663 1791 2663 
Q 1575 2663 1389 2486 
Q 1203 2309 1075 2069 
Q 950 1813 836 1366 
Q 722 919 722 672 
Q 722 450 817 273 
Q 913 97 1119 97 
z
" id="Cmmi10-61" transform="scale(0.015625)"/>
       <path d="M 141 -1600 
L 141 -1344 
L 763 -1344 
L 763 4544 
L 141 4544 
L 141 4800 
L 1019 4800 
L 1019 -1600 
L 141 -1600 
z
" id="Cmr10-5d" transform="scale(0.015625)"/>
      </defs>
      <use xlink:href="#Cmmi10-6c"/>
      <use transform="translate(29.785156 0)" xlink:href="#Cmmi10-6f"/>
      <use transform="translate(78.173828 0)" xlink:href="#Cmmi10-67"/>
      <use transform="translate(125.878906 -17.00625)scale(0.7)" xlink:href="#Cmr10-31"/>
      <use transform="translate(160.878906 -17.00625)scale(0.7)" xlink:href="#Cmr10-30"/>
      <use transform="translate(202.25625 0)" xlink:href="#Cmmi10-50"/>
      <use transform="translate(266.465234 0)" xlink:href="#Cmr10-5b"/>
      <use transform="translate(294.150781 0)" xlink:href="#Cmmi10-50"/>
      <use transform="translate(358.359766 0)" xlink:href="#Cmmi10-61"/>
      <use transform="translate(411.142969 0)" xlink:href="#Cmr10-5d"/>
     </g>
    </g>
   </g>
   <g id="matplotlib.axis_2">
    <g id="ytick_1">
     <g id="line2d_6">
      <defs>
       <path d="M 0 0 
L -3.5 0 
" id="m9b4b89c619" style="stroke:#000000;stroke-width:0.8;"/>
      </defs>
      <g>
       <use style="stroke:#000000;stroke-width:0.8;" x="49.828125" xlink:href="#m9b4b89c619" y="379.45281"/>
      </g>
     </g>
     <g id="text_7">
      <!-- 400 -->
      <g transform="translate(26.145313 383.031716)scale(0.1 -0.1)">
       <defs>
        <path d="M 266 2259 
Q 266 3072 433 3567 
Q 600 4063 929 4331 
Q 1259 4600 1759 4600 
Q 2128 4600 2406 4451 
Q 2684 4303 2865 4023 
Q 3047 3744 3150 3342 
Q 3253 2941 3253 2259 
Q 3253 1453 3087 958 
Q 2922 463 2592 192 
Q 2263 -78 1759 -78 
Q 1097 -78 719 397 
Q 266 969 266 2259 
z
M 844 2259 
Q 844 1131 1108 757 
Q 1372 384 1759 384 
Q 2147 384 2411 759 
Q 2675 1134 2675 2259 
Q 2675 3391 2411 3762 
Q 2147 4134 1753 4134 
Q 1366 4134 1134 3806 
Q 844 3388 844 2259 
z
" id="ArialMT-30" transform="scale(0.015625)"/>
       </defs>
       <use xlink:href="#ArialMT-34"/>
       <use x="55.615234" xlink:href="#ArialMT-30"/>
       <use x="111.230469" xlink:href="#ArialMT-30"/>
      </g>
     </g>
    </g>
    <g id="ytick_2">
     <g id="line2d_7">
      <g>
       <use style="stroke:#000000;stroke-width:0.8;" x="49.828125" xlink:href="#m9b4b89c619" y="298.803939"/>
      </g>
     </g>
     <g id="text_8">
      <!-- 600 -->
      <g transform="translate(26.145313 302.382845)scale(0.1 -0.1)">
       <use xlink:href="#ArialMT-36"/>
       <use x="55.615234" xlink:href="#ArialMT-30"/>
       <use x="111.230469" xlink:href="#ArialMT-30"/>
      </g>
     </g>
    </g>
    <g id="ytick_3">
     <g id="line2d_8">
      <g>
       <use style="stroke:#000000;stroke-width:0.8;" x="49.828125" xlink:href="#m9b4b89c619" y="218.155067"/>
      </g>
     </g>
     <g id="text_9">
      <!-- 800 -->
      <g transform="translate(26.145313 221.733974)scale(0.1 -0.1)">
       <use xlink:href="#ArialMT-38"/>
       <use x="55.615234" xlink:href="#ArialMT-30"/>
       <use x="111.230469" xlink:href="#ArialMT-30"/>
      </g>
     </g>
    </g>
    <g id="ytick_4">
     <g id="line2d_9">
      <g>
       <use style="stroke:#000000;stroke-width:0.8;" x="49.828125" xlink:href="#m9b4b89c619" y="137.506196"/>
      </g>
     </g>
     <g id="text_10">
      <!-- 1000 -->
      <g transform="translate(20.584375 141.085102)scale(0.1 -0.1)">
       <defs>
        <path d="M 2384 0 
L 1822 0 
L 1822 3584 
Q 1619 3391 1289 3197 
Q 959 3003 697 2906 
L 697 3450 
Q 1169 3672 1522 3987 
Q 1875 4303 2022 4600 
L 2384 4600 
L 2384 0 
z
" id="ArialMT-31" transform="scale(0.015625)"/>
       </defs>
       <use xlink:href="#ArialMT-31"/>
       <use x="55.615234" xlink:href="#ArialMT-30"/>
       <use x="111.230469" xlink:href="#ArialMT-30"/>
       <use x="166.845703" xlink:href="#ArialMT-30"/>
      </g>
     </g>
    </g>
    <g id="ytick_5">
     <g id="line2d_10">
      <g>
       <use style="stroke:#000000;stroke-width:0.8;" x="49.828125" xlink:href="#m9b4b89c619" y="56.857325"/>
      </g>
     </g>
     <g id="text_11">
      <!-- 1200 -->
      <g transform="translate(20.584375 60.436231)scale(0.1 -0.1)">
       <defs>
        <path d="M 3222 541 
L 3222 0 
L 194 0 
Q 188 203 259 391 
Q 375 700 629 1000 
Q 884 1300 1366 1694 
Q 2113 2306 2375 2664 
Q 2638 3022 2638 3341 
Q 2638 3675 2398 3904 
Q 2159 4134 1775 4134 
Q 1369 4134 1125 3890 
Q 881 3647 878 3216 
L 300 3275 
Q 359 3922 746 4261 
Q 1134 4600 1788 4600 
Q 2447 4600 2831 4234 
Q 3216 3869 3216 3328 
Q 3216 3053 3103 2787 
Q 2991 2522 2730 2228 
Q 2469 1934 1863 1422 
Q 1356 997 1212 845 
Q 1069 694 975 541 
L 3222 541 
z
" id="ArialMT-32" transform="scale(0.015625)"/>
       </defs>
       <use xlink:href="#ArialMT-31"/>
       <use x="55.615234" xlink:href="#ArialMT-32"/>
       <use x="111.230469" xlink:href="#ArialMT-30"/>
       <use x="166.845703" xlink:href="#ArialMT-30"/>
      </g>
     </g>
    </g>
    <g id="text_12">
     <!-- Temperature (K) -->
     <g transform="translate(14.479688 265.077969)rotate(-90)scale(0.1 -0.1)">
      <defs>
       <path d="M 1659 0 
L 1659 4041 
L 150 4041 
L 150 4581 
L 3781 4581 
L 3781 4041 
L 2266 4041 
L 2266 0 
L 1659 0 
z
" id="ArialMT-54" transform="scale(0.015625)"/>
       <path d="M 2694 1069 
L 3275 997 
Q 3138 488 2766 206 
Q 2394 -75 1816 -75 
Q 1088 -75 661 373 
Q 234 822 234 1631 
Q 234 2469 665 2931 
Q 1097 3394 1784 3394 
Q 2450 3394 2872 2941 
Q 3294 2488 3294 1666 
Q 3294 1616 3291 1516 
L 816 1516 
Q 847 969 1125 678 
Q 1403 388 1819 388 
Q 2128 388 2347 550 
Q 2566 713 2694 1069 
z
M 847 1978 
L 2700 1978 
Q 2663 2397 2488 2606 
Q 2219 2931 1791 2931 
Q 1403 2931 1139 2672 
Q 875 2413 847 1978 
z
" id="ArialMT-65" transform="scale(0.015625)"/>
       <path d="M 422 0 
L 422 3319 
L 925 3319 
L 925 2853 
Q 1081 3097 1340 3245 
Q 1600 3394 1931 3394 
Q 2300 3394 2536 3241 
Q 2772 3088 2869 2813 
Q 3263 3394 3894 3394 
Q 4388 3394 4653 3120 
Q 4919 2847 4919 2278 
L 4919 0 
L 4359 0 
L 4359 2091 
Q 4359 2428 4304 2576 
Q 4250 2725 4106 2815 
Q 3963 2906 3769 2906 
Q 3419 2906 3187 2673 
Q 2956 2441 2956 1928 
L 2956 0 
L 2394 0 
L 2394 2156 
Q 2394 2531 2256 2718 
Q 2119 2906 1806 2906 
Q 1569 2906 1367 2781 
Q 1166 2656 1075 2415 
Q 984 2175 984 1722 
L 984 0 
L 422 0 
z
" id="ArialMT-6d" transform="scale(0.015625)"/>
       <path d="M 422 -1272 
L 422 3319 
L 934 3319 
L 934 2888 
Q 1116 3141 1344 3267 
Q 1572 3394 1897 3394 
Q 2322 3394 2647 3175 
Q 2972 2956 3137 2557 
Q 3303 2159 3303 1684 
Q 3303 1175 3120 767 
Q 2938 359 2589 142 
Q 2241 -75 1856 -75 
Q 1575 -75 1351 44 
Q 1128 163 984 344 
L 984 -1272 
L 422 -1272 
z
M 931 1641 
Q 931 1000 1190 694 
Q 1450 388 1819 388 
Q 2194 388 2461 705 
Q 2728 1022 2728 1688 
Q 2728 2322 2467 2637 
Q 2206 2953 1844 2953 
Q 1484 2953 1207 2617 
Q 931 2281 931 1641 
z
" id="ArialMT-70" transform="scale(0.015625)"/>
       <path d="M 416 0 
L 416 3319 
L 922 3319 
L 922 2816 
Q 1116 3169 1280 3281 
Q 1444 3394 1641 3394 
Q 1925 3394 2219 3213 
L 2025 2691 
Q 1819 2813 1613 2813 
Q 1428 2813 1281 2702 
Q 1134 2591 1072 2394 
Q 978 2094 978 1738 
L 978 0 
L 416 0 
z
" id="ArialMT-72" transform="scale(0.015625)"/>
       <path d="M 2588 409 
Q 2275 144 1986 34 
Q 1697 -75 1366 -75 
Q 819 -75 525 192 
Q 231 459 231 875 
Q 231 1119 342 1320 
Q 453 1522 633 1644 
Q 813 1766 1038 1828 
Q 1203 1872 1538 1913 
Q 2219 1994 2541 2106 
Q 2544 2222 2544 2253 
Q 2544 2597 2384 2738 
Q 2169 2928 1744 2928 
Q 1347 2928 1158 2789 
Q 969 2650 878 2297 
L 328 2372 
Q 403 2725 575 2942 
Q 747 3159 1072 3276 
Q 1397 3394 1825 3394 
Q 2250 3394 2515 3294 
Q 2781 3194 2906 3042 
Q 3031 2891 3081 2659 
Q 3109 2516 3109 2141 
L 3109 1391 
Q 3109 606 3145 398 
Q 3181 191 3288 0 
L 2700 0 
Q 2613 175 2588 409 
z
M 2541 1666 
Q 2234 1541 1622 1453 
Q 1275 1403 1131 1340 
Q 988 1278 909 1158 
Q 831 1038 831 891 
Q 831 666 1001 516 
Q 1172 366 1500 366 
Q 1825 366 2078 508 
Q 2331 650 2450 897 
Q 2541 1088 2541 1459 
L 2541 1666 
z
" id="ArialMT-61" transform="scale(0.015625)"/>
       <path d="M 1650 503 
L 1731 6 
Q 1494 -44 1306 -44 
Q 1000 -44 831 53 
Q 663 150 594 308 
Q 525 466 525 972 
L 525 2881 
L 113 2881 
L 113 3319 
L 525 3319 
L 525 4141 
L 1084 4478 
L 1084 3319 
L 1650 3319 
L 1650 2881 
L 1084 2881 
L 1084 941 
Q 1084 700 1114 631 
Q 1144 563 1211 522 
Q 1278 481 1403 481 
Q 1497 481 1650 503 
z
" id="ArialMT-74" transform="scale(0.015625)"/>
       <path d="M 2597 0 
L 2597 488 
Q 2209 -75 1544 -75 
Q 1250 -75 995 37 
Q 741 150 617 320 
Q 494 491 444 738 
Q 409 903 409 1263 
L 409 3319 
L 972 3319 
L 972 1478 
Q 972 1038 1006 884 
Q 1059 663 1231 536 
Q 1403 409 1656 409 
Q 1909 409 2131 539 
Q 2353 669 2445 892 
Q 2538 1116 2538 1541 
L 2538 3319 
L 3100 3319 
L 3100 0 
L 2597 0 
z
" id="ArialMT-75" transform="scale(0.015625)"/>
       <path id="ArialMT-20" transform="scale(0.015625)"/>
       <path d="M 1497 -1347 
Q 1031 -759 709 28 
Q 388 816 388 1659 
Q 388 2403 628 3084 
Q 909 3875 1497 4659 
L 1900 4659 
Q 1522 4009 1400 3731 
Q 1209 3300 1100 2831 
Q 966 2247 966 1656 
Q 966 153 1900 -1347 
L 1497 -1347 
z
" id="ArialMT-28" transform="scale(0.015625)"/>
       <path d="M 469 0 
L 469 4581 
L 1075 4581 
L 1075 2309 
L 3350 4581 
L 4172 4581 
L 2250 2725 
L 4256 0 
L 3456 0 
L 1825 2319 
L 1075 1588 
L 1075 0 
L 469 0 
z
" id="ArialMT-4b" transform="scale(0.015625)"/>
       <path d="M 791 -1347 
L 388 -1347 
Q 1322 153 1322 1656 
Q 1322 2244 1188 2822 
Q 1081 3291 891 3722 
Q 769 4003 388 4659 
L 791 4659 
Q 1378 3875 1659 3084 
Q 1900 2403 1900 1659 
Q 1900 816 1576 28 
Q 1253 -759 791 -1347 
z
" id="ArialMT-29" transform="scale(0.015625)"/>
      </defs>
      <use xlink:href="#ArialMT-54"/>
      <use x="49.958984" xlink:href="#ArialMT-65"/>
      <use x="105.574219" xlink:href="#ArialMT-6d"/>
      <use x="188.875" xlink:href="#ArialMT-70"/>
      <use x="244.490234" xlink:href="#ArialMT-65"/>
      <use x="300.105469" xlink:href="#ArialMT-72"/>
      <use x="333.40625" xlink:href="#ArialMT-61"/>
      <use x="389.021484" xlink:href="#ArialMT-74"/>
      <use x="416.804688" xlink:href="#ArialMT-75"/>
      <use x="472.419922" xlink:href="#ArialMT-72"/>
      <use x="505.720703" xlink:href="#ArialMT-65"/>
      <use x="561.335938" xlink:href="#ArialMT-20"/>
      <use x="589.119141" xlink:href="#ArialMT-28"/>
      <use x="622.419922" xlink:href="#ArialMT-4b"/>
      <use x="689.119141" xlink:href="#ArialMT-29"/>
     </g>
    </g>
   </g>
   <g id="line2d_11">
    <path clip-path="url(#pc260d71635)" d="M 90.409943 430.56 
L 112.946162 428.533869 
L 128.732034 426.507739 
L 170.249127 420.429347 
L 201.822667 416.377085 
L 268.332789 408.272563 
L 299.454943 404.220302 
L 328.290634 400.16804 
L 354.880786 396.115779 
L 379.436396 392.063518 
L 402.207041 388.011256 
L 423.429181 383.958995 
L 443.309544 379.906734 
L 462.022723 375.854472 
L 479.713962 371.802211 
L 496.50341 367.74995 
L 512.490394 363.697688 
L 527.7572 359.645427 
L 542.372243 355.593166 
L 556.392654 351.540905 
L 576.411072 345.462513 
L 595.328948 339.384121 
L 613.248558 333.305729 
L 630.249772 327.227337 
L 646.394529 321.148945 
L 661.729688 315.070553 
L 676.28857 308.992161 
L 690.091387 302.913769 
L 703.144807 296.835377 
L 715.442115 290.756985 
L 723.214793 286.704724 
L 738.080916 278.600201 
L 745.123908 274.54794 
L 751.636722 270.495678 
L 760.863665 264.417286 
L 769.659816 258.338894 
L 778.084238 252.260503 
L 786.117682 246.182111 
L 793.717973 240.103719 
L 800.841645 234.025327 
L 805.307163 229.973065 
L 809.530428 225.920804 
L 813.511693 221.868543 
L 819.08358 215.790151 
L 824.237534 209.711759 
L 829.030347 203.633367 
L 833.507959 197.554975 
L 837.708058 191.476583 
L 841.661946 185.398191 
L 845.395903 179.319799 
L 850.07043 171.215276 
L 854.43737 163.110754 
L 858.533043 155.006231 
L 862.387682 146.901709 
L 866.026718 138.797186 
L 870.304923 128.666533 
L 874.3153 118.535879 
L 878.087459 108.405226 
L 881.646339 98.274573 
L 885.665097 86.117789 
L 889.438086 73.961005 
L 892.991337 61.804221 
L 896.888337 47.621307 
L 900.545813 33.438392 
L 902.046307 27.36 
L 902.046307 27.36 
" style="fill:none;stroke:#1f77b4;stroke-linecap:square;stroke-width:1.5;"/>
   </g>
   <g id="line2d_12">
    <path clip-path="url(#pc260d71635)" d="M 90.409943 430.182896 
L 112.946162 428.844558 
L 128.732034 426.807426 
L 155.897644 422.614813 
L 170.249127 420.402907 
L 185.619293 418.166607 
L 201.822667 415.989344 
L 218.514056 413.923725 
L 252.014252 410.099842 
L 284.16918 406.408821 
L 299.454943 404.519557 
L 314.162411 402.577913 
L 328.290634 400.581824 
L 341.855117 398.537 
L 367.397361 394.342514 
L 391.029455 390.083167 
L 412.99799 385.832486 
L 433.525439 381.635618 
L 452.802313 377.511637 
L 470.988039 373.460584 
L 488.214761 369.470642 
L 504.591707 365.523944 
L 520.209251 361.600793 
L 535.142383 357.682484 
L 549.453588 353.753049 
L 563.195161 349.800182 
L 576.411072 345.815579 
L 589.138444 341.794866 
L 601.408715 337.737249 
L 613.248558 333.644985 
L 624.68059 329.522764 
L 635.723915 325.377055 
L 651.594288 319.131278 
L 666.667632 312.877553 
L 680.972902 306.643211 
L 694.525866 300.453519 
L 707.328575 294.331702 
L 719.370978 288.299663 
L 730.662515 282.364151 
L 741.691911 276.255558 
L 751.636722 270.429838 
L 760.863665 264.698062 
L 769.659816 258.880754 
L 775.31779 254.924495 
L 780.807402 250.901623 
L 786.117682 246.816188 
L 791.235445 242.676944 
L 796.147489 238.496484 
L 800.841645 234.290855 
L 805.307163 230.079431 
L 811.549702 223.809214 
L 817.275902 217.618396 
L 822.562227 211.484102 
L 827.469843 205.388972 
L 832.047971 199.320196 
L 836.336813 193.268297 
L 840.369627 187.226271 
L 844.174239 181.188966 
L 848.93221 173.140262 
L 853.372369 165.0874 
L 857.532812 157.026781 
L 861.445156 148.95652 
L 865.135933 140.875963 
L 869.471751 130.761189 
L 873.533155 120.632477 
L 877.350828 110.492583 
L 880.95056 100.344892 
L 885.01314 88.162681 
L 888.825164 75.981523 
L 892.413408 63.808406 
L 896.346923 49.625843 
L 900.03699 35.474365 
L 902.046307 27.405729 
L 902.046307 27.405729 
" style="fill:none;stroke:#ff7f0e;stroke-dasharray:5.55,2.4;stroke-dashoffset:0;stroke-width:1.5;"/>
   </g>
   <g id="patch_3">
    <path d="M 49.828125 450.72 
L 49.828125 7.2 
" style="fill:none;stroke:#000000;stroke-linecap:square;stroke-linejoin:miter;stroke-width:0.8;"/>
   </g>
   <g id="patch_4">
    <path d="M 942.628125 450.72 
L 942.628125 7.2 
" style="fill:none;stroke:#000000;stroke-linecap:square;stroke-linejoin:miter;stroke-width:0.8;"/>
   </g>
   <g id="patch_5">
    <path d="M 49.828125 450.72 
L 942.628125 450.72 
" style="fill:none;stroke:#000000;stroke-linecap:square;stroke-linejoin:miter;stroke-width:0.8;"/>
   </g>
   <g id="patch_6">
    <path d="M 49.828125 7.2 
L 942.628125 7.2 
" style="fill:none;stroke:#000000;stroke-linecap:square;stroke-linejoin:miter;stroke-width:0.8;"/>
   </g>
   <g id="text_13">
    <!-- $T_{c}=\sum_{i=0}^{8}a_iy^i$, where $y=log_{10}P$ -->
    <g transform="translate(58.756125 113.004)scale(0.1 -0.1)">
     <defs>
      <path d="M 294 84 
Q 297 100 308 140 
Q 319 181 336 203 
Q 353 225 384 225 
Q 934 225 1113 256 
Q 1284 300 1319 441 
L 2194 3956 
Q 2222 4034 2222 4097 
Q 2222 4147 1997 4147 
L 1625 4147 
Q 1197 4147 964 4015 
Q 731 3884 622 3668 
Q 513 3453 341 2963 
Q 319 2906 275 2906 
L 219 2906 
Q 153 2906 153 2988 
L 609 4313 
Q 622 4372 672 4372 
L 4453 4372 
Q 4519 4372 4519 4288 
L 4306 2963 
Q 4306 2944 4284 2925 
Q 4263 2906 4244 2906 
L 4184 2906 
Q 4122 2906 4122 2988 
Q 4191 3441 4191 3628 
Q 4191 3853 4097 3968 
Q 4003 4084 3853 4115 
Q 3703 4147 3463 4147 
L 3084 4147 
Q 2913 4147 2853 4115 
Q 2794 4084 2753 3928 
L 1875 416 
Q 1872 403 1870 390 
Q 1869 378 1863 359 
Q 1863 278 1959 256 
Q 2125 225 2669 225 
Q 2731 225 2731 141 
Q 2709 50 2696 25 
Q 2684 0 2625 0 
L 359 0 
Q 294 0 294 84 
z
" id="Cmmi10-54" transform="scale(0.015625)"/>
      <path d="M 750 763 
Q 750 484 892 290 
Q 1034 97 1300 97 
Q 1681 97 2032 272 
Q 2384 447 2606 756 
Q 2625 775 2656 775 
Q 2688 775 2720 739 
Q 2753 703 2753 672 
Q 2753 647 2741 634 
Q 2506 306 2109 117 
Q 1713 -72 1288 -72 
Q 981 -72 747 73 
Q 513 219 384 462 
Q 256 706 256 1013 
Q 256 1444 497 1869 
Q 738 2294 1138 2561 
Q 1538 2828 1978 2828 
Q 2266 2828 2495 2689 
Q 2725 2550 2725 2278 
Q 2725 2103 2623 1979 
Q 2522 1856 2350 1856 
Q 2247 1856 2176 1920 
Q 2106 1984 2106 2088 
Q 2106 2238 2215 2344 
Q 2325 2450 2472 2450 
L 2484 2450 
Q 2409 2559 2267 2611 
Q 2125 2663 1972 2663 
Q 1597 2663 1315 2342 
Q 1034 2022 892 1576 
Q 750 1131 750 763 
z
" id="Cmmi10-63" transform="scale(0.015625)"/>
      <path d="M 481 850 
Q 428 850 393 890 
Q 359 931 359 978 
Q 359 1031 393 1068 
Q 428 1106 481 1106 
L 4500 1106 
Q 4547 1106 4581 1068 
Q 4616 1031 4616 978 
Q 4616 931 4581 890 
Q 4547 850 4500 850 
L 481 850 
z
M 481 2094 
Q 428 2094 393 2131 
Q 359 2169 359 2222 
Q 359 2269 393 2309 
Q 428 2350 481 2350 
L 4500 2350 
Q 4547 2350 4581 2309 
Q 4616 2269 4616 2222 
Q 4616 2169 4581 2131 
Q 4547 2094 4500 2094 
L 481 2094 
z
" id="Cmr10-3d" transform="scale(0.015625)"/>
      <path d="M 269 972 
Q 269 1356 522 1651 
Q 775 1947 1172 2144 
L 934 2297 
Q 716 2441 578 2680 
Q 441 2919 441 3181 
Q 441 3488 602 3734 
Q 763 3981 1030 4122 
Q 1297 4263 1600 4263 
Q 1884 4263 2148 4147 
Q 2413 4031 2583 3815 
Q 2753 3600 2753 3303 
Q 2753 3088 2651 2903 
Q 2550 2719 2373 2572 
Q 2197 2425 1997 2322 
L 2363 2088 
Q 2616 1922 2770 1653 
Q 2925 1384 2925 1088 
Q 2925 741 2739 456 
Q 2553 172 2247 15 
Q 1941 -141 1600 -141 
Q 1269 -141 961 -6 
Q 653 128 461 383 
Q 269 638 269 972 
z
M 616 972 
Q 616 719 755 509 
Q 894 300 1122 181 
Q 1350 63 1600 63 
Q 1972 63 2275 280 
Q 2578 497 2578 856 
Q 2578 978 2529 1098 
Q 2481 1219 2395 1317 
Q 2309 1416 2203 1478 
L 1344 2034 
Q 1144 1928 976 1765 
Q 809 1603 712 1400 
Q 616 1197 616 972 
z
M 1056 2925 
L 1831 2425 
Q 2100 2581 2272 2803 
Q 2444 3025 2444 3303 
Q 2444 3519 2323 3698 
Q 2203 3878 2009 3978 
Q 1816 4078 1594 4078 
Q 1400 4078 1203 4003 
Q 1006 3928 878 3779 
Q 750 3631 750 3431 
Q 750 3131 1056 2925 
z
" id="Cmr10-38" transform="scale(0.015625)"/>
      <path d="M 422 -8959 
Q 359 -8959 359 -8891 
Q 359 -8863 378 -8844 
L 3756 -4909 
L 378 -281 
Q 359 -263 359 -250 
L 359 -56 
Q 359 -34 379 -17 
Q 400 0 422 0 
L 8103 0 
L 8878 -1797 
L 8691 -1797 
Q 8394 -1116 7697 -787 
Q 7000 -459 6242 -382 
Q 5484 -306 4481 -306 
L 1522 -306 
L 4544 -4434 
Q 4556 -4459 4556 -4481 
Q 4556 -4500 4544 -4525 
L 1222 -8391 
L 4544 -8391 
Q 5528 -8391 6289 -8314 
Q 7050 -8238 7739 -7908 
Q 8428 -7578 8691 -6900 
L 8878 -6900 
L 8103 -8959 
L 422 -8959 
z
" id="Cmex10-58" transform="scale(0.015625)"/>
      <path d="M 500 459 
Q 500 578 550 709 
L 1069 2088 
Q 1153 2322 1153 2472 
Q 1153 2663 1013 2663 
Q 759 2663 595 2402 
Q 431 2141 353 1819 
Q 341 1778 300 1778 
L 225 1778 
Q 172 1778 172 1838 
L 172 1856 
Q 275 2238 487 2533 
Q 700 2828 1025 2828 
Q 1253 2828 1411 2678 
Q 1569 2528 1569 2297 
Q 1569 2178 1516 2047 
L 997 672 
Q 909 459 909 288 
Q 909 97 1056 97 
Q 1306 97 1473 364 
Q 1641 631 1709 941 
Q 1722 978 1759 978 
L 1838 978 
Q 1863 978 1878 961 
Q 1894 944 1894 922 
Q 1894 916 1888 903 
Q 1800 541 1583 234 
Q 1366 -72 1044 -72 
Q 819 -72 659 83 
Q 500 238 500 459 
z
M 1222 3878 
Q 1222 4013 1334 4122 
Q 1447 4231 1581 4231 
Q 1691 4231 1761 4164 
Q 1831 4097 1831 3994 
Q 1831 3850 1717 3742 
Q 1603 3634 1466 3634 
Q 1363 3634 1292 3704 
Q 1222 3775 1222 3878 
z
" id="Cmmi10-69" transform="scale(0.015625)"/>
      <path d="M 538 -916 
Q 672 -1147 1006 -1147 
Q 1309 -1147 1531 -934 
Q 1753 -722 1889 -420 
Q 2025 -119 2100 197 
Q 1816 -72 1484 -72 
Q 1231 -72 1053 15 
Q 875 103 776 276 
Q 678 450 678 697 
Q 678 906 734 1126 
Q 791 1347 892 1617 
Q 994 1888 1069 2088 
Q 1153 2322 1153 2472 
Q 1153 2663 1013 2663 
Q 759 2663 595 2402 
Q 431 2141 353 1819 
Q 341 1778 300 1778 
L 225 1778 
Q 172 1778 172 1838 
L 172 1856 
Q 275 2238 487 2533 
Q 700 2828 1025 2828 
Q 1253 2828 1411 2678 
Q 1569 2528 1569 2297 
Q 1569 2178 1516 2047 
Q 1488 1969 1388 1706 
Q 1288 1444 1234 1272 
Q 1181 1100 1147 934 
Q 1113 769 1113 603 
Q 1113 391 1203 244 
Q 1294 97 1491 97 
Q 1888 97 2203 581 
L 2688 2553 
Q 2709 2638 2787 2698 
Q 2866 2759 2956 2759 
Q 3034 2759 3092 2709 
Q 3150 2659 3150 2578 
Q 3150 2541 3144 2528 
L 2509 -19 
Q 2425 -347 2200 -647 
Q 1975 -947 1658 -1130 
Q 1341 -1313 997 -1313 
Q 831 -1313 668 -1248 
Q 506 -1184 406 -1056 
Q 306 -928 306 -756 
Q 306 -581 409 -453 
Q 513 -325 684 -325 
Q 788 -325 858 -389 
Q 928 -453 928 -556 
Q 928 -703 818 -812 
Q 709 -922 563 -922 
Q 556 -919 550 -917 
Q 544 -916 538 -916 
z
" id="Cmmi10-79" transform="scale(0.015625)"/>
      <path d="M 569 0 
L 569 641 
L 1209 641 
L 1209 0 
Q 1209 -353 1084 -570 
Q 959 -788 688 -906 
L 531 -666 
Q 709 -588 793 -436 
Q 878 -284 888 0 
L 569 0 
z
" id="ArialMT-2c" transform="scale(0.015625)"/>
      <path d="M 1034 0 
L 19 3319 
L 600 3319 
L 1128 1403 
L 1325 691 
Q 1338 744 1497 1375 
L 2025 3319 
L 2603 3319 
L 3100 1394 
L 3266 759 
L 3456 1400 
L 4025 3319 
L 4572 3319 
L 3534 0 
L 2950 0 
L 2422 1988 
L 2294 2553 
L 1622 0 
L 1034 0 
z
" id="ArialMT-77" transform="scale(0.015625)"/>
      <path d="M 422 0 
L 422 4581 
L 984 4581 
L 984 2938 
Q 1378 3394 1978 3394 
Q 2347 3394 2619 3248 
Q 2891 3103 3008 2847 
Q 3125 2591 3125 2103 
L 3125 0 
L 2563 0 
L 2563 2103 
Q 2563 2525 2380 2717 
Q 2197 2909 1863 2909 
Q 1613 2909 1392 2779 
Q 1172 2650 1078 2428 
Q 984 2206 984 1816 
L 984 0 
L 422 0 
z
" id="ArialMT-68" transform="scale(0.015625)"/>
     </defs>
     <use transform="translate(0 0.755729)" xlink:href="#Cmmi10-54"/>
     <use transform="translate(58.398438 -16.250521)scale(0.7)" xlink:href="#Cmmi10-63"/>
     <use transform="translate(112.583398 0.755729)" xlink:href="#Cmr10-3d"/>
     <use transform="translate(259.827539 124.373437)scale(0.7)" xlink:href="#Cmr10-38"/>
     <use transform="translate(209.827539 104.08125)" xlink:href="#Cmex10-58"/>
     <use transform="translate(207.827539 -101.279688)scale(0.7)" xlink:href="#Cmmi10-69"/>
     <use transform="translate(244.215234 -101.279688)scale(0.7)" xlink:href="#Cmr10-3d"/>
     <use transform="translate(310.886133 -101.279688)scale(0.7)" xlink:href="#Cmr10-30"/>
     <use transform="translate(345.886133 0.755729)" xlink:href="#Cmmi10-61"/>
     <use transform="translate(398.669336 -16.250521)scale(0.7)" xlink:href="#Cmmi10-69"/>
     <use transform="translate(429.143359 0.755729)" xlink:href="#Cmmi10-79"/>
     <use transform="translate(484.470078 39.019792)scale(0.7)" xlink:href="#Cmmi10-69"/>
     <use transform="translate(514.944102 0.755729)" xlink:href="#ArialMT-2c"/>
     <use transform="translate(542.727305 0.755729)" xlink:href="#ArialMT-20"/>
     <use transform="translate(570.510508 0.755729)" xlink:href="#ArialMT-77"/>
     <use transform="translate(642.727305 0.755729)" xlink:href="#ArialMT-68"/>
     <use transform="translate(698.342539 0.755729)" xlink:href="#ArialMT-65"/>
     <use transform="translate(753.957773 0.755729)" xlink:href="#ArialMT-72"/>
     <use transform="translate(787.258555 0.755729)" xlink:href="#ArialMT-65"/>
     <use transform="translate(842.873789 0.755729)" xlink:href="#ArialMT-20"/>
     <use transform="translate(870.656992 0.755729)" xlink:href="#Cmmi10-79"/>
     <use transform="translate(937.239023 0.755729)" xlink:href="#Cmr10-3d"/>
     <use transform="translate(1032.483164 0.755729)" xlink:href="#Cmmi10-6c"/>
     <use transform="translate(1062.26832 0.755729)" xlink:href="#Cmmi10-6f"/>
     <use transform="translate(1110.656992 0.755729)" xlink:href="#Cmmi10-67"/>
     <use transform="translate(1158.36207 -16.250521)scale(0.7)" xlink:href="#Cmr10-31"/>
     <use transform="translate(1193.36207 -16.250521)scale(0.7)" xlink:href="#Cmr10-30"/>
     <use transform="translate(1234.739414 0.755729)" xlink:href="#Cmmi10-50"/>
    </g>
    <!-- $a_i=$[3.189244620E+05, -4.839939036E+05, 3.178571360E+05, -1.179569492E+05, 2.706800301E+04, -3.934890902E+03, 3.540508557E+02, -1.803623682E+01, 3.984817370E-01, ] -->
    <g transform="translate(58.756125 132.044)scale(0.1 -0.1)">
     <defs>
      <path d="M 434 -1272 
L 434 4581 
L 1675 4581 
L 1675 4116 
L 997 4116 
L 997 -806 
L 1675 -806 
L 1675 -1272 
L 434 -1272 
z
" id="ArialMT-5b" transform="scale(0.015625)"/>
      <path d="M 269 1209 
L 831 1284 
Q 928 806 1161 595 
Q 1394 384 1728 384 
Q 2125 384 2398 659 
Q 2672 934 2672 1341 
Q 2672 1728 2419 1979 
Q 2166 2231 1775 2231 
Q 1616 2231 1378 2169 
L 1441 2663 
Q 1497 2656 1531 2656 
Q 1891 2656 2178 2843 
Q 2466 3031 2466 3422 
Q 2466 3731 2256 3934 
Q 2047 4138 1716 4138 
Q 1388 4138 1169 3931 
Q 950 3725 888 3313 
L 325 3413 
Q 428 3978 793 4289 
Q 1159 4600 1703 4600 
Q 2078 4600 2393 4439 
Q 2709 4278 2876 4000 
Q 3044 3722 3044 3409 
Q 3044 3113 2884 2869 
Q 2725 2625 2413 2481 
Q 2819 2388 3044 2092 
Q 3269 1797 3269 1353 
Q 3269 753 2831 336 
Q 2394 -81 1725 -81 
Q 1122 -81 723 278 
Q 325 638 269 1209 
z
" id="ArialMT-33" transform="scale(0.015625)"/>
      <path d="M 581 0 
L 581 641 
L 1222 641 
L 1222 0 
L 581 0 
z
" id="ArialMT-2e" transform="scale(0.015625)"/>
      <path d="M 350 1059 
L 891 1109 
Q 959 728 1153 556 
Q 1347 384 1650 384 
Q 1909 384 2104 503 
Q 2300 622 2425 820 
Q 2550 1019 2634 1356 
Q 2719 1694 2719 2044 
Q 2719 2081 2716 2156 
Q 2547 1888 2255 1720 
Q 1963 1553 1622 1553 
Q 1053 1553 659 1965 
Q 266 2378 266 3053 
Q 266 3750 677 4175 
Q 1088 4600 1706 4600 
Q 2153 4600 2523 4359 
Q 2894 4119 3086 3673 
Q 3278 3228 3278 2384 
Q 3278 1506 3087 986 
Q 2897 466 2520 194 
Q 2144 -78 1638 -78 
Q 1100 -78 759 220 
Q 419 519 350 1059 
z
M 2653 3081 
Q 2653 3566 2395 3850 
Q 2138 4134 1775 4134 
Q 1400 4134 1122 3828 
Q 844 3522 844 3034 
Q 844 2597 1108 2323 
Q 1372 2050 1759 2050 
Q 2150 2050 2401 2323 
Q 2653 2597 2653 3081 
z
" id="ArialMT-39" transform="scale(0.015625)"/>
      <path d="M 506 0 
L 506 4581 
L 3819 4581 
L 3819 4041 
L 1113 4041 
L 1113 2638 
L 3647 2638 
L 3647 2100 
L 1113 2100 
L 1113 541 
L 3925 541 
L 3925 0 
L 506 0 
z
" id="ArialMT-45" transform="scale(0.015625)"/>
      <path d="M 1603 741 
L 1603 1997 
L 356 1997 
L 356 2522 
L 1603 2522 
L 1603 3769 
L 2134 3769 
L 2134 2522 
L 3381 2522 
L 3381 1997 
L 2134 1997 
L 2134 741 
L 1603 741 
z
" id="ArialMT-2b" transform="scale(0.015625)"/>
      <path d="M 203 1375 
L 203 1941 
L 1931 1941 
L 1931 1375 
L 203 1375 
z
" id="ArialMT-2d" transform="scale(0.015625)"/>
      <path d="M 1363 -1272 
L 122 -1272 
L 122 -806 
L 800 -806 
L 800 4116 
L 122 4116 
L 122 4581 
L 1363 4581 
L 1363 -1272 
z
" id="ArialMT-5d" transform="scale(0.015625)"/>
     </defs>
     <use transform="translate(0 0.125)" xlink:href="#Cmmi10-61"/>
     <use transform="translate(52.783203 -16.88125)scale(0.7)" xlink:href="#Cmmi10-69"/>
     <use transform="translate(100.81582 0.125)" xlink:href="#Cmr10-3d"/>
     <use transform="translate(196.059961 0.125)" xlink:href="#ArialMT-5b"/>
     <use transform="translate(223.843164 0.125)" xlink:href="#ArialMT-33"/>
     <use transform="translate(279.458398 0.125)" xlink:href="#ArialMT-2e"/>
     <use transform="translate(307.241602 0.125)" xlink:href="#ArialMT-31"/>
     <use transform="translate(362.856836 0.125)" xlink:href="#ArialMT-38"/>
     <use transform="translate(418.47207 0.125)" xlink:href="#ArialMT-39"/>
     <use transform="translate(474.087305 0.125)" xlink:href="#ArialMT-32"/>
     <use transform="translate(529.702539 0.125)" xlink:href="#ArialMT-34"/>
     <use transform="translate(585.317773 0.125)" xlink:href="#ArialMT-34"/>
     <use transform="translate(640.933008 0.125)" xlink:href="#ArialMT-36"/>
     <use transform="translate(696.548242 0.125)" xlink:href="#ArialMT-32"/>
     <use transform="translate(752.163477 0.125)" xlink:href="#ArialMT-30"/>
     <use transform="translate(807.778711 0.125)" xlink:href="#ArialMT-45"/>
     <use transform="translate(874.47793 0.125)" xlink:href="#ArialMT-2b"/>
     <use transform="translate(932.876367 0.125)" xlink:href="#ArialMT-30"/>
     <use transform="translate(988.491602 0.125)" xlink:href="#ArialMT-35"/>
     <use transform="translate(1044.106836 0.125)" xlink:href="#ArialMT-2c"/>
     <use transform="translate(1071.890039 0.125)" xlink:href="#ArialMT-20"/>
     <use transform="translate(1099.673242 0.125)" xlink:href="#ArialMT-2d"/>
     <use transform="translate(1132.974023 0.125)" xlink:href="#ArialMT-34"/>
     <use transform="translate(1188.589258 0.125)" xlink:href="#ArialMT-2e"/>
     <use transform="translate(1216.372461 0.125)" xlink:href="#ArialMT-38"/>
     <use transform="translate(1271.987695 0.125)" xlink:href="#ArialMT-33"/>
     <use transform="translate(1327.60293 0.125)" xlink:href="#ArialMT-39"/>
     <use transform="translate(1383.218164 0.125)" xlink:href="#ArialMT-39"/>
     <use transform="translate(1438.833398 0.125)" xlink:href="#ArialMT-33"/>
     <use transform="translate(1494.448633 0.125)" xlink:href="#ArialMT-39"/>
     <use transform="translate(1550.063867 0.125)" xlink:href="#ArialMT-30"/>
     <use transform="translate(1605.679102 0.125)" xlink:href="#ArialMT-33"/>
     <use transform="translate(1661.294336 0.125)" xlink:href="#ArialMT-36"/>
     <use transform="translate(1716.90957 0.125)" xlink:href="#ArialMT-45"/>
     <use transform="translate(1783.608789 0.125)" xlink:href="#ArialMT-2b"/>
     <use transform="translate(1842.007227 0.125)" xlink:href="#ArialMT-30"/>
     <use transform="translate(1897.622461 0.125)" xlink:href="#ArialMT-35"/>
     <use transform="translate(1953.237695 0.125)" xlink:href="#ArialMT-2c"/>
     <use transform="translate(1981.020898 0.125)" xlink:href="#ArialMT-20"/>
     <use transform="translate(2008.804102 0.125)" xlink:href="#ArialMT-33"/>
     <use transform="translate(2064.419336 0.125)" xlink:href="#ArialMT-2e"/>
     <use transform="translate(2092.202539 0.125)" xlink:href="#ArialMT-31"/>
     <use transform="translate(2147.817773 0.125)" xlink:href="#ArialMT-37"/>
     <use transform="translate(2203.433008 0.125)" xlink:href="#ArialMT-38"/>
     <use transform="translate(2259.048242 0.125)" xlink:href="#ArialMT-35"/>
     <use transform="translate(2312.913477 0.125)" xlink:href="#ArialMT-37"/>
     <use transform="translate(2368.528711 0.125)" xlink:href="#ArialMT-31"/>
     <use transform="translate(2424.143945 0.125)" xlink:href="#ArialMT-33"/>
     <use transform="translate(2479.75918 0.125)" xlink:href="#ArialMT-36"/>
     <use transform="translate(2535.374414 0.125)" xlink:href="#ArialMT-30"/>
     <use transform="translate(2590.989648 0.125)" xlink:href="#ArialMT-45"/>
     <use transform="translate(2657.688867 0.125)" xlink:href="#ArialMT-2b"/>
     <use transform="translate(2716.087305 0.125)" xlink:href="#ArialMT-30"/>
     <use transform="translate(2771.702539 0.125)" xlink:href="#ArialMT-35"/>
     <use transform="translate(2827.317773 0.125)" xlink:href="#ArialMT-2c"/>
     <use transform="translate(2855.100977 0.125)" xlink:href="#ArialMT-20"/>
     <use transform="translate(2882.88418 0.125)" xlink:href="#ArialMT-2d"/>
     <use transform="translate(2916.184961 0.125)" xlink:href="#ArialMT-31"/>
     <use transform="translate(2971.800195 0.125)" xlink:href="#ArialMT-2e"/>
     <use transform="translate(2999.583398 0.125)" xlink:href="#ArialMT-31"/>
     <use transform="translate(3055.198633 0.125)" xlink:href="#ArialMT-37"/>
     <use transform="translate(3110.813867 0.125)" xlink:href="#ArialMT-39"/>
     <use transform="translate(3166.429102 0.125)" xlink:href="#ArialMT-35"/>
     <use transform="translate(3222.044336 0.125)" xlink:href="#ArialMT-36"/>
     <use transform="translate(3277.65957 0.125)" xlink:href="#ArialMT-39"/>
     <use transform="translate(3333.274805 0.125)" xlink:href="#ArialMT-34"/>
     <use transform="translate(3388.890039 0.125)" xlink:href="#ArialMT-39"/>
     <use transform="translate(3444.505273 0.125)" xlink:href="#ArialMT-32"/>
     <use transform="translate(3500.120508 0.125)" xlink:href="#ArialMT-45"/>
     <use transform="translate(3566.819727 0.125)" xlink:href="#ArialMT-2b"/>
     <use transform="translate(3625.218164 0.125)" xlink:href="#ArialMT-30"/>
     <use transform="translate(3680.833398 0.125)" xlink:href="#ArialMT-35"/>
     <use transform="translate(3736.448633 0.125)" xlink:href="#ArialMT-2c"/>
     <use transform="translate(3764.231836 0.125)" xlink:href="#ArialMT-20"/>
     <use transform="translate(3792.015039 0.125)" xlink:href="#ArialMT-32"/>
     <use transform="translate(3847.630273 0.125)" xlink:href="#ArialMT-2e"/>
     <use transform="translate(3875.413477 0.125)" xlink:href="#ArialMT-37"/>
     <use transform="translate(3931.028711 0.125)" xlink:href="#ArialMT-30"/>
     <use transform="translate(3986.643945 0.125)" xlink:href="#ArialMT-36"/>
     <use transform="translate(4042.25918 0.125)" xlink:href="#ArialMT-38"/>
     <use transform="translate(4097.874414 0.125)" xlink:href="#ArialMT-30"/>
     <use transform="translate(4153.489648 0.125)" xlink:href="#ArialMT-30"/>
     <use transform="translate(4209.104883 0.125)" xlink:href="#ArialMT-33"/>
     <use transform="translate(4264.720117 0.125)" xlink:href="#ArialMT-30"/>
     <use transform="translate(4320.335352 0.125)" xlink:href="#ArialMT-31"/>
     <use transform="translate(4375.950586 0.125)" xlink:href="#ArialMT-45"/>
     <use transform="translate(4442.649805 0.125)" xlink:href="#ArialMT-2b"/>
     <use transform="translate(4501.048242 0.125)" xlink:href="#ArialMT-30"/>
     <use transform="translate(4556.663477 0.125)" xlink:href="#ArialMT-34"/>
     <use transform="translate(4612.278711 0.125)" xlink:href="#ArialMT-2c"/>
     <use transform="translate(4640.061914 0.125)" xlink:href="#ArialMT-20"/>
     <use transform="translate(4667.845117 0.125)" xlink:href="#ArialMT-2d"/>
     <use transform="translate(4701.145898 0.125)" xlink:href="#ArialMT-33"/>
     <use transform="translate(4756.761133 0.125)" xlink:href="#ArialMT-2e"/>
     <use transform="translate(4784.544336 0.125)" xlink:href="#ArialMT-39"/>
     <use transform="translate(4840.15957 0.125)" xlink:href="#ArialMT-33"/>
     <use transform="translate(4895.774805 0.125)" xlink:href="#ArialMT-34"/>
     <use transform="translate(4951.390039 0.125)" xlink:href="#ArialMT-38"/>
     <use transform="translate(5007.005273 0.125)" xlink:href="#ArialMT-39"/>
     <use transform="translate(5062.620508 0.125)" xlink:href="#ArialMT-30"/>
     <use transform="translate(5118.235742 0.125)" xlink:href="#ArialMT-39"/>
     <use transform="translate(5173.850977 0.125)" xlink:href="#ArialMT-30"/>
     <use transform="translate(5229.466211 0.125)" xlink:href="#ArialMT-32"/>
     <use transform="translate(5285.081445 0.125)" xlink:href="#ArialMT-45"/>
     <use transform="translate(5351.780664 0.125)" xlink:href="#ArialMT-2b"/>
     <use transform="translate(5410.179102 0.125)" xlink:href="#ArialMT-30"/>
     <use transform="translate(5465.794336 0.125)" xlink:href="#ArialMT-33"/>
     <use transform="translate(5521.40957 0.125)" xlink:href="#ArialMT-2c"/>
     <use transform="translate(5549.192773 0.125)" xlink:href="#ArialMT-20"/>
     <use transform="translate(5576.975977 0.125)" xlink:href="#ArialMT-33"/>
     <use transform="translate(5632.591211 0.125)" xlink:href="#ArialMT-2e"/>
     <use transform="translate(5660.374414 0.125)" xlink:href="#ArialMT-35"/>
     <use transform="translate(5715.989648 0.125)" xlink:href="#ArialMT-34"/>
     <use transform="translate(5771.604883 0.125)" xlink:href="#ArialMT-30"/>
     <use transform="translate(5827.220117 0.125)" xlink:href="#ArialMT-35"/>
     <use transform="translate(5882.835352 0.125)" xlink:href="#ArialMT-30"/>
     <use transform="translate(5938.450586 0.125)" xlink:href="#ArialMT-38"/>
     <use transform="translate(5994.06582 0.125)" xlink:href="#ArialMT-35"/>
     <use transform="translate(6049.681055 0.125)" xlink:href="#ArialMT-35"/>
     <use transform="translate(6103.546289 0.125)" xlink:href="#ArialMT-37"/>
     <use transform="translate(6159.161523 0.125)" xlink:href="#ArialMT-45"/>
     <use transform="translate(6225.860742 0.125)" xlink:href="#ArialMT-2b"/>
     <use transform="translate(6284.25918 0.125)" xlink:href="#ArialMT-30"/>
     <use transform="translate(6339.874414 0.125)" xlink:href="#ArialMT-32"/>
     <use transform="translate(6395.489648 0.125)" xlink:href="#ArialMT-2c"/>
     <use transform="translate(6423.272852 0.125)" xlink:href="#ArialMT-20"/>
     <use transform="translate(6451.056055 0.125)" xlink:href="#ArialMT-2d"/>
     <use transform="translate(6484.356836 0.125)" xlink:href="#ArialMT-31"/>
     <use transform="translate(6539.97207 0.125)" xlink:href="#ArialMT-2e"/>
     <use transform="translate(6567.755273 0.125)" xlink:href="#ArialMT-38"/>
     <use transform="translate(6623.370508 0.125)" xlink:href="#ArialMT-30"/>
     <use transform="translate(6678.985742 0.125)" xlink:href="#ArialMT-33"/>
     <use transform="translate(6734.600977 0.125)" xlink:href="#ArialMT-36"/>
     <use transform="translate(6790.216211 0.125)" xlink:href="#ArialMT-32"/>
     <use transform="translate(6845.831445 0.125)" xlink:href="#ArialMT-33"/>
     <use transform="translate(6901.44668 0.125)" xlink:href="#ArialMT-36"/>
     <use transform="translate(6957.061914 0.125)" xlink:href="#ArialMT-38"/>
     <use transform="translate(7012.677148 0.125)" xlink:href="#ArialMT-32"/>
     <use transform="translate(7068.292383 0.125)" xlink:href="#ArialMT-45"/>
     <use transform="translate(7134.991602 0.125)" xlink:href="#ArialMT-2b"/>
     <use transform="translate(7193.390039 0.125)" xlink:href="#ArialMT-30"/>
     <use transform="translate(7249.005273 0.125)" xlink:href="#ArialMT-31"/>
     <use transform="translate(7304.620508 0.125)" xlink:href="#ArialMT-2c"/>
     <use transform="translate(7332.403711 0.125)" xlink:href="#ArialMT-20"/>
     <use transform="translate(7360.186914 0.125)" xlink:href="#ArialMT-33"/>
     <use transform="translate(7415.802148 0.125)" xlink:href="#ArialMT-2e"/>
     <use transform="translate(7443.585352 0.125)" xlink:href="#ArialMT-39"/>
     <use transform="translate(7499.200586 0.125)" xlink:href="#ArialMT-38"/>
     <use transform="translate(7554.81582 0.125)" xlink:href="#ArialMT-34"/>
     <use transform="translate(7610.431055 0.125)" xlink:href="#ArialMT-38"/>
     <use transform="translate(7666.046289 0.125)" xlink:href="#ArialMT-31"/>
     <use transform="translate(7721.661523 0.125)" xlink:href="#ArialMT-37"/>
     <use transform="translate(7777.276758 0.125)" xlink:href="#ArialMT-33"/>
     <use transform="translate(7832.891992 0.125)" xlink:href="#ArialMT-37"/>
     <use transform="translate(7888.507227 0.125)" xlink:href="#ArialMT-30"/>
     <use transform="translate(7944.122461 0.125)" xlink:href="#ArialMT-45"/>
     <use transform="translate(8010.82168 0.125)" xlink:href="#ArialMT-2d"/>
     <use transform="translate(8044.122461 0.125)" xlink:href="#ArialMT-30"/>
     <use transform="translate(8099.737695 0.125)" xlink:href="#ArialMT-31"/>
     <use transform="translate(8155.35293 0.125)" xlink:href="#ArialMT-2c"/>
     <use transform="translate(8183.136133 0.125)" xlink:href="#ArialMT-20"/>
     <use transform="translate(8210.919336 0.125)" xlink:href="#ArialMT-5d"/>
    </g>
   </g>
   <g id="legend_1">
    <g id="patch_7">
     <path d="M 56.828125 43.729687 
L 183.842188 43.729687 
Q 185.842188 43.729687 185.842188 41.729687 
L 185.842188 14.2 
Q 185.842188 12.2 183.842188 12.2 
L 56.828125 12.2 
Q 54.828125 12.2 54.828125 14.2 
L 54.828125 41.729687 
Q 54.828125 43.729687 56.828125 43.729687 
z
" style="fill:#ffffff;opacity:0.8;stroke:#cccccc;stroke-linejoin:miter;"/>
    </g>
    <g id="line2d_13">
     <path d="M 58.828125 19.857812 
L 78.828125 19.857812 
" style="fill:none;stroke:#1f77b4;stroke-linecap:square;stroke-width:1.5;"/>
    </g>
    <g id="line2d_14"/>
    <g id="text_14">
     <!-- Forward critical curve -->
     <g transform="translate(86.828125 23.357812)scale(0.1 -0.1)">
      <defs>
       <path d="M 525 0 
L 525 4581 
L 3616 4581 
L 3616 4041 
L 1131 4041 
L 1131 2622 
L 3281 2622 
L 3281 2081 
L 1131 2081 
L 1131 0 
L 525 0 
z
" id="ArialMT-46" transform="scale(0.015625)"/>
       <path d="M 213 1659 
Q 213 2581 725 3025 
Q 1153 3394 1769 3394 
Q 2453 3394 2887 2945 
Q 3322 2497 3322 1706 
Q 3322 1066 3130 698 
Q 2938 331 2570 128 
Q 2203 -75 1769 -75 
Q 1072 -75 642 372 
Q 213 819 213 1659 
z
M 791 1659 
Q 791 1022 1069 705 
Q 1347 388 1769 388 
Q 2188 388 2466 706 
Q 2744 1025 2744 1678 
Q 2744 2294 2464 2611 
Q 2184 2928 1769 2928 
Q 1347 2928 1069 2612 
Q 791 2297 791 1659 
z
" id="ArialMT-6f" transform="scale(0.015625)"/>
       <path d="M 2575 0 
L 2575 419 
Q 2259 -75 1647 -75 
Q 1250 -75 917 144 
Q 584 363 401 755 
Q 219 1147 219 1656 
Q 219 2153 384 2558 
Q 550 2963 881 3178 
Q 1213 3394 1622 3394 
Q 1922 3394 2156 3267 
Q 2391 3141 2538 2938 
L 2538 4581 
L 3097 4581 
L 3097 0 
L 2575 0 
z
M 797 1656 
Q 797 1019 1065 703 
Q 1334 388 1700 388 
Q 2069 388 2326 689 
Q 2584 991 2584 1609 
Q 2584 2291 2321 2609 
Q 2059 2928 1675 2928 
Q 1300 2928 1048 2622 
Q 797 2316 797 1656 
z
" id="ArialMT-64" transform="scale(0.015625)"/>
       <path d="M 2588 1216 
L 3141 1144 
Q 3050 572 2676 248 
Q 2303 -75 1759 -75 
Q 1078 -75 664 370 
Q 250 816 250 1647 
Q 250 2184 428 2587 
Q 606 2991 970 3192 
Q 1334 3394 1763 3394 
Q 2303 3394 2647 3120 
Q 2991 2847 3088 2344 
L 2541 2259 
Q 2463 2594 2264 2762 
Q 2066 2931 1784 2931 
Q 1359 2931 1093 2626 
Q 828 2322 828 1663 
Q 828 994 1084 691 
Q 1341 388 1753 388 
Q 2084 388 2306 591 
Q 2528 794 2588 1216 
z
" id="ArialMT-63" transform="scale(0.015625)"/>
       <path d="M 425 3934 
L 425 4581 
L 988 4581 
L 988 3934 
L 425 3934 
z
M 425 0 
L 425 3319 
L 988 3319 
L 988 0 
L 425 0 
z
" id="ArialMT-69" transform="scale(0.015625)"/>
       <path d="M 409 0 
L 409 4581 
L 972 4581 
L 972 0 
L 409 0 
z
" id="ArialMT-6c" transform="scale(0.015625)"/>
       <path d="M 1344 0 
L 81 3319 
L 675 3319 
L 1388 1331 
Q 1503 1009 1600 663 
Q 1675 925 1809 1294 
L 2547 3319 
L 3125 3319 
L 1869 0 
L 1344 0 
z
" id="ArialMT-76" transform="scale(0.015625)"/>
      </defs>
      <use xlink:href="#ArialMT-46"/>
      <use x="61.083984" xlink:href="#ArialMT-6f"/>
      <use x="116.699219" xlink:href="#ArialMT-72"/>
      <use x="150" xlink:href="#ArialMT-77"/>
      <use x="222.216797" xlink:href="#ArialMT-61"/>
      <use x="277.832031" xlink:href="#ArialMT-72"/>
      <use x="311.132812" xlink:href="#ArialMT-64"/>
      <use x="366.748047" xlink:href="#ArialMT-20"/>
      <use x="394.53125" xlink:href="#ArialMT-63"/>
      <use x="444.53125" xlink:href="#ArialMT-72"/>
      <use x="477.832031" xlink:href="#ArialMT-69"/>
      <use x="500.048828" xlink:href="#ArialMT-74"/>
      <use x="527.832031" xlink:href="#ArialMT-69"/>
      <use x="550.048828" xlink:href="#ArialMT-63"/>
      <use x="600.048828" xlink:href="#ArialMT-61"/>
      <use x="655.664062" xlink:href="#ArialMT-6c"/>
      <use x="677.880859" xlink:href="#ArialMT-20"/>
      <use x="705.664062" xlink:href="#ArialMT-63"/>
      <use x="755.664062" xlink:href="#ArialMT-75"/>
      <use x="811.279297" xlink:href="#ArialMT-72"/>
      <use x="844.580078" xlink:href="#ArialMT-76"/>
      <use x="894.580078" xlink:href="#ArialMT-65"/>
     </g>
    </g>
    <g id="line2d_15">
     <path d="M 58.828125 34.125 
L 78.828125 34.125 
" style="fill:none;stroke:#ff7f0e;stroke-dasharray:5.55,2.4;stroke-dashoffset:0;stroke-width:1.5;"/>
    </g>
    <g id="line2d_16"/>
    <g id="text_15">
     <!-- Polyfit -->
     <g transform="translate(86.828125 37.625)scale(0.1 -0.1)">
      <defs>
       <path d="M 494 0 
L 494 4581 
L 2222 4581 
Q 2678 4581 2919 4538 
Q 3256 4481 3484 4323 
Q 3713 4166 3852 3881 
Q 3991 3597 3991 3256 
Q 3991 2672 3619 2267 
Q 3247 1863 2275 1863 
L 1100 1863 
L 1100 0 
L 494 0 
z
M 1100 2403 
L 2284 2403 
Q 2872 2403 3119 2622 
Q 3366 2841 3366 3238 
Q 3366 3525 3220 3729 
Q 3075 3934 2838 4000 
Q 2684 4041 2272 4041 
L 1100 4041 
L 1100 2403 
z
" id="ArialMT-50" transform="scale(0.015625)"/>
       <path d="M 397 -1278 
L 334 -750 
Q 519 -800 656 -800 
Q 844 -800 956 -737 
Q 1069 -675 1141 -563 
Q 1194 -478 1313 -144 
Q 1328 -97 1363 -6 
L 103 3319 
L 709 3319 
L 1400 1397 
Q 1534 1031 1641 628 
Q 1738 1016 1872 1384 
L 2581 3319 
L 3144 3319 
L 1881 -56 
Q 1678 -603 1566 -809 
Q 1416 -1088 1222 -1217 
Q 1028 -1347 759 -1347 
Q 597 -1347 397 -1278 
z
" id="ArialMT-79" transform="scale(0.015625)"/>
       <path d="M 556 0 
L 556 2881 
L 59 2881 
L 59 3319 
L 556 3319 
L 556 3672 
Q 556 4006 616 4169 
Q 697 4388 901 4523 
Q 1106 4659 1475 4659 
Q 1713 4659 2000 4603 
L 1916 4113 
Q 1741 4144 1584 4144 
Q 1328 4144 1222 4034 
Q 1116 3925 1116 3625 
L 1116 3319 
L 1763 3319 
L 1763 2881 
L 1116 2881 
L 1116 0 
L 556 0 
z
" id="ArialMT-66" transform="scale(0.015625)"/>
      </defs>
      <use xlink:href="#ArialMT-50"/>
      <use x="66.699219" xlink:href="#ArialMT-6f"/>
      <use x="122.314453" xlink:href="#ArialMT-6c"/>
      <use x="144.53125" xlink:href="#ArialMT-79"/>
      <use x="194.53125" xlink:href="#ArialMT-66"/>
      <use x="222.314453" xlink:href="#ArialMT-69"/>
      <use x="244.53125" xlink:href="#ArialMT-74"/>
     </g>
    </g>
   </g>
  </g>
 </g>
 <defs>
  <clipPath id="pc260d71635">
   <rect height="443.52" width="892.8" x="49.828125" y="7.2"/>
  </clipPath>
 </defs>
</svg>
