<?xml version="1.0" encoding="utf-8" standalone="no"?>
<!DOCTYPE svg PUBLIC "-//W3C//DTD SVG 1.1//EN"
  "http://www.w3.org/Graphics/SVG/1.1/DTD/svg11.dtd">
<svg height="487.565313pt" version="1.1" viewBox="0 0 499.284375 487.565313" width="499.284375pt" xmlns="http://www.w3.org/2000/svg" xmlns:xlink="http://www.w3.org/1999/xlink">
 <metadata>
  <rdf:RDF xmlns:cc="http://creativecommons.org/ns#" xmlns:dc="http://purl.org/dc/elements/1.1/" xmlns:rdf="http://www.w3.org/1999/02/22-rdf-syntax-ns#">
   <cc:Work>
    <dc:type rdf:resource="http://purl.org/dc/dcmitype/StillImage"/>
    <dc:date>2022-01-25T19:49:26.328959</dc:date>
    <dc:format>image/svg+xml</dc:format>
    <dc:creator>
     <cc:Agent>
      <dc:title>Matplotlib v3.4.2, https://matplotlib.org/</dc:title>
     </cc:Agent>
    </dc:creator>
   </cc:Work>
  </rdf:RDF>
 </metadata>
 <defs>
  <style type="text/css">*{stroke-linecap:butt;stroke-linejoin:round;}</style>
 </defs>
 <g id="figure_1">
  <g id="patch_1">
   <path d="M 0 487.565313 
L 499.284375 487.565313 
L 499.284375 0 
L 0 0 
z
" style="fill:#ffffff;"/>
  </g>
  <g id="axes_1">
   <g id="patch_2">
    <path d="M 45.684375 154.304478 
L 492.084375 154.304478 
L 492.084375 7.2 
L 45.684375 7.2 
z
" style="fill:#ffffff;"/>
   </g>
   <g id="matplotlib.axis_1">
    <g id="xtick_1">
     <g id="line2d_1">
      <defs>
       <path d="M 0 0 
L 0 3.5 
" id="mbce57fc4df" style="stroke:#000000;stroke-width:0.8;"/>
      </defs>
      <g>
       <use style="stroke:#000000;stroke-width:0.8;" x="65.764456" xlink:href="#mbce57fc4df" y="154.304478"/>
      </g>
     </g>
    </g>
    <g id="xtick_2">
     <g id="line2d_2">
      <g>
       <use style="stroke:#000000;stroke-width:0.8;" x="146.970286" xlink:href="#mbce57fc4df" y="154.304478"/>
      </g>
     </g>
    </g>
    <g id="xtick_3">
     <g id="line2d_3">
      <g>
       <use style="stroke:#000000;stroke-width:0.8;" x="228.176115" xlink:href="#mbce57fc4df" y="154.304478"/>
      </g>
     </g>
    </g>
    <g id="xtick_4">
     <g id="line2d_4">
      <g>
       <use style="stroke:#000000;stroke-width:0.8;" x="309.381945" xlink:href="#mbce57fc4df" y="154.304478"/>
      </g>
     </g>
    </g>
    <g id="xtick_5">
     <g id="line2d_5">
      <g>
       <use style="stroke:#000000;stroke-width:0.8;" x="390.587775" xlink:href="#mbce57fc4df" y="154.304478"/>
      </g>
     </g>
    </g>
    <g id="xtick_6">
     <g id="line2d_6">
      <g>
       <use style="stroke:#000000;stroke-width:0.8;" x="471.793605" xlink:href="#mbce57fc4df" y="154.304478"/>
      </g>
     </g>
    </g>
   </g>
   <g id="matplotlib.axis_2">
    <g id="ytick_1">
     <g id="line2d_7">
      <defs>
       <path d="M 0 0 
L -3.5 0 
" id="m9a1860b7b6" style="stroke:#000000;stroke-width:0.8;"/>
      </defs>
      <g>
       <use style="stroke:#000000;stroke-width:0.8;" x="45.684375" xlink:href="#m9a1860b7b6" y="144.655198"/>
      </g>
     </g>
     <g id="text_1">
      <!-- $\mathdefault{10^{-9}}$ -->
      <g transform="translate(20.584375 149.811448)scale(0.1 -0.1)">
       <defs>
        <path d="M 2384 0 
L 1822 0 
L 1822 3584 
Q 1619 3391 1289 3197 
Q 959 3003 697 2906 
L 697 3450 
Q 1169 3672 1522 3987 
Q 1875 4303 2022 4600 
L 2384 4600 
L 2384 0 
z
" id="ArialMT-31" transform="scale(0.015625)"/>
        <path d="M 266 2259 
Q 266 3072 433 3567 
Q 600 4063 929 4331 
Q 1259 4600 1759 4600 
Q 2128 4600 2406 4451 
Q 2684 4303 2865 4023 
Q 3047 3744 3150 3342 
Q 3253 2941 3253 2259 
Q 3253 1453 3087 958 
Q 2922 463 2592 192 
Q 2263 -78 1759 -78 
Q 1097 -78 719 397 
Q 266 969 266 2259 
z
M 844 2259 
Q 844 1131 1108 757 
Q 1372 384 1759 384 
Q 2147 384 2411 759 
Q 2675 1134 2675 2259 
Q 2675 3391 2411 3762 
Q 2147 4134 1753 4134 
Q 1366 4134 1134 3806 
Q 844 3388 844 2259 
z
" id="ArialMT-30" transform="scale(0.015625)"/>
        <path d="M 203 1375 
L 203 1941 
L 1931 1941 
L 1931 1375 
L 203 1375 
z
" id="ArialMT-2d" transform="scale(0.015625)"/>
        <path d="M 350 1059 
L 891 1109 
Q 959 728 1153 556 
Q 1347 384 1650 384 
Q 1909 384 2104 503 
Q 2300 622 2425 820 
Q 2550 1019 2634 1356 
Q 2719 1694 2719 2044 
Q 2719 2081 2716 2156 
Q 2547 1888 2255 1720 
Q 1963 1553 1622 1553 
Q 1053 1553 659 1965 
Q 266 2378 266 3053 
Q 266 3750 677 4175 
Q 1088 4600 1706 4600 
Q 2153 4600 2523 4359 
Q 2894 4119 3086 3673 
Q 3278 3228 3278 2384 
Q 3278 1506 3087 986 
Q 2897 466 2520 194 
Q 2144 -78 1638 -78 
Q 1100 -78 759 220 
Q 419 519 350 1059 
z
M 2653 3081 
Q 2653 3566 2395 3850 
Q 2138 4134 1775 4134 
Q 1400 4134 1122 3828 
Q 844 3522 844 3034 
Q 844 2597 1108 2323 
Q 1372 2050 1759 2050 
Q 2150 2050 2401 2323 
Q 2653 2597 2653 3081 
z
" id="ArialMT-39" transform="scale(0.015625)"/>
       </defs>
       <use transform="translate(0 0.99375)" xlink:href="#ArialMT-31"/>
       <use transform="translate(55.615234 0.99375)" xlink:href="#ArialMT-30"/>
       <use transform="translate(112.972813 70.6875)scale(0.7)" xlink:href="#ArialMT-2d"/>
       <use transform="translate(136.283359 70.6875)scale(0.7)" xlink:href="#ArialMT-39"/>
      </g>
     </g>
    </g>
    <g id="ytick_2">
     <g id="line2d_8">
      <g>
       <use style="stroke:#000000;stroke-width:0.8;" x="45.684375" xlink:href="#m9a1860b7b6" y="118.390946"/>
      </g>
     </g>
     <g id="text_2">
      <!-- $\mathdefault{10^{-8}}$ -->
      <g transform="translate(20.584375 123.547196)scale(0.1 -0.1)">
       <defs>
        <path d="M 1131 2484 
Q 781 2613 612 2850 
Q 444 3088 444 3419 
Q 444 3919 803 4259 
Q 1163 4600 1759 4600 
Q 2359 4600 2725 4251 
Q 3091 3903 3091 3403 
Q 3091 3084 2923 2848 
Q 2756 2613 2416 2484 
Q 2838 2347 3058 2040 
Q 3278 1734 3278 1309 
Q 3278 722 2862 322 
Q 2447 -78 1769 -78 
Q 1091 -78 675 323 
Q 259 725 259 1325 
Q 259 1772 486 2073 
Q 713 2375 1131 2484 
z
M 1019 3438 
Q 1019 3113 1228 2906 
Q 1438 2700 1772 2700 
Q 2097 2700 2305 2904 
Q 2513 3109 2513 3406 
Q 2513 3716 2298 3927 
Q 2084 4138 1766 4138 
Q 1444 4138 1231 3931 
Q 1019 3725 1019 3438 
z
M 838 1322 
Q 838 1081 952 856 
Q 1066 631 1291 507 
Q 1516 384 1775 384 
Q 2178 384 2440 643 
Q 2703 903 2703 1303 
Q 2703 1709 2433 1975 
Q 2163 2241 1756 2241 
Q 1359 2241 1098 1978 
Q 838 1716 838 1322 
z
" id="ArialMT-38" transform="scale(0.015625)"/>
       </defs>
       <use transform="translate(0 0.99375)" xlink:href="#ArialMT-31"/>
       <use transform="translate(55.615234 0.99375)" xlink:href="#ArialMT-30"/>
       <use transform="translate(112.972813 70.6875)scale(0.7)" xlink:href="#ArialMT-2d"/>
       <use transform="translate(136.283359 70.6875)scale(0.7)" xlink:href="#ArialMT-38"/>
      </g>
     </g>
    </g>
    <g id="ytick_3">
     <g id="line2d_9">
      <g>
       <use style="stroke:#000000;stroke-width:0.8;" x="45.684375" xlink:href="#m9a1860b7b6" y="92.126693"/>
      </g>
     </g>
     <g id="text_3">
      <!-- $\mathdefault{10^{-7}}$ -->
      <g transform="translate(20.584375 97.232943)scale(0.1 -0.1)">
       <defs>
        <path d="M 303 3981 
L 303 4522 
L 3269 4522 
L 3269 4084 
Q 2831 3619 2401 2847 
Q 1972 2075 1738 1259 
Q 1569 684 1522 0 
L 944 0 
Q 953 541 1156 1306 
Q 1359 2072 1739 2783 
Q 2119 3494 2547 3981 
L 303 3981 
z
" id="ArialMT-37" transform="scale(0.015625)"/>
       </defs>
       <use transform="translate(0 0.846875)" xlink:href="#ArialMT-31"/>
       <use transform="translate(55.615234 0.846875)" xlink:href="#ArialMT-30"/>
       <use transform="translate(112.972813 70.540625)scale(0.7)" xlink:href="#ArialMT-2d"/>
       <use transform="translate(136.283359 70.540625)scale(0.7)" xlink:href="#ArialMT-37"/>
      </g>
     </g>
    </g>
    <g id="ytick_4">
     <g id="line2d_10">
      <g>
       <use style="stroke:#000000;stroke-width:0.8;" x="45.684375" xlink:href="#m9a1860b7b6" y="65.862441"/>
      </g>
     </g>
     <g id="text_4">
      <!-- $\mathdefault{10^{-6}}$ -->
      <g transform="translate(20.584375 71.018691)scale(0.1 -0.1)">
       <defs>
        <path d="M 3184 3459 
L 2625 3416 
Q 2550 3747 2413 3897 
Q 2184 4138 1850 4138 
Q 1581 4138 1378 3988 
Q 1113 3794 959 3422 
Q 806 3050 800 2363 
Q 1003 2672 1297 2822 
Q 1591 2972 1913 2972 
Q 2475 2972 2870 2558 
Q 3266 2144 3266 1488 
Q 3266 1056 3080 686 
Q 2894 316 2569 119 
Q 2244 -78 1831 -78 
Q 1128 -78 684 439 
Q 241 956 241 2144 
Q 241 3472 731 4075 
Q 1159 4600 1884 4600 
Q 2425 4600 2770 4297 
Q 3116 3994 3184 3459 
z
M 888 1484 
Q 888 1194 1011 928 
Q 1134 663 1356 523 
Q 1578 384 1822 384 
Q 2178 384 2434 671 
Q 2691 959 2691 1453 
Q 2691 1928 2437 2201 
Q 2184 2475 1800 2475 
Q 1419 2475 1153 2201 
Q 888 1928 888 1484 
z
" id="ArialMT-36" transform="scale(0.015625)"/>
       </defs>
       <use transform="translate(0 0.99375)" xlink:href="#ArialMT-31"/>
       <use transform="translate(55.615234 0.99375)" xlink:href="#ArialMT-30"/>
       <use transform="translate(112.972813 70.6875)scale(0.7)" xlink:href="#ArialMT-2d"/>
       <use transform="translate(136.283359 70.6875)scale(0.7)" xlink:href="#ArialMT-36"/>
      </g>
     </g>
    </g>
    <g id="ytick_5">
     <g id="line2d_11">
      <g>
       <use style="stroke:#000000;stroke-width:0.8;" x="45.684375" xlink:href="#m9a1860b7b6" y="39.598188"/>
      </g>
     </g>
     <g id="text_5">
      <!-- $\mathdefault{10^{-5}}$ -->
      <g transform="translate(20.584375 44.704438)scale(0.1 -0.1)">
       <defs>
        <path d="M 266 1200 
L 856 1250 
Q 922 819 1161 601 
Q 1400 384 1738 384 
Q 2144 384 2425 690 
Q 2706 997 2706 1503 
Q 2706 1984 2436 2262 
Q 2166 2541 1728 2541 
Q 1456 2541 1237 2417 
Q 1019 2294 894 2097 
L 366 2166 
L 809 4519 
L 3088 4519 
L 3088 3981 
L 1259 3981 
L 1013 2750 
Q 1425 3038 1878 3038 
Q 2478 3038 2890 2622 
Q 3303 2206 3303 1553 
Q 3303 931 2941 478 
Q 2500 -78 1738 -78 
Q 1113 -78 717 272 
Q 322 622 266 1200 
z
" id="ArialMT-35" transform="scale(0.015625)"/>
       </defs>
       <use transform="translate(0 0.879688)" xlink:href="#ArialMT-31"/>
       <use transform="translate(55.615234 0.879688)" xlink:href="#ArialMT-30"/>
       <use transform="translate(112.972813 70.573438)scale(0.7)" xlink:href="#ArialMT-2d"/>
       <use transform="translate(136.283359 70.573438)scale(0.7)" xlink:href="#ArialMT-35"/>
      </g>
     </g>
    </g>
    <g id="ytick_6">
     <g id="line2d_12">
      <g>
       <use style="stroke:#000000;stroke-width:0.8;" x="45.684375" xlink:href="#m9a1860b7b6" y="13.333935"/>
      </g>
     </g>
     <g id="text_6">
      <!-- $\mathdefault{10^{-4}}$ -->
      <g transform="translate(20.584375 18.440185)scale(0.1 -0.1)">
       <defs>
        <path d="M 2069 0 
L 2069 1097 
L 81 1097 
L 81 1613 
L 2172 4581 
L 2631 4581 
L 2631 1613 
L 3250 1613 
L 3250 1097 
L 2631 1097 
L 2631 0 
L 2069 0 
z
M 2069 1613 
L 2069 3678 
L 634 1613 
L 2069 1613 
z
" id="ArialMT-34" transform="scale(0.015625)"/>
       </defs>
       <use transform="translate(0 0.201563)" xlink:href="#ArialMT-31"/>
       <use transform="translate(55.615234 0.201563)" xlink:href="#ArialMT-30"/>
       <use transform="translate(112.972813 69.895313)scale(0.7)" xlink:href="#ArialMT-2d"/>
       <use transform="translate(136.283359 69.895313)scale(0.7)" xlink:href="#ArialMT-34"/>
      </g>
     </g>
    </g>
    <g id="ytick_7">
     <g id="line2d_13">
      <defs>
       <path d="M 0 0 
L -2 0 
" id="m4d7b51b70c" style="stroke:#000000;stroke-width:0.6;"/>
      </defs>
      <g>
       <use style="stroke:#000000;stroke-width:0.6;" x="45.684375" xlink:href="#m4d7b51b70c" y="152.561526"/>
      </g>
     </g>
    </g>
    <g id="ytick_8">
     <g id="line2d_14">
      <g>
       <use style="stroke:#000000;stroke-width:0.6;" x="45.684375" xlink:href="#m4d7b51b70c" y="150.48189"/>
      </g>
     </g>
    </g>
    <g id="ytick_9">
     <g id="line2d_15">
      <g>
       <use style="stroke:#000000;stroke-width:0.6;" x="45.684375" xlink:href="#m4d7b51b70c" y="148.723583"/>
      </g>
     </g>
    </g>
    <g id="ytick_10">
     <g id="line2d_16">
      <g>
       <use style="stroke:#000000;stroke-width:0.6;" x="45.684375" xlink:href="#m4d7b51b70c" y="147.200467"/>
      </g>
     </g>
    </g>
    <g id="ytick_11">
     <g id="line2d_17">
      <g>
       <use style="stroke:#000000;stroke-width:0.6;" x="45.684375" xlink:href="#m4d7b51b70c" y="145.856985"/>
      </g>
     </g>
    </g>
    <g id="ytick_12">
     <g id="line2d_18">
      <g>
       <use style="stroke:#000000;stroke-width:0.6;" x="45.684375" xlink:href="#m4d7b51b70c" y="136.748871"/>
      </g>
     </g>
    </g>
    <g id="ytick_13">
     <g id="line2d_19">
      <g>
       <use style="stroke:#000000;stroke-width:0.6;" x="45.684375" xlink:href="#m4d7b51b70c" y="132.123965"/>
      </g>
     </g>
    </g>
    <g id="ytick_14">
     <g id="line2d_20">
      <g>
       <use style="stroke:#000000;stroke-width:0.6;" x="45.684375" xlink:href="#m4d7b51b70c" y="128.842543"/>
      </g>
     </g>
    </g>
    <g id="ytick_15">
     <g id="line2d_21">
      <g>
       <use style="stroke:#000000;stroke-width:0.6;" x="45.684375" xlink:href="#m4d7b51b70c" y="126.297274"/>
      </g>
     </g>
    </g>
    <g id="ytick_16">
     <g id="line2d_22">
      <g>
       <use style="stroke:#000000;stroke-width:0.6;" x="45.684375" xlink:href="#m4d7b51b70c" y="124.217637"/>
      </g>
     </g>
    </g>
    <g id="ytick_17">
     <g id="line2d_23">
      <g>
       <use style="stroke:#000000;stroke-width:0.6;" x="45.684375" xlink:href="#m4d7b51b70c" y="122.45933"/>
      </g>
     </g>
    </g>
    <g id="ytick_18">
     <g id="line2d_24">
      <g>
       <use style="stroke:#000000;stroke-width:0.6;" x="45.684375" xlink:href="#m4d7b51b70c" y="120.936215"/>
      </g>
     </g>
    </g>
    <g id="ytick_19">
     <g id="line2d_25">
      <g>
       <use style="stroke:#000000;stroke-width:0.6;" x="45.684375" xlink:href="#m4d7b51b70c" y="119.592732"/>
      </g>
     </g>
    </g>
    <g id="ytick_20">
     <g id="line2d_26">
      <g>
       <use style="stroke:#000000;stroke-width:0.6;" x="45.684375" xlink:href="#m4d7b51b70c" y="110.484618"/>
      </g>
     </g>
    </g>
    <g id="ytick_21">
     <g id="line2d_27">
      <g>
       <use style="stroke:#000000;stroke-width:0.6;" x="45.684375" xlink:href="#m4d7b51b70c" y="105.859713"/>
      </g>
     </g>
    </g>
    <g id="ytick_22">
     <g id="line2d_28">
      <g>
       <use style="stroke:#000000;stroke-width:0.6;" x="45.684375" xlink:href="#m4d7b51b70c" y="102.57829"/>
      </g>
     </g>
    </g>
    <g id="ytick_23">
     <g id="line2d_29">
      <g>
       <use style="stroke:#000000;stroke-width:0.6;" x="45.684375" xlink:href="#m4d7b51b70c" y="100.033021"/>
      </g>
     </g>
    </g>
    <g id="ytick_24">
     <g id="line2d_30">
      <g>
       <use style="stroke:#000000;stroke-width:0.6;" x="45.684375" xlink:href="#m4d7b51b70c" y="97.953385"/>
      </g>
     </g>
    </g>
    <g id="ytick_25">
     <g id="line2d_31">
      <g>
       <use style="stroke:#000000;stroke-width:0.6;" x="45.684375" xlink:href="#m4d7b51b70c" y="96.195077"/>
      </g>
     </g>
    </g>
    <g id="ytick_26">
     <g id="line2d_32">
      <g>
       <use style="stroke:#000000;stroke-width:0.6;" x="45.684375" xlink:href="#m4d7b51b70c" y="94.671962"/>
      </g>
     </g>
    </g>
    <g id="ytick_27">
     <g id="line2d_33">
      <g>
       <use style="stroke:#000000;stroke-width:0.6;" x="45.684375" xlink:href="#m4d7b51b70c" y="93.328479"/>
      </g>
     </g>
    </g>
    <g id="ytick_28">
     <g id="line2d_34">
      <g>
       <use style="stroke:#000000;stroke-width:0.6;" x="45.684375" xlink:href="#m4d7b51b70c" y="84.220365"/>
      </g>
     </g>
    </g>
    <g id="ytick_29">
     <g id="line2d_35">
      <g>
       <use style="stroke:#000000;stroke-width:0.6;" x="45.684375" xlink:href="#m4d7b51b70c" y="79.59546"/>
      </g>
     </g>
    </g>
    <g id="ytick_30">
     <g id="line2d_36">
      <g>
       <use style="stroke:#000000;stroke-width:0.6;" x="45.684375" xlink:href="#m4d7b51b70c" y="76.314037"/>
      </g>
     </g>
    </g>
    <g id="ytick_31">
     <g id="line2d_37">
      <g>
       <use style="stroke:#000000;stroke-width:0.6;" x="45.684375" xlink:href="#m4d7b51b70c" y="73.768768"/>
      </g>
     </g>
    </g>
    <g id="ytick_32">
     <g id="line2d_38">
      <g>
       <use style="stroke:#000000;stroke-width:0.6;" x="45.684375" xlink:href="#m4d7b51b70c" y="71.689132"/>
      </g>
     </g>
    </g>
    <g id="ytick_33">
     <g id="line2d_39">
      <g>
       <use style="stroke:#000000;stroke-width:0.6;" x="45.684375" xlink:href="#m4d7b51b70c" y="69.930825"/>
      </g>
     </g>
    </g>
    <g id="ytick_34">
     <g id="line2d_40">
      <g>
       <use style="stroke:#000000;stroke-width:0.6;" x="45.684375" xlink:href="#m4d7b51b70c" y="68.40771"/>
      </g>
     </g>
    </g>
    <g id="ytick_35">
     <g id="line2d_41">
      <g>
       <use style="stroke:#000000;stroke-width:0.6;" x="45.684375" xlink:href="#m4d7b51b70c" y="67.064227"/>
      </g>
     </g>
    </g>
    <g id="ytick_36">
     <g id="line2d_42">
      <g>
       <use style="stroke:#000000;stroke-width:0.6;" x="45.684375" xlink:href="#m4d7b51b70c" y="57.956113"/>
      </g>
     </g>
    </g>
    <g id="ytick_37">
     <g id="line2d_43">
      <g>
       <use style="stroke:#000000;stroke-width:0.6;" x="45.684375" xlink:href="#m4d7b51b70c" y="53.331207"/>
      </g>
     </g>
    </g>
    <g id="ytick_38">
     <g id="line2d_44">
      <g>
       <use style="stroke:#000000;stroke-width:0.6;" x="45.684375" xlink:href="#m4d7b51b70c" y="50.049785"/>
      </g>
     </g>
    </g>
    <g id="ytick_39">
     <g id="line2d_45">
      <g>
       <use style="stroke:#000000;stroke-width:0.6;" x="45.684375" xlink:href="#m4d7b51b70c" y="47.504516"/>
      </g>
     </g>
    </g>
    <g id="ytick_40">
     <g id="line2d_46">
      <g>
       <use style="stroke:#000000;stroke-width:0.6;" x="45.684375" xlink:href="#m4d7b51b70c" y="45.42488"/>
      </g>
     </g>
    </g>
    <g id="ytick_41">
     <g id="line2d_47">
      <g>
       <use style="stroke:#000000;stroke-width:0.6;" x="45.684375" xlink:href="#m4d7b51b70c" y="43.666572"/>
      </g>
     </g>
    </g>
    <g id="ytick_42">
     <g id="line2d_48">
      <g>
       <use style="stroke:#000000;stroke-width:0.6;" x="45.684375" xlink:href="#m4d7b51b70c" y="42.143457"/>
      </g>
     </g>
    </g>
    <g id="ytick_43">
     <g id="line2d_49">
      <g>
       <use style="stroke:#000000;stroke-width:0.6;" x="45.684375" xlink:href="#m4d7b51b70c" y="40.799974"/>
      </g>
     </g>
    </g>
    <g id="ytick_44">
     <g id="line2d_50">
      <g>
       <use style="stroke:#000000;stroke-width:0.6;" x="45.684375" xlink:href="#m4d7b51b70c" y="31.69186"/>
      </g>
     </g>
    </g>
    <g id="ytick_45">
     <g id="line2d_51">
      <g>
       <use style="stroke:#000000;stroke-width:0.6;" x="45.684375" xlink:href="#m4d7b51b70c" y="27.066955"/>
      </g>
     </g>
    </g>
    <g id="ytick_46">
     <g id="line2d_52">
      <g>
       <use style="stroke:#000000;stroke-width:0.6;" x="45.684375" xlink:href="#m4d7b51b70c" y="23.785532"/>
      </g>
     </g>
    </g>
    <g id="ytick_47">
     <g id="line2d_53">
      <g>
       <use style="stroke:#000000;stroke-width:0.6;" x="45.684375" xlink:href="#m4d7b51b70c" y="21.240263"/>
      </g>
     </g>
    </g>
    <g id="ytick_48">
     <g id="line2d_54">
      <g>
       <use style="stroke:#000000;stroke-width:0.6;" x="45.684375" xlink:href="#m4d7b51b70c" y="19.160627"/>
      </g>
     </g>
    </g>
    <g id="ytick_49">
     <g id="line2d_55">
      <g>
       <use style="stroke:#000000;stroke-width:0.6;" x="45.684375" xlink:href="#m4d7b51b70c" y="17.40232"/>
      </g>
     </g>
    </g>
    <g id="ytick_50">
     <g id="line2d_56">
      <g>
       <use style="stroke:#000000;stroke-width:0.6;" x="45.684375" xlink:href="#m4d7b51b70c" y="15.879204"/>
      </g>
     </g>
    </g>
    <g id="ytick_51">
     <g id="line2d_57">
      <g>
       <use style="stroke:#000000;stroke-width:0.6;" x="45.684375" xlink:href="#m4d7b51b70c" y="14.535722"/>
      </g>
     </g>
    </g>
    <g id="text_7">
     <!-- Pressure (Pa) -->
     <g transform="translate(14.479687 111.592864)rotate(-90)scale(0.1 -0.1)">
      <defs>
       <path d="M 494 0 
L 494 4581 
L 2222 4581 
Q 2678 4581 2919 4538 
Q 3256 4481 3484 4323 
Q 3713 4166 3852 3881 
Q 3991 3597 3991 3256 
Q 3991 2672 3619 2267 
Q 3247 1863 2275 1863 
L 1100 1863 
L 1100 0 
L 494 0 
z
M 1100 2403 
L 2284 2403 
Q 2872 2403 3119 2622 
Q 3366 2841 3366 3238 
Q 3366 3525 3220 3729 
Q 3075 3934 2838 4000 
Q 2684 4041 2272 4041 
L 1100 4041 
L 1100 2403 
z
" id="ArialMT-50" transform="scale(0.015625)"/>
       <path d="M 416 0 
L 416 3319 
L 922 3319 
L 922 2816 
Q 1116 3169 1280 3281 
Q 1444 3394 1641 3394 
Q 1925 3394 2219 3213 
L 2025 2691 
Q 1819 2813 1613 2813 
Q 1428 2813 1281 2702 
Q 1134 2591 1072 2394 
Q 978 2094 978 1738 
L 978 0 
L 416 0 
z
" id="ArialMT-72" transform="scale(0.015625)"/>
       <path d="M 2694 1069 
L 3275 997 
Q 3138 488 2766 206 
Q 2394 -75 1816 -75 
Q 1088 -75 661 373 
Q 234 822 234 1631 
Q 234 2469 665 2931 
Q 1097 3394 1784 3394 
Q 2450 3394 2872 2941 
Q 3294 2488 3294 1666 
Q 3294 1616 3291 1516 
L 816 1516 
Q 847 969 1125 678 
Q 1403 388 1819 388 
Q 2128 388 2347 550 
Q 2566 713 2694 1069 
z
M 847 1978 
L 2700 1978 
Q 2663 2397 2488 2606 
Q 2219 2931 1791 2931 
Q 1403 2931 1139 2672 
Q 875 2413 847 1978 
z
" id="ArialMT-65" transform="scale(0.015625)"/>
       <path d="M 197 991 
L 753 1078 
Q 800 744 1014 566 
Q 1228 388 1613 388 
Q 2000 388 2187 545 
Q 2375 703 2375 916 
Q 2375 1106 2209 1216 
Q 2094 1291 1634 1406 
Q 1016 1563 777 1677 
Q 538 1791 414 1992 
Q 291 2194 291 2438 
Q 291 2659 392 2848 
Q 494 3038 669 3163 
Q 800 3259 1026 3326 
Q 1253 3394 1513 3394 
Q 1903 3394 2198 3281 
Q 2494 3169 2634 2976 
Q 2775 2784 2828 2463 
L 2278 2388 
Q 2241 2644 2061 2787 
Q 1881 2931 1553 2931 
Q 1166 2931 1000 2803 
Q 834 2675 834 2503 
Q 834 2394 903 2306 
Q 972 2216 1119 2156 
Q 1203 2125 1616 2013 
Q 2213 1853 2448 1751 
Q 2684 1650 2818 1456 
Q 2953 1263 2953 975 
Q 2953 694 2789 445 
Q 2625 197 2315 61 
Q 2006 -75 1616 -75 
Q 969 -75 630 194 
Q 291 463 197 991 
z
" id="ArialMT-73" transform="scale(0.015625)"/>
       <path d="M 2597 0 
L 2597 488 
Q 2209 -75 1544 -75 
Q 1250 -75 995 37 
Q 741 150 617 320 
Q 494 491 444 738 
Q 409 903 409 1263 
L 409 3319 
L 972 3319 
L 972 1478 
Q 972 1038 1006 884 
Q 1059 663 1231 536 
Q 1403 409 1656 409 
Q 1909 409 2131 539 
Q 2353 669 2445 892 
Q 2538 1116 2538 1541 
L 2538 3319 
L 3100 3319 
L 3100 0 
L 2597 0 
z
" id="ArialMT-75" transform="scale(0.015625)"/>
       <path id="ArialMT-20" transform="scale(0.015625)"/>
       <path d="M 1497 -1347 
Q 1031 -759 709 28 
Q 388 816 388 1659 
Q 388 2403 628 3084 
Q 909 3875 1497 4659 
L 1900 4659 
Q 1522 4009 1400 3731 
Q 1209 3300 1100 2831 
Q 966 2247 966 1656 
Q 966 153 1900 -1347 
L 1497 -1347 
z
" id="ArialMT-28" transform="scale(0.015625)"/>
       <path d="M 2588 409 
Q 2275 144 1986 34 
Q 1697 -75 1366 -75 
Q 819 -75 525 192 
Q 231 459 231 875 
Q 231 1119 342 1320 
Q 453 1522 633 1644 
Q 813 1766 1038 1828 
Q 1203 1872 1538 1913 
Q 2219 1994 2541 2106 
Q 2544 2222 2544 2253 
Q 2544 2597 2384 2738 
Q 2169 2928 1744 2928 
Q 1347 2928 1158 2789 
Q 969 2650 878 2297 
L 328 2372 
Q 403 2725 575 2942 
Q 747 3159 1072 3276 
Q 1397 3394 1825 3394 
Q 2250 3394 2515 3294 
Q 2781 3194 2906 3042 
Q 3031 2891 3081 2659 
Q 3109 2516 3109 2141 
L 3109 1391 
Q 3109 606 3145 398 
Q 3181 191 3288 0 
L 2700 0 
Q 2613 175 2588 409 
z
M 2541 1666 
Q 2234 1541 1622 1453 
Q 1275 1403 1131 1340 
Q 988 1278 909 1158 
Q 831 1038 831 891 
Q 831 666 1001 516 
Q 1172 366 1500 366 
Q 1825 366 2078 508 
Q 2331 650 2450 897 
Q 2541 1088 2541 1459 
L 2541 1666 
z
" id="ArialMT-61" transform="scale(0.015625)"/>
       <path d="M 791 -1347 
L 388 -1347 
Q 1322 153 1322 1656 
Q 1322 2244 1188 2822 
Q 1081 3291 891 3722 
Q 769 4003 388 4659 
L 791 4659 
Q 1378 3875 1659 3084 
Q 1900 2403 1900 1659 
Q 1900 816 1576 28 
Q 1253 -759 791 -1347 
z
" id="ArialMT-29" transform="scale(0.015625)"/>
      </defs>
      <use xlink:href="#ArialMT-50"/>
      <use x="66.699219" xlink:href="#ArialMT-72"/>
      <use x="100" xlink:href="#ArialMT-65"/>
      <use x="155.615234" xlink:href="#ArialMT-73"/>
      <use x="205.615234" xlink:href="#ArialMT-73"/>
      <use x="255.615234" xlink:href="#ArialMT-75"/>
      <use x="311.230469" xlink:href="#ArialMT-72"/>
      <use x="344.53125" xlink:href="#ArialMT-65"/>
      <use x="400.146484" xlink:href="#ArialMT-20"/>
      <use x="427.929688" xlink:href="#ArialMT-28"/>
      <use x="461.230469" xlink:href="#ArialMT-50"/>
      <use x="527.929688" xlink:href="#ArialMT-61"/>
      <use x="583.544922" xlink:href="#ArialMT-29"/>
     </g>
    </g>
   </g>
   <g id="line2d_58">
    <path clip-path="url(#pd5386cb31b)" d="M 66.628974 488.565313 
L 66.634193 92.637816 
L 67.00898 66.831788 
L 67.416997 63.765794 
L 67.859903 74.012591 
L 68.338427 119.510732 
L 68.851924 90.030073 
L 69.397983 25.653662 
L 69.408151 488.565313 
M 70.559388 488.565313 
L 70.568763 78.424897 
L 71.18036 64.705283 
L 71.799806 56.809022 
L 72.420542 53.034615 
L 73.037287 53.768266 
L 73.646257 61.399719 
L 74.245082 75.736217 
L 74.832549 80.692228 
L 74.84155 488.565313 
M 79.156145 488.565313 
L 79.163458 117.425756 
L 79.170697 488.565313 
M 80.168186 488.565313 
L 80.175514 109.507043 
L 80.675849 113.533743 
L 80.683009 488.565313 
M 84.127787 488.565313 
L 84.135138 100.270253 
L 84.142506 488.565313 
M 88.663733 488.565313 
L 88.672963 21.560153 
L 88.682268 488.565313 
M 89.711403 488.565313 
L 89.719438 89.756628 
L 90.24958 61.96434 
L 90.784657 48.612946 
L 91.324907 38.323699 
L 91.870559 30.611889 
L 92.421835 24.419554 
L 92.978951 19.550132 
L 93.542117 15.680384 
L 93.552412 488.565313 
M 94.678828 488.565313 
L 94.687405 100.206877 
L 95.269919 99.47262 
L 95.859263 89.242501 
L 96.455623 98.878385 
L 97.059178 91.112422 
L 97.670101 94.929125 
L 97.679436 488.565313 
M 99.537325 488.565313 
L 99.548777 16.132431 
L 100.19085 19.712177 
L 101.499715 29.229632 
L 102.16681 35.650661 
L 103.527062 52.442661 
L 104.923011 77.641469 
L 104.934219 488.565313 
M 107.073915 488.565313 
L 107.08626 47.029452 
L 107.098769 488.565313 
M 136.12521 488.565313 
L 136.141323 103.974925 
L 137.246586 121.056267 
L 138.36505 35.03551 
L 139.496844 132.022526 
L 140.642102 104.126006 
L 141.80096 82.670637 
L 144.160058 58.519454 
L 145.3606 49.670973 
L 146.57535 42.699128 
L 147.804475 36.918397 
L 149.048151 32.220377 
L 150.306563 28.44939 
L 151.579896 25.480963 
L 152.868358 23.258048 
L 154.172156 21.723971 
L 155.491511 20.855287 
L 156.826658 20.628725 
L 158.177839 21.064243 
L 159.545313 22.177991 
L 160.929352 24.012228 
L 162.330244 26.628356 
L 163.748291 30.142363 
L 165.183817 34.664563 
L 166.637162 40.412031 
L 168.108689 47.694563 
L 169.598785 57.006109 
L 171.107861 69.478847 
L 172.636357 86.885686 
L 174.184744 125.029199 
L 175.753527 118.11536 
L 175.77613 488.565313 
M 198.303977 488.565313 
L 198.330586 125.029199 
L 200.272246 137.560433 
L 202.251243 121.747777 
L 202.279669 488.565313 
M 229.55123 488.565313 
L 229.587815 129.654105 
L 232.309298 89.430956 
L 235.090162 52.741976 
L 237.927411 34.634274 
L 240.821669 25.356388 
L 243.776525 22.093878 
L 246.798074 23.748855 
L 249.894677 30.105098 
L 253.076921 41.672533 
L 256.357802 59.81838 
L 259.753141 88.778983 
L 259.807232 488.565313 
M 266.902501 488.565313 
L 266.969408 13.886567 
L 267.039779 488.565313 
M 305.35966 488.565313 
L 305.445798 105.935121 
L 311.678317 113.841449 
L 311.773533 488.565313 
M 332.709771 488.565313 
L 332.817345 113.841449 
L 340.773121 113.841449 
L 340.894837 488.565313 
M 412.803776 488.565313 
L 412.985878 105.935121 
L 413.180391 488.565313 
M 440.19491 488.565313 
L 440.402849 105.935121 
L 440.625338 488.565313 
M 471.53296 488.565313 
L 471.793466 69.684904 
L 471.793466 69.684904 
" style="fill:none;stroke:#1f77b4;stroke-linecap:square;stroke-width:1.5;"/>
   </g>
   <g id="line2d_59">
    <path clip-path="url(#pd5386cb31b)" d="M 65.975284 88.778867 
L 65.980114 488.565313 
M 66.628963 488.565313 
L 66.634193 91.781951 
L 67.00898 87.417053 
L 67.015255 488.565313 
M 68.84415 488.565313 
L 68.851924 93.760997 
L 69.397983 73.343648 
L 69.40712 488.565313 
M 75.964169 488.565313 
L 75.972635 97.368121 
L 75.980939 488.565313 
M 77.595895 488.565313 
L 77.60416 85.163343 
L 77.612301 488.565313 
M 79.663925 488.565313 
L 79.671649 92.159227 
L 80.175514 78.603294 
L 80.183375 488.565313 
M 81.661124 488.565313 
L 81.668823 83.140413 
L 81.676499 488.565313 
M 87.126035 488.565313 
L 87.133785 89.145594 
L 87.643147 110.335296 
L 87.650591 488.565313 
M 90.241615 488.565313 
L 90.24958 96.814761 
L 90.784657 88.501435 
L 91.324907 67.154497 
L 91.333715 488.565313 
M 96.445974 488.565313 
L 96.455623 66.145693 
L 97.059178 104.16886 
L 97.670101 129.698748 
L 98.288564 136.785359 
L 99.548777 98.509404 
L 100.19085 131.434712 
L 100.841112 123.450524 
L 101.499715 147.61791 
L 102.16681 112.819295 
L 102.842544 97.021926 
L 103.527062 94.116303 
L 104.220505 91.760733 
L 104.923011 89.918232 
L 105.634718 103.660373 
L 106.355757 111.806456 
L 107.08626 85.436459 
L 107.826355 108.865549 
L 108.576167 118.714085 
L 109.33582 103.425553 
L 110.105434 96.382424 
L 110.885129 104.671126 
L 111.675021 92.559642 
L 112.475225 110.571171 
L 113.285853 94.59248 
L 114.107017 104.933354 
L 114.938825 94.235493 
L 114.951566 488.565313 
M 122.905906 488.565313 
L 122.921471 52.503216 
L 123.865459 88.078158 
L 124.821223 108.248836 
L 125.788863 115.364564 
L 125.802894 488.565313 
M 152.84566 488.565313 
L 152.868358 28.001415 
L 154.172156 35.515809 
L 156.826658 52.755435 
L 158.177839 62.594218 
L 158.200149 488.565313 
M 160.905386 488.565313 
L 160.929352 35.986998 
L 163.748291 75.543821 
L 165.183817 99.551908 
L 166.637162 112.497966 
L 168.108689 111.29618 
L 169.598785 125.029199 
L 169.619847 488.565313 
M 219.497914 488.565313 
L 219.52959 113.841449 
L 219.563412 488.565313 
M 229.55123 488.565313 
L 229.587815 129.654105 
L 229.625321 488.565313 
M 240.780915 488.565313 
L 240.821669 121.747777 
L 243.776525 113.841449 
L 243.819975 488.565313 
M 270.792826 488.565313 
L 270.847432 121.747777 
L 270.905295 488.565313 
M 305.35966 488.565313 
L 305.445798 105.935121 
L 311.678317 113.841449 
L 311.773533 488.565313 
M 471.550324 488.565313 
L 471.793466 98.028793 
L 471.793466 98.028793 
" style="fill:none;stroke:#ff7f0e;stroke-linecap:square;stroke-width:1.5;"/>
   </g>
   <g id="patch_3">
    <path d="M 45.684375 154.304478 
L 45.684375 7.2 
" style="fill:none;stroke:#000000;stroke-linecap:square;stroke-linejoin:miter;stroke-width:0.8;"/>
   </g>
   <g id="patch_4">
    <path d="M 492.084375 154.304478 
L 492.084375 7.2 
" style="fill:none;stroke:#000000;stroke-linecap:square;stroke-linejoin:miter;stroke-width:0.8;"/>
   </g>
   <g id="patch_5">
    <path d="M 45.684375 154.304478 
L 492.084375 154.304478 
" style="fill:none;stroke:#000000;stroke-linecap:square;stroke-linejoin:miter;stroke-width:0.8;"/>
   </g>
   <g id="patch_6">
    <path d="M 45.684375 7.2 
L 492.084375 7.2 
" style="fill:none;stroke:#000000;stroke-linecap:square;stroke-linejoin:miter;stroke-width:0.8;"/>
   </g>
   <g id="text_8">
    <!-- (b) -->
    <g transform="translate(47.916375 18.877715)scale(0.12 -0.12)">
     <defs>
      <path d="M 1916 -1347 
L 1313 -1347 
Q 834 -625 584 153 
Q 334 931 334 1659 
Q 334 2563 644 3369 
Q 913 4069 1325 4659 
L 1925 4659 
Q 1497 3713 1336 3048 
Q 1175 2384 1175 1641 
Q 1175 1128 1270 590 
Q 1366 53 1531 -431 
Q 1641 -750 1916 -1347 
z
" id="Arial-BoldMT-28" transform="scale(0.015625)"/>
      <path d="M 422 0 
L 422 4581 
L 1300 4581 
L 1300 2931 
Q 1706 3394 2263 3394 
Q 2869 3394 3266 2955 
Q 3663 2516 3663 1694 
Q 3663 844 3258 384 
Q 2853 -75 2275 -75 
Q 1991 -75 1714 67 
Q 1438 209 1238 488 
L 1238 0 
L 422 0 
z
M 1294 1731 
Q 1294 1216 1456 969 
Q 1684 619 2063 619 
Q 2353 619 2558 867 
Q 2763 1116 2763 1650 
Q 2763 2219 2556 2470 
Q 2350 2722 2028 2722 
Q 1713 2722 1503 2476 
Q 1294 2231 1294 1731 
z
" id="Arial-BoldMT-62" transform="scale(0.015625)"/>
      <path d="M 216 -1347 
Q 475 -791 581 -494 
Q 688 -197 778 190 
Q 869 578 912 926 
Q 956 1275 956 1641 
Q 956 2384 797 3048 
Q 638 3713 209 4659 
L 806 4659 
Q 1278 3988 1539 3234 
Q 1800 2481 1800 1706 
Q 1800 1053 1594 306 
Q 1359 -531 822 -1347 
L 216 -1347 
z
" id="Arial-BoldMT-29" transform="scale(0.015625)"/>
     </defs>
     <use xlink:href="#Arial-BoldMT-28"/>
     <use x="33.300781" xlink:href="#Arial-BoldMT-62"/>
     <use x="94.384766" xlink:href="#Arial-BoldMT-29"/>
    </g>
   </g>
   <g id="legend_1">
    <g id="patch_7">
     <path d="M 412.509375 43.490625 
L 485.084375 43.490625 
Q 487.084375 43.490625 487.084375 41.490625 
L 487.084375 14.2 
Q 487.084375 12.2 485.084375 12.2 
L 412.509375 12.2 
Q 410.509375 12.2 410.509375 14.2 
L 410.509375 41.490625 
Q 410.509375 43.490625 412.509375 43.490625 
z
" style="fill:#ffffff;opacity:0.8;stroke:#cccccc;stroke-linejoin:miter;"/>
    </g>
    <g id="line2d_60">
     <path d="M 414.509375 19.857813 
L 434.509375 19.857813 
" style="fill:none;stroke:#1f77b4;stroke-linecap:square;stroke-width:1.5;"/>
    </g>
    <g id="line2d_61"/>
    <g id="text_9">
     <!-- Newton -->
     <g transform="translate(442.509375 23.357813)scale(0.1 -0.1)">
      <defs>
       <path d="M 488 0 
L 488 4581 
L 1109 4581 
L 3516 984 
L 3516 4581 
L 4097 4581 
L 4097 0 
L 3475 0 
L 1069 3600 
L 1069 0 
L 488 0 
z
" id="ArialMT-4e" transform="scale(0.015625)"/>
       <path d="M 1034 0 
L 19 3319 
L 600 3319 
L 1128 1403 
L 1325 691 
Q 1338 744 1497 1375 
L 2025 3319 
L 2603 3319 
L 3100 1394 
L 3266 759 
L 3456 1400 
L 4025 3319 
L 4572 3319 
L 3534 0 
L 2950 0 
L 2422 1988 
L 2294 2553 
L 1622 0 
L 1034 0 
z
" id="ArialMT-77" transform="scale(0.015625)"/>
       <path d="M 1650 503 
L 1731 6 
Q 1494 -44 1306 -44 
Q 1000 -44 831 53 
Q 663 150 594 308 
Q 525 466 525 972 
L 525 2881 
L 113 2881 
L 113 3319 
L 525 3319 
L 525 4141 
L 1084 4478 
L 1084 3319 
L 1650 3319 
L 1650 2881 
L 1084 2881 
L 1084 941 
Q 1084 700 1114 631 
Q 1144 563 1211 522 
Q 1278 481 1403 481 
Q 1497 481 1650 503 
z
" id="ArialMT-74" transform="scale(0.015625)"/>
       <path d="M 213 1659 
Q 213 2581 725 3025 
Q 1153 3394 1769 3394 
Q 2453 3394 2887 2945 
Q 3322 2497 3322 1706 
Q 3322 1066 3130 698 
Q 2938 331 2570 128 
Q 2203 -75 1769 -75 
Q 1072 -75 642 372 
Q 213 819 213 1659 
z
M 791 1659 
Q 791 1022 1069 705 
Q 1347 388 1769 388 
Q 2188 388 2466 706 
Q 2744 1025 2744 1678 
Q 2744 2294 2464 2611 
Q 2184 2928 1769 2928 
Q 1347 2928 1069 2612 
Q 791 2297 791 1659 
z
" id="ArialMT-6f" transform="scale(0.015625)"/>
       <path d="M 422 0 
L 422 3319 
L 928 3319 
L 928 2847 
Q 1294 3394 1984 3394 
Q 2284 3394 2536 3286 
Q 2788 3178 2913 3003 
Q 3038 2828 3088 2588 
Q 3119 2431 3119 2041 
L 3119 0 
L 2556 0 
L 2556 2019 
Q 2556 2363 2490 2533 
Q 2425 2703 2258 2804 
Q 2091 2906 1866 2906 
Q 1506 2906 1245 2678 
Q 984 2450 984 1813 
L 984 0 
L 422 0 
z
" id="ArialMT-6e" transform="scale(0.015625)"/>
      </defs>
      <use xlink:href="#ArialMT-4e"/>
      <use x="72.216797" xlink:href="#ArialMT-65"/>
      <use x="127.832031" xlink:href="#ArialMT-77"/>
      <use x="200.048828" xlink:href="#ArialMT-74"/>
      <use x="227.832031" xlink:href="#ArialMT-6f"/>
      <use x="283.447266" xlink:href="#ArialMT-6e"/>
     </g>
    </g>
    <g id="line2d_62">
     <path d="M 414.509375 34.003125 
L 434.509375 34.003125 
" style="fill:none;stroke:#ff7f0e;stroke-linecap:square;stroke-width:1.5;"/>
    </g>
    <g id="line2d_63"/>
    <g id="text_10">
     <!-- Bisection -->
     <g transform="translate(442.509375 37.503125)scale(0.1 -0.1)">
      <defs>
       <path d="M 469 0 
L 469 4581 
L 2188 4581 
Q 2713 4581 3030 4442 
Q 3347 4303 3526 4014 
Q 3706 3725 3706 3409 
Q 3706 3116 3547 2856 
Q 3388 2597 3066 2438 
Q 3481 2316 3704 2022 
Q 3928 1728 3928 1328 
Q 3928 1006 3792 729 
Q 3656 453 3456 303 
Q 3256 153 2954 76 
Q 2653 0 2216 0 
L 469 0 
z
M 1075 2656 
L 2066 2656 
Q 2469 2656 2644 2709 
Q 2875 2778 2992 2937 
Q 3109 3097 3109 3338 
Q 3109 3566 3000 3739 
Q 2891 3913 2687 3977 
Q 2484 4041 1991 4041 
L 1075 4041 
L 1075 2656 
z
M 1075 541 
L 2216 541 
Q 2509 541 2628 563 
Q 2838 600 2978 687 
Q 3119 775 3209 942 
Q 3300 1109 3300 1328 
Q 3300 1584 3169 1773 
Q 3038 1963 2805 2039 
Q 2572 2116 2134 2116 
L 1075 2116 
L 1075 541 
z
" id="ArialMT-42" transform="scale(0.015625)"/>
       <path d="M 425 3934 
L 425 4581 
L 988 4581 
L 988 3934 
L 425 3934 
z
M 425 0 
L 425 3319 
L 988 3319 
L 988 0 
L 425 0 
z
" id="ArialMT-69" transform="scale(0.015625)"/>
       <path d="M 2588 1216 
L 3141 1144 
Q 3050 572 2676 248 
Q 2303 -75 1759 -75 
Q 1078 -75 664 370 
Q 250 816 250 1647 
Q 250 2184 428 2587 
Q 606 2991 970 3192 
Q 1334 3394 1763 3394 
Q 2303 3394 2647 3120 
Q 2991 2847 3088 2344 
L 2541 2259 
Q 2463 2594 2264 2762 
Q 2066 2931 1784 2931 
Q 1359 2931 1093 2626 
Q 828 2322 828 1663 
Q 828 994 1084 691 
Q 1341 388 1753 388 
Q 2084 388 2306 591 
Q 2528 794 2588 1216 
z
" id="ArialMT-63" transform="scale(0.015625)"/>
      </defs>
      <use xlink:href="#ArialMT-42"/>
      <use x="66.699219" xlink:href="#ArialMT-69"/>
      <use x="88.916016" xlink:href="#ArialMT-73"/>
      <use x="138.916016" xlink:href="#ArialMT-65"/>
      <use x="194.53125" xlink:href="#ArialMT-63"/>
      <use x="244.53125" xlink:href="#ArialMT-74"/>
      <use x="272.314453" xlink:href="#ArialMT-69"/>
      <use x="294.53125" xlink:href="#ArialMT-6f"/>
      <use x="350.146484" xlink:href="#ArialMT-6e"/>
     </g>
    </g>
   </g>
  </g>
  <g id="axes_2">
   <g id="patch_8">
    <path d="M 45.684375 450.72 
L 492.084375 450.72 
L 492.084375 156.511045 
L 45.684375 156.511045 
z
" style="fill:#ffffff;"/>
   </g>
   <g id="matplotlib.axis_3">
    <g id="xtick_7">
     <g id="line2d_64">
      <g>
       <use style="stroke:#000000;stroke-width:0.8;" x="65.764456" xlink:href="#mbce57fc4df" y="450.72"/>
      </g>
     </g>
     <g id="text_11">
      <!-- 0 -->
      <g transform="translate(62.983987 464.877813)scale(0.1 -0.1)">
       <use xlink:href="#ArialMT-30"/>
      </g>
     </g>
    </g>
    <g id="xtick_8">
     <g id="line2d_65">
      <g>
       <use style="stroke:#000000;stroke-width:0.8;" x="146.970286" xlink:href="#mbce57fc4df" y="450.72"/>
      </g>
     </g>
     <g id="text_12">
      <!-- 200 -->
      <g transform="translate(138.628879 464.877813)scale(0.1 -0.1)">
       <defs>
        <path d="M 3222 541 
L 3222 0 
L 194 0 
Q 188 203 259 391 
Q 375 700 629 1000 
Q 884 1300 1366 1694 
Q 2113 2306 2375 2664 
Q 2638 3022 2638 3341 
Q 2638 3675 2398 3904 
Q 2159 4134 1775 4134 
Q 1369 4134 1125 3890 
Q 881 3647 878 3216 
L 300 3275 
Q 359 3922 746 4261 
Q 1134 4600 1788 4600 
Q 2447 4600 2831 4234 
Q 3216 3869 3216 3328 
Q 3216 3053 3103 2787 
Q 2991 2522 2730 2228 
Q 2469 1934 1863 1422 
Q 1356 997 1212 845 
Q 1069 694 975 541 
L 3222 541 
z
" id="ArialMT-32" transform="scale(0.015625)"/>
       </defs>
       <use xlink:href="#ArialMT-32"/>
       <use x="55.615234" xlink:href="#ArialMT-30"/>
       <use x="111.230469" xlink:href="#ArialMT-30"/>
      </g>
     </g>
    </g>
    <g id="xtick_9">
     <g id="line2d_66">
      <g>
       <use style="stroke:#000000;stroke-width:0.8;" x="228.176115" xlink:href="#mbce57fc4df" y="450.72"/>
      </g>
     </g>
     <g id="text_13">
      <!-- 400 -->
      <g transform="translate(219.834709 464.877813)scale(0.1 -0.1)">
       <use xlink:href="#ArialMT-34"/>
       <use x="55.615234" xlink:href="#ArialMT-30"/>
       <use x="111.230469" xlink:href="#ArialMT-30"/>
      </g>
     </g>
    </g>
    <g id="xtick_10">
     <g id="line2d_67">
      <g>
       <use style="stroke:#000000;stroke-width:0.8;" x="309.381945" xlink:href="#mbce57fc4df" y="450.72"/>
      </g>
     </g>
     <g id="text_14">
      <!-- 600 -->
      <g transform="translate(301.040539 464.877813)scale(0.1 -0.1)">
       <use xlink:href="#ArialMT-36"/>
       <use x="55.615234" xlink:href="#ArialMT-30"/>
       <use x="111.230469" xlink:href="#ArialMT-30"/>
      </g>
     </g>
    </g>
    <g id="xtick_11">
     <g id="line2d_68">
      <g>
       <use style="stroke:#000000;stroke-width:0.8;" x="390.587775" xlink:href="#mbce57fc4df" y="450.72"/>
      </g>
     </g>
     <g id="text_15">
      <!-- 800 -->
      <g transform="translate(382.246369 464.877813)scale(0.1 -0.1)">
       <use xlink:href="#ArialMT-38"/>
       <use x="55.615234" xlink:href="#ArialMT-30"/>
       <use x="111.230469" xlink:href="#ArialMT-30"/>
      </g>
     </g>
    </g>
    <g id="xtick_12">
     <g id="line2d_69">
      <g>
       <use style="stroke:#000000;stroke-width:0.8;" x="471.793605" xlink:href="#mbce57fc4df" y="450.72"/>
      </g>
     </g>
     <g id="text_16">
      <!-- 1000 -->
      <g transform="translate(460.67173 464.877813)scale(0.1 -0.1)">
       <use xlink:href="#ArialMT-31"/>
       <use x="55.615234" xlink:href="#ArialMT-30"/>
       <use x="111.230469" xlink:href="#ArialMT-30"/>
       <use x="166.845703" xlink:href="#ArialMT-30"/>
      </g>
     </g>
    </g>
    <g id="text_17">
     <!-- Temperature ($^{\circ}$C) -->
     <g transform="translate(229.634375 478.165313)scale(0.1 -0.1)">
      <defs>
       <path d="M 1659 0 
L 1659 4041 
L 150 4041 
L 150 4581 
L 3781 4581 
L 3781 4041 
L 2266 4041 
L 2266 0 
L 1659 0 
z
" id="ArialMT-54" transform="scale(0.015625)"/>
       <path d="M 422 0 
L 422 3319 
L 925 3319 
L 925 2853 
Q 1081 3097 1340 3245 
Q 1600 3394 1931 3394 
Q 2300 3394 2536 3241 
Q 2772 3088 2869 2813 
Q 3263 3394 3894 3394 
Q 4388 3394 4653 3120 
Q 4919 2847 4919 2278 
L 4919 0 
L 4359 0 
L 4359 2091 
Q 4359 2428 4304 2576 
Q 4250 2725 4106 2815 
Q 3963 2906 3769 2906 
Q 3419 2906 3187 2673 
Q 2956 2441 2956 1928 
L 2956 0 
L 2394 0 
L 2394 2156 
Q 2394 2531 2256 2718 
Q 2119 2906 1806 2906 
Q 1569 2906 1367 2781 
Q 1166 2656 1075 2415 
Q 984 2175 984 1722 
L 984 0 
L 422 0 
z
" id="ArialMT-6d" transform="scale(0.015625)"/>
       <path d="M 422 -1272 
L 422 3319 
L 934 3319 
L 934 2888 
Q 1116 3141 1344 3267 
Q 1572 3394 1897 3394 
Q 2322 3394 2647 3175 
Q 2972 2956 3137 2557 
Q 3303 2159 3303 1684 
Q 3303 1175 3120 767 
Q 2938 359 2589 142 
Q 2241 -75 1856 -75 
Q 1575 -75 1351 44 
Q 1128 163 984 344 
L 984 -1272 
L 422 -1272 
z
M 931 1641 
Q 931 1000 1190 694 
Q 1450 388 1819 388 
Q 2194 388 2461 705 
Q 2728 1022 2728 1688 
Q 2728 2322 2467 2637 
Q 2206 2953 1844 2953 
Q 1484 2953 1207 2617 
Q 931 2281 931 1641 
z
" id="ArialMT-70" transform="scale(0.015625)"/>
       <path d="M 1600 359 
Q 1269 359 983 526 
Q 697 694 528 984 
Q 359 1275 359 1600 
Q 359 1925 528 2215 
Q 697 2506 983 2673 
Q 1269 2841 1600 2841 
Q 1931 2841 2215 2672 
Q 2500 2503 2667 2214 
Q 2834 1925 2834 1600 
Q 2834 1275 2667 986 
Q 2500 697 2215 528 
Q 1931 359 1600 359 
z
M 1600 616 
Q 2000 616 2289 908 
Q 2578 1200 2578 1600 
Q 2578 1856 2445 2086 
Q 2313 2316 2088 2450 
Q 1863 2584 1600 2584 
Q 1403 2584 1225 2507 
Q 1047 2431 906 2290 
Q 766 2150 691 1973 
Q 616 1797 616 1600 
Q 616 1200 905 908 
Q 1194 616 1600 616 
z
" id="Cmsy10-b1" transform="scale(0.015625)"/>
       <path d="M 3763 1606 
L 4369 1453 
Q 4178 706 3683 314 
Q 3188 -78 2472 -78 
Q 1731 -78 1267 223 
Q 803 525 561 1097 
Q 319 1669 319 2325 
Q 319 3041 592 3573 
Q 866 4106 1370 4382 
Q 1875 4659 2481 4659 
Q 3169 4659 3637 4309 
Q 4106 3959 4291 3325 
L 3694 3184 
Q 3534 3684 3231 3912 
Q 2928 4141 2469 4141 
Q 1941 4141 1586 3887 
Q 1231 3634 1087 3207 
Q 944 2781 944 2328 
Q 944 1744 1114 1308 
Q 1284 872 1643 656 
Q 2003 441 2422 441 
Q 2931 441 3284 734 
Q 3638 1028 3763 1606 
z
" id="ArialMT-43" transform="scale(0.015625)"/>
      </defs>
      <use transform="translate(0 0.203125)" xlink:href="#ArialMT-54"/>
      <use transform="translate(61.083984 0.203125)" xlink:href="#ArialMT-65"/>
      <use transform="translate(116.699219 0.203125)" xlink:href="#ArialMT-6d"/>
      <use transform="translate(200 0.203125)" xlink:href="#ArialMT-70"/>
      <use transform="translate(255.615234 0.203125)" xlink:href="#ArialMT-65"/>
      <use transform="translate(311.230469 0.203125)" xlink:href="#ArialMT-72"/>
      <use transform="translate(344.53125 0.203125)" xlink:href="#ArialMT-61"/>
      <use transform="translate(400.146484 0.203125)" xlink:href="#ArialMT-74"/>
      <use transform="translate(427.929688 0.203125)" xlink:href="#ArialMT-75"/>
      <use transform="translate(483.544922 0.203125)" xlink:href="#ArialMT-72"/>
      <use transform="translate(516.845703 0.203125)" xlink:href="#ArialMT-65"/>
      <use transform="translate(572.460938 0.203125)" xlink:href="#ArialMT-20"/>
      <use transform="translate(600.244141 0.203125)" xlink:href="#ArialMT-28"/>
      <use transform="translate(638.009063 38.467188)scale(0.7)" xlink:href="#Cmsy10-b1"/>
      <use transform="translate(679.386406 0.203125)" xlink:href="#ArialMT-43"/>
      <use transform="translate(751.603203 0.203125)" xlink:href="#ArialMT-29"/>
     </g>
    </g>
   </g>
   <g id="matplotlib.axis_4">
    <g id="ytick_52">
     <g id="line2d_70">
      <g>
       <use style="stroke:#000000;stroke-width:0.8;" x="45.684375" xlink:href="#m9a1860b7b6" y="410.098345"/>
      </g>
     </g>
     <g id="text_18">
      <!-- $\mathdefault{10^{4}}$ -->
      <g transform="translate(22.984375 415.204595)scale(0.1 -0.1)">
       <use transform="translate(0 0.201563)" xlink:href="#ArialMT-31"/>
       <use transform="translate(55.615234 0.201563)" xlink:href="#ArialMT-30"/>
       <use transform="translate(112.972813 69.895313)scale(0.7)" xlink:href="#ArialMT-34"/>
      </g>
     </g>
    </g>
    <g id="ytick_53">
     <g id="line2d_71">
      <g>
       <use style="stroke:#000000;stroke-width:0.8;" x="45.684375" xlink:href="#m9a1860b7b6" y="354.682925"/>
      </g>
     </g>
     <g id="text_19">
      <!-- $\mathdefault{10^{5}}$ -->
      <g transform="translate(22.984375 359.789175)scale(0.1 -0.1)">
       <use transform="translate(0 0.879688)" xlink:href="#ArialMT-31"/>
       <use transform="translate(55.615234 0.879688)" xlink:href="#ArialMT-30"/>
       <use transform="translate(112.972813 70.573438)scale(0.7)" xlink:href="#ArialMT-35"/>
      </g>
     </g>
    </g>
    <g id="ytick_54">
     <g id="line2d_72">
      <g>
       <use style="stroke:#000000;stroke-width:0.8;" x="45.684375" xlink:href="#m9a1860b7b6" y="299.267506"/>
      </g>
     </g>
     <g id="text_20">
      <!-- $\mathdefault{10^{6}}$ -->
      <g transform="translate(22.984375 304.423756)scale(0.1 -0.1)">
       <use transform="translate(0 0.99375)" xlink:href="#ArialMT-31"/>
       <use transform="translate(55.615234 0.99375)" xlink:href="#ArialMT-30"/>
       <use transform="translate(112.972813 70.6875)scale(0.7)" xlink:href="#ArialMT-36"/>
      </g>
     </g>
    </g>
    <g id="ytick_55">
     <g id="line2d_73">
      <g>
       <use style="stroke:#000000;stroke-width:0.8;" x="45.684375" xlink:href="#m9a1860b7b6" y="243.852086"/>
      </g>
     </g>
     <g id="text_21">
      <!-- $\mathdefault{10^{7}}$ -->
      <g transform="translate(22.984375 248.958336)scale(0.1 -0.1)">
       <use transform="translate(0 0.846875)" xlink:href="#ArialMT-31"/>
       <use transform="translate(55.615234 0.846875)" xlink:href="#ArialMT-30"/>
       <use transform="translate(112.972813 70.540625)scale(0.7)" xlink:href="#ArialMT-37"/>
      </g>
     </g>
    </g>
    <g id="ytick_56">
     <g id="line2d_74">
      <g>
       <use style="stroke:#000000;stroke-width:0.8;" x="45.684375" xlink:href="#m9a1860b7b6" y="188.436666"/>
      </g>
     </g>
     <g id="text_22">
      <!-- $\mathdefault{10^{8}}$ -->
      <g transform="translate(22.984375 193.592916)scale(0.1 -0.1)">
       <use transform="translate(0 0.99375)" xlink:href="#ArialMT-31"/>
       <use transform="translate(55.615234 0.99375)" xlink:href="#ArialMT-30"/>
       <use transform="translate(112.972813 70.6875)scale(0.7)" xlink:href="#ArialMT-38"/>
      </g>
     </g>
    </g>
    <g id="ytick_57">
     <g id="line2d_75">
      <g>
       <use style="stroke:#000000;stroke-width:0.6;" x="45.684375" xlink:href="#m4d7b51b70c" y="448.832061"/>
      </g>
     </g>
    </g>
    <g id="ytick_58">
     <g id="line2d_76">
      <g>
       <use style="stroke:#000000;stroke-width:0.6;" x="45.684375" xlink:href="#m4d7b51b70c" y="439.07389"/>
      </g>
     </g>
    </g>
    <g id="ytick_59">
     <g id="line2d_77">
      <g>
       <use style="stroke:#000000;stroke-width:0.6;" x="45.684375" xlink:href="#m4d7b51b70c" y="432.150357"/>
      </g>
     </g>
    </g>
    <g id="ytick_60">
     <g id="line2d_78">
      <g>
       <use style="stroke:#000000;stroke-width:0.6;" x="45.684375" xlink:href="#m4d7b51b70c" y="426.780048"/>
      </g>
     </g>
    </g>
    <g id="ytick_61">
     <g id="line2d_79">
      <g>
       <use style="stroke:#000000;stroke-width:0.6;" x="45.684375" xlink:href="#m4d7b51b70c" y="422.392186"/>
      </g>
     </g>
    </g>
    <g id="ytick_62">
     <g id="line2d_80">
      <g>
       <use style="stroke:#000000;stroke-width:0.6;" x="45.684375" xlink:href="#m4d7b51b70c" y="418.682302"/>
      </g>
     </g>
    </g>
    <g id="ytick_63">
     <g id="line2d_81">
      <g>
       <use style="stroke:#000000;stroke-width:0.6;" x="45.684375" xlink:href="#m4d7b51b70c" y="415.468654"/>
      </g>
     </g>
    </g>
    <g id="ytick_64">
     <g id="line2d_82">
      <g>
       <use style="stroke:#000000;stroke-width:0.6;" x="45.684375" xlink:href="#m4d7b51b70c" y="412.634015"/>
      </g>
     </g>
    </g>
    <g id="ytick_65">
     <g id="line2d_83">
      <g>
       <use style="stroke:#000000;stroke-width:0.6;" x="45.684375" xlink:href="#m4d7b51b70c" y="393.416641"/>
      </g>
     </g>
    </g>
    <g id="ytick_66">
     <g id="line2d_84">
      <g>
       <use style="stroke:#000000;stroke-width:0.6;" x="45.684375" xlink:href="#m4d7b51b70c" y="383.65847"/>
      </g>
     </g>
    </g>
    <g id="ytick_67">
     <g id="line2d_85">
      <g>
       <use style="stroke:#000000;stroke-width:0.6;" x="45.684375" xlink:href="#m4d7b51b70c" y="376.734938"/>
      </g>
     </g>
    </g>
    <g id="ytick_68">
     <g id="line2d_86">
      <g>
       <use style="stroke:#000000;stroke-width:0.6;" x="45.684375" xlink:href="#m4d7b51b70c" y="371.364629"/>
      </g>
     </g>
    </g>
    <g id="ytick_69">
     <g id="line2d_87">
      <g>
       <use style="stroke:#000000;stroke-width:0.6;" x="45.684375" xlink:href="#m4d7b51b70c" y="366.976767"/>
      </g>
     </g>
    </g>
    <g id="ytick_70">
     <g id="line2d_88">
      <g>
       <use style="stroke:#000000;stroke-width:0.6;" x="45.684375" xlink:href="#m4d7b51b70c" y="363.266882"/>
      </g>
     </g>
    </g>
    <g id="ytick_71">
     <g id="line2d_89">
      <g>
       <use style="stroke:#000000;stroke-width:0.6;" x="45.684375" xlink:href="#m4d7b51b70c" y="360.053234"/>
      </g>
     </g>
    </g>
    <g id="ytick_72">
     <g id="line2d_90">
      <g>
       <use style="stroke:#000000;stroke-width:0.6;" x="45.684375" xlink:href="#m4d7b51b70c" y="357.218596"/>
      </g>
     </g>
    </g>
    <g id="ytick_73">
     <g id="line2d_91">
      <g>
       <use style="stroke:#000000;stroke-width:0.6;" x="45.684375" xlink:href="#m4d7b51b70c" y="338.001222"/>
      </g>
     </g>
    </g>
    <g id="ytick_74">
     <g id="line2d_92">
      <g>
       <use style="stroke:#000000;stroke-width:0.6;" x="45.684375" xlink:href="#m4d7b51b70c" y="328.243051"/>
      </g>
     </g>
    </g>
    <g id="ytick_75">
     <g id="line2d_93">
      <g>
       <use style="stroke:#000000;stroke-width:0.6;" x="45.684375" xlink:href="#m4d7b51b70c" y="321.319518"/>
      </g>
     </g>
    </g>
    <g id="ytick_76">
     <g id="line2d_94">
      <g>
       <use style="stroke:#000000;stroke-width:0.6;" x="45.684375" xlink:href="#m4d7b51b70c" y="315.949209"/>
      </g>
     </g>
    </g>
    <g id="ytick_77">
     <g id="line2d_95">
      <g>
       <use style="stroke:#000000;stroke-width:0.6;" x="45.684375" xlink:href="#m4d7b51b70c" y="311.561347"/>
      </g>
     </g>
    </g>
    <g id="ytick_78">
     <g id="line2d_96">
      <g>
       <use style="stroke:#000000;stroke-width:0.6;" x="45.684375" xlink:href="#m4d7b51b70c" y="307.851463"/>
      </g>
     </g>
    </g>
    <g id="ytick_79">
     <g id="line2d_97">
      <g>
       <use style="stroke:#000000;stroke-width:0.6;" x="45.684375" xlink:href="#m4d7b51b70c" y="304.637815"/>
      </g>
     </g>
    </g>
    <g id="ytick_80">
     <g id="line2d_98">
      <g>
       <use style="stroke:#000000;stroke-width:0.6;" x="45.684375" xlink:href="#m4d7b51b70c" y="301.803176"/>
      </g>
     </g>
    </g>
    <g id="ytick_81">
     <g id="line2d_99">
      <g>
       <use style="stroke:#000000;stroke-width:0.6;" x="45.684375" xlink:href="#m4d7b51b70c" y="282.585802"/>
      </g>
     </g>
    </g>
    <g id="ytick_82">
     <g id="line2d_100">
      <g>
       <use style="stroke:#000000;stroke-width:0.6;" x="45.684375" xlink:href="#m4d7b51b70c" y="272.827631"/>
      </g>
     </g>
    </g>
    <g id="ytick_83">
     <g id="line2d_101">
      <g>
       <use style="stroke:#000000;stroke-width:0.6;" x="45.684375" xlink:href="#m4d7b51b70c" y="265.904098"/>
      </g>
     </g>
    </g>
    <g id="ytick_84">
     <g id="line2d_102">
      <g>
       <use style="stroke:#000000;stroke-width:0.6;" x="45.684375" xlink:href="#m4d7b51b70c" y="260.533789"/>
      </g>
     </g>
    </g>
    <g id="ytick_85">
     <g id="line2d_103">
      <g>
       <use style="stroke:#000000;stroke-width:0.6;" x="45.684375" xlink:href="#m4d7b51b70c" y="256.145927"/>
      </g>
     </g>
    </g>
    <g id="ytick_86">
     <g id="line2d_104">
      <g>
       <use style="stroke:#000000;stroke-width:0.6;" x="45.684375" xlink:href="#m4d7b51b70c" y="252.436043"/>
      </g>
     </g>
    </g>
    <g id="ytick_87">
     <g id="line2d_105">
      <g>
       <use style="stroke:#000000;stroke-width:0.6;" x="45.684375" xlink:href="#m4d7b51b70c" y="249.222395"/>
      </g>
     </g>
    </g>
    <g id="ytick_88">
     <g id="line2d_106">
      <g>
       <use style="stroke:#000000;stroke-width:0.6;" x="45.684375" xlink:href="#m4d7b51b70c" y="246.387756"/>
      </g>
     </g>
    </g>
    <g id="ytick_89">
     <g id="line2d_107">
      <g>
       <use style="stroke:#000000;stroke-width:0.6;" x="45.684375" xlink:href="#m4d7b51b70c" y="227.170382"/>
      </g>
     </g>
    </g>
    <g id="ytick_90">
     <g id="line2d_108">
      <g>
       <use style="stroke:#000000;stroke-width:0.6;" x="45.684375" xlink:href="#m4d7b51b70c" y="217.412211"/>
      </g>
     </g>
    </g>
    <g id="ytick_91">
     <g id="line2d_109">
      <g>
       <use style="stroke:#000000;stroke-width:0.6;" x="45.684375" xlink:href="#m4d7b51b70c" y="210.488679"/>
      </g>
     </g>
    </g>
    <g id="ytick_92">
     <g id="line2d_110">
      <g>
       <use style="stroke:#000000;stroke-width:0.6;" x="45.684375" xlink:href="#m4d7b51b70c" y="205.11837"/>
      </g>
     </g>
    </g>
    <g id="ytick_93">
     <g id="line2d_111">
      <g>
       <use style="stroke:#000000;stroke-width:0.6;" x="45.684375" xlink:href="#m4d7b51b70c" y="200.730508"/>
      </g>
     </g>
    </g>
    <g id="ytick_94">
     <g id="line2d_112">
      <g>
       <use style="stroke:#000000;stroke-width:0.6;" x="45.684375" xlink:href="#m4d7b51b70c" y="197.020623"/>
      </g>
     </g>
    </g>
    <g id="ytick_95">
     <g id="line2d_113">
      <g>
       <use style="stroke:#000000;stroke-width:0.6;" x="45.684375" xlink:href="#m4d7b51b70c" y="193.806975"/>
      </g>
     </g>
    </g>
    <g id="ytick_96">
     <g id="line2d_114">
      <g>
       <use style="stroke:#000000;stroke-width:0.6;" x="45.684375" xlink:href="#m4d7b51b70c" y="190.972337"/>
      </g>
     </g>
    </g>
    <g id="ytick_97">
     <g id="line2d_115">
      <g>
       <use style="stroke:#000000;stroke-width:0.6;" x="45.684375" xlink:href="#m4d7b51b70c" y="171.754963"/>
      </g>
     </g>
    </g>
    <g id="ytick_98">
     <g id="line2d_116">
      <g>
       <use style="stroke:#000000;stroke-width:0.6;" x="45.684375" xlink:href="#m4d7b51b70c" y="161.996792"/>
      </g>
     </g>
    </g>
    <g id="text_23">
     <!-- Pressure (Pa) -->
     <g transform="translate(16.879687 334.456147)rotate(-90)scale(0.1 -0.1)">
      <use xlink:href="#ArialMT-50"/>
      <use x="66.699219" xlink:href="#ArialMT-72"/>
      <use x="100" xlink:href="#ArialMT-65"/>
      <use x="155.615234" xlink:href="#ArialMT-73"/>
      <use x="205.615234" xlink:href="#ArialMT-73"/>
      <use x="255.615234" xlink:href="#ArialMT-75"/>
      <use x="311.230469" xlink:href="#ArialMT-72"/>
      <use x="344.53125" xlink:href="#ArialMT-65"/>
      <use x="400.146484" xlink:href="#ArialMT-20"/>
      <use x="427.929688" xlink:href="#ArialMT-28"/>
      <use x="461.230469" xlink:href="#ArialMT-50"/>
      <use x="527.929688" xlink:href="#ArialMT-61"/>
      <use x="583.544922" xlink:href="#ArialMT-29"/>
     </g>
    </g>
   </g>
   <g id="line2d_117">
    <path clip-path="url(#p23968c8e90)" d="M 65.975284 437.346866 
L 67.00898 433.314765 
L 68.338427 429.282664 
L 69.972274 425.250563 
L 77.069654 409.12216 
L 80.175514 401.057958 
L 90.784657 372.833253 
L 94.111536 364.769051 
L 97.670101 356.70485 
L 101.499715 348.640648 
L 104.923011 341.92048 
L 108.576167 335.200312 
L 112.475225 328.480144 
L 116.634806 321.759976 
L 121.068417 315.039808 
L 125.788863 308.31964 
L 130.808783 301.599472 
L 136.141323 294.879304 
L 141.80096 288.159136 
L 147.804475 281.438968 
L 154.172156 274.7188 
L 159.545313 269.342666 
L 165.183817 263.966531 
L 171.107861 258.590397 
L 177.343249 253.214262 
L 183.924014 247.838128 
L 190.897013 242.461994 
L 198.330586 237.085859 
L 204.270065 233.053758 
L 210.594386 229.021658 
L 219.52959 223.645523 
L 224.358121 220.957456 
L 232.309298 216.925355 
L 240.821669 212.893254 
L 249.894677 208.861154 
L 256.357802 206.173086 
L 263.282309 203.485019 
L 270.847432 200.796952 
L 279.315266 198.108885 
L 288.844577 195.420818 
L 299.577606 192.73275 
L 311.678317 190.044683 
L 325.336533 187.356616 
L 340.773121 184.668549 
L 358.24659 181.980482 
L 378.061613 179.292414 
L 400.580254 176.604347 
L 426.237061 173.91628 
L 455.559859 171.228213 
L 471.793466 169.884179 
L 471.793466 169.884179 
" style="fill:none;stroke:#1f77b4;stroke-linecap:square;stroke-width:3;"/>
    <defs>
     <path d="M 0 1.5 
C 0.397805 1.5 0.77937 1.341951 1.06066 1.06066 
C 1.341951 0.77937 1.5 0.397805 1.5 0 
C 1.5 -0.397805 1.341951 -0.77937 1.06066 -1.06066 
C 0.77937 -1.341951 0.397805 -1.5 0 -1.5 
C -0.397805 -1.5 -0.77937 -1.341951 -1.06066 -1.06066 
C -1.341951 -0.77937 -1.5 -0.397805 -1.5 0 
C -1.5 0.397805 -1.341951 0.77937 -1.06066 1.06066 
C -0.77937 1.341951 -0.397805 1.5 0 1.5 
z
" id="m3b061d945c" style="stroke:#1f77b4;"/>
    </defs>
    <g clip-path="url(#p23968c8e90)">
     <use style="fill:#1f77b4;stroke:#1f77b4;" x="65.975284" xlink:href="#m3b061d945c" y="437.346866"/>
     <use style="fill:#1f77b4;stroke:#1f77b4;" x="66.290438" xlink:href="#m3b061d945c" y="436.002832"/>
     <use style="fill:#1f77b4;stroke:#1f77b4;" x="66.634193" xlink:href="#m3b061d945c" y="434.658798"/>
     <use style="fill:#1f77b4;stroke:#1f77b4;" x="67.00898" xlink:href="#m3b061d945c" y="433.314765"/>
     <use style="fill:#1f77b4;stroke:#1f77b4;" x="67.416997" xlink:href="#m3b061d945c" y="431.970731"/>
     <use style="fill:#1f77b4;stroke:#1f77b4;" x="67.859903" xlink:href="#m3b061d945c" y="430.626698"/>
     <use style="fill:#1f77b4;stroke:#1f77b4;" x="68.338427" xlink:href="#m3b061d945c" y="429.282664"/>
     <use style="fill:#1f77b4;stroke:#1f77b4;" x="68.851924" xlink:href="#m3b061d945c" y="427.93863"/>
     <use style="fill:#1f77b4;stroke:#1f77b4;" x="69.397983" xlink:href="#m3b061d945c" y="426.594597"/>
     <use style="fill:#1f77b4;stroke:#1f77b4;" x="69.972274" xlink:href="#m3b061d945c" y="425.250563"/>
     <use style="fill:#1f77b4;stroke:#1f77b4;" x="70.568763" xlink:href="#m3b061d945c" y="423.90653"/>
     <use style="fill:#1f77b4;stroke:#1f77b4;" x="71.18036" xlink:href="#m3b061d945c" y="422.562496"/>
     <use style="fill:#1f77b4;stroke:#1f77b4;" x="71.799806" xlink:href="#m3b061d945c" y="421.218462"/>
     <use style="fill:#1f77b4;stroke:#1f77b4;" x="72.420542" xlink:href="#m3b061d945c" y="419.874429"/>
     <use style="fill:#1f77b4;stroke:#1f77b4;" x="73.037287" xlink:href="#m3b061d945c" y="418.530395"/>
     <use style="fill:#1f77b4;stroke:#1f77b4;" x="73.646257" xlink:href="#m3b061d945c" y="417.186362"/>
     <use style="fill:#1f77b4;stroke:#1f77b4;" x="74.245082" xlink:href="#m3b061d945c" y="415.842328"/>
     <use style="fill:#1f77b4;stroke:#1f77b4;" x="74.832549" xlink:href="#m3b061d945c" y="414.498294"/>
     <use style="fill:#1f77b4;stroke:#1f77b4;" x="75.408317" xlink:href="#m3b061d945c" y="413.154261"/>
     <use style="fill:#1f77b4;stroke:#1f77b4;" x="75.972635" xlink:href="#m3b061d945c" y="411.810227"/>
     <use style="fill:#1f77b4;stroke:#1f77b4;" x="76.526132" xlink:href="#m3b061d945c" y="410.466194"/>
     <use style="fill:#1f77b4;stroke:#1f77b4;" x="77.069654" xlink:href="#m3b061d945c" y="409.12216"/>
     <use style="fill:#1f77b4;stroke:#1f77b4;" x="77.60416" xlink:href="#m3b061d945c" y="407.778126"/>
     <use style="fill:#1f77b4;stroke:#1f77b4;" x="78.130643" xlink:href="#m3b061d945c" y="406.434093"/>
     <use style="fill:#1f77b4;stroke:#1f77b4;" x="78.650091" xlink:href="#m3b061d945c" y="405.090059"/>
     <use style="fill:#1f77b4;stroke:#1f77b4;" x="79.163458" xlink:href="#m3b061d945c" y="403.746026"/>
     <use style="fill:#1f77b4;stroke:#1f77b4;" x="79.671649" xlink:href="#m3b061d945c" y="402.401992"/>
     <use style="fill:#1f77b4;stroke:#1f77b4;" x="80.175514" xlink:href="#m3b061d945c" y="401.057958"/>
     <use style="fill:#1f77b4;stroke:#1f77b4;" x="80.675849" xlink:href="#m3b061d945c" y="399.713925"/>
     <use style="fill:#1f77b4;stroke:#1f77b4;" x="81.17339" xlink:href="#m3b061d945c" y="398.369891"/>
     <use style="fill:#1f77b4;stroke:#1f77b4;" x="81.668823" xlink:href="#m3b061d945c" y="397.025858"/>
     <use style="fill:#1f77b4;stroke:#1f77b4;" x="82.162785" xlink:href="#m3b061d945c" y="395.681824"/>
     <use style="fill:#1f77b4;stroke:#1f77b4;" x="82.655867" xlink:href="#m3b061d945c" y="394.33779"/>
     <use style="fill:#1f77b4;stroke:#1f77b4;" x="83.148617" xlink:href="#m3b061d945c" y="392.993757"/>
     <use style="fill:#1f77b4;stroke:#1f77b4;" x="83.641548" xlink:href="#m3b061d945c" y="391.649723"/>
     <use style="fill:#1f77b4;stroke:#1f77b4;" x="84.135138" xlink:href="#m3b061d945c" y="390.30569"/>
     <use style="fill:#1f77b4;stroke:#1f77b4;" x="84.629834" xlink:href="#m3b061d945c" y="388.961656"/>
     <use style="fill:#1f77b4;stroke:#1f77b4;" x="85.126057" xlink:href="#m3b061d945c" y="387.617622"/>
     <use style="fill:#1f77b4;stroke:#1f77b4;" x="85.6242" xlink:href="#m3b061d945c" y="386.273589"/>
     <use style="fill:#1f77b4;stroke:#1f77b4;" x="86.124637" xlink:href="#m3b061d945c" y="384.929555"/>
     <use style="fill:#1f77b4;stroke:#1f77b4;" x="86.627721" xlink:href="#m3b061d945c" y="383.585522"/>
     <use style="fill:#1f77b4;stroke:#1f77b4;" x="87.133785" xlink:href="#m3b061d945c" y="382.241488"/>
     <use style="fill:#1f77b4;stroke:#1f77b4;" x="87.643147" xlink:href="#m3b061d945c" y="380.897454"/>
     <use style="fill:#1f77b4;stroke:#1f77b4;" x="88.15611" xlink:href="#m3b061d945c" y="379.553421"/>
     <use style="fill:#1f77b4;stroke:#1f77b4;" x="88.672963" xlink:href="#m3b061d945c" y="378.209387"/>
     <use style="fill:#1f77b4;stroke:#1f77b4;" x="89.193984" xlink:href="#m3b061d945c" y="376.865354"/>
     <use style="fill:#1f77b4;stroke:#1f77b4;" x="89.719438" xlink:href="#m3b061d945c" y="375.52132"/>
     <use style="fill:#1f77b4;stroke:#1f77b4;" x="90.24958" xlink:href="#m3b061d945c" y="374.177286"/>
     <use style="fill:#1f77b4;stroke:#1f77b4;" x="90.784657" xlink:href="#m3b061d945c" y="372.833253"/>
     <use style="fill:#1f77b4;stroke:#1f77b4;" x="91.324907" xlink:href="#m3b061d945c" y="371.489219"/>
     <use style="fill:#1f77b4;stroke:#1f77b4;" x="91.870559" xlink:href="#m3b061d945c" y="370.145186"/>
     <use style="fill:#1f77b4;stroke:#1f77b4;" x="92.421835" xlink:href="#m3b061d945c" y="368.801152"/>
     <use style="fill:#1f77b4;stroke:#1f77b4;" x="92.978951" xlink:href="#m3b061d945c" y="367.457118"/>
     <use style="fill:#1f77b4;stroke:#1f77b4;" x="93.542117" xlink:href="#m3b061d945c" y="366.113085"/>
     <use style="fill:#1f77b4;stroke:#1f77b4;" x="94.111536" xlink:href="#m3b061d945c" y="364.769051"/>
     <use style="fill:#1f77b4;stroke:#1f77b4;" x="94.687405" xlink:href="#m3b061d945c" y="363.425018"/>
     <use style="fill:#1f77b4;stroke:#1f77b4;" x="95.269919" xlink:href="#m3b061d945c" y="362.080984"/>
     <use style="fill:#1f77b4;stroke:#1f77b4;" x="95.859263" xlink:href="#m3b061d945c" y="360.73695"/>
     <use style="fill:#1f77b4;stroke:#1f77b4;" x="96.455623" xlink:href="#m3b061d945c" y="359.392917"/>
     <use style="fill:#1f77b4;stroke:#1f77b4;" x="97.059178" xlink:href="#m3b061d945c" y="358.048883"/>
     <use style="fill:#1f77b4;stroke:#1f77b4;" x="97.670101" xlink:href="#m3b061d945c" y="356.70485"/>
     <use style="fill:#1f77b4;stroke:#1f77b4;" x="98.288564" xlink:href="#m3b061d945c" y="355.360816"/>
     <use style="fill:#1f77b4;stroke:#1f77b4;" x="98.914735" xlink:href="#m3b061d945c" y="354.016782"/>
     <use style="fill:#1f77b4;stroke:#1f77b4;" x="99.548777" xlink:href="#m3b061d945c" y="352.672749"/>
     <use style="fill:#1f77b4;stroke:#1f77b4;" x="100.19085" xlink:href="#m3b061d945c" y="351.328715"/>
     <use style="fill:#1f77b4;stroke:#1f77b4;" x="100.841112" xlink:href="#m3b061d945c" y="349.984682"/>
     <use style="fill:#1f77b4;stroke:#1f77b4;" x="101.499715" xlink:href="#m3b061d945c" y="348.640648"/>
     <use style="fill:#1f77b4;stroke:#1f77b4;" x="102.16681" xlink:href="#m3b061d945c" y="347.296614"/>
     <use style="fill:#1f77b4;stroke:#1f77b4;" x="102.842544" xlink:href="#m3b061d945c" y="345.952581"/>
     <use style="fill:#1f77b4;stroke:#1f77b4;" x="103.527062" xlink:href="#m3b061d945c" y="344.608547"/>
     <use style="fill:#1f77b4;stroke:#1f77b4;" x="104.220505" xlink:href="#m3b061d945c" y="343.264514"/>
     <use style="fill:#1f77b4;stroke:#1f77b4;" x="104.923011" xlink:href="#m3b061d945c" y="341.92048"/>
     <use style="fill:#1f77b4;stroke:#1f77b4;" x="105.634718" xlink:href="#m3b061d945c" y="340.576446"/>
     <use style="fill:#1f77b4;stroke:#1f77b4;" x="106.355757" xlink:href="#m3b061d945c" y="339.232413"/>
     <use style="fill:#1f77b4;stroke:#1f77b4;" x="107.08626" xlink:href="#m3b061d945c" y="337.888379"/>
     <use style="fill:#1f77b4;stroke:#1f77b4;" x="107.826355" xlink:href="#m3b061d945c" y="336.544346"/>
     <use style="fill:#1f77b4;stroke:#1f77b4;" x="108.576167" xlink:href="#m3b061d945c" y="335.200312"/>
     <use style="fill:#1f77b4;stroke:#1f77b4;" x="109.33582" xlink:href="#m3b061d945c" y="333.856278"/>
     <use style="fill:#1f77b4;stroke:#1f77b4;" x="110.105434" xlink:href="#m3b061d945c" y="332.512245"/>
     <use style="fill:#1f77b4;stroke:#1f77b4;" x="110.885129" xlink:href="#m3b061d945c" y="331.168211"/>
     <use style="fill:#1f77b4;stroke:#1f77b4;" x="111.675021" xlink:href="#m3b061d945c" y="329.824178"/>
     <use style="fill:#1f77b4;stroke:#1f77b4;" x="112.475225" xlink:href="#m3b061d945c" y="328.480144"/>
     <use style="fill:#1f77b4;stroke:#1f77b4;" x="113.285853" xlink:href="#m3b061d945c" y="327.13611"/>
     <use style="fill:#1f77b4;stroke:#1f77b4;" x="114.107017" xlink:href="#m3b061d945c" y="325.792077"/>
     <use style="fill:#1f77b4;stroke:#1f77b4;" x="114.938825" xlink:href="#m3b061d945c" y="324.448043"/>
     <use style="fill:#1f77b4;stroke:#1f77b4;" x="115.781386" xlink:href="#m3b061d945c" y="323.10401"/>
     <use style="fill:#1f77b4;stroke:#1f77b4;" x="116.634806" xlink:href="#m3b061d945c" y="321.759976"/>
     <use style="fill:#1f77b4;stroke:#1f77b4;" x="117.499189" xlink:href="#m3b061d945c" y="320.415942"/>
     <use style="fill:#1f77b4;stroke:#1f77b4;" x="118.374639" xlink:href="#m3b061d945c" y="319.071909"/>
     <use style="fill:#1f77b4;stroke:#1f77b4;" x="119.261259" xlink:href="#m3b061d945c" y="317.727875"/>
     <use style="fill:#1f77b4;stroke:#1f77b4;" x="120.159152" xlink:href="#m3b061d945c" y="316.383842"/>
     <use style="fill:#1f77b4;stroke:#1f77b4;" x="121.068417" xlink:href="#m3b061d945c" y="315.039808"/>
     <use style="fill:#1f77b4;stroke:#1f77b4;" x="121.989157" xlink:href="#m3b061d945c" y="313.695774"/>
     <use style="fill:#1f77b4;stroke:#1f77b4;" x="122.921471" xlink:href="#m3b061d945c" y="312.351741"/>
     <use style="fill:#1f77b4;stroke:#1f77b4;" x="123.865459" xlink:href="#m3b061d945c" y="311.007707"/>
     <use style="fill:#1f77b4;stroke:#1f77b4;" x="124.821223" xlink:href="#m3b061d945c" y="309.663674"/>
     <use style="fill:#1f77b4;stroke:#1f77b4;" x="125.788863" xlink:href="#m3b061d945c" y="308.31964"/>
     <use style="fill:#1f77b4;stroke:#1f77b4;" x="126.768481" xlink:href="#m3b061d945c" y="306.975606"/>
     <use style="fill:#1f77b4;stroke:#1f77b4;" x="127.760177" xlink:href="#m3b061d945c" y="305.631573"/>
     <use style="fill:#1f77b4;stroke:#1f77b4;" x="128.764057" xlink:href="#m3b061d945c" y="304.287539"/>
     <use style="fill:#1f77b4;stroke:#1f77b4;" x="129.780223" xlink:href="#m3b061d945c" y="302.943506"/>
     <use style="fill:#1f77b4;stroke:#1f77b4;" x="130.808783" xlink:href="#m3b061d945c" y="301.599472"/>
     <use style="fill:#1f77b4;stroke:#1f77b4;" x="131.849843" xlink:href="#m3b061d945c" y="300.255438"/>
     <use style="fill:#1f77b4;stroke:#1f77b4;" x="132.903513" xlink:href="#m3b061d945c" y="298.911405"/>
     <use style="fill:#1f77b4;stroke:#1f77b4;" x="133.969906" xlink:href="#m3b061d945c" y="297.567371"/>
     <use style="fill:#1f77b4;stroke:#1f77b4;" x="135.049137" xlink:href="#m3b061d945c" y="296.223338"/>
     <use style="fill:#1f77b4;stroke:#1f77b4;" x="136.141323" xlink:href="#m3b061d945c" y="294.879304"/>
     <use style="fill:#1f77b4;stroke:#1f77b4;" x="137.246586" xlink:href="#m3b061d945c" y="293.53527"/>
     <use style="fill:#1f77b4;stroke:#1f77b4;" x="138.36505" xlink:href="#m3b061d945c" y="292.191237"/>
     <use style="fill:#1f77b4;stroke:#1f77b4;" x="139.496844" xlink:href="#m3b061d945c" y="290.847203"/>
     <use style="fill:#1f77b4;stroke:#1f77b4;" x="140.642102" xlink:href="#m3b061d945c" y="289.50317"/>
     <use style="fill:#1f77b4;stroke:#1f77b4;" x="141.80096" xlink:href="#m3b061d945c" y="288.159136"/>
     <use style="fill:#1f77b4;stroke:#1f77b4;" x="142.973563" xlink:href="#m3b061d945c" y="286.815102"/>
     <use style="fill:#1f77b4;stroke:#1f77b4;" x="144.160058" xlink:href="#m3b061d945c" y="285.471069"/>
     <use style="fill:#1f77b4;stroke:#1f77b4;" x="145.3606" xlink:href="#m3b061d945c" y="284.127035"/>
     <use style="fill:#1f77b4;stroke:#1f77b4;" x="146.57535" xlink:href="#m3b061d945c" y="282.783002"/>
     <use style="fill:#1f77b4;stroke:#1f77b4;" x="147.804475" xlink:href="#m3b061d945c" y="281.438968"/>
     <use style="fill:#1f77b4;stroke:#1f77b4;" x="149.048151" xlink:href="#m3b061d945c" y="280.094934"/>
     <use style="fill:#1f77b4;stroke:#1f77b4;" x="150.306563" xlink:href="#m3b061d945c" y="278.750899"/>
     <use style="fill:#1f77b4;stroke:#1f77b4;" x="151.579896" xlink:href="#m3b061d945c" y="277.406867"/>
     <use style="fill:#1f77b4;stroke:#1f77b4;" x="152.868358" xlink:href="#m3b061d945c" y="276.062834"/>
     <use style="fill:#1f77b4;stroke:#1f77b4;" x="154.172156" xlink:href="#m3b061d945c" y="274.7188"/>
     <use style="fill:#1f77b4;stroke:#1f77b4;" x="155.491511" xlink:href="#m3b061d945c" y="273.374766"/>
     <use style="fill:#1f77b4;stroke:#1f77b4;" x="156.826658" xlink:href="#m3b061d945c" y="272.030733"/>
     <use style="fill:#1f77b4;stroke:#1f77b4;" x="158.177839" xlink:href="#m3b061d945c" y="270.686699"/>
     <use style="fill:#1f77b4;stroke:#1f77b4;" x="159.545313" xlink:href="#m3b061d945c" y="269.342666"/>
     <use style="fill:#1f77b4;stroke:#1f77b4;" x="160.929352" xlink:href="#m3b061d945c" y="267.998632"/>
     <use style="fill:#1f77b4;stroke:#1f77b4;" x="162.330244" xlink:href="#m3b061d945c" y="266.654598"/>
     <use style="fill:#1f77b4;stroke:#1f77b4;" x="163.748291" xlink:href="#m3b061d945c" y="265.310565"/>
     <use style="fill:#1f77b4;stroke:#1f77b4;" x="165.183817" xlink:href="#m3b061d945c" y="263.966531"/>
     <use style="fill:#1f77b4;stroke:#1f77b4;" x="166.637162" xlink:href="#m3b061d945c" y="262.622498"/>
     <use style="fill:#1f77b4;stroke:#1f77b4;" x="168.108689" xlink:href="#m3b061d945c" y="261.278464"/>
     <use style="fill:#1f77b4;stroke:#1f77b4;" x="169.598785" xlink:href="#m3b061d945c" y="259.93443"/>
     <use style="fill:#1f77b4;stroke:#1f77b4;" x="171.107861" xlink:href="#m3b061d945c" y="258.590397"/>
     <use style="fill:#1f77b4;stroke:#1f77b4;" x="172.636357" xlink:href="#m3b061d945c" y="257.246363"/>
     <use style="fill:#1f77b4;stroke:#1f77b4;" x="174.184744" xlink:href="#m3b061d945c" y="255.90233"/>
     <use style="fill:#1f77b4;stroke:#1f77b4;" x="175.753527" xlink:href="#m3b061d945c" y="254.558296"/>
     <use style="fill:#1f77b4;stroke:#1f77b4;" x="177.343249" xlink:href="#m3b061d945c" y="253.214262"/>
     <use style="fill:#1f77b4;stroke:#1f77b4;" x="178.954497" xlink:href="#m3b061d945c" y="251.870229"/>
     <use style="fill:#1f77b4;stroke:#1f77b4;" x="180.587906" xlink:href="#m3b061d945c" y="250.526195"/>
     <use style="fill:#1f77b4;stroke:#1f77b4;" x="182.244162" xlink:href="#m3b061d945c" y="249.182162"/>
     <use style="fill:#1f77b4;stroke:#1f77b4;" x="183.924014" xlink:href="#m3b061d945c" y="247.838128"/>
     <use style="fill:#1f77b4;stroke:#1f77b4;" x="185.628282" xlink:href="#m3b061d945c" y="246.494094"/>
     <use style="fill:#1f77b4;stroke:#1f77b4;" x="187.357861" xlink:href="#m3b061d945c" y="245.150061"/>
     <use style="fill:#1f77b4;stroke:#1f77b4;" x="189.113741" xlink:href="#m3b061d945c" y="243.806027"/>
     <use style="fill:#1f77b4;stroke:#1f77b4;" x="190.897013" xlink:href="#m3b061d945c" y="242.461994"/>
     <use style="fill:#1f77b4;stroke:#1f77b4;" x="192.708893" xlink:href="#m3b061d945c" y="241.11796"/>
     <use style="fill:#1f77b4;stroke:#1f77b4;" x="194.550736" xlink:href="#m3b061d945c" y="239.773926"/>
     <use style="fill:#1f77b4;stroke:#1f77b4;" x="196.424062" xlink:href="#m3b061d945c" y="238.429893"/>
     <use style="fill:#1f77b4;stroke:#1f77b4;" x="198.330586" xlink:href="#m3b061d945c" y="237.085859"/>
     <use style="fill:#1f77b4;stroke:#1f77b4;" x="200.272246" xlink:href="#m3b061d945c" y="235.741826"/>
     <use style="fill:#1f77b4;stroke:#1f77b4;" x="202.251243" xlink:href="#m3b061d945c" y="234.397792"/>
     <use style="fill:#1f77b4;stroke:#1f77b4;" x="204.270065" xlink:href="#m3b061d945c" y="233.053758"/>
     <use style="fill:#1f77b4;stroke:#1f77b4;" x="206.331506" xlink:href="#m3b061d945c" y="231.709725"/>
     <use style="fill:#1f77b4;stroke:#1f77b4;" x="208.438607" xlink:href="#m3b061d945c" y="230.365691"/>
     <use style="fill:#1f77b4;stroke:#1f77b4;" x="210.594386" xlink:href="#m3b061d945c" y="229.021658"/>
     <use style="fill:#1f77b4;stroke:#1f77b4;" x="212.800887" xlink:href="#m3b061d945c" y="227.677624"/>
     <use style="fill:#1f77b4;stroke:#1f77b4;" x="215.055417" xlink:href="#m3b061d945c" y="226.33359"/>
     <use style="fill:#1f77b4;stroke:#1f77b4;" x="217.326792" xlink:href="#m3b061d945c" y="224.989557"/>
     <use style="fill:#1f77b4;stroke:#1f77b4;" x="219.52959" xlink:href="#m3b061d945c" y="223.645523"/>
     <use style="fill:#1f77b4;stroke:#1f77b4;" x="221.881631" xlink:href="#m3b061d945c" y="222.30149"/>
     <use style="fill:#1f77b4;stroke:#1f77b4;" x="224.358121" xlink:href="#m3b061d945c" y="220.957456"/>
     <use style="fill:#1f77b4;stroke:#1f77b4;" x="226.93316" xlink:href="#m3b061d945c" y="219.613422"/>
     <use style="fill:#1f77b4;stroke:#1f77b4;" x="229.587815" xlink:href="#m3b061d945c" y="218.269389"/>
     <use style="fill:#1f77b4;stroke:#1f77b4;" x="232.309298" xlink:href="#m3b061d945c" y="216.925355"/>
     <use style="fill:#1f77b4;stroke:#1f77b4;" x="235.090162" xlink:href="#m3b061d945c" y="215.581322"/>
     <use style="fill:#1f77b4;stroke:#1f77b4;" x="237.927411" xlink:href="#m3b061d945c" y="214.237288"/>
     <use style="fill:#1f77b4;stroke:#1f77b4;" x="240.821669" xlink:href="#m3b061d945c" y="212.893254"/>
     <use style="fill:#1f77b4;stroke:#1f77b4;" x="243.776525" xlink:href="#m3b061d945c" y="211.549221"/>
     <use style="fill:#1f77b4;stroke:#1f77b4;" x="246.798074" xlink:href="#m3b061d945c" y="210.205187"/>
     <use style="fill:#1f77b4;stroke:#1f77b4;" x="249.894677" xlink:href="#m3b061d945c" y="208.861154"/>
     <use style="fill:#1f77b4;stroke:#1f77b4;" x="253.076921" xlink:href="#m3b061d945c" y="207.51712"/>
     <use style="fill:#1f77b4;stroke:#1f77b4;" x="256.357802" xlink:href="#m3b061d945c" y="206.173086"/>
     <use style="fill:#1f77b4;stroke:#1f77b4;" x="259.753141" xlink:href="#m3b061d945c" y="204.829053"/>
     <use style="fill:#1f77b4;stroke:#1f77b4;" x="263.282309" xlink:href="#m3b061d945c" y="203.485019"/>
     <use style="fill:#1f77b4;stroke:#1f77b4;" x="266.969408" xlink:href="#m3b061d945c" y="202.140986"/>
     <use style="fill:#1f77b4;stroke:#1f77b4;" x="270.847432" xlink:href="#m3b061d945c" y="200.796952"/>
     <use style="fill:#1f77b4;stroke:#1f77b4;" x="274.956801" xlink:href="#m3b061d945c" y="199.452918"/>
     <use style="fill:#1f77b4;stroke:#1f77b4;" x="279.315266" xlink:href="#m3b061d945c" y="198.108885"/>
     <use style="fill:#1f77b4;stroke:#1f77b4;" x="283.938814" xlink:href="#m3b061d945c" y="196.764851"/>
     <use style="fill:#1f77b4;stroke:#1f77b4;" x="288.844577" xlink:href="#m3b061d945c" y="195.420818"/>
     <use style="fill:#1f77b4;stroke:#1f77b4;" x="294.050933" xlink:href="#m3b061d945c" y="194.076784"/>
     <use style="fill:#1f77b4;stroke:#1f77b4;" x="299.577606" xlink:href="#m3b061d945c" y="192.73275"/>
     <use style="fill:#1f77b4;stroke:#1f77b4;" x="305.445798" xlink:href="#m3b061d945c" y="191.388717"/>
     <use style="fill:#1f77b4;stroke:#1f77b4;" x="311.678317" xlink:href="#m3b061d945c" y="190.044683"/>
     <use style="fill:#1f77b4;stroke:#1f77b4;" x="318.299729" xlink:href="#m3b061d945c" y="188.70065"/>
     <use style="fill:#1f77b4;stroke:#1f77b4;" x="325.336533" xlink:href="#m3b061d945c" y="187.356616"/>
     <use style="fill:#1f77b4;stroke:#1f77b4;" x="332.817345" xlink:href="#m3b061d945c" y="186.012582"/>
     <use style="fill:#1f77b4;stroke:#1f77b4;" x="340.773121" xlink:href="#m3b061d945c" y="184.668549"/>
     <use style="fill:#1f77b4;stroke:#1f77b4;" x="349.237402" xlink:href="#m3b061d945c" y="183.324515"/>
     <use style="fill:#1f77b4;stroke:#1f77b4;" x="358.24659" xlink:href="#m3b061d945c" y="181.980482"/>
     <use style="fill:#1f77b4;stroke:#1f77b4;" x="367.840278" xlink:href="#m3b061d945c" y="180.636448"/>
     <use style="fill:#1f77b4;stroke:#1f77b4;" x="378.061613" xlink:href="#m3b061d945c" y="179.292414"/>
     <use style="fill:#1f77b4;stroke:#1f77b4;" x="388.957731" xlink:href="#m3b061d945c" y="177.948381"/>
     <use style="fill:#1f77b4;stroke:#1f77b4;" x="400.580254" xlink:href="#m3b061d945c" y="176.604347"/>
     <use style="fill:#1f77b4;stroke:#1f77b4;" x="412.985878" xlink:href="#m3b061d945c" y="175.260314"/>
     <use style="fill:#1f77b4;stroke:#1f77b4;" x="426.237061" xlink:href="#m3b061d945c" y="173.91628"/>
     <use style="fill:#1f77b4;stroke:#1f77b4;" x="440.402849" xlink:href="#m3b061d945c" y="172.572246"/>
     <use style="fill:#1f77b4;stroke:#1f77b4;" x="455.559859" xlink:href="#m3b061d945c" y="171.228213"/>
     <use style="fill:#1f77b4;stroke:#1f77b4;" x="471.793466" xlink:href="#m3b061d945c" y="169.884179"/>
    </g>
   </g>
   <g id="line2d_118">
    <path clip-path="url(#p23968c8e90)" d="M 65.975284 437.346866 
L 67.00898 433.314765 
L 68.338427 429.282664 
L 69.972274 425.250563 
L 77.069654 409.12216 
L 80.175514 401.057958 
L 90.784657 372.833253 
L 94.111536 364.769051 
L 97.670101 356.70485 
L 101.499715 348.640648 
L 104.923011 341.92048 
L 108.576167 335.200312 
L 112.475225 328.480144 
L 116.634806 321.759976 
L 121.068417 315.039808 
L 125.788863 308.31964 
L 130.808783 301.599472 
L 136.141323 294.879304 
L 141.80096 288.159136 
L 147.804475 281.438968 
L 154.172156 274.7188 
L 159.545313 269.342666 
L 165.183817 263.966531 
L 171.107861 258.590397 
L 177.343249 253.214262 
L 183.924014 247.838128 
L 190.897013 242.461994 
L 198.330586 237.085859 
L 204.270065 233.053758 
L 210.594386 229.021658 
L 219.52959 223.645523 
L 224.358121 220.957456 
L 232.309298 216.925355 
L 240.821669 212.893254 
L 249.894677 208.861154 
L 256.357802 206.173086 
L 263.282309 203.485019 
L 270.847432 200.796952 
L 279.315266 198.108885 
L 288.844577 195.420818 
L 299.577606 192.73275 
L 311.678317 190.044683 
L 325.336533 187.356616 
L 340.773121 184.668549 
L 358.24659 181.980482 
L 378.061613 179.292414 
L 400.580254 176.604347 
L 426.237061 173.91628 
L 455.559859 171.228213 
L 471.793466 169.884179 
L 471.793466 169.884179 
" style="fill:none;stroke:#ff7f0e;stroke-dasharray:5.55,2.4;stroke-dashoffset:0;stroke-width:1.5;"/>
   </g>
   <g id="line2d_119">
    <path clip-path="url(#p23968c8e90)" d="M 65.975284 437.346866 
L 67.00898 433.314765 
L 68.338427 429.282664 
L 69.972274 425.250563 
L 77.069654 409.12216 
L 80.175514 401.057958 
L 90.784657 372.833253 
L 94.111536 364.769051 
L 97.670101 356.70485 
L 101.499715 348.640648 
L 104.923011 341.92048 
L 108.576167 335.200312 
L 112.475225 328.480144 
L 116.634806 321.759976 
L 121.068417 315.039808 
L 125.788863 308.31964 
L 130.808783 301.599472 
L 136.141323 294.879304 
L 141.80096 288.159136 
L 147.804475 281.438968 
L 154.172156 274.7188 
L 159.545313 269.342666 
L 165.183817 263.966531 
L 171.107861 258.590397 
L 177.343249 253.214262 
L 183.924014 247.838128 
L 190.897013 242.461994 
L 198.330586 237.085859 
L 204.270065 233.053758 
L 210.594386 229.021658 
L 219.52959 223.645523 
L 224.358121 220.957456 
L 232.309298 216.925355 
L 240.821669 212.893254 
L 249.894677 208.861154 
L 256.357802 206.173086 
L 263.282309 203.485019 
L 270.847432 200.796952 
L 279.315266 198.108885 
L 288.844577 195.420818 
L 299.577606 192.73275 
L 311.678317 190.044683 
L 325.336533 187.356616 
L 340.773121 184.668549 
L 358.24659 181.980482 
L 378.061613 179.292414 
L 400.580254 176.604347 
L 426.237061 173.91628 
L 455.559859 171.228213 
L 471.793466 169.884179 
L 471.793466 169.884179 
" style="fill:none;stroke:#2ca02c;stroke-dasharray:1.5,2.475;stroke-dashoffset:0;stroke-width:1.5;"/>
   </g>
   <g id="patch_9">
    <path d="M 45.684375 450.72 
L 45.684375 156.511045 
" style="fill:none;stroke:#000000;stroke-linecap:square;stroke-linejoin:miter;stroke-width:0.8;"/>
   </g>
   <g id="patch_10">
    <path d="M 492.084375 450.72 
L 492.084375 156.511045 
" style="fill:none;stroke:#000000;stroke-linecap:square;stroke-linejoin:miter;stroke-width:0.8;"/>
   </g>
   <g id="patch_11">
    <path d="M 45.684375 450.72 
L 492.084375 450.72 
" style="fill:none;stroke:#000000;stroke-linecap:square;stroke-linejoin:miter;stroke-width:0.8;"/>
   </g>
   <g id="patch_12">
    <path d="M 45.684375 156.511045 
L 492.084375 156.511045 
" style="fill:none;stroke:#000000;stroke-linecap:square;stroke-linejoin:miter;stroke-width:0.8;"/>
   </g>
   <g id="text_24">
    <!-- (a) -->
    <g transform="translate(47.916375 171.130849)scale(0.12 -0.12)">
     <defs>
      <path d="M 1116 2306 
L 319 2450 
Q 453 2931 781 3162 
Q 1109 3394 1756 3394 
Q 2344 3394 2631 3255 
Q 2919 3116 3036 2902 
Q 3153 2688 3153 2116 
L 3144 1091 
Q 3144 653 3186 445 
Q 3228 238 3344 0 
L 2475 0 
Q 2441 88 2391 259 
Q 2369 338 2359 363 
Q 2134 144 1878 34 
Q 1622 -75 1331 -75 
Q 819 -75 523 203 
Q 228 481 228 906 
Q 228 1188 362 1408 
Q 497 1628 739 1745 
Q 981 1863 1438 1950 
Q 2053 2066 2291 2166 
L 2291 2253 
Q 2291 2506 2166 2614 
Q 2041 2722 1694 2722 
Q 1459 2722 1328 2630 
Q 1197 2538 1116 2306 
z
M 2291 1594 
Q 2122 1538 1756 1459 
Q 1391 1381 1278 1306 
Q 1106 1184 1106 997 
Q 1106 813 1243 678 
Q 1381 544 1594 544 
Q 1831 544 2047 700 
Q 2206 819 2256 991 
Q 2291 1103 2291 1419 
L 2291 1594 
z
" id="Arial-BoldMT-61" transform="scale(0.015625)"/>
     </defs>
     <use xlink:href="#Arial-BoldMT-28"/>
     <use x="33.300781" xlink:href="#Arial-BoldMT-61"/>
     <use x="88.916016" xlink:href="#Arial-BoldMT-29"/>
    </g>
   </g>
   <g id="legend_2">
    <g id="patch_13">
     <path d="M 367.489062 326.333491 
L 485.084375 326.333491 
Q 487.084375 326.333491 487.084375 324.333491 
L 487.084375 282.897554 
Q 487.084375 280.897554 485.084375 280.897554 
L 367.489062 280.897554 
Q 365.489062 280.897554 365.489062 282.897554 
L 365.489062 324.333491 
Q 365.489062 326.333491 367.489062 326.333491 
z
" style="fill:#ffffff;opacity:0.8;stroke:#cccccc;stroke-linejoin:miter;"/>
    </g>
    <g id="line2d_120">
     <path d="M 369.489062 288.555366 
L 389.489062 288.555366 
" style="fill:none;stroke:#1f77b4;stroke-linecap:square;stroke-width:3;"/>
    </g>
    <g id="line2d_121">
     <g>
      <use style="fill:#1f77b4;stroke:#1f77b4;" x="379.489062" xlink:href="#m3b061d945c" y="288.555366"/>
     </g>
    </g>
    <g id="text_25">
     <!-- Forward -->
     <g transform="translate(397.489062 292.055366)scale(0.1 -0.1)">
      <defs>
       <path d="M 525 0 
L 525 4581 
L 3616 4581 
L 3616 4041 
L 1131 4041 
L 1131 2622 
L 3281 2622 
L 3281 2081 
L 1131 2081 
L 1131 0 
L 525 0 
z
" id="ArialMT-46" transform="scale(0.015625)"/>
       <path d="M 2575 0 
L 2575 419 
Q 2259 -75 1647 -75 
Q 1250 -75 917 144 
Q 584 363 401 755 
Q 219 1147 219 1656 
Q 219 2153 384 2558 
Q 550 2963 881 3178 
Q 1213 3394 1622 3394 
Q 1922 3394 2156 3267 
Q 2391 3141 2538 2938 
L 2538 4581 
L 3097 4581 
L 3097 0 
L 2575 0 
z
M 797 1656 
Q 797 1019 1065 703 
Q 1334 388 1700 388 
Q 2069 388 2326 689 
Q 2584 991 2584 1609 
Q 2584 2291 2321 2609 
Q 2059 2928 1675 2928 
Q 1300 2928 1048 2622 
Q 797 2316 797 1656 
z
" id="ArialMT-64" transform="scale(0.015625)"/>
      </defs>
      <use xlink:href="#ArialMT-46"/>
      <use x="61.083984" xlink:href="#ArialMT-6f"/>
      <use x="116.699219" xlink:href="#ArialMT-72"/>
      <use x="150" xlink:href="#ArialMT-77"/>
      <use x="222.216797" xlink:href="#ArialMT-61"/>
      <use x="277.832031" xlink:href="#ArialMT-72"/>
      <use x="311.132812" xlink:href="#ArialMT-64"/>
     </g>
    </g>
    <g id="line2d_122">
     <path d="M 369.489062 302.700679 
L 389.489062 302.700679 
" style="fill:none;stroke:#ff7f0e;stroke-dasharray:5.55,2.4;stroke-dashoffset:0;stroke-width:1.5;"/>
    </g>
    <g id="line2d_123"/>
    <g id="text_26">
     <!-- Inversion: bisection -->
     <g transform="translate(397.489062 306.200679)scale(0.1 -0.1)">
      <defs>
       <path d="M 597 0 
L 597 4581 
L 1203 4581 
L 1203 0 
L 597 0 
z
" id="ArialMT-49" transform="scale(0.015625)"/>
       <path d="M 1344 0 
L 81 3319 
L 675 3319 
L 1388 1331 
Q 1503 1009 1600 663 
Q 1675 925 1809 1294 
L 2547 3319 
L 3125 3319 
L 1869 0 
L 1344 0 
z
" id="ArialMT-76" transform="scale(0.015625)"/>
       <path d="M 578 2678 
L 578 3319 
L 1219 3319 
L 1219 2678 
L 578 2678 
z
M 578 0 
L 578 641 
L 1219 641 
L 1219 0 
L 578 0 
z
" id="ArialMT-3a" transform="scale(0.015625)"/>
       <path d="M 941 0 
L 419 0 
L 419 4581 
L 981 4581 
L 981 2947 
Q 1338 3394 1891 3394 
Q 2197 3394 2470 3270 
Q 2744 3147 2920 2923 
Q 3097 2700 3197 2384 
Q 3297 2069 3297 1709 
Q 3297 856 2875 390 
Q 2453 -75 1863 -75 
Q 1275 -75 941 416 
L 941 0 
z
M 934 1684 
Q 934 1088 1097 822 
Q 1363 388 1816 388 
Q 2184 388 2453 708 
Q 2722 1028 2722 1663 
Q 2722 2313 2464 2622 
Q 2206 2931 1841 2931 
Q 1472 2931 1203 2611 
Q 934 2291 934 1684 
z
" id="ArialMT-62" transform="scale(0.015625)"/>
      </defs>
      <use xlink:href="#ArialMT-49"/>
      <use x="27.783203" xlink:href="#ArialMT-6e"/>
      <use x="83.398438" xlink:href="#ArialMT-76"/>
      <use x="133.398438" xlink:href="#ArialMT-65"/>
      <use x="189.013672" xlink:href="#ArialMT-72"/>
      <use x="222.314453" xlink:href="#ArialMT-73"/>
      <use x="272.314453" xlink:href="#ArialMT-69"/>
      <use x="294.53125" xlink:href="#ArialMT-6f"/>
      <use x="350.146484" xlink:href="#ArialMT-6e"/>
      <use x="405.761719" xlink:href="#ArialMT-3a"/>
      <use x="433.544922" xlink:href="#ArialMT-20"/>
      <use x="461.328125" xlink:href="#ArialMT-62"/>
      <use x="516.943359" xlink:href="#ArialMT-69"/>
      <use x="539.160156" xlink:href="#ArialMT-73"/>
      <use x="589.160156" xlink:href="#ArialMT-65"/>
      <use x="644.775391" xlink:href="#ArialMT-63"/>
      <use x="694.775391" xlink:href="#ArialMT-74"/>
      <use x="722.558594" xlink:href="#ArialMT-69"/>
      <use x="744.775391" xlink:href="#ArialMT-6f"/>
      <use x="800.390625" xlink:href="#ArialMT-6e"/>
     </g>
    </g>
    <g id="line2d_124">
     <path d="M 369.489062 316.845991 
L 389.489062 316.845991 
" style="fill:none;stroke:#2ca02c;stroke-dasharray:1.5,2.475;stroke-dashoffset:0;stroke-width:1.5;"/>
    </g>
    <g id="line2d_125"/>
    <g id="text_27">
     <!-- Inversion: Newton -->
     <g transform="translate(397.489062 320.345991)scale(0.1 -0.1)">
      <use xlink:href="#ArialMT-49"/>
      <use x="27.783203" xlink:href="#ArialMT-6e"/>
      <use x="83.398438" xlink:href="#ArialMT-76"/>
      <use x="133.398438" xlink:href="#ArialMT-65"/>
      <use x="189.013672" xlink:href="#ArialMT-72"/>
      <use x="222.314453" xlink:href="#ArialMT-73"/>
      <use x="272.314453" xlink:href="#ArialMT-69"/>
      <use x="294.53125" xlink:href="#ArialMT-6f"/>
      <use x="350.146484" xlink:href="#ArialMT-6e"/>
      <use x="405.761719" xlink:href="#ArialMT-3a"/>
      <use x="433.544922" xlink:href="#ArialMT-20"/>
      <use x="461.328125" xlink:href="#ArialMT-4e"/>
      <use x="533.544922" xlink:href="#ArialMT-65"/>
      <use x="589.160156" xlink:href="#ArialMT-77"/>
      <use x="661.376953" xlink:href="#ArialMT-74"/>
      <use x="689.160156" xlink:href="#ArialMT-6f"/>
      <use x="744.775391" xlink:href="#ArialMT-6e"/>
     </g>
    </g>
   </g>
  </g>
 </g>
 <defs>
  <clipPath id="pd5386cb31b">
   <rect height="147.104478" width="446.4" x="45.684375" y="7.2"/>
  </clipPath>
  <clipPath id="p23968c8e90">
   <rect height="294.208955" width="446.4" x="45.684375" y="156.511045"/>
  </clipPath>
 </defs>
</svg>
